<svg width="94" height="94" viewBox="0 0 94 94" fill="none" xmlns="http://www.w3.org/2000/svg">
    <path d="M50.9283 23.6466C51.7921 23.452 52.4163 22.9566 53.0611 22.3776C53.3927 22.0927 53.7016 21.7825 53.9851 21.4498C54.44 21.0121 54.8083 20.4926 55.0708 19.9186C55.6762 18.5875 55.742 17.0581 55.476 15.6369C54.9562 12.8582 53.2294 9.84364 50.2045 9.33886C47.2397 8.84348 44.5146 10.8203 43.7185 13.6441C43.2804 15.2054 43.5558 16.7686 44.0728 18.2754C44.5992 19.8114 45.3663 21.3596 46.6231 22.4293C47.7811 23.4116 49.4196 23.9869 50.9283 23.6466ZM47.7238 21.7055C46.7011 20.9422 46.0318 19.8011 45.5618 18.6373C45.0608 17.4031 44.6218 16.0486 44.7976 14.7025C45.1059 12.3215 47.0912 10.3982 49.5577 10.5411C52.0732 10.6859 53.5405 13.065 54.1468 15.2637C54.4927 16.5205 54.6168 17.9135 54.2089 19.1694C53.9914 19.7981 53.6653 20.3839 53.2454 20.8999C52.624 21.4263 52.0365 21.9884 51.2347 22.3099C50.0484 22.7733 48.7183 22.4481 47.7238 21.7055Z" fill="#7D887A"/>
    <path d="M86.6389 83.6518C86.7274 83.5614 86.7767 83.4398 86.7761 83.3134C86.8099 80.3054 85.3464 77.6188 83.645 75.2294C81.7574 72.5795 79.6791 70.0537 77.6854 67.4828C73.696 62.3448 69.8072 57.0874 65.4155 52.2802C63.8495 50.5656 62.1951 48.9188 60.3912 47.4542C60.4077 47.36 60.4009 47.2632 60.3715 47.1722C59.2933 43.7469 58.2574 40.3102 57.3033 36.8445C56.8333 35.1468 56.4122 33.4332 56.3887 31.6622C56.368 30.0304 56.6707 28.4136 56.9828 26.8194C57.6286 23.5491 58.5808 20.2253 58.7838 16.8883C58.9718 13.744 57.9905 11.0762 55.6621 8.93304C53.5245 6.96468 50.9621 5.39864 47.9438 5.8724C45.0194 6.33206 42.7239 8.2882 41.1682 10.7209C40.7565 11.3648 40.3692 12.0369 39.8334 12.5906C39.3634 13.0728 38.7722 13.4234 38.3849 13.9827C37.7109 14.9594 37.9412 16.1927 38.6876 17.0603C39.6567 18.1883 41.4747 18.2917 42.0659 19.6998C42.6704 21.1389 43.3547 22.4258 44.3774 23.6215C45.5195 24.9582 46.8477 26.1134 48.2013 27.2273C48.8678 27.7763 49.6113 28.3158 50.0888 29.05C50.6669 29.9411 50.8239 31.0559 51.0288 32.0787C51.7451 35.6507 52.1935 39.2725 52.5422 42.8999C52.1531 42.7433 51.7614 42.5913 51.3672 42.444C48.6262 41.4326 45.8278 40.581 43.1639 39.3693C42.0556 38.8655 40.9972 38.2977 40.1483 37.4066C38.9639 36.1648 38.5137 34.6167 38.4253 32.935C38.2749 30.0802 38.6942 27.3476 37.3725 24.6865C36.3742 22.6758 34.5892 20.9744 32.7665 19.7045C30.7129 18.2621 28.363 17.2964 25.8885 16.8779C24.4785 16.6476 23.0563 16.6645 21.6332 16.642C20.0558 16.6166 18.4983 16.406 16.9285 16.2707C14.053 16.0216 10.9848 16.2387 8.3848 17.6177C7.54914 18.0614 6.75954 19.1743 7.54726 20.0617C8.28892 20.8927 9.9969 20.6257 10.9736 20.543C12.4193 20.4189 13.88 20.1736 15.3079 20.5665C16.5449 20.9068 18.6994 21.7697 18.9006 23.2248C18.9946 23.9223 18.7878 24.648 18.7417 25.3445C18.6949 26.0098 18.7265 26.6784 18.8357 27.3364C19.0621 28.6261 19.5282 29.8619 20.21 30.9798C21.6059 33.2978 23.8422 34.988 26.2758 36.1028C28.7696 37.2458 31.5022 37.5128 34.028 38.5195C35.4615 39.0911 36.5077 40.0235 37.5342 41.1515C38.1508 41.8302 38.7186 42.4675 39.4932 42.9639C41.2265 44.0674 43.0943 44.9604 44.8944 45.9465C45.6464 46.3573 46.4228 46.7586 47.1504 47.2221C47.8479 47.9233 48.8424 48.4788 49.5803 49.0137C49.7683 49.1491 49.9563 49.2788 50.1443 49.4085C51.8419 50.8561 53.4634 52.409 55.0643 53.96C55.0523 54.0759 55.0752 54.1927 55.1301 54.2956C60.5144 64.6224 67.5202 74.0356 74.3164 83.4628C75.1925 84.6782 76.0084 85.9783 76.9822 87.1204C77.7935 88.0735 78.9045 88.5698 80.072 87.9194C80.1318 87.8864 80.1802 87.8363 80.2111 87.7755C80.2553 87.7326 80.2872 87.6788 80.3037 87.6195C80.3202 87.5602 80.3207 87.4976 80.3051 87.4381C79.9038 85.8401 79.0126 84.2656 78.317 82.7757C77.565 81.1689 76.813 79.564 76.061 77.961C74.9471 75.5856 73.8821 73.183 72.771 70.8029C73.8708 71.8488 74.9713 72.8947 76.0723 73.9406C79.4018 77.1131 82.6692 80.3542 85.666 83.8463C85.9884 84.2186 86.5373 83.9996 86.6389 83.6518ZM52.6165 34.0461C52.3589 32.5346 52.1662 30.9112 51.6408 29.4636C51.1595 28.1372 50.1622 27.2593 49.1028 26.386C46.6588 24.3754 44.4028 22.2886 43.2212 19.2862C42.708 17.9834 41.8112 17.6412 40.6465 17.0199C40.1831 16.7726 39.6689 16.4427 39.3992 15.9689C39.4725 15.8167 39.4885 15.6493 39.559 15.4933C39.6802 15.2273 39.8748 15.091 40.1098 14.9406C40.5046 14.6877 40.7443 14.3343 40.9953 13.9451C41.0037 13.9295 41.0065 13.9113 41.003 13.8939C40.9995 13.8765 40.99 13.8608 40.9761 13.8496C40.9623 13.8385 40.9449 13.8325 40.9271 13.8328C40.9094 13.833 40.8922 13.8395 40.8787 13.8511C40.6547 14.1191 40.3958 14.3559 40.1089 14.5552C39.8804 14.7018 39.6389 14.7836 39.4509 14.9895C39.3546 15.0951 39.2742 15.2142 39.2121 15.3429C39.1933 14.6783 39.7864 14.2769 40.279 13.8492C41.3403 12.9271 41.9212 11.6872 42.7503 10.5762C43.6245 9.40022 44.744 8.36622 46.0703 7.7289C47.3967 7.09158 48.9223 6.84342 50.3661 7.15644C51.8269 7.47228 53.078 8.37844 54.2107 9.30998C55.3895 10.2829 56.4827 11.409 57.0571 12.851C57.6314 14.2929 57.7038 15.8806 57.5656 17.4128C57.2836 20.6088 56.4019 23.7597 55.7561 26.8936C55.4262 28.4916 55.1479 30.1159 55.1517 31.7553C55.1517 33.4229 55.5343 35.0594 55.9657 36.6602C56.8362 39.8929 57.8091 43.1002 58.8543 46.2811C58.624 46.1166 58.3928 45.954 58.1587 45.798C58.1268 45.6523 58.0647 45.5066 58.0271 45.3674C57.9331 45.0497 57.8044 44.7461 57.7019 44.4321C57.6699 44.3316 57.5252 44.388 57.5506 44.4867C57.6323 44.8091 57.6831 45.1381 57.7677 45.4596C57.7771 45.4953 57.7856 45.5301 57.794 45.5658C57.6389 45.4671 57.4857 45.3674 57.3297 45.2725C57.2911 45.0789 57.2253 44.888 57.167 44.6935C56.9866 44.0947 56.8117 43.4903 56.666 42.883C56.6444 42.7937 56.4987 42.8266 56.509 42.9159C56.603 43.6679 56.8258 44.3663 57.0101 45.0779C56.8521 44.9839 56.6933 44.8899 56.5335 44.8025C56.4094 43.6745 56.0635 42.4892 55.7815 41.4025C55.7561 41.3085 55.6057 41.3424 55.6123 41.4382C55.6875 42.507 55.9422 43.5382 56.1443 44.5835C56.0127 44.512 55.8792 44.4425 55.7467 44.3729C55.4252 42.5991 54.7794 40.8357 54.7447 39.0281C54.7447 38.9491 54.6112 38.9397 54.6046 39.0206C54.4768 40.6985 54.9082 42.4986 55.3312 44.153C55.1432 44.059 54.9552 43.965 54.7672 43.8757C54.724 42.8313 54.3912 41.755 54.2502 40.7257C54.0791 39.4661 53.9786 38.1934 53.7642 36.9413C53.7631 36.9256 53.7558 36.911 53.7439 36.9006C53.732 36.8903 53.7165 36.8852 53.7008 36.8863C53.6851 36.8874 53.6705 36.8947 53.6602 36.9066C53.6498 36.9185 53.6447 36.934 53.6458 36.9497C53.6966 38.2582 53.8197 39.5902 53.9729 40.8912C54.0782 41.7851 54.1534 42.7909 54.3875 43.6914C54.1261 43.5692 53.8629 43.4527 53.5988 43.337C53.4862 40.2211 53.158 37.1167 52.6165 34.0461ZM75.1897 78.4423C75.9291 79.9952 76.6683 81.548 77.4071 83.1009C78.0501 84.4592 78.6291 85.9736 79.4309 87.2661C78.1948 87.5556 77.2078 85.59 76.6109 84.7628C75.8683 83.7288 75.1239 82.6948 74.3775 81.6608C72.7945 79.4675 71.2169 77.2679 69.6446 75.062C66.4486 70.5585 63.3175 66.008 60.4157 61.3098C59.3898 59.6498 58.4 57.9685 57.4462 56.2658C57.6342 56.4444 57.8222 56.623 58.0102 56.7997L59.8611 58.5519C60.1149 59.0914 60.4909 59.6037 60.7785 60.0972C61.2429 60.8969 61.7129 61.6924 62.1885 62.4839C63.1464 64.0659 64.0845 65.6564 65.0941 67.2055C65.1664 67.3155 65.3206 67.1999 65.2586 67.0899C64.3552 65.4731 63.3964 63.8883 62.479 62.279C62.0478 61.5232 61.6136 60.7684 61.1761 60.0145C61.0953 59.8745 61.0163 59.725 60.9374 59.5737L61.2974 59.9149C61.946 60.962 62.7224 61.9613 63.3654 62.9859C64.3054 64.4786 65.2586 65.9694 66.1422 67.4979C66.2023 67.6013 66.3471 67.4979 66.2935 67.3916C65.4635 65.8218 64.6306 64.2652 63.6897 62.7593C63.4171 62.3222 63.1454 61.8635 62.8663 61.4038L63.5515 62.0534C63.8476 62.4999 64.1456 62.9445 64.421 63.3929C65.2275 64.7089 66.0547 66.0164 66.8265 67.354C66.896 67.4744 67.0662 67.354 67.0013 67.23C66.286 65.914 65.5866 64.598 64.8102 63.3205L64.7077 63.1475L65.2426 63.6542C65.9166 64.9824 66.9524 66.1866 67.7101 67.4396C67.7665 67.5336 67.9263 67.4509 67.8812 67.3512C67.4667 66.4602 66.9839 65.6026 66.4373 64.786C66.7738 65.1049 67.1101 65.4239 67.4459 65.7429C67.8219 66.5203 68.2487 67.2807 68.6303 68.0459C68.7037 68.1935 68.9387 68.1201 68.8776 67.9566C68.7065 67.496 68.51 67.0166 68.2872 66.5419L70.7764 68.9022C72.098 72.1424 73.6857 75.2867 75.1897 78.4423ZM68.917 65.726L62.2365 59.4204C63.7094 59.0867 65.2266 59.1582 66.63 59.7682C67.946 60.3388 68.8456 61.3456 69.7499 62.4181C70.7557 63.6088 71.7637 64.7994 72.7739 65.9901C75.6409 69.3672 78.5079 72.7437 81.3749 76.1195C82.4681 77.4083 83.5472 78.7149 84.7119 79.9388C84.7955 80.0271 84.9337 79.8927 84.866 79.7978C82.61 76.6243 79.8991 73.7282 77.3817 70.7662C74.8644 67.8043 72.3424 64.8367 69.826 61.8682C68.7873 60.6462 67.6715 59.6338 66.1121 59.1422C64.7637 58.704 63.3095 58.7146 61.9676 59.1723L61.5841 58.8104C61.9601 58.7342 62.3361 58.6224 62.7243 58.5669C63.3728 58.4683 64.0308 58.4475 64.6842 58.5049C65.9062 58.6233 67.0916 59.0397 68.0278 59.8547C68.0955 59.9139 68.1791 59.8105 68.1162 59.7485C67.2095 58.8473 66.0208 58.2848 64.7491 58.1552C63.6897 58.0405 62.291 58.0518 61.2617 58.5058L59.5076 56.8505C56.9978 54.4817 54.5256 52.0565 51.9397 49.7685C51.403 49.2233 50.8888 48.6537 50.3116 48.1517C49.6912 47.614 48.9016 46.894 48.0688 46.4531C46.4858 45.3825 44.8079 44.4838 43.1225 43.5824C41.5433 42.7364 39.9726 41.9994 38.7543 40.6637C37.866 39.6898 36.9984 38.7235 35.8554 38.0411C34.8261 37.4273 33.6689 37.0635 32.5155 36.7608C29.9381 36.0849 27.4001 35.5059 25.0942 34.0997C22.717 32.6502 20.7702 30.3876 20.1348 27.6296C19.8237 26.2723 20.1085 25.0409 20.1395 23.6816C20.1677 22.4145 19.5501 21.452 18.5171 20.7573C17.499 20.072 16.3193 19.5165 15.1124 19.274C13.8067 19.0117 12.4804 19.1847 11.1644 19.3078C10.5373 19.3794 9.9059 19.4064 9.27498 19.3887C8.9441 19.3736 8.8172 19.4667 8.74294 19.1067C8.66304 18.71 8.69876 18.9365 8.88394 18.7307C9.10672 18.4863 9.70456 18.3631 10.0204 18.2466C11.488 17.7042 13.0367 17.4137 14.601 17.3874C16.0637 17.3601 17.515 17.5594 18.9683 17.7004C20.4215 17.8414 21.8484 17.8471 23.297 17.879C25.9092 17.9364 28.4153 18.5727 30.7051 19.8427C32.7092 20.9538 34.6258 22.5602 35.8836 24.4938C37.4317 26.872 37.1779 29.5566 37.1996 32.2544C37.2212 34.9522 38.0221 37.4367 40.2574 39.1164C42.2314 40.6045 44.8013 41.4035 47.1081 42.2137C49.7354 43.1387 52.4041 43.9894 54.8941 45.2556C57.4321 46.5443 59.6881 48.2965 61.7561 50.2376C66.2164 54.4394 69.9482 59.3979 73.7157 64.2088L79.4403 71.5135C81.341 73.9378 83.4927 76.3404 84.8049 79.1548C85.2792 80.1568 85.5962 81.2259 85.7449 82.3245C80.5627 76.379 74.6463 71.1328 68.917 65.726Z" fill="#7D887A"/>
    <path d="M35.0526 29.1109C34.8966 27.4725 34.2292 25.6508 33.3042 24.2896C32.43 22.999 30.926 21.9481 29.5856 21.1698C28.137 20.3238 26.6368 20.2787 25.035 20.6838C23.4333 21.0889 22.4293 22.1361 21.9781 23.6918C21.5269 25.2475 21.4141 26.901 22.1069 28.3833C22.7239 29.6898 23.5917 30.8623 24.6609 31.8341C25.8538 32.9226 27.3004 33.7338 28.8787 34.0957C29.5952 34.2695 30.3341 34.3329 31.0698 34.2837C31.5794 34.3299 32.0928 34.2609 32.5721 34.082C33.0515 33.903 33.4845 33.6186 33.8391 33.2497C34.8909 32.1828 35.1898 30.5566 35.0526 29.1109ZM31.7739 33.2469C29.9644 33.5336 28.0975 33.0119 26.5099 31.9807C24.6571 30.7775 22.5619 28.4501 22.7085 26.0935C22.779 24.974 22.9727 23.5715 23.72 22.6869C24.5876 21.6586 26.57 21.3192 27.8343 21.6172C29.0563 21.9049 30.1336 22.795 31.0971 23.5574C32.3191 24.5237 32.9348 25.7034 33.464 27.1435C33.9603 28.4971 34.2442 30.0471 33.7037 31.4365C33.3446 32.3558 32.6283 32.9405 31.772 33.246L31.7739 33.2469Z" fill="#7D887A"/>
    <path d="M63.9097 56.9704C63.5694 56.4684 63.1135 56.0501 62.7036 55.6036C62.691 55.5901 62.6746 55.5806 62.6566 55.5763C62.7065 55.4243 62.7356 55.2662 62.7431 55.1063C62.8052 53.9689 61.8699 53.0148 60.8415 52.7028C59.8639 52.4057 58.7669 52.5759 58.1992 53.4858C57.6314 54.3957 57.8232 55.5538 58.9333 55.9542C58.9616 55.9667 58.9931 55.9696 59.0231 55.9626C59.0532 55.9557 59.0802 55.9392 59.1001 55.9156C59.12 55.892 59.1317 55.8625 59.1335 55.8317C59.1353 55.8009 59.1271 55.7704 59.11 55.7446C58.7256 55.0998 58.17 54.7689 58.5169 53.9501C58.9126 53.0167 60.0143 52.8635 60.8772 53.1803C62.2562 53.686 63.0881 56.0125 61.2344 56.5154C61.2161 56.5225 61.2008 56.5359 61.1915 56.5531C61.1821 56.5704 61.1792 56.5905 61.1833 56.6097C61.1873 56.629 61.1981 56.6461 61.2137 56.6581C61.2293 56.6701 61.2486 56.6762 61.2683 56.6752C61.5037 56.6438 61.7311 56.5682 61.9385 56.4524C62.2816 56.8942 62.6266 57.3746 63.0543 57.7308C63.0651 57.7389 63.0784 57.743 63.092 57.7423C63.1055 57.7417 63.1184 57.7363 63.1284 57.7272C63.1384 57.7181 63.1449 57.7058 63.1468 57.6924C63.1487 57.679 63.1459 57.6653 63.1389 57.6538C62.8569 57.1838 62.4489 56.7701 62.0729 56.3678C62.1557 56.3095 62.2328 56.2434 62.3032 56.1704C62.604 56.5342 62.9151 56.914 63.3005 57.1809C63.3114 57.189 63.3247 57.1931 63.3383 57.1924C63.3518 57.1918 63.3646 57.1864 63.3747 57.1773C63.3847 57.1682 63.3912 57.1559 63.3931 57.1425C63.395 57.1291 63.3922 57.1154 63.3851 57.1038C63.1473 56.6902 62.7779 56.3518 62.4216 56.0285C62.4857 55.943 62.5405 55.851 62.5852 55.754C62.9358 56.2475 63.3212 56.7316 63.8382 57.055C63.889 57.0879 63.9397 57.0136 63.9097 56.9704Z" fill="#7D887A"/>
    <path d="M61.0239 53.7247C60.2888 53.2302 59.0499 53.2829 58.7679 54.2661C58.7199 54.4325 58.9737 54.5481 59.0734 54.4099C59.4729 53.8563 60.0481 53.6711 60.6714 53.9926C61.3237 54.331 61.7994 55.3001 61.069 55.8265C60.9402 55.9205 61.0746 56.0944 61.2081 56.023C62.197 55.4909 61.8012 54.2473 61.0239 53.7247Z" fill="#7D887A"/>
    <path d="M60.1139 54.1843C59.7784 54.1711 59.2773 54.3422 59.189 54.7041C59.1645 54.8038 59.2679 54.8639 59.3516 54.8432C59.5603 54.7925 59.7144 54.6223 59.9278 54.5688C60.2098 54.4983 60.5097 54.5688 60.645 54.8508C60.6541 54.8731 60.6707 54.8916 60.692 54.9029C60.7133 54.9142 60.7379 54.9177 60.7615 54.9126C60.7851 54.9075 60.8062 54.8943 60.821 54.8753C60.8358 54.8562 60.8434 54.8326 60.8424 54.8085C60.8312 54.4061 60.4937 54.1984 60.1139 54.1843Z" fill="#7D887A"/>
    <path d="M68.7939 64.3205C68.0005 63.5346 67.2034 62.7535 66.3809 61.9977C65.6487 61.3247 64.907 60.5482 64.0422 60.0491C64.0271 60.043 64.0104 60.0418 63.9945 60.0458C63.9787 60.0497 63.9645 60.0586 63.954 60.0712C63.9436 60.0837 63.9374 60.0993 63.9363 60.1156C63.9353 60.1319 63.9394 60.1481 63.9482 60.1619C64.5733 60.943 65.4381 61.5719 66.1901 62.2299C67.0305 62.9622 67.8746 63.6888 68.7084 64.4267C68.7732 64.484 68.855 64.3806 68.7939 64.3205Z" fill="#7D887A"/>
    <path d="M65.5368 60.6214C65.9993 61.5859 67.0972 62.0314 67.742 62.8426C67.746 62.8482 67.7511 62.8528 67.757 62.8562C67.7629 62.8596 67.7695 62.8617 67.7762 62.8624C67.783 62.863 67.7899 62.8622 67.7963 62.8601C67.8028 62.8579 67.8087 62.8544 67.8137 62.8497C67.8186 62.8451 67.8226 62.8394 67.8252 62.8331C67.8278 62.8269 67.8291 62.8201 67.8289 62.8133C67.8287 62.8065 67.827 62.7998 67.8241 62.7937C67.8211 62.7875 67.8168 62.7821 67.8116 62.7778C67.1104 62.0183 66.4016 61.2597 65.6618 60.534C65.612 60.4804 65.503 60.5509 65.5368 60.6214Z" fill="#7D887A"/>
    <path d="M66.614 61.0173C66.896 61.4722 67.383 61.8849 67.7919 62.2186C67.8182 62.2412 67.8595 62.2054 67.837 62.1772C67.5164 61.7561 67.1198 61.2523 66.6761 60.9552C66.6679 60.947 66.6567 60.9424 66.6451 60.9424C66.6334 60.9424 66.6223 60.947 66.614 60.9552C66.6058 60.9635 66.6012 60.9746 66.6012 60.9863C66.6012 60.9979 66.6058 61.009 66.614 61.0173Z" fill="#7D887A"/>
    <path d="M67.476 61.2466C67.6321 61.5671 67.9235 61.8783 68.1895 62.1152C68.2421 62.1622 68.3314 62.0851 68.2835 62.0287C68.1575 61.8811 68.0231 61.741 67.9 61.5916C67.7768 61.4421 67.6941 61.3049 67.5719 61.1799C67.5315 61.1376 67.4497 61.194 67.476 61.2466Z" fill="#7D887A"/>
    <path d="M69.2667 73.1179C69.685 74.0852 70.3524 74.9726 70.9456 75.8439C71.6036 76.8093 72.301 77.738 73.0399 78.6433C73.0794 78.6921 73.1574 78.6433 73.1207 78.5869C72.4806 77.6779 71.8433 76.7651 71.2257 75.8411C70.6081 74.9171 70.0826 73.9132 69.3908 73.0568C69.3438 72.9948 69.2329 73.038 69.2667 73.1179Z" fill="#7D887A"/>
    <path d="M68.1171 70.6277C68.8597 71.8093 69.7574 72.9213 70.5432 74.0784C70.5874 74.1433 70.6767 74.0784 70.6372 74.0107C69.9792 72.8104 69.1793 71.515 68.2026 70.5459C68.1547 70.4998 68.0823 70.5722 68.1171 70.6277Z" fill="#7D887A"/>
    <path d="M69.2912 71.328C69.5271 71.8186 69.9031 72.2586 70.1851 72.7257C70.2293 72.7981 70.3346 72.7257 70.2932 72.6496C70.03 72.1881 69.7555 71.6447 69.3617 71.2791C69.3306 71.2518 69.2724 71.2875 69.2912 71.328Z" fill="#7D887A"/>
    <path d="M70.1381 71.9305C70.2229 72.0994 70.3308 72.2557 70.4586 72.3948C70.4618 72.3993 70.4658 72.4031 70.4704 72.406C70.475 72.4089 70.4801 72.4108 70.4855 72.4118C70.4909 72.4127 70.4964 72.4125 70.5017 72.4113C70.507 72.4101 70.512 72.4079 70.5164 72.4047C70.5209 72.4016 70.5247 72.3976 70.5276 72.393C70.5305 72.3884 70.5324 72.3832 70.5334 72.3779C70.5343 72.3725 70.5341 72.367 70.5329 72.3617C70.5317 72.3564 70.5295 72.3514 70.5263 72.3469C70.4377 72.18 70.3264 72.0263 70.1954 71.8901C70.1892 71.8852 70.1816 71.8825 70.1738 71.8823C70.1659 71.8821 70.1582 71.8845 70.1518 71.889C70.1454 71.8935 70.1406 71.9 70.1381 71.9075C70.1356 71.915 70.1356 71.923 70.1381 71.9305Z" fill="#7D887A"/>
    <path d="M73.3435 79.336C74.3286 81.0712 75.5769 82.6918 76.6542 84.3744C76.7002 84.4468 76.8046 84.3744 76.7613 84.2983C75.7612 82.5978 74.7422 80.7601 73.4638 79.2505C73.4517 79.2368 73.4349 79.2281 73.4167 79.2261C73.3985 79.224 73.3803 79.2287 73.3653 79.2393C73.3504 79.2499 73.34 79.2656 73.3359 79.2835C73.3319 79.3013 73.3346 79.32 73.3435 79.336Z" fill="#7D887A"/>
    <path d="M76.1475 82.5442C76.1973 82.6203 76.313 82.5442 76.2631 82.4624C75.8364 81.7922 75.4463 81.0524 74.9415 80.4395C74.9077 80.3981 74.8249 80.431 74.8475 80.4865C75.2 81.2056 75.7142 81.8739 76.1475 82.5442Z" fill="#7D887A"/>
    <path d="M54.614 23.2403C54.6836 23.1623 54.5651 23.0702 54.4937 23.1388C53.5133 24.0788 52.3467 24.9398 50.9612 25.0799C49.8021 25.1965 48.6798 24.8468 47.705 24.2283C47.5349 24.1202 47.3854 24.389 47.5226 24.515C48.4918 25.4023 49.8172 25.7576 51.1181 25.5762C52.7077 25.3534 53.6101 24.3796 54.614 23.2403Z" fill="#7D887A"/>
    <path d="M52.9427 25.3734C52.5203 25.6307 52.0632 25.826 51.5853 25.9534C51.0993 26.0775 50.6171 26.0427 50.1311 26.1358C50.0494 26.1518 49.9977 26.2815 50.0982 26.3172C51.0702 26.6669 52.2978 26.1386 53.047 25.521C53.0598 25.5051 53.0671 25.4854 53.0677 25.465C53.0683 25.4446 53.0623 25.4246 53.0505 25.4079C53.0387 25.3912 53.0218 25.3788 53.0023 25.3726C52.9829 25.3664 52.9619 25.3667 52.9427 25.3734Z" fill="#7D887A"/>
    <path d="M52.5291 26.26C52.3307 26.3267 52.1305 26.3944 51.9275 26.448C51.7228 26.4862 51.523 26.5467 51.3315 26.6284C51.3167 26.6345 51.3043 26.645 51.2959 26.6586C51.2875 26.6722 51.2837 26.6881 51.2849 26.704C51.2862 26.7199 51.2925 26.735 51.3029 26.7471C51.3133 26.7592 51.3273 26.7677 51.3428 26.7713C51.7677 26.8747 52.2649 26.6604 52.6287 26.4527C52.734 26.3887 52.64 26.2261 52.5291 26.26Z" fill="#7D887A"/>
    <path d="M42.0293 14.0265C42.0481 13.0339 42.4053 12.4107 42.8273 11.5534C42.8913 11.4218 42.738 11.3297 42.6299 11.387C41.1391 12.1738 41.5536 15.0267 41.9663 16.2966C41.9926 16.3775 42.1336 16.3737 42.1402 16.2825C42.1975 15.5305 42.018 14.7813 42.0293 14.0265Z" fill="#7D887A"/>
    <path d="M43.146 11.0439C43.5934 10.6792 43.914 10.1763 44.3285 9.77112C44.8485 9.27396 45.4095 8.82147 46.0055 8.41846C46.0544 8.38462 46.013 8.29908 45.9557 8.32446C44.8512 8.77942 43.4045 9.73446 43.0003 10.9226C42.9712 11.0044 43.0605 11.1134 43.146 11.0439Z" fill="#7D887A"/>
    <path d="M43.334 16.6672C43.0351 15.5702 42.6234 14.3962 42.9242 13.2569C43.0548 12.7577 43.1761 12.1909 43.4224 11.7407C43.6686 11.2904 44.0437 10.8806 44.3624 10.4848C44.3681 10.478 44.3724 10.4701 44.3751 10.4615C44.3778 10.453 44.3788 10.444 44.378 10.4351C44.3772 10.4262 44.3747 10.4176 44.3705 10.4096C44.3664 10.4017 44.3608 10.3947 44.3539 10.3889C44.347 10.3832 44.3391 10.3789 44.3306 10.3762C44.3221 10.3735 44.3131 10.3725 44.3042 10.3733C44.2953 10.3741 44.2866 10.3766 44.2787 10.3808C44.2708 10.3849 44.2638 10.3905 44.258 10.3974C43.8463 10.8364 43.3359 11.2584 43.0511 11.7999C42.8132 12.252 42.6751 12.8339 42.5604 13.3217C42.3216 14.3557 42.5453 15.8955 43.2062 16.7349C43.2172 16.7475 43.2321 16.7561 43.2486 16.7592C43.2651 16.7622 43.2821 16.7596 43.2969 16.7518C43.3118 16.7439 43.3235 16.7313 43.3302 16.7159C43.3369 16.7006 43.3383 16.6834 43.334 16.6672Z" fill="#7D887A"/>
    <path d="M40.326 15.5166C40.358 15.3935 40.1512 15.3286 40.1117 15.448C40.0496 15.636 39.9848 15.824 39.9387 16.0223C39.9011 16.1831 39.8607 16.3701 39.9453 16.5205C39.9513 16.5287 39.959 16.5354 39.9679 16.5401C39.9769 16.5449 39.9867 16.5476 39.9968 16.5481C40.0069 16.5485 40.017 16.5467 40.0263 16.5427C40.0356 16.5388 40.0439 16.5328 40.0506 16.5252C40.1643 16.4134 40.1841 16.2235 40.2113 16.0731C40.2405 15.886 40.2734 15.698 40.326 15.5166Z" fill="#7D887A"/>
    <path d="M48.7418 8.51914C48.7171 8.52861 48.6966 8.5466 48.684 8.56987C48.6714 8.59314 48.6675 8.62016 48.673 8.64603C48.6786 8.67191 48.6932 8.69495 48.7143 8.71098C48.7353 8.72702 48.7615 8.73499 48.7879 8.73346C50.5795 8.5558 52.6973 9.48546 53.8479 10.8804C54.9355 12.1964 55.7082 14.1939 56.1124 15.8417C56.1321 15.9207 56.2637 15.8925 56.2524 15.8117C55.9958 13.9241 55.1432 11.5685 53.7577 10.2074C52.6456 9.11792 50.3126 7.8179 48.7418 8.51914Z" fill="#7D887A"/>
    <path d="M48.0857 7.87039C48.9044 8.01515 49.805 7.85347 50.6387 7.89577C50.7092 7.89577 50.7149 7.78015 50.6453 7.77169C49.8407 7.66829 48.8659 7.48969 48.0735 7.72469C48.0581 7.7306 48.045 7.74134 48.0363 7.75531C48.0275 7.76927 48.0235 7.7857 48.0249 7.80212C48.0263 7.81854 48.033 7.83408 48.0439 7.84639C48.0549 7.8587 48.0695 7.86712 48.0857 7.87039Z" fill="#7D887A"/>
    <path d="M58.9606 50.6151C59.3309 51.0466 59.799 51.3972 60.2211 51.775C60.3076 51.8521 60.4157 51.7186 60.3348 51.6387C59.9335 51.2421 59.5302 50.8106 59.0489 50.5107C58.9897 50.4778 58.9154 50.5634 58.9606 50.6151Z" fill="#7D887A"/>
    <path d="M56.5062 49.6319C57.0138 50.0869 57.6342 50.43 58.1681 50.8539C58.7021 51.2779 59.2162 51.7441 59.7567 52.1699C59.8263 52.2254 59.9391 52.1342 59.8771 52.059C59.0508 51.0664 57.8091 49.9731 56.5936 49.4966C56.5761 49.4903 56.5569 49.4901 56.5392 49.4961C56.5215 49.5021 56.5063 49.5138 56.4962 49.5295C56.4861 49.5452 56.4815 49.5639 56.4833 49.5825C56.4852 49.6011 56.4932 49.6185 56.5062 49.6319Z" fill="#7D887A"/>
    <path d="M54.332 48.5982C55.0163 49.2562 55.851 49.7986 56.588 50.402C57.325 51.0055 58.0403 51.6692 58.7942 52.2679C58.8628 52.3225 58.9756 52.2303 58.9126 52.1598C58.265 51.4351 57.5252 50.795 56.7826 50.1689C56.04 49.5429 55.2936 48.8651 54.4476 48.4139C54.332 48.3538 54.2474 48.5164 54.332 48.5982Z" fill="#7D887A"/>
    <path d="M52.499 48.066C53.345 48.9411 54.4053 49.648 55.3369 50.4348C56.2684 51.2215 57.1905 52.0572 58.1277 52.8562C58.2086 52.9248 58.3007 52.8064 58.2311 52.7321C57.3403 51.8003 56.3989 50.9181 55.4111 50.0898C54.5247 49.3322 53.6176 48.4786 52.5911 47.9175C52.499 47.8658 52.4332 47.9983 52.499 48.066Z" fill="#7D887A"/>
    <path d="M57.6164 53.8938C56.4799 52.1548 54.8293 50.9488 53.2491 49.6432C51.8513 48.4879 50.5739 46.6352 48.7653 46.1294C48.6271 46.0909 48.5858 46.2892 48.6929 46.3532C50.3708 47.3467 51.6229 48.7878 53.1307 50.0013C54.6648 51.2365 56.3013 52.3804 57.4387 54.0189C57.4563 54.0397 57.481 54.0532 57.5081 54.0567C57.5351 54.0602 57.5625 54.0534 57.5848 54.0377C57.6071 54.022 57.6227 53.9985 57.6285 53.9719C57.6344 53.9453 57.63 53.9174 57.6164 53.8938Z" fill="#7D887A"/>
    <path d="M36.0293 35.4965C35.1102 35.898 34.113 36.0891 33.1106 36.0558C32.1273 36.0163 31.2494 35.6318 30.2906 35.4607C30.268 35.4563 30.2446 35.4603 30.2247 35.472C30.2049 35.4837 30.1901 35.5022 30.183 35.5241C30.1759 35.546 30.1771 35.5697 30.1864 35.5908C30.1957 35.6119 30.2123 35.6288 30.2332 35.6384C31.1344 36.1241 32.1425 36.3773 33.1662 36.3752C34.1899 36.373 35.1969 36.1156 36.096 35.6262C36.1693 35.5867 36.1054 35.4636 36.0293 35.4965Z" fill="#7D887A"/>
    <path d="M35.5245 36.2278C35.1748 36.2861 34.8439 36.4064 34.4905 36.4468C34.137 36.4872 33.778 36.4308 33.4245 36.4835C33.4061 36.4856 33.3889 36.4935 33.3754 36.5062C33.3618 36.5188 33.3527 36.5354 33.3493 36.5536C33.346 36.5718 33.3485 36.5907 33.3567 36.6073C33.3648 36.6239 33.378 36.6375 33.3944 36.6461C33.9979 36.9713 35.0535 36.7946 35.5781 36.3707C35.6316 36.3265 35.6081 36.2137 35.5245 36.2278Z" fill="#7D887A"/>
    <path d="M39.0908 39.1287C39.1623 39.1597 39.2582 39.0704 39.1971 39.0027C38.8493 38.6117 38.3896 38.3259 37.9873 37.9931C37.5351 37.6171 37.0849 37.2411 36.6421 36.8576C36.582 36.8059 36.4805 36.8924 36.5369 36.9516C37.2381 37.7403 38.1085 38.7085 39.0908 39.1287Z" fill="#7D887A"/>
    <path d="M42.2718 41.9821C41.8084 41.7941 41.3224 41.686 40.8806 41.4378C40.3326 41.1295 39.8466 40.7121 39.3916 40.2835C38.4657 39.4149 37.584 38.5088 36.6421 37.6581C36.6027 37.6224 36.5359 37.6806 36.5726 37.722C37.4994 38.7757 38.4394 39.837 39.4866 40.7751C40.2113 41.4237 41.2087 42.2227 42.2333 42.1851C42.2562 42.1826 42.2778 42.1727 42.2948 42.157C42.3117 42.1413 42.3232 42.1206 42.3275 42.0978C42.3319 42.0751 42.3288 42.0516 42.3187 42.0308C42.3087 42.0099 42.2923 41.9929 42.2718 41.9821Z" fill="#7D887A"/>
    <path d="M29.4117 35.0968C27.5937 34.6644 25.8763 33.8965 24.4231 32.7111C23.7199 32.139 23.092 31.4802 22.5544 30.7503C21.9029 29.8629 21.5307 28.8374 20.9423 27.9228C20.836 27.7583 20.617 27.904 20.6603 28.0703C21.1303 30.0143 22.717 31.8877 24.2605 33.104C25.7353 34.2844 27.5062 35.0365 29.3797 35.2783C29.4014 35.2777 29.4222 35.2696 29.4386 35.2555C29.455 35.2413 29.466 35.222 29.4698 35.2006C29.4735 35.1793 29.4698 35.1573 29.4592 35.1384C29.4486 35.1195 29.4318 35.1048 29.4117 35.0968Z" fill="#7D887A"/>
    <path d="M21.887 20.978C22.6719 20.1442 23.7228 19.5482 24.707 18.9805C24.7793 18.9391 24.7154 18.815 24.6393 18.8498C23.4361 19.3978 22.2075 19.9581 21.3333 20.9911C20.7176 21.7178 20.1019 22.8711 20.4469 23.8375C20.456 23.8611 20.4725 23.8812 20.4939 23.8947C20.5154 23.9083 20.5406 23.9145 20.5659 23.9125C20.5912 23.9105 20.6151 23.9003 20.6341 23.8836C20.6532 23.8669 20.6663 23.8444 20.6715 23.8196C20.9122 22.7029 21.0663 21.8494 21.887 20.978Z" fill="#7D887A"/>
    <path d="M23.2979 20.4571C23.3124 20.4444 23.3217 20.4268 23.324 20.4076C23.3263 20.3885 23.3214 20.3692 23.3103 20.3534C23.2992 20.3377 23.2827 20.3266 23.2639 20.3223C23.2451 20.318 23.2254 20.3208 23.2086 20.3302C22.521 20.7656 21.9295 21.3369 21.4705 22.009C21.181 22.4386 20.8605 22.9687 21.1303 23.4744C21.1449 23.4944 21.165 23.5097 21.1881 23.5185C21.2113 23.5273 21.2365 23.5292 21.2607 23.5239C21.2849 23.5186 21.307 23.5064 21.3244 23.4888C21.3418 23.4712 21.3537 23.4489 21.3587 23.4246C21.4987 22.2205 22.3936 21.2185 23.2979 20.4571Z" fill="#7D887A"/>
    <path d="M23.0009 18.6597C20.9902 18.874 19.0529 18.482 17.0892 18.1051C15.4292 17.7874 13.4843 17.3484 11.8205 17.8485C11.6729 17.8927 11.7265 18.1089 11.875 18.1042C12.8846 18.0713 13.849 18.0017 14.8623 18.1183C15.8437 18.2311 16.8128 18.4313 17.7839 18.6165C19.5125 18.9455 21.2957 19.219 23.0385 18.8355C23.139 18.8129 23.1005 18.6494 23.0009 18.6597Z" fill="#7D887A"/>
    <path d="M21.9152 19.3517C21.3725 19.3996 20.8269 19.4053 20.2833 19.3686C19.8425 19.3404 19.4044 19.2417 18.9626 19.2417C18.942 19.2433 18.9225 19.2517 18.9071 19.2656C18.8917 19.2795 18.8814 19.298 18.8776 19.3184C18.8739 19.3387 18.877 19.3598 18.8864 19.3782C18.8958 19.3966 18.911 19.4114 18.9297 19.4203C19.8312 19.8367 21.0099 19.707 21.9481 19.5049C22.0355 19.4852 22.0016 19.3432 21.9152 19.3517Z" fill="#7D887A"/>
    <path d="M20.6076 18.5247C21.0974 18.6309 21.6698 18.5049 22.1605 18.4495C22.1767 18.4467 22.1913 18.438 22.2014 18.425C22.2115 18.4121 22.2163 18.3958 22.215 18.3794C22.2137 18.363 22.2064 18.3477 22.1944 18.3365C22.1824 18.3253 22.1666 18.319 22.1502 18.3188C21.6548 18.3085 21.0757 18.237 20.5973 18.3884C20.583 18.3939 20.5709 18.4039 20.5627 18.4169C20.5546 18.4298 20.5508 18.4451 20.552 18.4604C20.5531 18.4756 20.5591 18.4901 20.5692 18.5017C20.5792 18.5133 20.5927 18.5213 20.6076 18.5247Z" fill="#7D887A"/>
    <path d="M25.2052 20.1799C25.9402 20.1658 26.6772 20.1592 27.4123 20.1695C28.2583 20.1808 28.9736 20.4402 29.7331 20.8003C31.0491 21.4244 32.07 22.3193 33.2046 23.202C33.3098 23.2837 33.4781 23.1484 33.385 23.0365C32.4582 21.9151 31.0435 21.0625 29.735 20.4609C29.155 20.193 28.5516 19.9364 27.9077 19.8903C27.0109 19.8255 26.0897 19.9909 25.1948 20.0417C25.1777 20.0445 25.1622 20.0537 25.1515 20.0673C25.1407 20.081 25.1355 20.0982 25.1368 20.1155C25.1381 20.1328 25.1458 20.149 25.1585 20.161C25.1711 20.1729 25.1878 20.1796 25.2052 20.1799Z" fill="#7D887A"/>
    <path d="M25.286 19.7812C25.662 19.799 26.0455 19.7455 26.4243 19.7332C26.8032 19.721 27.1829 19.752 27.557 19.705C27.5707 19.7033 27.5832 19.6969 27.5926 19.6868C27.6019 19.6768 27.6074 19.6638 27.608 19.6501C27.6087 19.6364 27.6045 19.6229 27.5962 19.6119C27.5879 19.601 27.5761 19.5934 27.5627 19.5904C26.8774 19.3892 25.9308 19.4024 25.2484 19.6026C25.1403 19.6345 25.192 19.7774 25.286 19.7812Z" fill="#7D887A"/>
    <path d="M36.159 31.1242C36.1242 32.1516 36.112 33.2232 36.4748 34.1999C36.5087 34.2939 36.6685 34.2666 36.6506 34.1623C36.4419 32.9929 36.5134 31.8678 36.566 30.6843C36.6092 29.7217 36.6901 28.5862 36.19 27.7233C36.1223 27.6077 35.9353 27.6848 35.9475 27.8098C36.0603 28.9425 36.1975 29.9793 36.159 31.1242Z" fill="#7D887A"/>
    <path d="M35.532 28.7227C35.4794 28.6334 35.3384 28.6945 35.344 28.7894C35.4357 29.724 35.4555 30.6643 35.4032 31.6019C35.3553 32.3351 35.3478 33.0383 35.5085 33.7592C35.5292 33.8532 35.6843 33.8175 35.6721 33.7244C35.4671 32.1687 36.3601 30.1571 35.532 28.7227Z" fill="#7D887A"/>
    <path d="M75.263 69.4979C74.4311 68.6265 73.5785 67.7881 72.7955 66.8659C72.7598 66.8246 72.6902 66.8725 72.725 66.9157C73.492 67.8416 74.2985 68.7694 75.2085 69.56C75.2508 69.6004 75.3006 69.5365 75.263 69.4979Z" fill="#7D887A"/>
    <path d="M74.8879 69.7217C74.369 68.9904 73.68 68.354 73.0446 67.7261C73.0126 67.695 72.9581 67.7449 72.9863 67.7796C73.5597 68.464 74.1378 69.2028 74.8231 69.7809C74.8312 69.7881 74.8418 69.792 74.8526 69.7919C74.8635 69.7918 74.874 69.7877 74.882 69.7803C74.89 69.773 74.8951 69.763 74.8962 69.7521C74.8973 69.7413 74.8943 69.7305 74.8879 69.7217Z" fill="#7D887A"/>
    <path d="M74.2186 69.5449C73.9977 69.1483 73.6058 68.807 73.3134 68.4602C73.2711 68.4085 73.1875 68.4602 73.2279 68.5203C73.4873 68.886 73.7712 69.3522 74.1444 69.6136C74.1541 69.6204 74.1658 69.6237 74.1776 69.6229C74.1894 69.6221 74.2006 69.6173 74.2093 69.6093C74.218 69.6012 74.2236 69.5905 74.2253 69.5788C74.227 69.5671 74.2247 69.5551 74.2186 69.5449Z" fill="#7D887A"/>
    <path d="M73.7524 69.4962C73.6584 69.2884 73.4845 69.1202 73.3407 68.9435C73.2843 68.8758 73.1724 68.951 73.2269 69.0224C73.3651 69.202 73.4939 69.4125 73.6744 69.5507C73.7101 69.578 73.774 69.5432 73.7524 69.4962Z" fill="#7D887A"/>
    <path d="M82.9917 78.6311C83.4756 79.3097 84.0169 79.9455 84.6094 80.5317C84.6432 80.5656 84.7034 80.5111 84.6724 80.4744C84.1178 79.8587 83.5698 79.2327 83.0264 78.6066C83.0086 78.5841 82.9757 78.6085 82.9917 78.6311Z" fill="#7D887A"/>
    <path d="M61.8887 57.7405C61.491 57.4059 61.116 56.965 60.6714 56.699C60.6253 56.6718 60.5774 56.7347 60.6074 56.7742C60.8988 57.1972 61.4046 57.5262 61.8031 57.8421C61.8699 57.8938 61.9535 57.7951 61.8887 57.7405Z" fill="#7D887A"/>
    <path d="M60.4317 56.0673C60.3202 56.1287 60.1951 56.161 60.0679 56.1613C59.9575 56.1475 59.8464 56.1396 59.7351 56.1378C59.7267 56.1385 59.7186 56.1413 59.7116 56.1461C59.7046 56.1509 59.6991 56.1574 59.6954 56.1651C59.6918 56.1727 59.6903 56.1812 59.691 56.1896C59.6917 56.198 59.6946 56.2061 59.6994 56.213C59.8705 56.4847 60.3273 56.3578 60.5266 56.1971C60.5386 56.1829 60.5454 56.1651 60.546 56.1466C60.5467 56.1281 60.5411 56.1099 60.5301 56.0949C60.5192 56.0799 60.5035 56.0691 60.4857 56.0641C60.4678 56.0591 60.4488 56.0602 60.4317 56.0673Z" fill="#7D887A"/>
    </svg>
    