<svg width="105" height="105" viewBox="0 0 105 105" fill="none" xmlns="http://www.w3.org/2000/svg">
    <path d="M36.4728 50.6772C34.4274 52.5378 32.761 54.9077 30.892 56.9499C28.8603 59.1707 26.775 61.3431 24.6865 63.5103C20.5516 67.7985 16.3212 71.8746 11.34 75.18C10.3131 75.8594 7.49486 76.9965 7.17461 78.35C6.80396 79.9134 9.48461 82.97 10.2994 84.1155C10.4622 84.3465 10.9158 84.2142 10.7961 83.9055C10.4422 82.9962 10.0695 82.1205 9.64106 81.2396C8.81051 79.5302 8.59106 78.6933 10.1335 77.3546C11.6959 76.0022 13.7035 75.0603 15.3604 73.8087C18.7929 71.2152 21.8589 68.1923 24.8472 65.1095C28.0465 61.8093 31.2606 58.5102 34.3129 55.0725C35.7462 53.4587 37.8882 49.9401 40.5163 50.5113C42.169 50.8715 42.9943 52.2858 44.7678 52.1231C44.823 52.1214 44.8762 52.1021 44.9196 52.0678C44.963 52.0335 44.9941 51.9862 45.0085 51.9329C45.0229 51.8795 45.0197 51.8229 44.9994 51.7715C44.9791 51.7201 44.9428 51.6766 44.8959 51.6474C42.0766 49.748 39.3645 48.047 36.4728 50.6772Z" fill="#7D887A"/>
    <path d="M43.848 40.469C42.7718 41.2187 41.8068 42.0682 41.0277 43.1287C40.6266 43.6768 40.2612 44.2553 39.731 44.6921C39.101 45.2171 38.3082 45.4271 37.6404 45.8839C37.581 45.9209 37.5351 45.9761 37.5095 46.0413C37.484 46.1064 37.4801 46.1781 37.4985 46.2456C37.5169 46.3132 37.5566 46.373 37.6116 46.4162C37.6667 46.4594 37.7342 46.4837 37.8042 46.4855C39.0306 46.5853 40.1468 45.6298 40.8492 44.7131C41.9129 43.3303 42.6752 41.8267 43.9205 40.5667C43.9719 40.5184 43.9079 40.4249 43.848 40.469Z" fill="#7D887A"/>
    <path d="M101.141 81.5849C99.9044 78.5749 98.553 75.6188 97.0872 72.7166C91.3259 61.3399 83.7522 50.8451 75.0824 41.5054C70.3748 36.4395 65.3201 31.7076 59.955 27.344C61.4933 25.454 63.1775 23.4296 63.9209 21.0934C64.4081 19.5614 64.5309 17.1916 62.852 16.339C61.5038 15.6544 59.4447 16.1867 58.8368 17.6315C58.4703 18.502 58.7549 19.4785 58.6709 20.3867C58.4976 22.2631 57.4917 23.3992 56.3525 24.6991C52.4045 22.2778 47.4968 20.9128 44.9694 25.8362C44.9085 25.953 44.8684 26.0795 44.8508 26.21C44.5774 26.7991 44.453 27.4463 44.4885 28.0948C44.5704 29.1206 45.0828 30.0646 45.7853 30.8699C46.2584 31.7638 46.8488 32.5905 47.5409 33.328C44.7447 38.411 39.2532 39.4799 35.385 43.2935C33.6819 44.9735 32.6193 47.3014 31.2963 49.2712C29.5844 51.8102 27.7263 54.2475 25.7313 56.5708C22.1825 60.7101 18.2265 64.4821 13.923 67.8299C11.7248 69.5414 9.43636 71.1337 7.06759 72.6001C5.51464 73.564 3.62884 74.4743 2.86759 76.2551C1.20859 80.1149 5.05999 83.0413 7.68079 85.0688C9.22429 86.2637 10.584 88.5086 12.6242 88.8919C14.3441 89.2163 16.0062 88.2692 17.2914 87.235C19.2654 85.6495 20.7722 83.4949 22.4816 81.6448C24.5081 79.4503 26.6816 77.3986 28.9002 75.4036C33.1002 71.6351 37.4976 68.0704 41.5002 64.0898C44.4402 61.1645 49.9265 56.3965 48.1562 51.6137C47.8023 50.6572 47.1639 50.0114 46.4331 49.3331C44.4381 47.483 43.68 45.466 44.9505 42.9061C46.2473 40.2958 48.3662 37.9711 50.4105 35.8228C55.7183 40.0627 60.2291 44.878 64.9184 49.8455C70.2177 55.4599 74.529 61.7368 78.5285 68.3255C80.219 71.1108 81.8342 73.9406 83.3742 76.8148C84.923 79.7044 86.0937 83.56 88.1769 86.0884C89.775 88.0277 92.463 87.9553 94.7667 88.0319C96.6567 88.0939 100.918 88.9423 102.169 87.0386C103.215 85.4542 101.736 83.0276 101.141 81.5849ZM60.1073 20.3867C60.1271 19.9805 60.1169 19.5734 60.0768 19.1687C61.0806 16.8587 62.0078 16.7852 62.8583 18.9482C63.02 19.8218 62.4435 21.0724 62.0823 21.7906C61.2318 23.4706 60.0002 24.9605 58.8168 26.4211L58.6646 26.3024C59.6169 25.1747 60.3015 23.6501 60.9809 22.3954C61.572 21.3023 62.0309 20.2418 61.6466 19.0028C61.5689 18.754 61.1363 18.7823 61.1678 19.0679C61.4492 21.6205 59.1255 23.6459 58.0892 25.8698C57.8379 25.685 57.5799 25.5027 57.3153 25.3228C58.9974 24.3599 59.9897 22.283 60.1073 20.3867ZM42.9828 43.9298C42.6143 45.2024 42.5702 46.6472 43.0983 47.882C44.268 50.612 47.8233 51.3565 46.6211 55.1575C45.8409 57.6187 43.5467 59.7512 41.8016 61.5793C39.9704 63.4955 38.0268 65.3089 36.035 67.0571C32.2854 70.3489 28.3616 73.438 24.7107 76.8421C23.0053 78.4158 21.3813 80.0756 19.845 81.8149C17.6054 84.3769 15.3153 88.1999 11.361 86.1346C10.6365 85.7566 9.99604 84.7832 9.32194 84.253C8.40004 83.5306 7.37419 82.9289 6.49009 82.1666C5.44954 81.2699 3.70759 79.5238 4.00054 77.9372C4.39324 75.811 6.20554 74.9332 7.85194 73.9472C15.707 69.2296 22.743 63.1679 28.4319 55.9744C29.9334 54.076 31.3471 52.1118 32.6729 50.0818C34.4474 47.3581 35.7399 44.5462 38.5529 42.7192C42.3707 40.2412 46.0751 38.2315 48.4743 34.2604C48.7662 34.525 49.0655 34.7738 49.3647 35.0038C49.4424 35.0636 49.517 35.1245 49.5947 35.1844C46.9518 37.5763 43.9478 40.5982 42.9828 43.9298ZM85.5813 76.5764C81.4265 68.6531 76.7036 60.8863 71.1596 53.9416C67.2095 48.994 62.58 44.5115 58.1858 39.964C56.342 38.0561 54.4268 36.289 52.2407 34.778C50.9912 33.9149 49.245 32.7599 47.9609 31.3781C47.2532 30.3785 46.6043 29.2718 46.5413 28.0948C46.5243 27.7757 46.562 27.4561 46.6526 27.1498C46.7169 27.078 46.7723 26.9987 46.8174 26.9135C50.2289 20.4749 59.3177 29.5753 62.58 32.4449C66.2795 35.6978 69.8177 39.1208 73.1945 42.7139C80.22 50.1511 86.4644 58.2802 91.665 67.0949C92.8088 69.0311 93.9022 70.9957 94.9452 72.9886C92.9502 72.4636 90.7326 72.9119 88.9602 73.9031C87.9144 74.4817 86.2985 75.3899 85.5813 76.5764ZM100.344 84.7423C100.11 86.4538 97.5093 86.0569 96.4299 86.0369C95.1468 86.0128 93.8427 85.9823 92.5649 85.8469C90.1614 85.5907 89.3267 84.0251 88.3649 82.0669C87.7349 80.7859 87.0923 79.5063 86.4371 78.2281C86.8886 77.764 87.1721 77.1865 87.6719 76.7287C88.346 76.106 89.2196 75.5737 90.026 75.1369C91.8782 74.1257 93.6527 74.4848 95.57 74.1919C96.6438 76.2919 97.6588 78.4234 98.615 80.5864C99.015 81.4978 100.485 83.6912 100.344 84.7423Z" fill="#7D887A"/>
    <path d="M96.1223 79.6298C95.2266 78.9777 93.9771 79.4681 93.3461 80.2598C93.0941 80.5748 93.3146 81.1638 93.7818 81.0074C94.1672 80.8782 94.8969 80.6136 95.2266 80.9244C95.5815 81.2583 95.6225 82.0553 95.4366 82.4816C95.3543 82.6652 95.2324 82.8283 95.0796 82.9593L95.0523 82.9488L94.8507 82.8375C94.4181 82.5887 94.0391 82.2747 93.5477 82.1435C93.2463 82.0637 92.8788 82.2989 92.9019 82.6359C92.9681 83.6009 93.9519 84.5259 94.8969 84.6981C96.0068 84.9018 96.8793 83.6481 97.1019 82.7105C97.335 81.6899 97.0022 80.2724 96.1223 79.6298Z" fill="#7D887A"/>
    <path d="M92.1059 71.4852C92.0765 67.5141 89.5523 64.0365 87.1709 61.065C83.9327 57.0246 80.6242 53.0398 77.3513 49.0278C74.2202 45.189 71.1322 41.2998 67.5118 37.8978C64.9225 35.467 62.8676 35.2266 60.3718 38.0574C60.1786 38.2768 60.4358 38.6821 60.7046 38.4889C61.3598 38.0196 62.6692 36.8772 63.4346 36.8488C64.8101 36.7984 66.3263 38.0269 67.2367 38.9173C68.6164 40.2662 69.9464 41.6634 71.2267 43.1089C73.7372 45.9439 76.0724 48.9343 78.4643 51.8659C80.9507 54.9137 83.4375 57.9619 85.9246 61.0104C88.6882 64.4145 90.2674 67.3944 91.645 71.544C91.7258 71.7928 92.108 71.7603 92.1059 71.4852Z" fill="#7D887A"/>
    <path d="M90.2738 72.4669C90.5888 71.0389 89.8863 69.7474 89.3288 68.4475C88.5696 66.6824 87.7338 64.9573 86.7227 63.3214C86.562 63.061 86.0759 63.2321 86.205 63.5398C87.4398 66.4945 88.9844 69.3421 89.7341 72.4648C89.7971 72.7304 90.215 72.7378 90.2738 72.4669Z" fill="#7D887A"/>
    <path d="M88.3207 69.3148C88.1705 69.0344 87.6844 69.2266 87.7957 69.5353C87.9853 70.0375 88.1259 70.5569 88.2157 71.0861C88.2923 71.5565 88.2377 72.0983 88.4792 72.5194C88.5022 72.5572 88.5345 72.5885 88.573 72.6102C88.6115 72.6319 88.655 72.6433 88.6992 72.6433C88.7434 72.6433 88.7869 72.6319 88.8254 72.6102C88.864 72.5885 88.8963 72.5572 88.9192 72.5194C89.4316 71.6311 88.7564 70.1254 88.3207 69.3148Z" fill="#7D887A"/>
    <path d="M87.821 70.6704C87.843 70.305 87.2813 70.3092 87.255 70.6704C87.2235 71.0904 87.2235 71.7015 87.6414 71.9399C87.6613 71.9511 87.6835 71.9576 87.7063 71.9591C87.7291 71.9605 87.752 71.9569 87.7731 71.9483C87.7943 71.9397 87.8133 71.9265 87.8287 71.9096C87.844 71.8927 87.8554 71.8725 87.8619 71.8506C87.9753 71.4789 87.7989 71.0558 87.821 70.6704Z" fill="#7D887A"/>
    <path d="M77.5351 58.6553C77.5051 58.6117 77.4598 58.5811 77.4082 58.5696C77.3567 58.558 77.3026 58.5663 77.2569 58.5928C77.2112 58.6193 77.1771 58.6621 77.1615 58.7126C77.146 58.7631 77.15 58.8176 77.1729 58.8653C79.7391 63.6732 82.3525 68.4203 84.7675 73.3143C85.0101 73.8057 85.7188 73.3763 85.4962 72.888C83.2545 67.9698 80.64 63.0894 77.5351 58.6553Z" fill="#7D887A"/>
    <path d="M85.0007 70.4381C85.0215 70.4573 85.0474 70.4702 85.0753 70.475C85.1032 70.4798 85.1319 70.4765 85.158 70.4654C85.1841 70.4543 85.2064 70.4359 85.2223 70.4125C85.2381 70.389 85.2469 70.3614 85.2474 70.3331C85.3199 69.5351 84.8747 68.7109 84.5397 67.999C84.1092 67.0976 83.6048 66.2333 83.0319 65.4149C82.8513 65.1545 82.4366 65.3855 82.6014 65.6669C83.079 66.4802 83.514 67.3179 83.9045 68.1764C84.2384 68.9251 84.4431 69.8249 85.0007 70.4381Z" fill="#7D887A"/>
    <path d="M60.3204 39.0254C60.0957 38.7188 59.6904 38.8448 59.6389 39.2091C59.5738 39.7184 59.7712 39.8622 60.1125 40.2465C60.7729 40.992 61.4775 41.7071 62.1526 42.4337C63.3927 43.7588 64.6044 45.1962 66.0534 46.2945C66.2224 46.4226 66.4419 46.1769 66.3369 46.0121C64.68 43.4102 62.1253 41.5013 60.3204 39.0254Z" fill="#7D887A"/>
    <path d="M63.6647 41.5718C63.3297 41.0731 62.9895 40.5754 62.6903 40.0535C62.4404 39.6199 62.264 39.0308 61.8366 38.7494C61.6613 38.6339 61.4702 38.7914 61.4534 38.9699C61.404 39.5012 61.8618 40.0609 62.1516 40.4788C62.488 40.9728 62.8751 41.4303 63.3066 41.8438C63.4893 42.016 63.8148 41.7902 63.6647 41.5718Z" fill="#7D887A"/>
    <path d="M66.1237 38.9552C65.8707 38.6612 65.6554 38.3462 65.352 38.0974C64.8438 37.6774 63.966 37.3414 63.3832 37.7824C63.3522 37.8045 63.3279 37.8346 63.3127 37.8696C63.2975 37.9045 63.2921 37.9429 63.2971 37.9806C63.302 38.0184 63.3172 38.0541 63.3409 38.0839C63.3645 38.1137 63.3959 38.1365 63.4315 38.1499C63.7675 38.2769 64.1298 38.2664 64.4616 38.4071C64.8123 38.5552 65.0464 38.8124 65.2837 39.0991C65.5987 39.4729 65.9253 39.9884 66.4765 39.9254C66.5815 39.9139 66.7044 39.8152 66.655 39.6923C66.5353 39.3941 66.3285 39.1904 66.1237 38.9552Z" fill="#7D887A"/>
    <path d="M56.8701 29.3936C55.5146 28.1693 50.7255 23.5325 48.7967 25.9653C48.5058 26.3318 48.9384 26.7581 49.3049 26.4735C50.3234 25.6871 52.6754 27.155 53.3999 27.6506C54.6158 28.4906 55.7424 29.5322 56.825 30.5349C57.6104 31.2636 58.9113 32.1435 59.2851 33.1599C59.5655 33.9243 59.1507 34.1753 58.7213 34.8399C58.3212 35.4552 57.9432 36.0737 57.5893 36.7163C57.4717 36.9263 57.7658 37.1804 57.9359 36.984C58.6709 36.1314 60.5021 34.4861 60.4632 33.3017C60.4181 32.0102 57.7616 30.2 56.8701 29.3936Z" fill="#7D887A"/>
    <path d="M48.3662 28.0163C48.3655 27.9728 48.3493 27.931 48.3204 27.8985C48.2916 27.866 48.252 27.8449 48.209 27.8391C48.1659 27.8332 48.1221 27.843 48.0857 27.8667C48.0492 27.8903 48.0224 27.9263 48.0102 27.968C47.6732 29.1713 48.3252 30.2339 49.2125 31.0245C49.7595 31.5117 50.3675 31.9412 50.9502 32.3822C51.6327 32.8977 52.2858 33.5036 53.1038 33.7818C53.1481 33.793 53.1947 33.7909 53.2379 33.7758C53.281 33.7608 53.3188 33.7334 53.3466 33.6971C53.3744 33.6608 53.391 33.6172 53.3943 33.5716C53.3976 33.526 53.3875 33.4805 53.3652 33.4406C52.0328 31.5201 48.3231 30.7452 48.3662 28.0163Z" fill="#7D887A"/>
    <path d="M53.7989 29.6971C53.849 29.9706 53.8073 30.2531 53.6802 30.5004C53.5752 30.6747 53.6802 30.6442 53.4702 30.661C53.3201 30.6518 53.1752 30.6029 53.0502 30.5193C52.9241 30.4374 52.817 30.3295 52.7362 30.2027C52.6554 30.0759 52.6028 29.9332 52.5819 29.7843C52.5609 29.6655 52.5609 29.544 52.5819 29.4252C52.5893 29.3853 52.709 29.064 52.7919 29.2005C52.9505 29.4735 53.3169 29.2792 53.2739 28.9968C53.1552 28.2901 52.247 28.2744 51.8963 28.8078C51.4658 29.463 51.6716 30.4258 52.1672 30.9855C52.6103 31.4874 53.5889 31.879 54.1832 31.4055C54.7365 30.9645 54.9854 29.8431 54.4341 29.3359C54.1317 29.0587 53.7453 29.337 53.7989 29.6971Z" fill="#7D887A"/>
    <path d="M60.5692 35.6801C60.9179 35.1342 61.218 34.5586 61.4659 33.9602C61.5793 33.6935 61.2244 33.4614 61.0648 33.726C60.7498 34.2503 60.4257 34.7694 60.0925 35.2832C59.7954 35.7441 59.4069 36.1967 59.2525 36.729C59.2443 36.7615 59.2458 36.7957 59.2568 36.8273C59.2678 36.8589 59.2879 36.8866 59.3145 36.907C59.3411 36.9273 59.3731 36.9394 59.4065 36.9417C59.4399 36.9441 59.4733 36.9366 59.5024 36.9201C59.9749 36.6387 60.2784 36.1316 60.5692 35.6801Z" fill="#7D887A"/>
    <path d="M60.3887 36.4792C60.3828 36.5019 60.3838 36.5258 60.3914 36.548C60.399 36.5701 60.4129 36.5896 60.4315 36.6039C60.4501 36.6182 60.4724 36.6267 60.4958 36.6285C60.5192 36.6302 60.5425 36.625 60.563 36.6136C60.9231 36.3836 61.1804 36.0193 61.4387 35.6864C61.697 35.3536 61.9637 34.9924 62.223 34.6364C62.3532 34.459 62.0592 34.2311 61.9164 34.4002C61.613 34.7582 61.3127 35.1173 61.0208 35.4848C60.7772 35.7946 60.5168 36.1054 60.3887 36.4792Z" fill="#7D887A"/>
    <path d="M57.9695 34.5512C57.9703 34.5803 57.9785 34.6086 57.9934 34.6336C58.0082 34.6586 58.0293 34.6793 58.0544 34.6938C58.0796 34.7084 58.1081 34.7162 58.1371 34.7166C58.1662 34.717 58.1948 34.71 58.2204 34.6961C58.653 34.4588 58.7191 33.8215 58.6866 33.3773C58.6456 32.8271 58.4 32.3945 58.0062 32.0176C57.8571 31.8748 57.5946 32.0596 57.7122 32.2444C57.9329 32.6078 58.0586 33.0209 58.0776 33.4456C58.0986 33.8194 57.9243 34.1869 57.9695 34.5512Z" fill="#7D887A"/>
    <path d="M57.5137 32.9615C57.4087 32.7232 57.0234 32.8922 57.0937 33.1379C57.1565 33.3622 57.1813 33.5953 57.1672 33.8278C57.1609 34.0084 57.1462 34.1596 57.2817 34.2919C57.301 34.3121 57.3255 34.3268 57.3524 34.3343C57.3794 34.3419 57.4079 34.3421 57.435 34.3349C57.9516 34.1491 57.6723 33.3091 57.5137 32.9615Z" fill="#7D887A"/>
    <path d="M13.8601 75.2137C11.2046 76.6029 9.56765 79.6311 11.8052 82.1721C11.9606 82.3485 12.2032 82.1248 12.1129 81.9358C11.4388 80.5267 10.9831 79.1985 11.8945 77.7799C12.472 76.879 13.3876 76.3099 14.1383 75.5749C14.3305 75.3901 14.089 75.094 13.8601 75.2137Z" fill="#7D887A"/>
    <path d="M36.9737 53.4305C33.5633 57.0393 29.7885 60.7952 26.9346 64.8534C26.7981 65.0466 27.0858 65.2346 27.2496 65.0939C29.6646 62.9687 31.7048 60.3363 33.8499 57.9434C36.1043 55.4297 38.9813 50.5797 42.8621 52.8593C43.0805 52.9884 43.343 52.6724 43.1403 52.4991C40.9416 50.6333 38.7503 51.5552 36.9737 53.4305Z" fill="#7D887A"/>
    <path d="M41.9076 53.0347C40.3326 52.6021 38.725 53.1092 38.1276 54.7147C38.073 54.8617 38.262 54.9887 38.3859 54.9131C38.8804 54.6139 39.061 54.0469 39.5766 53.7476C40.2664 53.3476 41.0844 53.3276 41.8603 53.3885C42.0672 53.4085 42.105 53.0882 41.9076 53.0347Z" fill="#7D887A"/>
    <path d="M35.385 58.2465C35.8355 57.8412 36.1956 57.2847 36.6051 56.8322C36.9862 56.4349 37.2864 55.9674 37.4892 55.4556C37.5438 55.3097 37.3149 55.2183 37.2404 55.3506C36.9254 55.9103 36.4623 56.3481 36.0203 56.8049C35.6717 57.165 35.2149 57.585 35.1435 58.1058C35.1354 58.1365 35.1375 58.1691 35.1496 58.1984C35.1618 58.2278 35.1832 58.2523 35.2106 58.2683C35.2381 58.2843 35.27 58.2908 35.3015 58.2869C35.333 58.283 35.3624 58.2688 35.385 58.2465Z" fill="#7D887A"/>
    <path d="M24.106 67.1687C22.6853 68.2933 21.4264 69.6509 20.0677 70.8542C18.709 72.0575 17.2946 73.2115 15.9244 74.4095C15.8246 74.4966 15.959 74.6752 16.0693 74.5964C18.9421 72.5395 22.0543 70.0982 24.2981 67.3609C24.3236 67.3354 24.3379 67.3008 24.3379 67.2648C24.3379 67.2287 24.3236 67.1942 24.2981 67.1687C24.2726 67.1432 24.2381 67.1289 24.202 67.1289C24.166 67.1289 24.1314 67.1432 24.106 67.1687Z" fill="#7D887A"/>
    <path d="M13.9649 76.7361C12.8456 77.4564 12.1537 79.3989 12.5359 80.6652C12.5441 80.692 12.5608 80.7155 12.5834 80.7322C12.6059 80.7489 12.6333 80.7579 12.6614 80.7579C12.6895 80.7579 12.7168 80.7489 12.7394 80.7322C12.762 80.7155 12.7786 80.692 12.7868 80.6652C13.0168 80.0667 12.9685 79.3926 13.1333 78.7752C13.3223 78.0591 13.6678 77.5257 14.1361 76.9639C14.2295 76.8432 14.1056 76.6437 13.9649 76.7361Z" fill="#7D887A"/>
    <path d="M37.1259 62.6072C36.7574 62.1515 36.3909 61.7178 35.9216 61.3598C35.7882 61.2548 35.6213 61.4795 35.7431 61.5918C36.5348 62.3184 37.1249 63.8566 38.2809 64.0603C38.302 64.0639 38.3237 64.061 38.343 64.0519C38.3624 64.0428 38.3785 64.028 38.3892 64.0095C38.4 63.991 38.4048 63.9697 38.4031 63.9484C38.4014 63.9271 38.3932 63.9068 38.3796 63.8902C37.9544 63.4618 37.5081 63.0818 37.1259 62.6072Z" fill="#7D887A"/>
    <path d="M35.3851 64.4931C35.2738 64.3619 35.0911 64.5509 35.1971 64.6821C35.3872 64.9173 35.6371 65.2733 35.9426 65.3531C35.9606 65.3565 35.9792 65.3548 35.9962 65.3481C36.0133 65.3415 36.0281 65.3302 36.0391 65.3155C36.05 65.3009 36.0566 65.2834 36.0581 65.2652C36.0596 65.2469 36.056 65.2286 36.0476 65.2124C35.9101 64.9404 35.5793 64.7273 35.3851 64.4931Z" fill="#7D887A"/>
    <path d="M22.9876 71.3579C22.9716 71.3452 22.9516 71.3388 22.9313 71.34C22.9109 71.3411 22.8917 71.3497 22.8773 71.3641C22.8629 71.3785 22.8543 71.3977 22.8532 71.4181C22.852 71.4384 22.8584 71.4585 22.871 71.4744C23.6323 72.3144 24.2654 73.2668 25.0309 74.0994C25.0897 74.1645 25.181 74.0816 25.1464 74.0102C24.6518 72.9875 23.8108 72.1349 22.9876 71.3579Z" fill="#7D887A"/>
    <path d="M11.6351 82.3975C11.5479 82.2925 11.36 82.4353 11.444 82.5456C12.117 83.4297 12.7691 84.424 13.5849 85.1811C13.6016 85.1969 13.6235 85.2063 13.6465 85.2075C13.6695 85.2087 13.6922 85.2016 13.7104 85.1875C13.7287 85.1735 13.7413 85.1533 13.746 85.1308C13.7507 85.1082 13.7472 85.0847 13.7361 85.0645C13.1754 84.1048 12.3501 83.248 11.6351 82.3975Z" fill="#7D887A"/>
    <path d="M13.1355 82.9901C13.0231 82.8631 12.8488 83.0468 12.9517 83.1749C13.1512 83.4213 13.3444 83.6733 13.5313 83.9309C13.6744 84.1581 13.8436 84.3677 14.0353 84.5557C14.113 84.6218 14.2684 84.5609 14.2254 84.4507C14.0227 83.9015 13.5145 83.4175 13.1355 82.9901Z" fill="#7D887A"/>
    <path d="M44.2554 53.9027C44.1315 53.7977 43.953 53.97 44.0759 54.0834C44.4437 54.4228 44.7752 54.7997 45.065 55.2079C45.2813 55.5113 45.4367 55.923 45.7422 56.1445C45.7518 56.1498 45.7625 56.1525 45.7734 56.1523C45.7843 56.1522 45.795 56.1492 45.8044 56.1437C45.8139 56.1382 45.8217 56.1304 45.8272 56.1209C45.8326 56.1115 45.8356 56.1008 45.8357 56.0899C45.8525 55.6699 45.5018 55.2499 45.2624 54.9349C44.9698 54.5512 44.6317 54.2046 44.2554 53.9027Z" fill="#7D887A"/>
    <path d="M44.5336 55.2793C44.7363 55.504 44.7751 55.7843 44.941 56.0237C44.9484 56.0354 44.959 56.0447 44.9714 56.0505C44.9839 56.0564 44.9978 56.0585 45.0115 56.0568C45.0252 56.055 45.038 56.0494 45.0486 56.0406C45.0592 56.0317 45.067 56.0201 45.0712 56.0069C45.1762 55.6793 44.9242 55.3297 44.71 55.1029C44.5987 54.9853 44.4265 55.1606 44.5336 55.2793Z" fill="#7D887A"/>
    <path d="M45.4157 54.0206C45.4619 54.0731 45.5438 54.0206 45.5291 53.9544C45.4601 53.7474 45.3666 53.5493 45.2508 53.3643C45.1952 53.2593 45.0335 53.3528 45.0891 53.4588C45.1751 53.6585 45.2847 53.8471 45.4157 54.0206Z" fill="#7D887A"/>
    <path d="M6.48374 78.3613C6.66579 77.4621 7.08195 76.6268 7.69019 75.94C7.71387 75.9148 7.72683 75.8814 7.72633 75.8468C7.72584 75.8122 7.71193 75.7792 7.68755 75.7547C7.66317 75.7301 7.63021 75.716 7.59564 75.7154C7.56107 75.7147 7.52758 75.7274 7.50224 75.751C6.19499 76.78 5.00325 79.4564 6.26114 80.9464C6.3735 81.0797 6.57614 80.9653 6.5856 80.813C6.615 79.9783 6.32414 79.2244 6.48374 78.3613Z" fill="#7D887A"/>
    <path d="M5.88003 76.5712C5.96193 76.3749 5.63748 76.2436 5.53773 76.4274C5.33217 76.8055 5.20503 77.2212 5.16393 77.6496C5.12088 78.057 5.05893 78.541 5.26158 78.9096C5.27399 78.9302 5.29154 78.9473 5.31252 78.9592C5.33349 78.9711 5.35718 78.9773 5.38128 78.9773C5.40538 78.9773 5.42907 78.9711 5.45004 78.9592C5.47102 78.9473 5.48857 78.9302 5.50098 78.9096C5.65008 78.583 5.59443 78.2355 5.60598 77.8837C5.61961 77.4335 5.71237 76.9892 5.88003 76.5712Z" fill="#7D887A"/>
    <path d="M92.8305 75.2641C92.548 75.2735 92.4189 75.6673 92.6824 75.8132C95.992 77.6549 97.7329 80.6926 98.953 84.2027C98.9757 84.2437 99.0114 84.276 99.0545 84.2943C99.0976 84.3127 99.1456 84.3161 99.1909 84.304C99.2362 84.292 99.2761 84.2651 99.3043 84.2277C99.3326 84.1903 99.3475 84.1446 99.3468 84.0977C98.9268 81.8371 97.965 79.924 96.6514 78.0497C95.76 76.7719 94.5399 75.2095 92.8305 75.2641Z" fill="#7D887A"/>
    <path d="M91.8204 76.9293C92.2803 77.1729 92.7822 77.3157 93.2421 77.5687C93.7387 77.8428 94.1724 78.1987 94.647 78.5001C94.857 78.6313 95.0502 78.3436 94.8979 78.1756C94.4496 77.68 93.829 77.2863 93.2473 76.9671C92.8116 76.7287 92.295 76.4568 91.8204 76.7245C91.8028 76.7352 91.7882 76.7502 91.7781 76.7682C91.768 76.7861 91.7627 76.8063 91.7627 76.8269C91.7627 76.8475 91.768 76.8677 91.7781 76.8857C91.7882 76.9036 91.8028 76.9186 91.8204 76.9293Z" fill="#7D887A"/>
    <path d="M93.2264 78.057C92.7277 77.6297 91.9821 77.468 91.3742 77.742C91.2839 77.783 91.3206 77.9132 91.4004 77.9394C91.9328 78.1116 92.5019 78.2345 93.0468 78.3657C93.2138 78.4046 93.3734 78.183 93.2264 78.057Z" fill="#7D887A"/>
    </svg>
    