<svg width="114" height="114" viewBox="0 0 114 114" fill="none" xmlns="http://www.w3.org/2000/svg">
    <path d="M50.0722 49.7039C49.289 49.8099 47.6451 49.9832 47.0763 50.6922C46.6419 51.2326 46.7046 52.2768 46.6693 52.905C46.5872 54.3676 46.5336 55.9739 46.7936 57.4182C47.6235 62.0387 53.8068 62.4046 57.5278 61.968C59.6699 61.7172 60.9991 61.1004 61.992 59.1647C62.8299 57.5288 63.36 55.9351 63.2267 54.1989C63.3486 52.2073 61.8336 51.7935 60.1977 51.3329C57.9678 50.7199 55.7026 50.2436 53.4147 49.9068C52.2792 49.7358 51.2202 49.5534 50.0722 49.7039ZM54.6767 51.0046C55.9489 51.2064 57.2987 51.3717 58.5344 51.7274C60.2535 52.2187 61.853 52.3589 62.6133 54.2354C62.5563 55.592 62.2155 56.8049 61.5805 58.1114C60.5545 60.2306 59.1409 60.9728 56.78 61.0982C53.0875 61.2931 47.97 60.8246 47.6018 56.2554C47.4787 54.737 47.0478 51.9713 48.5765 50.9909C50.2261 49.9319 52.8732 50.7299 54.6767 51.0092V51.0046Z" fill="#7D887A"/>
    <path d="M44.2217 61.2602C43.9058 61.0997 43.6011 60.918 43.3097 60.7164C44.1613 59.2652 44.0929 57.0525 43.6574 55.567C43.644 55.5252 43.6162 55.4894 43.579 55.466C43.5418 55.4426 43.4975 55.4331 43.454 55.4391C43.4105 55.4451 43.3704 55.4662 43.3409 55.4988C43.3114 55.5314 43.2943 55.5733 43.2926 55.6172C43.2745 56.6216 43.1661 57.6224 42.9689 58.6074C42.8717 59.0079 42.7498 59.4019 42.6041 59.7873L42.5904 59.7565C42.3595 59.1802 42.1839 58.5832 42.066 57.9736C41.7776 56.5053 41.8619 55.0677 41.8939 53.5869C41.8939 53.4489 41.7092 53.4387 41.6659 53.5561C40.9876 55.3664 41.1027 57.3625 41.5576 59.2139C41.7274 59.9104 41.9315 60.6309 42.3088 61.1519C42.331 61.2041 42.3673 61.2491 42.4137 61.2819C42.7785 61.7094 43.2926 61.959 44.0599 61.8633C44.346 61.8234 44.5284 61.4301 44.2217 61.2602Z" fill="#7D887A"/>
    <path d="M95.2345 51.8835L95.2117 51.8629C95.2518 51.7862 95.268 51.6993 95.2584 51.6133C95.0931 49.8976 93.9007 48.9229 92.2887 48.4612L92.1473 48.4224C93.2873 46.3453 93.6613 43.6082 94.0283 41.3065C94.302 39.5936 94.465 37.8648 94.5163 36.1309C94.549 36.0936 94.5724 36.0491 94.5847 36.001C95.548 32.4613 94.6474 28.4234 93.8266 24.9327C93.0126 21.4728 92.2408 17.9787 90.0418 15.1014C88.0855 12.5398 85.4795 10.5653 82.6831 9.00578C81.2064 8.1882 79.6796 7.46476 78.1117 6.83978C77.2635 6.49778 76.4017 6.18428 75.533 5.89814C74.3611 5.51396 72.4675 5.28938 71.5681 4.42754C71.3013 4.17218 70.7986 4.51532 71.0334 4.84136C71.3013 5.21414 71.5521 5.5664 71.8394 5.90384C68.2313 4.40018 63.9848 3.67058 60.3151 3.67286C55.5374 3.67286 50.803 5.18564 46.854 7.8578C46.5325 8.07554 46.683 8.49848 47.041 8.5418C47.8561 8.64782 48.6677 8.7527 49.484 8.8325C48.2117 9.4229 47.0265 10.1851 45.9614 11.0977C45.9315 11.1222 45.9095 11.1549 45.8979 11.1917C45.8864 11.2286 45.8859 11.268 45.8964 11.3052C42.1276 11.5332 38.2082 12.346 35.153 14.2692C34.77 14.5108 34.9604 15.0193 35.3685 15.0672C38.198 15.3898 40.7869 16.198 43.4135 17.1967C40.7915 17.6527 38.2356 18.4404 35.5418 18.2979C35.234 18.2808 35.0368 18.6536 35.1918 18.9078C35.8017 19.903 36.5826 20.7877 37.5391 21.4158C34.9239 22.0326 33.4123 25.2382 33.0155 27.6516C32.3977 31.4136 33.4647 36.0044 34.6617 39.5623C34.6805 39.616 34.7187 39.6608 34.7689 39.6877C34.9843 39.9055 35.3674 39.9568 35.519 39.6102C36.431 37.5229 37.3772 35.6316 39.053 34.0242C39.4137 33.6724 39.8047 33.3531 40.2215 33.07C40.1984 35.5936 40.3669 38.1153 40.7254 40.6134C41.0674 43.0188 41.3182 46.2405 42.5961 48.3894L42.465 48.4247C40.853 48.8921 39.6606 49.8543 39.4942 51.5768C39.4847 51.6629 39.5014 51.7499 39.542 51.8265C39.5352 51.8344 39.5261 51.8401 39.5192 51.847C38.0885 53.3575 39.1909 56.8345 39.5523 58.4943C39.9422 60.283 40.2545 64.5546 42.5562 65.1907C42.8125 65.2656 43.083 65.2781 43.3451 65.2272C43.9618 70.2591 44.4212 75.1759 44.3243 80.2603C43.6499 80.3424 42.968 80.3409 42.294 80.2558C42.1492 80.2375 42.0854 80.4359 42.1675 80.5317C42.1648 80.5613 42.1699 80.5912 42.1823 80.6183C42.7432 81.9008 43.4283 82.8105 44.2035 83.4204C44.0827 87.9063 42.2039 92.2714 42.7979 96.7903C43.2869 100.506 45.608 103.66 48.4363 105.994C51.3638 108.41 55.0597 110.794 58.8422 111.505C60.3037 111.78 61.8176 111.892 63.3213 111.982C67.1722 112.567 71.6946 112.197 75.4657 111.618C79.3144 111.027 83.0684 108.647 86.054 106.245C88.9724 103.897 91.3767 100.748 91.9376 96.9613C92.6125 92.4082 90.6733 87.9759 90.5513 83.4535C91.3265 82.8436 92.0105 81.935 92.5726 80.6514C92.5837 80.6243 92.5888 80.5951 92.5874 80.5658C92.6695 80.4689 92.6045 80.2706 92.4597 80.2888C91.7861 80.3775 91.1041 80.3821 90.4294 80.3025C90.3336 75.2181 90.793 70.3024 91.4086 65.2693C91.6712 65.3197 91.9419 65.3072 92.1986 65.2329C94.5049 64.5956 94.8092 60.3366 95.2025 58.5354C95.5605 56.8789 96.6629 53.3917 95.2345 51.8835ZM37.5584 33.8487C36.4595 35.1027 35.5064 36.5676 34.9433 38.1533C34.8213 37.3553 34.664 36.5573 34.4998 35.7536C34.5494 35.7038 34.5838 35.6409 34.599 35.5723C35.2123 33.0894 35.91 30.8983 37.6063 28.9159C39.403 26.816 41.8984 25.0878 44.5922 24.4038C47.4103 23.6878 50.5818 24.2898 53.417 24.6808C56.202 25.0604 58.368 26.6632 60.648 28.1863C60.933 28.3767 61.1827 27.9275 60.9136 27.7303C58.5356 26.0043 56.4551 24.2681 53.4751 23.8486C50.1748 23.3835 46.6203 22.7086 43.385 23.8258C39.4725 25.1755 34.9741 28.9125 34.0142 33.2775C33.7757 32.0413 33.6577 30.7848 33.6619 29.5258C33.7303 25.9336 35.2955 23.8258 38.0236 21.7054V21.6985C38.4484 21.9223 38.9001 22.0909 39.3676 22.2001C39.4167 22.2061 39.4665 22.196 39.5093 22.1712C39.5522 22.1464 39.5858 22.1083 39.6051 22.0628C39.6244 22.0172 39.6284 21.9666 39.6164 21.9185C39.6044 21.8705 39.5771 21.8277 39.5386 21.7966C38.2424 21.0271 37.1822 20.2815 36.3113 19.1221C38.8318 19.0914 41.2007 18.3458 43.6916 17.9286C46.8082 17.4027 50.0083 17.7034 52.9724 18.8007C55.4373 19.696 57.791 20.8722 59.9868 22.3062C62.2007 23.7768 63.5675 25.6327 65.2308 27.6345C65.3596 27.7907 65.6127 27.6231 65.5603 27.443C64.2367 22.8613 58.2734 20.1823 54.2925 18.5031C51.5702 17.3551 48.6928 16.7544 45.7311 16.9162C45.2945 16.9402 44.8601 16.9835 44.4281 17.0405C44.41 17.0181 44.388 16.9992 44.3631 16.9846C42.0079 15.5893 39.3665 14.8072 36.6749 14.39C40.7561 12.338 45.3139 12.68 49.7405 11.7532C50.03 11.6916 49.9525 11.2596 49.6732 11.2516C48.6791 11.2219 47.6452 11.2254 46.5952 11.2698C49.2001 9.8243 51.7252 8.53382 54.7075 8.0003C58.0853 7.39154 61.0333 7.97522 64.3644 8.46656C64.6175 8.50418 64.8432 8.13596 64.5582 8.01056C60.518 6.18656 54.8591 6.57302 50.347 8.44832C49.59 8.26706 48.8262 8.11886 48.0567 7.97978C51.886 5.70662 56.1507 4.44578 60.6503 4.47998C65.6663 4.52216 69.9299 6.40772 74.5925 7.91366C74.8969 8.0117 75.0622 7.57166 74.8045 7.41092C74.072 6.95763 73.3103 6.55319 72.5245 6.20024C72.5414 6.16685 72.5503 6.12994 72.5503 6.09251C72.5503 6.05507 72.5414 6.01817 72.5245 5.98478C72.4812 5.89358 72.4345 5.80922 72.3877 5.72372C73.1185 6.00644 73.9233 6.1478 74.6757 6.38834C76.6086 7.00466 78.4951 7.75782 80.321 8.64212C83.2417 10.0603 86.0609 11.8341 88.2736 14.2407C90.7964 16.9767 91.7096 20.2245 92.5748 23.7471C93.4196 27.1911 93.7376 30.4629 93.8653 33.9057C93.6875 36.5422 93.3525 39.1659 92.8621 41.7625C92.454 43.9103 91.591 46.0558 91.33 48.2218C91.216 48.1956 91.102 48.1716 90.98 48.1465C91.0712 47.4625 91.0769 46.7546 91.1954 46.0672C91.3349 45.3149 91.4112 44.5522 91.4234 43.7872C91.4205 43.7564 91.4062 43.7279 91.3833 43.7071C91.3604 43.6863 91.3306 43.6748 91.2997 43.6748C91.2688 43.6748 91.2391 43.6863 91.2162 43.7071C91.1933 43.7279 91.179 43.7564 91.1761 43.7872C91.0689 45.0811 90.304 46.6634 90.3974 48.0291C90.239 48.0018 90.0805 47.9744 89.9209 47.9493C90.1979 44.6935 90.9184 41.5505 90.7679 38.2525C90.7201 37.1991 90.8375 34.6809 90.0771 33.3163C90.4316 29.2579 89.1389 24.5383 87.3833 20.9427C85.4692 17.0166 82.7731 13.9693 79.6313 10.9951C79.5903 10.957 79.5361 10.9362 79.4801 10.9372C79.4241 10.9382 79.3706 10.9608 79.331 11.0003C79.2913 11.0398 79.2685 11.0932 79.2673 11.1492C79.2661 11.2052 79.2867 11.2594 79.3246 11.3006C82.0606 14.2965 84.694 17.4167 86.4827 21.0886C88.1722 24.5577 88.4857 28.086 89.1366 31.7351C89.1366 31.7351 89.1286 31.7283 89.1206 31.7283C89.1073 31.7283 89.0946 31.7335 89.0852 31.7429C89.0758 31.7524 89.0705 31.7651 89.0705 31.7784C89.0705 31.7917 89.0758 31.8045 89.0852 31.8139C89.0946 31.8233 89.1073 31.8286 89.1206 31.8286C89.1321 31.8285 89.1432 31.824 89.1514 31.816C89.1936 32.0543 89.2392 32.2926 89.2848 32.532C89.2334 32.5079 89.1805 32.4873 89.1263 32.4704C88.9731 32.4239 88.8144 32.3974 88.6544 32.3917C87.5452 32.0497 86.412 32.2777 85.1831 32.4009L84.7943 32.4396C85.5802 32.1356 86.3599 31.8179 87.1336 31.4866C87.3548 31.3908 87.1975 31.0215 86.9695 31.0978C84.2897 31.9932 81.5653 32.7485 78.8071 33.3607C77.9942 29.0071 75.7758 24.894 73.1162 21.3907C73.0903 21.3542 73.0517 21.3286 73.0079 21.3192C72.9641 21.3097 72.9183 21.317 72.8797 21.3396C72.841 21.3623 72.8122 21.3986 72.799 21.4414C72.7858 21.4842 72.7892 21.5304 72.8084 21.5709C74.784 25.5358 77.178 29.1154 77.984 33.5374C77.0059 33.7434 76.0239 33.93 75.0382 34.0972C74.4181 30.9599 73.1561 27.883 71.5487 25.1334C70.224 22.8659 68.6633 20.432 66.0117 19.6671C65.819 19.6112 65.6777 19.9156 65.8715 19.9988C68.5767 21.1776 70.1317 23.8486 71.4324 26.368C72.7331 28.8874 73.5562 31.498 74.2436 34.2283C72.501 34.5049 70.7503 34.7185 68.9917 34.869C69.0049 34.7842 68.988 34.6974 68.9438 34.6239C68.4114 33.6628 67.5644 32.8284 66.877 31.9722C66.5817 31.6029 66.3138 31.189 65.9832 30.8539C65.6093 30.4743 65.0028 30.309 64.7053 29.8666C64.6818 29.8331 64.6465 29.8097 64.6065 29.8009C64.5665 29.7922 64.5247 29.7988 64.4894 29.8195C64.4541 29.8402 64.4278 29.8734 64.4159 29.9125C64.4039 29.9517 64.4071 29.9939 64.4248 30.0308C64.5878 30.3945 64.8455 30.57 65.1282 30.8379C65.5625 31.2472 65.843 31.7932 66.1713 32.2891C66.755 33.1715 67.3991 34.2135 68.2028 34.9328C63.9103 35.2581 59.5965 35.1707 55.3208 34.6717L54.736 34.5999C53.9389 34.3606 53.1856 33.9946 52.505 33.5158C51.2202 32.6038 50.1953 31.3999 49.0291 30.3557C48.9907 30.321 48.9405 30.3023 48.8887 30.3036C48.837 30.3049 48.7877 30.3261 48.7511 30.3627C48.7145 30.3993 48.6934 30.4485 48.6921 30.5003C48.6908 30.552 48.7094 30.6023 48.7441 30.6407C49.6196 31.7043 50.8041 33.1612 52.1641 34.242C50.5173 33.9922 48.89 33.6277 47.294 33.151C46.1005 32.7828 45.0881 32.2492 44.02 31.6314C43.3166 31.2244 42.6007 30.8083 41.7525 30.8869C40.169 31.0329 38.532 32.7349 37.5584 33.8487ZM41.9007 41.2587C41.8847 41.172 41.8676 41.0854 41.8528 40.9999C41.3916 38.2491 41.0689 35.477 40.8861 32.6938C41.2197 32.5399 41.5778 32.4457 41.944 32.4157C41.0753 35.2007 41.5245 38.3904 41.9007 41.2678V41.2587ZM42.0831 42.1148C42.2028 42.1957 42.3955 42.1524 42.3795 41.97C42.1013 38.6902 42.2074 35.6932 42.5699 32.4442C42.8959 32.5021 43.2097 32.6151 43.4978 32.7782C42.8731 33.8316 42.8389 35.1631 42.7215 36.3726C42.5482 38.1567 42.5049 39.9351 42.7215 41.7169C42.7215 41.7662 42.7411 41.8135 42.7759 41.8483C42.8108 41.8832 42.858 41.9028 42.9073 41.9028C42.9566 41.9028 43.0039 41.8832 43.0387 41.8483C43.0736 41.8135 43.0931 41.7662 43.0931 41.7169C43.2071 38.7906 43.2835 35.9029 43.9949 33.0609C44.4355 33.3156 44.8887 33.5481 45.3526 33.7575C43.947 36.4057 43.8148 39.8998 43.548 42.8227C43.5298 43.0245 43.8729 43.0735 43.9048 42.8706C44.3848 39.8633 45.2078 36.8856 45.6638 33.892C45.7904 33.9456 45.9158 34.0003 46.0446 34.0493C50.2535 35.6453 55.1509 36.0853 59.6174 36.3213C67.1243 36.7323 74.6433 35.7727 81.8064 33.4896C83.1847 33.3904 84.5732 33.1886 85.9549 33.0678L85.8169 33.1099C84.0864 33.6047 82.3563 34.0987 80.6265 34.5919C77.0412 35.6179 73.4274 36.213 69.7304 36.6679C69.6164 36.6827 69.6073 36.8537 69.7304 36.8537C75.4304 36.8902 80.9343 35.1859 86.4006 33.7449C87.2351 33.5249 88.7308 32.8249 89.3874 33.8589C89.6416 34.2579 89.702 35.9018 89.7203 36.0648C89.8812 37.5208 89.9356 38.9865 89.8833 40.4504C89.8001 42.9128 89.0522 45.4254 89.4022 47.8752C87.5862 47.6267 85.7132 47.5515 83.9553 47.4819C81.0861 47.3667 78.2122 47.4979 75.3654 47.8741C74.2368 48.0257 73.1071 48.2081 72.0537 48.6573C70.9023 49.1475 69.8809 50.1393 68.6679 50.4813C68.3396 50.3673 67.9315 50.4984 67.5849 50.4813C67.1642 50.4573 66.82 50.4402 66.4449 50.5303C65.0872 50.3125 63.9939 49.1942 62.7581 48.6504C61.6911 48.1819 60.5363 47.9983 59.3894 47.8444C56.5429 47.4694 53.6695 47.3382 50.8007 47.4523C48.6552 47.5332 46.3228 47.6256 44.1431 48.0371C44.3255 46.6303 43.4978 44.9591 43.385 43.6105C43.382 43.5797 43.3677 43.5512 43.3448 43.5304C43.322 43.5096 43.2922 43.4981 43.2613 43.4981C43.2304 43.4981 43.2006 43.5096 43.1777 43.5304C43.1549 43.5512 43.1405 43.5797 43.1376 43.6105C43.1487 44.3753 43.223 45.1379 43.3599 45.8905C43.491 46.6383 43.4842 47.409 43.6027 48.1511L43.4351 48.1876C43.2812 46.188 42.5516 44.1235 42.0831 42.1194V42.1148ZM44.9776 49.4427C43.9595 49.689 42.9256 49.5841 41.9395 49.9911C41.8049 50.0469 41.6567 50.113 41.504 50.1871C43.1479 48.8944 46.3581 48.9183 48.1091 48.7656C50.5379 48.5568 52.9771 48.4966 55.4131 48.5854C57.8368 48.6721 60.6719 48.6402 62.8904 49.7254C64.3826 50.455 65.3494 51.4354 67.0559 51.033C67.2452 51.0421 67.4333 51.0478 67.6168 51.049C69.2641 51.4708 70.1556 50.6511 71.5829 49.909C73.9062 48.7074 76.7699 48.704 79.3349 48.6117C81.6428 48.5276 83.9536 48.5771 86.2558 48.7599C88.4663 48.9366 93.0377 48.8271 94.0648 51.2679C92.8359 51.0057 91.2695 51.4674 90.5662 52.254C90.5258 52.2976 90.4951 52.3493 90.4761 52.4056C90.2426 52.6622 90.044 52.9485 89.8856 53.2572C89.3407 54.3276 89.1936 55.5691 88.9827 56.7364C88.8687 57.3908 88.6977 58.0645 88.5689 58.7428C88.5505 58.7658 88.5352 58.7911 88.5233 58.8181C87.8849 60.4414 87.5383 61.3181 85.7873 61.9246C84.5521 62.355 83.2881 62.6978 82.0048 62.9506C79.4637 63.4442 76.0323 63.4476 73.6132 62.3908C71.2318 61.3512 70.9912 58.3518 70.0678 56.2155C69.6118 55.161 68.8868 53.7325 67.6738 53.5216C67.6211 53.4847 67.5591 53.4634 67.4948 53.4601C66.0277 53.3803 65.1886 55.0082 64.6859 56.1824C63.7841 58.288 63.5231 61.3751 61.1405 62.3578C58.669 63.3758 55.3333 63.4146 52.7489 62.9175C51.5511 62.68 50.3705 62.3627 49.2149 61.9679C48.523 61.7399 47.6531 61.5119 47.139 60.9522C46.6249 60.3924 46.4903 59.4542 46.227 58.7862C46.2119 58.7494 46.1907 58.7155 46.1643 58.6858C46.056 58.1272 45.9238 57.5721 45.8223 57.0249C45.5943 55.7583 45.4541 54.388 44.8613 53.2252C44.7032 52.9163 44.5051 52.6295 44.2719 52.3725C44.252 52.3164 44.2209 52.2648 44.1807 52.2209C43.6301 51.6053 42.5402 51.1892 41.5017 51.1653C41.8437 50.8962 42.1857 50.6238 42.6075 50.4744C43.4317 50.1837 44.3084 50.1199 45.1018 49.7368C45.2728 49.6616 45.1508 49.4051 44.9776 49.4473V49.4427ZM43.988 64.9467C44.5045 64.591 44.9 63.9709 45.1702 63.3177C45.5658 65.5817 46.5302 67.6098 47.725 69.631C48.865 71.553 49.9787 73.9128 51.8096 75.3025C51.2179 75.9021 50.6365 76.5052 50.0437 77.0752C49.8077 75.7368 48.5355 74.7655 47.8777 73.605C46.7742 71.6556 46.3672 69.2878 45.6889 67.1686C45.6719 67.1286 45.641 67.0962 45.602 67.0774C45.5629 67.0585 45.5183 67.0545 45.4765 67.0661C45.4347 67.0777 45.3985 67.104 45.3746 67.1403C45.3508 67.1765 45.3409 67.2202 45.3469 67.2632C46.2065 70.8736 46.9566 74.6835 49.7428 77.3613C49.2004 77.8767 48.6221 78.3529 48.0122 78.7863C47.9199 77.1903 47.5665 75.6547 46.8118 74.2183C46.7126 74.0302 46.3969 74.1591 46.4698 74.3643C46.9897 75.9329 47.3579 77.5209 47.4137 79.1751C46.7909 79.5547 46.1194 79.8481 45.4176 80.0471C45.6228 75.0448 45.2671 69.8077 43.988 64.9501V64.9467ZM42.7112 80.7711C46.4208 82.163 49.8465 78.5458 52.212 76.1301C52.3773 75.9603 52.5437 75.795 52.7113 75.6297C52.7775 75.5895 52.833 75.534 52.8732 75.4678C54.6596 73.7464 56.6352 72.3123 59.0566 71.5735C61.6455 70.7847 63.824 71.1768 66.2933 71.6682C66.7928 72.3059 67.1022 73.0717 67.1859 73.8775C67.1859 74.0622 67.1973 74.2491 67.2155 74.4384C67.2109 75.4536 66.9024 76.4443 66.3298 77.2827C65.0758 79.0964 62.7217 79.0417 60.7825 79.3278C59.809 79.4715 58.5778 79.5706 57.3625 79.7838C58.7305 78.8331 59.9674 77.937 60.982 77.3214C61.2625 77.1516 61.063 76.7856 60.7734 76.8267C59.4054 77.0227 58.3954 77.9119 57.3158 78.7179C55.8967 79.7817 54.3977 80.7345 52.8322 81.5679C51.3684 82.3465 49.6903 83.4626 48.0282 83.6644C45.7505 83.9448 44.0222 82.4457 42.7112 80.7745V80.7711ZM63.2096 82.717C61.6261 82.2417 60.2148 81.349 58.7795 80.5396C59.5958 80.3914 60.412 80.2478 61.2385 80.1418C63.0625 79.9069 65.0906 79.8659 66.4825 78.5013C66.9317 78.0624 67.3569 77.3111 67.667 76.4493C67.9771 77.3123 68.4034 78.0636 68.8537 78.5013C70.1659 79.785 72.0389 79.8898 73.7626 80.0973C74.5674 80.1965 75.3586 80.3253 76.1566 80.4655C74.6563 81.2955 73.1926 82.2474 71.5418 82.7455C70.2126 83.148 68.9198 82.7455 67.5974 82.7911C66.12 82.6122 64.6882 83.1639 63.2096 82.7205V82.717ZM67.4276 83.2802C67.1342 83.3091 66.8428 83.3494 66.5532 83.401C66.7786 83.3424 67.0069 83.2956 67.2372 83.2608C67.2965 83.2688 67.3603 83.2756 67.4242 83.2836L67.4276 83.2802ZM91.0381 94.7224C91.1008 99.0236 88.8322 102.626 85.5741 105.279C84.8251 105.888 84.0397 106.477 83.2246 107.031C82.7104 104.203 82.4539 101.431 82.6386 98.5357C82.8324 95.5227 83.1983 92.0457 84.8046 89.4157C84.9414 89.1877 84.6017 89.0007 84.4626 89.2128C82.7298 91.7493 82.2111 94.8102 81.901 97.8186C81.5716 101.011 81.673 104.372 82.5428 107.484C80.5604 108.749 78.4069 109.77 76.1452 110.291C76.1452 108.221 75.6401 106.138 74.8912 104.221C73.9792 101.864 72.4208 99.8501 71.486 97.5085C71.3971 97.2874 71.0414 97.3729 71.12 97.6088C71.8702 99.8706 73.2245 101.849 74.043 104.084C74.8034 106.158 75.1089 108.277 75.4201 110.44C75.0382 110.508 74.654 110.567 74.2676 110.605C71.0756 110.917 67.8425 110.681 64.6517 110.833C63.9084 110.811 63.1697 110.779 62.4218 110.733C63.5527 107.541 63.2324 103.525 62.3443 100.368C62.2303 99.9698 61.6831 100.146 61.7401 100.535C62.016 102.417 62.2246 104.273 62.179 106.177C62.1437 107.696 61.837 109.179 61.723 110.684C61.1884 110.642 60.6537 110.595 60.1179 110.535C56.7253 110.159 53.3919 108.425 50.5886 106.346C50.5943 106.331 50.6 106.317 50.6046 106.302C51.3331 103.549 50.9865 100.488 50.1839 97.781C49.118 94.1957 48.3599 91.0254 49.0143 87.2577C49.0645 86.9681 48.6358 86.8381 48.5674 87.1345C47.9156 89.9424 47.9767 92.8687 48.7453 95.6469C49.2332 97.4709 49.826 99.2094 50.0323 101.102C50.2067 102.713 50.0722 104.302 50.0152 105.91C49.639 105.618 49.2731 105.322 48.9208 105.022C45.787 102.372 43.662 98.8834 43.7133 94.6882C43.7623 91.0402 44.8932 87.5392 44.9365 83.8912C47.8925 85.4382 51.878 83.4204 55.4154 81.1051C55.9421 80.9911 56.4847 80.9352 57.0217 80.8531C56.3821 81.4528 56.1097 82.4138 55.8007 83.2471C55.1635 84.9765 54.6847 86.7435 54.9001 88.596C54.9309 88.8651 55.331 88.8821 55.3333 88.596C55.3573 85.9455 56.3593 83.3782 57.7456 81.1541C59.0668 82.2075 60.8635 82.8333 62.3933 83.376C63.2164 83.6667 63.9893 83.9254 64.8797 83.8035C64.9663 83.7909 65.0518 83.7772 65.1362 83.7613C63.7853 84.1968 62.5655 84.8865 61.6979 85.754C61.5258 85.925 61.7812 86.1724 61.9601 86.0173C63.6371 84.5684 65.5671 83.9585 67.7741 84.003C68.7705 84.0235 69.9276 84.052 70.8761 84.3518C71.8439 84.6585 72.577 85.3288 73.4981 85.7198C73.6223 85.7734 73.8253 85.6457 73.7158 85.5032C73.0878 84.7018 72.2484 84.0917 71.2922 83.7419C71.649 83.6541 72.0013 83.5344 72.3592 83.4079C74.1 82.7923 76.1965 82.0604 77.5325 80.7186L78.041 80.8098C78.383 80.8691 78.725 80.9136 79.067 80.9626C82.6717 83.3497 86.7859 85.5112 89.8172 83.9266C89.8225 84.4662 89.8491 85.0031 89.897 85.5374C89.897 85.5374 89.8879 85.5374 89.8833 85.5454C87.0857 88.0294 85.8443 93.001 86.078 96.5931C86.0996 96.9283 86.6206 96.9351 86.6047 96.5931C86.4907 94.255 87.1165 92.0639 88.065 89.9458C88.6145 88.7191 89.4056 87.6145 89.9893 86.4118C90.3176 89.1877 90.9982 91.9146 91.0381 94.7224ZM92.0402 80.8144C90.8683 82.3112 89.3201 83.743 87.3126 83.7784C85.5308 83.8103 83.6156 82.5244 82.0686 81.6876C82.0752 81.6545 82.0739 81.6203 82.0648 81.5879C82.0557 81.5554 82.039 81.5255 82.0162 81.5007C81.5925 81.0731 81.089 80.733 80.5342 80.4997C80.6894 80.5592 80.8536 80.5924 81.0198 80.5978C81.0538 80.5967 81.0867 80.5858 81.1146 80.5665C81.1426 80.5471 81.1644 80.5201 81.1774 80.4887C81.1903 80.4573 81.194 80.4228 81.1879 80.3894C81.1818 80.356 81.1662 80.325 81.1429 80.3002C80.7861 79.9172 80.3164 79.6755 79.9345 79.313C79.5526 78.9505 79.1958 78.5253 78.8207 78.1376C78.0227 77.3214 77.1757 76.6477 76.1338 76.1826C76.046 76.1427 75.9343 76.2532 76.0198 76.3285C77.0013 77.1675 77.9578 78.0043 78.8105 78.9767C79.2391 79.4646 79.7419 80.1167 80.3643 80.4279C80.0185 80.2865 79.664 80.1673 79.303 80.0711C78.7573 79.7162 78.2222 79.3434 77.6978 78.9528C76.5419 78.0875 75.4486 77.074 73.9803 76.8643C73.693 76.8232 73.489 77.188 73.7717 77.359C74.7281 77.9382 75.8841 78.7669 77.1541 79.655C76.225 79.5262 75.3209 79.443 74.5651 79.3312C72.8107 79.0725 70.9171 79.1032 69.5674 77.815C69.1021 77.3596 68.7355 76.8135 68.4901 76.2104C68.2448 75.6074 68.126 74.9604 68.1412 74.3095C68.1503 74.1955 68.156 74.0815 68.1595 73.9675C68.2284 73.0857 68.5698 72.2471 69.1364 71.5678C71.3332 71.146 73.3544 70.8838 75.6971 71.6055C78.1219 72.3499 80.0941 73.7817 81.8816 75.5031C81.9241 75.5687 81.981 75.6237 82.0481 75.6638C82.2157 75.828 82.3821 75.9933 82.5474 76.162C84.9072 78.5834 88.3295 82.1938 92.0402 80.8087V80.8144ZM89.3395 80.0916C88.1528 79.7644 87.1234 79.1568 86.1669 78.4067C86.2809 77.8606 86.1737 77.2564 86.1908 76.691C86.2159 75.6521 86.3334 74.6174 86.542 73.5993C86.5921 73.3576 86.2376 73.2573 86.1692 73.4967C85.8979 74.4197 85.7005 75.3628 85.5787 76.3171C85.5262 76.7662 85.4339 77.3043 85.4521 77.8082C84.5926 77.049 83.7775 76.194 82.9441 75.3458C84.7681 73.9573 85.8979 71.5838 87.0299 69.6743C88.2212 67.6576 89.1868 65.625 89.5835 63.3621C89.8559 64.0165 90.2492 64.6355 90.7657 64.9912C89.49 69.8442 89.1286 75.0802 89.3395 80.0859V80.0916ZM94.0625 58.6152C93.8573 59.5397 93.6738 62.0534 92.9921 62.7579L90.9036 63.5274C90.7771 63.2926 90.6574 63.0532 90.5456 62.8115C90.3217 62.3335 90.0222 61.8947 89.6587 61.5119C89.49 61.3363 89.1024 61.4572 89.1366 61.7274C89.1514 61.8471 89.1731 61.9747 89.1993 62.1081C88.0331 66.871 85.451 71.0001 82.1917 74.5991C81.3048 73.7338 80.3677 72.9108 79.3201 72.253C78.3947 71.6786 77.4087 71.2084 76.38 70.8508C76.3276 70.5544 76.0847 70.2967 75.8932 70.0733C75.5626 69.6857 75.1682 69.3289 74.9675 68.8512C74.8763 68.6335 74.5343 68.7087 74.6016 68.9515C74.7281 69.3818 74.9398 69.7823 75.224 70.1292C75.3232 70.2534 75.4327 70.421 75.5524 70.5852C75.3715 70.5327 75.1883 70.4829 75.0029 70.4358C75.0109 70.2352 74.8262 70.0938 74.7042 69.9422C74.5261 69.72 74.382 69.4726 74.2767 69.208C74.2003 69.0199 73.9016 69.0883 73.9632 69.2947C74.047 69.589 74.1697 69.8707 74.328 70.1326C74.3633 70.1884 74.4021 70.2466 74.442 70.3138C73.9524 70.2114 73.4577 70.1353 72.96 70.0858C73.1422 69.7293 73.2211 69.3289 73.188 68.9299C73.1356 68.255 72.8175 67.5938 72.2201 67.2495C72.0776 67.1674 71.8622 67.3453 71.9773 67.4935C72.4527 68.1102 72.9748 69.3825 72.1141 69.9536C72.0807 69.9761 72.051 70.0038 72.0263 70.0357C70.3733 70.006 68.7625 70.3332 67.4036 71.1586C66.0356 70.307 64.3997 69.9718 62.7228 70.0015C62.6984 69.9694 62.6687 69.9416 62.635 69.9194C61.7755 69.3494 62.293 68.076 62.773 67.4593C62.887 67.3111 62.6715 67.1344 62.529 67.2165C61.9328 67.5585 61.617 68.2208 61.5623 68.8968C61.5287 69.296 61.6069 69.6966 61.788 70.0539C59.5355 70.288 57.3645 71.026 55.4359 72.2131C54.3848 72.8709 53.4523 73.6951 52.5643 74.5592C49.305 70.9579 46.724 66.8311 45.5578 62.0694C45.584 61.936 45.6046 61.8072 45.6194 61.6886C45.6536 61.4184 45.2671 61.2953 45.0984 61.472C44.3107 62.2951 43.4853 65.462 41.765 62.718C41.0879 61.6407 40.967 59.8133 40.6934 58.5753C40.3777 57.1696 39.7814 55.3194 40.0174 53.8762C40.2796 52.2562 42.3202 51.7421 43.6153 52.7487C45.0403 54.4336 45.0152 58.1763 45.6046 60.3183C45.6194 60.373 45.6365 60.4323 45.6536 60.4813C45.7172 60.7008 45.7988 60.9147 45.8975 61.1209C45.908 61.1465 45.9234 61.1698 45.943 61.1894C45.9626 61.209 45.9859 61.2244 46.0115 61.2349C46.4311 61.8676 47.0843 62.3635 47.9142 62.7169C50.6593 63.8934 53.8513 64.5671 56.8313 64.2604C59.1523 64.021 62.0092 63.9002 63.514 61.8858C63.856 61.4298 64.1284 60.7264 64.394 59.9205L64.3838 60.9818C64.3838 61.1916 64.711 61.2463 64.7554 61.0331C64.9249 60.2577 65.0441 59.4721 65.1122 58.6813C65.1419 58.28 65.2103 57.8354 65.1898 57.4147C65.6971 55.9327 66.3206 54.6092 67.3238 54.2512C68.6531 54.6252 69.3405 56.6635 69.9458 58.614C69.6574 60.9636 69.8546 63.736 71.4506 65.5418C71.4736 65.563 71.5034 65.5755 71.5346 65.5769C71.5659 65.5782 71.5966 65.5685 71.6214 65.5494C71.6461 65.5302 71.6633 65.5029 71.6698 65.4723C71.6763 65.4417 71.6718 65.4098 71.657 65.3822C70.7165 63.9162 70.7051 62.4022 70.6891 60.8575C70.8285 61.2328 71.0138 61.5893 71.2409 61.9189C72.732 63.9321 75.6128 64.0541 77.9224 64.2958C80.8967 64.6024 84.0989 63.9298 86.8384 62.7522C87.0781 62.6497 87.3101 62.5301 87.5326 62.3943C87.0766 63.2196 86.6354 64.0632 86.0928 64.8361C85.052 66.3181 83.855 67.7215 82.723 69.1374C82.5953 69.297 82.7993 69.5158 82.951 69.3653C85.2925 67.1025 88.2565 64.3038 88.9474 60.9544C88.9964 60.8404 89.042 60.7059 89.0853 60.5691C89.121 60.4639 89.1515 60.357 89.1765 60.2488C89.7374 58.0908 89.7374 54.4428 91.1396 52.7841C92.4312 51.7797 94.4558 52.3281 94.7363 53.9127C94.9985 55.3741 94.3852 57.1674 94.0625 58.6095V58.6152Z" fill="#7D887A"/>
    <path d="M71.5259 54.239C71.3879 55.9718 71.918 57.5746 72.7605 59.2025C73.7546 61.1246 75.0268 61.739 77.162 61.9978C80.8944 62.4538 87.1245 62.0981 87.959 57.4572C88.2189 56.0094 88.163 54.4031 88.0821 52.9428C88.0467 52.2884 88.1425 51.2727 87.6762 50.73C86.4644 49.321 83.3032 49.6413 81.7118 49.8864C79.2994 50.2431 76.9094 50.7379 74.5537 51.3684C72.9132 51.8176 71.4027 52.2462 71.5259 54.239ZM80.0759 51.047C81.8771 50.7608 84.5276 49.9708 86.1749 51.031C87.6899 52.0046 87.2738 54.7645 87.1496 56.2955C86.7813 60.8646 81.6776 61.3332 77.9714 61.1371C75.6413 61.014 74.2174 60.3015 73.172 58.1514C72.5359 56.845 72.1962 55.632 72.138 54.2754C72.8996 52.4024 74.4978 52.2611 76.217 51.7674C77.4561 51.414 78.807 51.2442 80.0759 51.0435V51.047Z" fill="#7D887A"/>
    <path d="M92.8575 53.6209C92.8906 55.1029 92.9716 56.5381 92.6854 58.0076C92.5687 58.617 92.3946 59.2139 92.1656 59.7906C92.1656 59.8008 92.1576 59.8099 92.153 59.8213C92.0072 59.4358 91.885 59.0418 91.7871 58.6414C91.5897 57.6561 91.4817 56.6549 91.4645 55.6501C91.4626 55.6063 91.4453 55.5645 91.4157 55.5321C91.3861 55.4997 91.3461 55.4787 91.3026 55.4729C91.2591 55.4671 91.2149 55.4767 91.1778 55.5001C91.1408 55.5236 91.1131 55.5593 91.0997 55.6011C90.663 57.0831 90.5946 59.2992 91.4417 60.7504C91.1503 60.9521 90.8456 61.1337 90.5297 61.2942C90.2241 61.4641 90.4008 61.8562 90.6915 61.8927C91.4565 61.9873 91.9695 61.7388 92.3354 61.3125C92.3858 61.2783 92.4254 61.2304 92.4494 61.1745C92.8245 60.6592 93.0274 59.9422 93.1984 59.2479C93.6544 57.3954 93.7684 55.4004 93.0844 53.5901C93.0422 53.4738 92.8553 53.4807 92.8575 53.6209Z" fill="#7D887A"/>
    <path d="M69.809 80.1102C69.955 80.0635 69.9857 79.8104 69.809 79.7819C68.5151 79.5721 67.073 79.9221 65.7632 79.9164C65.7233 79.9164 65.685 79.9323 65.6568 79.9605C65.6286 79.9887 65.6127 80.027 65.6127 80.0669C65.6127 80.1068 65.6286 80.1451 65.6568 80.1733C65.685 80.2015 65.7233 80.2174 65.7632 80.2174C67.04 80.2459 68.5744 80.5046 69.809 80.1102Z" fill="#7D887A"/>
    <path d="M75.3175 57.9244C75.9251 56.9908 76.3367 55.9329 76.9135 54.9764C77.4664 54.0644 78.0786 53.19 78.5369 52.221C78.636 52.0113 78.3237 51.8254 78.2234 52.0375C77.292 53.996 75.468 55.6319 75.0553 57.8139C75.0482 57.8469 75.0528 57.8813 75.0683 57.9112C75.0839 57.9412 75.1095 57.9648 75.1405 57.9779C75.1716 57.991 75.2064 57.9928 75.2387 57.9831C75.271 57.9733 75.2989 57.9526 75.3175 57.9244Z" fill="#7D887A"/>
    <path d="M76.5123 57.7617C77.6181 56.5305 78.2223 54.8239 79.0955 53.4217C79.1821 53.2815 78.9644 53.1572 78.8743 53.2929C77.9737 54.6449 76.7437 56.0528 76.3173 57.6488C76.3075 57.6742 76.3071 57.7022 76.3161 57.7278C76.3251 57.7535 76.343 57.775 76.3665 57.7886C76.39 57.8023 76.4176 57.807 76.4444 57.8021C76.4711 57.7971 76.4952 57.7828 76.5123 57.7617Z" fill="#7D887A"/>
    <path d="M79.0123 54.468C78.8493 54.81 78.6839 55.1417 78.5232 55.4803C78.3944 55.7528 78.2108 56.0503 78.2234 56.3604C78.2242 56.3883 78.233 56.4154 78.2488 56.4384C78.2646 56.4614 78.2867 56.4794 78.3125 56.4901C78.3383 56.5008 78.3666 56.5039 78.3941 56.4988C78.4216 56.4938 78.447 56.481 78.4673 56.4618C78.7033 56.2635 78.7991 55.9249 78.9131 55.6445C79.0533 55.3025 79.1913 54.9502 79.3303 54.6025C79.4044 54.4201 79.0978 54.2913 79.0123 54.468Z" fill="#7D887A"/>
    <path d="M49.3278 57.5392C50.1657 56.8141 50.7437 55.7688 51.3638 54.8602C52.0718 53.8228 52.7695 52.7797 53.4307 51.7115C53.5105 51.5827 53.3167 51.4767 53.23 51.5975C52.5278 52.5528 51.8449 53.5207 51.1484 54.4806C50.4644 55.4165 49.6105 56.3399 49.1522 57.4058C49.1426 57.4291 49.141 57.4549 49.1475 57.4792C49.1541 57.5035 49.1686 57.5249 49.1886 57.5401C49.2087 57.5554 49.2332 57.5635 49.2584 57.5634C49.2836 57.5632 49.308 57.5547 49.3278 57.5392Z" fill="#7D887A"/>
    <path d="M53.3269 53.001C52.9108 53.5893 52.513 54.1889 52.0957 54.776C51.6785 55.3631 51.1769 55.9001 50.8509 56.5271C50.8392 56.5506 50.8361 56.5775 50.842 56.6032C50.8479 56.6288 50.8625 56.6516 50.8833 56.6677C50.9041 56.6838 50.9298 56.6922 50.9561 56.6915C50.9824 56.6908 51.0076 56.681 51.0276 56.6639C52.0775 55.7952 52.8937 54.2972 53.474 53.0865C53.4827 53.0672 53.484 53.0454 53.4775 53.0253C53.4711 53.0051 53.4574 52.988 53.4391 52.9774C53.4208 52.9668 53.3992 52.9633 53.3785 52.9677C53.3577 52.972 53.3394 52.9839 53.3269 53.001Z" fill="#7D887A"/>
    <path d="M53.1856 54.3516C52.888 54.8521 52.5335 55.3343 52.4252 55.9134C52.4198 55.934 52.4213 55.9557 52.4295 55.9753C52.4376 55.9949 52.452 56.0113 52.4704 56.0219C52.4888 56.0326 52.5102 56.0368 52.5313 56.0341C52.5524 56.0314 52.572 56.0218 52.5871 56.0069C53.0111 55.5999 53.2198 55.0425 53.4728 54.5249C53.4958 54.4868 53.5027 54.4411 53.492 54.3979C53.4813 54.3548 53.4539 54.3176 53.4158 54.2946C53.3777 54.2716 53.3321 54.2647 53.2889 54.2754C53.2457 54.2861 53.2085 54.3135 53.1856 54.3516Z" fill="#7D887A"/>
    <path d="M75.3004 43.5478C73.3798 43.5604 71.4639 43.7393 69.5742 44.0825C67.0229 44.5385 65.1613 44.7665 62.6282 43.9924C60.925 43.476 59.4179 43.4007 57.6908 43.8203C57.4799 43.8716 57.5187 44.2318 57.7433 44.2079C61.1325 43.8385 63.9722 45.8039 67.333 45.3296C69.0601 45.0845 70.737 44.6661 72.4801 44.5031C74.0282 44.3583 76.6365 43.8773 78.0592 44.6456C78.3693 44.8121 78.7284 44.3948 78.448 44.1406C77.6169 43.3859 76.3595 43.5478 75.3004 43.5478Z" fill="#7D887A"/>
    <path d="M51.8848 42.5652C54.3928 42.3965 56.9133 41.7102 59.4293 41.9097C61.7595 42.0933 63.9608 42.8684 66.3183 42.4854C68.9324 42.0602 71.3081 40.9476 73.9803 40.6774C76.7163 40.4004 79.3622 40.6956 82.0424 41.2611C82.3342 41.3226 82.5417 40.9191 82.2544 40.7595C78.2359 38.5935 72.3455 39.8349 68.2472 41.1231C65.2502 42.0648 62.8129 41.4412 59.7873 41.1459C57.1243 40.8871 54.3905 41.554 51.8461 42.2768C51.691 42.3201 51.715 42.5766 51.8848 42.5652Z" fill="#7D887A"/>
    <path d="M44.623 43.7487C44.8248 42.7672 45.144 41.8027 45.258 40.812C45.2694 40.7163 45.128 40.6912 45.0847 40.7653C44.5717 41.642 44.3722 42.6486 44.2046 43.6392C44.159 43.9037 44.566 44.0257 44.623 43.7487Z" fill="#7D887A"/>
    <path d="M45.014 43.2675C44.6971 43.7498 44.5706 44.3186 44.3973 44.8635C44.3369 45.0562 44.6253 45.1303 44.696 44.9456C44.8932 44.4075 45.136 43.8854 45.1805 43.3097C45.1873 43.2185 45.0596 43.1991 45.014 43.2675Z" fill="#7D887A"/>
    <path d="M91.9535 32.3566C92.3411 35.7116 92.4597 38.7828 92.1736 42.1606C92.1519 42.4126 92.5292 42.4012 92.56 42.1606C92.9579 39.004 93.5986 35.3685 92.5087 32.2848C92.4095 32.0032 91.9148 32.0192 91.9535 32.3566Z" fill="#7D887A"/>
    <path d="M90.8466 32.6509C90.7075 32.4674 90.3815 32.5631 90.451 32.8185C91.2673 35.8053 91.3402 38.832 91.4633 41.9043C91.4633 41.9536 91.4829 42.0008 91.5178 42.0357C91.5526 42.0705 91.5999 42.0901 91.6492 42.0901C91.6984 42.0901 91.7457 42.0705 91.7806 42.0357C91.8154 42.0008 91.835 41.9536 91.835 41.9043C92.047 40.1225 92.0048 38.3429 91.835 36.5588C91.7027 35.2262 91.6765 33.7442 90.8466 32.6509Z" fill="#7D887A"/>
    <path d="M58.3429 93.0832C57.7045 90.9845 57.1448 88.8948 57.0684 86.6878C57.0651 86.65 57.0478 86.6148 57.0198 86.5892C56.9918 86.5635 56.9553 86.5493 56.9173 86.5493C56.8794 86.5493 56.8428 86.5635 56.8149 86.5892C56.7869 86.6148 56.7696 86.65 56.7663 86.6878C56.6021 88.9678 56.919 91.2033 58.1092 93.1858C58.1255 93.2123 58.1508 93.2321 58.1805 93.2413C58.2102 93.2506 58.2423 93.2489 58.2708 93.2364C58.2993 93.2238 58.3223 93.2015 58.3355 93.1733C58.3488 93.1451 58.3514 93.1131 58.3429 93.0832Z" fill="#7D887A"/>
    <path d="M64.2857 88.154C64.3507 87.9089 63.9996 87.8223 63.9118 88.0514C62.7832 91.0154 63.0078 94.0319 63.7807 97.0574C64.6232 100.354 65.6047 103.783 66.7447 106.975C66.7558 107.013 66.7799 107.045 66.8125 107.066C66.8452 107.087 66.8843 107.096 66.9228 107.09C66.9614 107.085 66.9967 107.066 67.0226 107.037C67.0485 107.008 67.0631 106.971 67.0639 106.932C67.2326 104.048 65.9239 101.19 65.0963 98.4847C64.068 95.1343 63.3657 91.6196 64.2857 88.154Z" fill="#7D887A"/>
    <path d="M65.9695 97.8506C66.7345 99.4956 67.4595 101.157 67.9554 102.904C68.3943 104.451 68.5414 106.071 69.0167 107.601C69.0297 107.641 69.0563 107.675 69.0917 107.697C69.1271 107.719 69.1692 107.728 69.2106 107.723C69.252 107.717 69.2902 107.697 69.3185 107.666C69.3468 107.636 69.3635 107.596 69.3656 107.554C69.7919 104.215 68.2256 100.336 66.4768 97.5531C66.2728 97.2282 65.8111 97.5109 65.9695 97.8506Z" fill="#7D887A"/>
    <path d="M67.6077 91.0609C67.6077 90.8261 67.2429 90.6893 67.1323 90.9321C66.3708 92.5953 67.4253 94.4661 68.0215 96.0621C68.8287 98.2201 69.7931 100.27 70.7963 102.341C70.9103 102.569 71.2968 102.404 71.1999 102.171C70.468 100.424 69.8319 98.6294 69.1718 96.8521C68.4753 94.9802 67.6488 93.0821 67.6077 91.0609Z" fill="#7D887A"/>
    <path d="M51.4505 93.7888C50.9778 91.2568 50.9393 88.6627 51.3365 86.1178C51.3672 85.9217 51.0777 85.8305 51.0309 86.0334C49.973 90.566 50.2569 96.2501 53.1297 100.13C53.2722 100.322 53.6541 100.22 53.5538 99.9517C52.782 97.8894 51.87 95.9685 51.4505 93.7888Z" fill="#7D887A"/>
    <path d="M53.8547 97.1745C54.9947 99.3964 55.2079 101.798 56.0686 104.102C56.1461 104.307 56.495 104.298 56.479 104.046C56.3308 101.595 55.4143 99.0897 54.2423 96.9476C54.1033 96.6934 53.7225 96.918 53.8547 97.1745Z" fill="#7D887A"/>
    <path d="M56.3901 94.6597C57.4127 96.6348 58.2768 98.6879 58.9745 100.8C59.606 102.729 59.8648 104.749 60.469 106.676C60.4879 106.741 60.529 106.796 60.5851 106.832C60.6411 106.868 60.7083 106.883 60.7744 106.874C60.8406 106.865 60.9014 106.833 60.9457 106.783C60.9901 106.733 61.0151 106.669 61.0162 106.602C61.063 102.427 58.9095 97.9144 56.6842 94.4876C56.6595 94.4525 56.6226 94.428 56.5807 94.4189C56.5388 94.4098 56.495 94.4168 56.458 94.4385C56.421 94.4601 56.3935 94.4949 56.3809 94.5358C56.3684 94.5768 56.3716 94.621 56.3901 94.6597Z" fill="#7D887A"/>
    <path d="M46.1324 88.6432C46.1575 88.4277 45.7904 88.3787 45.7528 88.5919C45.1999 91.5467 44.4463 95.3019 46.2338 97.9912C46.3889 98.2192 46.7845 98.0835 46.7012 97.7939C45.7881 94.6202 45.7539 91.9218 46.1324 88.6432Z" fill="#7D887A"/>
    <path d="M74.0236 95.5469C72.618 93.138 71.8428 90.3086 71.706 87.5292C71.6923 87.2465 71.266 87.2431 71.2648 87.5292C71.25 92.9351 73.709 98.1221 77.6853 101.802C77.7397 101.854 77.8109 101.884 77.8858 101.888C77.9608 101.892 78.0347 101.869 78.0941 101.823C78.1536 101.777 78.1947 101.712 78.21 101.638C78.2254 101.565 78.214 101.488 78.1778 101.422C77.0378 99.3111 75.2332 97.6274 74.0236 95.5469Z" fill="#7D887A"/>
    <path d="M77.4573 82.1714C78.2462 84.041 79.0533 85.7567 79.3953 87.7757C79.7624 89.9417 79.7954 92.1647 79.8148 94.3569C79.8188 94.4106 79.8429 94.4608 79.8823 94.4974C79.9217 94.5341 79.9736 94.5545 80.0274 94.5545C80.0813 94.5545 80.1331 94.5341 80.1726 94.4974C80.212 94.4608 80.2361 94.4106 80.24 94.3569C80.3723 90.3669 80.7337 85.0898 77.8597 81.8625C77.6488 81.6242 77.3547 81.9275 77.4573 82.1714Z" fill="#7D887A"/>
    <path d="M76.6194 84.5072C76.5054 84.4491 76.3424 84.5483 76.3914 84.6816C76.6319 85.336 77.0914 85.8809 77.3729 86.5193C77.748 87.3663 77.9213 88.2886 78.0045 89.2074C78.0045 89.264 78.027 89.3182 78.0669 89.3582C78.1069 89.3982 78.1611 89.4206 78.2177 89.4206C78.2742 89.4206 78.3284 89.3982 78.3684 89.3582C78.4084 89.3182 78.4309 89.264 78.4309 89.2074C78.6064 87.6855 78.1048 85.2984 76.6194 84.5072Z" fill="#7D887A"/>
    <path d="M81.9763 84.7921C82.2556 86.4793 82.1666 88.1221 82.2043 89.8195C82.2043 90.0076 82.4938 90.0578 82.5394 89.8651C82.9407 88.1688 82.7264 86.3699 82.3832 84.6804C82.3251 84.4148 81.9329 84.5311 81.9763 84.7921Z" fill="#7D887A"/>
    <path d="M88.9325 67.814C87.9476 70.6059 86.8668 73.9792 86.9649 76.966C86.974 77.2635 87.4209 77.2658 87.4289 76.966C87.4699 73.807 89.4638 70.965 89.3885 67.8756C89.3967 67.8151 89.3805 67.7539 89.3435 67.7054C89.3065 67.6568 89.2518 67.625 89.1913 67.6168C89.1308 67.6087 89.0696 67.6248 89.0211 67.6618C88.9725 67.6988 88.9407 67.7536 88.9325 67.814Z" fill="#7D887A"/>
    <path d="M88.7467 92.7334C88.3671 94.5574 88.1482 96.4168 87.7641 98.2408C87.3594 100.169 86.4918 101.519 85.4327 103.13C85.2754 103.368 85.581 103.646 85.8135 103.511C89.2757 101.506 88.5153 96.101 89.0534 92.8178C89.0853 92.6206 88.7889 92.5305 88.7467 92.7334Z" fill="#7D887A"/>
    <path d="M64.6836 68.8947C64.4043 68.8331 63.9244 68.7807 63.8149 69.1227C63.8081 69.1458 63.8076 69.1703 63.8136 69.1936C63.8197 69.2169 63.8319 69.2381 63.8491 69.2549C64.0315 69.4214 64.2789 69.3336 64.5023 69.3575C64.7984 69.3856 65.0807 69.4957 65.3174 69.6756C65.4417 69.7725 65.6765 69.6425 65.5614 69.4875C65.3504 69.19 65.0384 68.9793 64.6836 68.8947Z" fill="#7D887A"/>
    <path d="M70.9 68.8389C70.7073 68.7249 70.4702 68.8275 70.2787 68.9039C70.0706 68.9926 69.8767 69.1113 69.703 69.2562C69.5571 69.3702 69.744 69.5856 69.8957 69.5047C70.0744 69.4142 70.2601 69.338 70.4508 69.2767C70.6127 69.222 70.8179 69.2094 70.9296 69.0669C70.9452 69.0512 70.9569 69.032 70.964 69.011C70.9711 68.99 70.9733 68.9677 70.9704 68.9457C70.9675 68.9237 70.9597 68.9027 70.9475 68.8842C70.9353 68.8657 70.9191 68.8502 70.9 68.8389Z" fill="#7D887A"/>
    <path d="M72.96 15.535C75.2184 17.8651 76.9705 20.8599 77.2293 24.1454C77.251 24.4224 77.691 24.4201 77.6625 24.1454C77.3103 20.7322 76.0449 17.7819 73.7523 15.2146C71.9739 13.2219 68.4981 9.76545 65.5979 10.128C65.2924 10.1656 65.1419 10.6672 65.517 10.7276C68.3795 11.195 70.9901 13.5069 72.96 15.535Z" fill="#7D887A"/>
    <path d="M71.2751 8.13036C75.2833 10.7945 78.3534 14.1541 80.5513 18.4576C81.6149 20.5406 82.4189 22.7463 82.9453 25.0252C83.4594 27.2482 83.5039 29.4848 83.8185 31.7272C83.8618 32.0441 84.417 32.0453 84.4603 31.7272C85.0908 27.0829 83.3032 21.7898 81.1281 17.7485C78.9621 13.7335 75.7245 9.6363 71.3355 7.99584C71.25 7.9662 71.2101 8.08704 71.2751 8.13036Z" fill="#7D887A"/>
    <path d="M85.1432 22.8367C85.5581 24.4817 85.6653 26.3342 86.4986 27.8265C86.5182 27.8589 86.5478 27.8841 86.583 27.8982C86.6182 27.9124 86.657 27.9146 86.6936 27.9047C86.7302 27.8948 86.7626 27.8732 86.7858 27.8433C86.8091 27.8133 86.8219 27.7766 86.8224 27.7387C86.9284 24.2685 85.4783 20.0038 83.1812 17.3909C83.041 17.2324 82.7537 17.4468 82.8837 17.6189C84.0317 19.1716 84.6735 20.9762 85.1432 22.8367Z" fill="#7D887A"/>
    <path d="M91.135 31.3579C91.1555 31.5802 91.4964 31.6657 91.5534 31.4149C91.8954 29.8804 91.5352 28.3984 91.1829 26.8936C90.7087 24.8633 90.166 22.8444 89.425 20.8927C88.1961 17.6551 86.4348 14.7207 83.6908 12.5604C83.5506 12.4464 83.3557 12.6277 83.489 12.7633C88.2839 17.6368 90.4955 24.6832 91.135 31.3579Z" fill="#7D887A"/>
    <path d="M91.4633 24.7826C91.5466 24.9616 91.8544 24.875 91.8384 24.6812C91.6959 22.9392 91.1339 21.162 90.6083 19.4999C90.1957 18.198 89.6963 17.0842 88.708 16.1266C88.594 16.0126 88.3865 16.1597 88.48 16.3044C90.1238 18.9242 90.19 22.0329 91.4633 24.7826Z" fill="#7D887A"/>
    <path d="M91.8019 26.1309C92.0744 27.6813 92.177 29.2852 92.5395 30.8151C92.5851 31.0089 92.8655 30.9565 92.8735 30.7707C92.9487 29.194 92.5748 27.541 92.2283 26.0134C92.1644 25.7341 91.754 25.8561 91.8019 26.1309Z" fill="#7D887A"/>
    <path d="M51.0082 29.4042C54.5182 30.5168 58.034 31.8996 61.7367 32.1083C61.7681 32.1073 61.7981 32.0952 61.8213 32.0742C61.8446 32.0532 61.8597 32.0245 61.8638 31.9934C61.8679 31.9623 61.8608 31.9307 61.8438 31.9044C61.8268 31.878 61.8009 31.8586 61.7709 31.8495C57.4252 30.8303 53.2699 28.9505 48.9527 27.7899C45.9089 26.9703 41.4287 27.9963 39.1977 30.29C39.1681 30.3211 39.1493 30.3609 39.1442 30.4036C39.1391 30.4463 39.1481 30.4895 39.1697 30.5267C39.1913 30.5638 39.2244 30.593 39.264 30.6097C39.3036 30.6264 39.3476 30.6298 39.3893 30.6194C41.1186 30.087 42.677 29.1545 44.46 28.7453C46.8871 28.1867 48.7088 28.6757 51.0082 29.4042Z" fill="#7D887A"/>
    <path d="M51.5474 21.6099C50.2158 20.7709 48.7384 20.5281 47.1994 20.2875C45.5042 20.0231 43.7007 19.656 41.9885 19.7928C41.7331 19.8133 41.6465 20.1975 41.9246 20.2636C45.0608 21.008 48.3428 20.8211 51.4037 21.9497C51.6078 22.0249 51.7184 21.7182 51.5474 21.6099Z" fill="#7D887A"/>
    <path d="M51.8381 79.1709C53.2357 77.9009 54.427 76.3961 55.8509 75.1626C57.3032 73.9086 59.109 73.4526 60.7791 72.5954C61.0242 72.47 60.8498 72.1063 60.5967 72.1644C56.6272 73.0696 54.0725 75.9549 51.6922 79.0592C51.626 79.1458 51.764 79.2381 51.8381 79.1709Z" fill="#7D887A"/>
    <path d="M55.4633 78.0501C55.3253 78.2006 55.5431 78.4206 55.6913 78.2781C56.9625 76.9811 58.4515 75.9173 60.0905 75.1351C61.5725 74.4386 63.2381 74.2231 64.6825 73.5072C64.8842 73.408 64.7611 73.1435 64.5799 73.1253C61.234 72.7821 57.57 75.7655 55.4633 78.0501Z" fill="#7D887A"/>
    <path d="M62.244 77.7482C62.1437 77.8508 62.2805 78.0491 62.4025 77.9557C63.3749 77.2067 64.5126 76.5375 65.2844 75.5617C65.7917 74.9244 66.3047 73.8847 65.8863 73.0993C65.87 73.0721 65.8469 73.0496 65.8194 73.0341C65.7918 73.0185 65.7607 73.0103 65.729 73.0103C65.6973 73.0103 65.6662 73.0185 65.6386 73.0341C65.611 73.0496 65.588 73.0721 65.5717 73.0993C65.3904 73.423 65.3756 73.7525 65.2707 74.1047C65.1029 74.6514 64.803 75.1482 64.3975 75.5514C63.6895 76.2878 62.9599 77.0106 62.244 77.7482Z" fill="#7D887A"/>
    <path d="M53.2551 79.3257C52.0339 80.3647 50.5773 81.0895 49.012 81.437C47.6714 81.7288 46.341 81.559 45.0061 81.7528C44.7895 81.7847 44.8522 82.0708 45.0061 82.1335C47.8424 83.2849 51.4664 81.5122 53.4683 79.5389C53.6085 79.401 53.401 79.2015 53.2551 79.3257Z" fill="#7D887A"/>
    <path d="M88.651 81.6777C87.397 81.1772 86.0803 80.9424 84.8434 80.3428C83.7319 79.8024 82.7344 79.0682 81.64 78.5005C81.4621 78.4082 81.2455 78.6487 81.412 78.7924C83.1847 80.2972 86.1259 82.397 88.5826 82.1645C88.6411 82.1623 88.6971 82.1396 88.7406 82.1004C88.7841 82.0611 88.8124 82.0078 88.8206 81.9497C88.8287 81.8917 88.8162 81.8326 88.7852 81.7829C88.7542 81.7332 88.7067 81.6959 88.651 81.6777Z" fill="#7D887A"/>
    <path d="M83.4993 78.5621C83.5882 78.6761 83.7683 78.5302 83.6942 78.4128C81.9842 75.7098 78.4765 73.3705 75.2286 73.2212C75.178 73.2238 75.1295 73.2425 75.0902 73.2745C75.0509 73.3066 75.0229 73.3503 75.0101 73.3994C74.9974 73.4485 75.0007 73.5003 75.0195 73.5474C75.0383 73.5945 75.0716 73.6344 75.1146 73.6612C76.5613 74.4478 78.2302 74.6713 79.6837 75.508C81.0335 76.2878 82.5212 77.34 83.4993 78.5621Z" fill="#7D887A"/>
    <path d="M73.2644 74.2663C73.217 74.2685 73.1718 74.2873 73.1368 74.3194C73.1018 74.3514 73.0791 74.3947 73.0728 74.4418C73.0664 74.4888 73.0767 74.5366 73.1019 74.5768C73.1272 74.617 73.1657 74.6471 73.2108 74.6619C74.2801 75.0278 75.4292 74.7827 76.5008 75.1897C77.6044 75.6092 78.4149 76.4346 79.3109 77.1676C79.3459 77.2018 79.3929 77.2209 79.4418 77.2208C79.4907 77.2206 79.5375 77.2011 79.5722 77.1666C79.6068 77.1321 79.6265 77.0854 79.6269 77.0365C79.6273 76.9876 79.6084 76.9405 79.5743 76.9054C77.862 74.907 75.9137 73.9745 73.2644 74.2663Z" fill="#7D887A"/>
    <path d="M74.9778 76.3138C74.1217 75.7438 73.0797 75.4907 72.1278 75.1134C71.6125 74.9082 71.0767 74.7224 70.6116 74.4134C69.9379 73.9654 69.7099 73.3202 69.3576 72.6487C69.271 72.4868 69.0612 72.5518 69.0031 72.6943C67.9246 75.3733 73.5243 75.8761 74.7908 76.6342C74.9972 76.7584 75.1762 76.4438 74.9778 76.3138Z" fill="#7D887A"/>
    <path d="M71.7642 76.828C71.2477 76.6946 70.7381 76.5373 70.2992 76.2318C69.8341 75.9115 69.6061 75.3985 69.1741 75.0633C69.1384 75.0291 69.0936 75.006 69.0451 74.9967C68.9965 74.9875 68.9463 74.9925 68.9006 75.0112C68.8549 75.0299 68.8155 75.0615 68.7874 75.1021C68.7592 75.1427 68.7435 75.1906 68.742 75.24C68.6577 76.0745 69.5617 76.7676 70.2297 77.105C70.6211 77.295 71.0382 77.4268 71.4677 77.4961C72.4139 77.6682 72.8973 77.8438 73.5391 78.6007C73.6531 78.7307 73.8321 78.5654 73.7671 78.4274C73.302 77.4915 72.7605 77.0845 71.7642 76.828Z" fill="#7D887A"/>
    <path d="M70.7324 72.7514C71.3127 72.7104 71.8542 72.5645 72.4424 72.5907C73.0307 72.6169 73.6041 72.7332 74.1878 72.7879C74.3611 72.8039 74.3736 72.5508 74.2265 72.4995C73.2005 72.1381 71.6194 71.7402 70.6253 72.3627C70.4623 72.4653 70.5158 72.7674 70.7324 72.7514Z" fill="#7D887A"/>
    <path d="M58.1537 49.6835C59.2082 50.078 60.2934 50.3493 61.3286 50.7973C62.2497 51.1963 63.0956 51.7754 64.0429 52.1106C65.6024 52.6623 67.2794 52.4195 68.8651 52.1049C68.8982 52.0953 68.9268 52.0741 68.9456 52.0451C68.9643 52.0162 68.9721 51.9815 68.9674 51.9473C68.9627 51.9132 68.9458 51.8818 68.9199 51.8591C68.894 51.8363 68.8608 51.8236 68.8263 51.8233C66.446 51.9373 64.7223 51.691 62.5837 50.5761C61.2157 49.8659 59.7554 49.3142 58.2061 49.2959C57.9724 49.2936 57.9542 49.6094 58.1537 49.6835Z" fill="#7D887A"/>
    <path d="M64.8591 53.3933C63.0842 56.1772 63.1115 60.5103 59.8614 62.0219C59.6904 62.1017 59.7747 62.3856 59.9571 62.3753C63.6051 62.1747 63.9471 55.9913 65.1601 53.57C65.1835 53.5301 65.1902 53.4825 65.1785 53.4377C65.1669 53.3929 65.1379 53.3546 65.098 53.3311C65.0581 53.3077 65.0105 53.3011 64.9657 53.3128C64.9209 53.3244 64.8826 53.3534 64.8591 53.3933Z" fill="#7D887A"/>
    <path d="M71.714 59.7727C72.1118 60.7439 72.5644 61.7107 73.5858 62.1188C73.6223 62.1336 73.6599 62.0823 73.6383 62.0504C71.9648 59.5982 71.1861 56.7539 69.9698 54.059C69.9139 53.9336 69.7121 54.0225 69.7509 54.1513C70.3175 56.054 70.9604 57.935 71.714 59.7727Z" fill="#7D887A"/>
    <path d="M45.3116 51.8699C46.1199 50.6775 46.8358 50.0174 48.3235 49.7108C49.5285 49.4622 50.7619 49.3209 51.984 49.1875C52.2405 49.1601 52.2531 48.7657 51.984 48.7771C49.8807 48.866 45.0836 48.7201 44.9012 51.7582C44.8875 51.9839 45.1987 52.0341 45.3116 51.8699Z" fill="#7D887A"/>
    <path d="M70.6412 52.4001C71.9169 50.9899 73.4251 50.6593 75.2297 50.2809C76.8964 49.932 78.5768 49.4737 80.2663 49.2617C80.2965 49.2617 80.3255 49.2497 80.3469 49.2283C80.3683 49.2069 80.3803 49.1779 80.3803 49.1477C80.3803 49.1175 80.3683 49.0885 80.3469 49.0671C80.3255 49.0457 80.2965 49.0337 80.2663 49.0337C78.114 48.8422 75.7268 49.6037 73.6417 50.0677C72.2851 50.3721 70.8134 50.8018 70.3357 52.2337C70.3291 52.2715 70.3345 52.3105 70.3511 52.3451C70.3678 52.3798 70.3949 52.4083 70.4287 52.4267C70.4624 52.4451 70.5011 52.4524 70.5392 52.4476C70.5774 52.4429 70.6131 52.4262 70.6412 52.4001Z" fill="#7D887A"/>
    <path d="M88.4925 51.8269C88.6863 52.87 88.5347 53.9758 88.6065 55.0292C88.6094 55.059 88.6233 55.0868 88.6456 55.1069C88.6678 55.1271 88.6968 55.1383 88.7268 55.1383C88.7568 55.1383 88.7857 55.1271 88.808 55.1069C88.8302 55.0868 88.8441 55.059 88.847 55.0292C88.9451 54.2654 89.1389 53.0798 89.0864 51.9705C89.3274 51.8468 89.5834 51.7549 89.848 51.6969C90.0919 51.657 90.0372 51.2409 89.7898 51.2637C89.6074 51.2786 89.4284 51.3002 89.246 51.3071C89.1718 51.3116 89.0983 51.325 89.0272 51.347C88.9866 51.0448 88.9101 50.7486 88.7992 50.4646C89.9431 50.402 91.0884 50.5603 92.1724 50.9309C92.3332 50.9867 92.4859 50.7428 92.3457 50.6333C91.2616 49.792 89.9243 49.6313 88.5757 49.7316C88.5092 49.736 88.4451 49.7581 88.3899 49.7954C88.1861 49.5682 87.9297 49.3945 87.6432 49.2893C87.4688 49.2243 87.3514 49.4397 87.4209 49.58C87.7982 50.3517 88.3295 50.9468 88.4925 51.8269Z" fill="#7D887A"/>
    <path d="M86.5568 60.5909C85.9708 60.7288 85.4327 61.1312 84.889 61.3889C84.23 61.7069 83.4947 62.0501 82.7754 62.2017C82.6831 62.2211 82.7218 62.3636 82.8142 62.3442C84.0568 62.082 85.8431 61.9258 86.7266 60.8782C86.7503 60.8502 86.7647 60.8155 86.7678 60.7789C86.7708 60.7424 86.7625 60.7057 86.7438 60.6742C86.7251 60.6426 86.6971 60.6176 86.6636 60.6027C86.6301 60.5878 86.5928 60.5836 86.5568 60.5909Z" fill="#7D887A"/>
    <path d="M72.9235 65.7015C72.5564 64.8921 72.2395 64.0576 71.9477 63.2163C71.9406 63.1906 71.9236 63.1688 71.9004 63.1557C71.8772 63.1425 71.8497 63.1391 71.824 63.1462C71.7983 63.1533 71.7765 63.1703 71.7633 63.1935C71.7502 63.2167 71.7468 63.2442 71.7539 63.2699C72.0548 64.7314 72.5815 66.6511 73.6782 67.7307C73.6929 67.7446 73.7116 67.7533 73.7316 67.7556C73.7517 67.758 73.7719 67.7538 73.7894 67.7436C73.8068 67.7335 73.8205 67.718 73.8284 67.6994C73.8363 67.6809 73.838 67.6603 73.8332 67.6407C73.6258 66.9567 73.2188 66.3479 72.9235 65.7015Z" fill="#7D887A"/>
    </svg>
    