<svg width="162" height="107" viewBox="0 0 162 107" fill="none" xmlns="http://www.w3.org/2000/svg">
<path d="M81.0018 49.8265C93.2315 49.8265 105.877 49.8265 118.415 51.4368C132.644 53.2626 144.881 55.7604 155.339 63.783C152.814 62.4173 148.642 60.5622 147.252 60.8325C147.094 65.0026 140.268 66.4304 139.044 62.3442C138.896 61.9049 138.879 61.4326 138.994 60.9838C139.11 60.535 139.353 60.1288 139.695 59.8137C140.691 58.9373 141.676 58.919 142.268 59.3718C141.971 59.334 141.669 59.3615 141.384 59.4523C141.098 59.5432 140.837 59.6952 140.617 59.8977C139.963 60.5075 139.662 61.7673 140.573 62.3077C140.734 62.3974 140.913 62.4499 141.097 62.4613C141.281 62.4727 141.465 62.4427 141.636 62.3735C141.976 62.2337 142.27 62.0023 142.485 61.7052C142.736 61.3633 142.905 60.9682 142.978 60.5508C143.051 60.1333 143.025 59.7049 142.904 59.2988C142.658 58.4918 142.238 58.0645 141.066 57.5387C121.694 51.0169 100.796 51.0169 80.9761 51.0169C61.1557 51.0169 40.2583 51.0169 20.8864 57.5387C19.7138 58.0645 19.2947 58.4918 19.0484 59.2988C18.9275 59.7051 18.9027 60.1338 18.976 60.5512C19.0494 60.9686 19.2188 61.3636 19.4712 61.7052C19.6842 62.0039 19.9788 62.2358 20.3203 62.3735C20.4909 62.4427 20.6751 62.4727 20.859 62.4613C21.043 62.4499 21.222 62.3974 21.3826 62.3077C22.2906 61.7673 21.9892 60.5075 21.3385 59.8977C21.118 59.6956 20.8557 59.5438 20.57 59.4529C20.2843 59.3621 19.982 59.3344 19.6844 59.3718C20.2909 58.919 21.2797 58.9373 22.2575 59.8137C22.5985 60.1293 22.8411 60.5355 22.9565 60.9842C23.0718 61.4328 23.055 61.9048 22.9081 62.3442C21.6988 66.4304 14.8579 65.0026 14.6962 60.8325C13.3214 60.5622 9.1456 62.4173 6.60924 63.783C17.0561 55.7494 29.3042 53.2626 43.5372 51.4368C56.1308 49.8265 68.7758 49.8265 81.0018 49.8265Z" fill="#85887C"/>
<path d="M96.2788 18.9118C96.0767 18.9118 95.8745 18.9118 95.6686 18.9337L96.2788 18.9118Z" fill="#85887C"/>
<path d="M65.7285 18.9118C66.2064 18.9118 66.6879 18.9446 67.1658 18.9556L65.7285 18.9118Z" fill="#85887C"/>
<path d="M46.9852 15.8225C47.18 15.6034 47.3134 15.3372 47.3721 15.0508C47.4308 14.7643 47.4127 14.4676 47.3197 14.1902C47.2082 13.9223 46.9943 13.7091 46.7249 13.5976C46.4555 13.486 46.1525 13.4851 45.8824 13.595C46.0615 13.4451 46.2687 13.3318 46.492 13.2616C46.7153 13.1914 46.9504 13.1658 47.1837 13.186C47.6443 13.2511 48.076 13.4477 48.4261 13.752C48.9806 14.2161 49.3453 14.8654 49.4517 15.5778C49.552 16.2934 49.3888 17.0209 48.9922 17.6264C50.7942 17.009 52.481 16.0997 53.9841 14.9352C54.7964 14.2998 55.5868 13.5293 55.822 12.536C55.5729 12.3068 55.4151 11.9963 55.3773 11.6611C55.3395 11.326 55.4243 10.9885 55.6162 10.7102C55.8248 10.4459 56.1102 10.2516 56.4337 10.1536C56.7571 10.0556 57.1031 10.0587 57.4247 10.1625C57.7439 10.2764 58.0278 10.4711 58.2482 10.7272C58.4687 10.9833 58.6182 11.2921 58.6819 11.6231C58.8693 12.5433 58.4209 13.4745 57.8768 14.245C56.45 16.2411 54.3526 17.6655 51.9623 18.2618L53.8959 18.3823C54.4362 18.4115 54.9986 18.4444 55.5279 18.4699L55.9801 18.4991L56.7777 18.5393L57.7555 18.5904L59.7221 18.6817H59.803L61.2145 18.7402L62.8503 18.8059L63.7031 18.8351H64.0707L65.1735 18.8716H65.7065L67.1437 18.9154H67.7686C69.2283 18.92 70.6734 18.6267 72.0143 18.0537C72.8254 17.7302 73.5537 17.2312 74.1463 16.593C74.9146 15.7093 75.2969 14.4349 74.6977 13.3065C74.5927 13.1116 74.4561 12.9351 74.2934 12.7843C73.2972 11.8605 72.0253 12.2366 71.1027 12.9012C70.43 13.3869 69.8749 14.0259 69.2206 14.5408C68.2414 15.283 67.072 15.7371 65.8457 15.8514C64.6193 15.9657 63.3853 15.7355 62.2842 15.1871C64.2122 14.7128 65.9066 13.5707 67.0629 11.9664C67.7613 10.9366 68.2281 9.75715 69.0221 8.80042C69.7964 7.87058 70.8424 7.20278 72.0155 6.88942C73.1886 6.57607 74.4307 6.63267 75.57 7.05137C76.7093 7.47007 77.6894 8.23018 78.3748 9.22652C79.0601 10.2229 79.4168 11.4062 79.3955 12.6127C79.3955 14.2085 78.7154 15.7385 77.7965 17.0495C77.1265 18.0487 76.2492 18.8941 75.2234 19.5289C74.1904 20.1387 73.095 20.2592 71.7643 20.2592C51.8778 19.8941 33.8402 18.3458 20.0924 15.8189C20.4036 16.3057 20.7246 16.7756 21.0555 17.2284C36.6412 19.9708 57.9651 21.5665 80.9982 21.5738C104.031 21.5811 125.355 19.9708 140.937 17.2284C141.268 16.7683 141.589 16.2984 141.9 15.8189C128.152 18.3458 110.115 19.8904 90.2283 20.2592C88.8976 20.2592 87.8022 20.146 86.7693 19.5289C85.743 18.8946 84.8656 18.0492 84.1962 17.0495C83.2772 15.7385 82.6045 14.2085 82.5972 12.6127C82.5918 11.4116 82.9605 10.2383 83.6528 9.2536C84.3452 8.26891 85.3272 7.52108 86.4643 7.1127C87.6013 6.70432 88.8377 6.65538 90.0039 6.97258C91.17 7.28978 92.2089 7.95757 92.9779 8.8844C93.7719 9.84113 94.2387 11.0206 94.9371 12.0504C96.0918 13.6564 97.7868 14.7988 99.7158 15.2711C98.6147 15.8195 97.3807 16.0497 96.1544 15.9354C94.928 15.8211 93.7586 15.367 92.7794 14.6248C92.1214 14.1099 91.57 13.4709 90.8936 12.9852C89.971 12.3206 88.6881 11.9445 87.7067 12.8683C87.5418 13.0172 87.4049 13.194 87.3023 13.3905C86.6995 14.486 87.0818 15.7787 87.8537 16.677C88.4441 17.3161 89.1714 17.8152 89.982 18.1376C91.3271 18.7028 92.7747 18.9875 94.235 18.9739H94.8158L95.6576 18.9519C95.8634 18.9519 96.0656 18.9519 96.2678 18.93C96.7641 18.93 97.2529 18.9008 97.7382 18.8826L98.3961 18.8607L99.0909 18.8351C100.194 18.7949 101.263 18.7511 102.34 18.7L104.226 18.616H104.436L105.204 18.5758L106.002 18.5357L106.546 18.5028L108.086 18.4188L110.016 18.2983C107.626 17.7012 105.529 16.2769 104.101 14.2815C103.557 13.511 103.109 12.5799 103.296 11.6597C103.36 11.3289 103.51 11.0205 103.731 10.7644C103.951 10.5084 104.234 10.3136 104.553 10.199C104.875 10.0955 105.222 10.0925 105.546 10.1904C105.87 10.2883 106.156 10.4825 106.365 10.7467C106.556 11.0257 106.64 11.3632 106.601 11.6982C106.563 12.0332 106.405 12.3434 106.156 12.5726C106.406 13.5658 107.193 14.3363 107.994 14.9717C109.496 16.1377 111.183 17.0472 112.986 17.6629C112.583 17.0599 112.419 16.3308 112.523 15.6148C112.627 14.8987 112.994 14.246 113.552 13.7812C113.9 13.4763 114.331 13.2796 114.791 13.2153C115.024 13.1947 115.26 13.2202 115.484 13.2904C115.708 13.3606 115.916 13.474 116.096 13.6242C115.962 13.5692 115.818 13.541 115.673 13.5411C115.528 13.5413 115.385 13.5698 115.251 13.6251C115.117 13.6804 114.995 13.7613 114.893 13.8633C114.791 13.9653 114.71 14.0863 114.655 14.2194C114.561 14.497 114.543 14.7941 114.603 15.0807C114.662 15.3674 114.797 15.6333 114.993 15.8517C115.39 16.2829 115.884 16.6156 116.434 16.8231H116.459C117.798 17.381 119.258 17.5933 120.701 17.4402C128.98 16.6697 136.508 15.6436 143.014 14.3911L144.341 14.1391L143.646 15.2857C143.308 15.8359 142.958 16.3824 142.595 16.9253L144.19 16.6185C145.068 15.6787 145.833 14.6407 146.469 13.5256L146.664 13.1897L147.05 13.2262C150.415 13.5457 153.802 13.5457 157.166 13.2262L162 12.7515L157.46 14.3947C150.024 17.0348 138.713 19.1857 124.745 20.6463C111.629 22.0157 96.5031 22.7423 81.0018 22.7496C65.5006 22.757 50.367 22.0193 37.2588 20.6463C23.2904 19.1857 11.9907 17.0239 4.56912 14.3838L0 12.7551L4.83378 13.2298C8.19812 13.5494 11.5855 13.5494 14.9498 13.2298L15.3358 13.1933L15.5269 13.5293C16.1649 14.6436 16.9296 15.6814 17.806 16.6222L19.4013 16.929C19.0337 16.3885 18.6882 15.8335 18.3537 15.2894L17.659 14.1428L18.9823 14.3947C25.4849 15.6472 33.0168 16.6733 41.2986 17.4438C42.7363 17.5895 44.1878 17.3722 45.5185 16.8121H45.5442C46.096 16.599 46.5896 16.26 46.9852 15.8225Z" fill="#85887C"/>
<path d="M55.539 18.4772C54.9913 18.4517 54.4362 18.4188 53.9069 18.3896C54.4472 18.4188 54.9913 18.4553 55.539 18.4772Z" fill="#85887C"/>
<path d="M81.2592 15.1396V13.1568C81.2498 11.4412 81.8149 9.77128 82.8655 8.40969L82.8876 8.38047C84.1172 6.81831 85.7891 5.65726 87.6883 5.04655C87.2618 4.62794 86.722 4.34154 86.1346 4.22224C85.5473 4.10294 84.9376 4.15589 84.38 4.37464C84.3654 4.56695 84.2927 4.7504 84.1713 4.90093C84.05 5.05145 83.8857 5.16203 83.7 5.21817C83.537 5.22632 83.3759 5.18035 83.2421 5.08754C83.1083 4.99473 83.0094 4.86034 82.9609 4.70553C82.9125 4.55072 82.9173 4.3843 82.9746 4.23249C83.0318 4.08069 83.1383 3.95213 83.2772 3.86706C83.1997 3.09799 82.9563 2.35452 82.5637 1.68723C82.1711 1.01994 81.6384 0.44449 81.0018 0C80.3676 0.447999 79.8375 1.02604 79.4475 1.69507C79.0575 2.36411 78.8166 3.10855 78.7412 3.87803C78.8797 3.96297 78.986 4.09119 79.0433 4.24259C79.1005 4.39399 79.1056 4.56 79.0577 4.71458C79.0097 4.86915 78.9115 5.00353 78.7784 5.09666C78.6452 5.18978 78.4848 5.23639 78.3221 5.22913C78.1362 5.17272 77.9717 5.06216 77.8498 4.91176C77.7279 4.76136 77.6542 4.57804 77.6384 4.38559C77.0808 4.16637 76.4711 4.11318 75.8836 4.23249C75.2961 4.35181 74.7563 4.63848 74.3301 5.0575C76.2284 5.67001 77.8998 6.83075 79.1308 8.39144L79.1529 8.42065C80.202 9.78303 80.7669 11.4525 80.7592 13.1678V15.1543C80.7654 16.2146 80.4725 17.2555 79.9138 18.159C79.3551 19.0626 78.5528 19.7926 77.598 20.2665L77.4252 20.3469H84.5932H84.5527C83.5603 19.8822 82.7227 19.1448 82.139 18.222C81.5553 17.2991 81.25 16.2295 81.2592 15.1396Z" fill="#85887C"/>
<path d="M81.0018 59.9999C93.1102 59.9999 104.233 62.1105 114.059 66.2734C116.544 67.3287 118.334 68.2124 119.768 68.9902C121.713 70.0589 123.913 70.5862 126.134 70.5166H126.182C126.866 70.5411 127.545 70.3849 128.149 70.0638C128.179 70.3348 128.143 70.6092 128.044 70.8635C127.945 71.1178 127.785 71.3445 127.579 71.5244C127.156 71.8856 126.625 72.0986 126.068 72.1306C125.747 72.1525 125.423 72.1378 125.105 72.0868C126.025 72.5806 126.969 73.0267 127.936 73.4233C128.865 73.8374 129.845 74.1295 130.851 74.2924C131.863 74.4511 132.899 74.3062 133.828 73.8761C134.287 73.655 134.689 73.3312 135.002 72.9302C135.314 72.5292 135.529 72.0618 135.629 71.5646C135.717 71.063 135.644 70.5466 135.422 70.0882C135.199 69.6297 134.837 69.2521 134.387 69.0085C133.468 68.5703 132.181 68.961 131.814 69.8922C131.727 70.0782 131.683 70.2807 131.683 70.4855C131.683 70.6904 131.727 70.8929 131.814 71.0789C131.903 71.27 132.048 71.4305 132.229 71.5403C132.41 71.6501 132.62 71.7043 132.832 71.6961C132.025 71.6963 131.239 71.4412 130.588 70.9678C129.937 70.4944 129.455 69.8273 129.211 69.0632C129.041 68.5171 129.016 67.9367 129.139 67.3782C129.261 66.8197 129.527 66.302 129.91 65.8754C130.474 65.2215 131.205 64.7308 132.027 64.4549C132.664 64.2299 133.339 64.1325 134.014 64.1683C134.69 64.204 135.351 64.3722 135.96 64.6631C136.57 64.9541 137.115 65.362 137.565 65.8634C138.014 66.3648 138.36 66.9497 138.581 67.5843C139.316 69.8958 138.64 72.0503 136.945 73.7118C136.221 74.4156 135.356 74.9601 134.406 75.3099C133.456 75.6597 132.442 75.8069 131.431 75.7421C130.844 75.7016 130.26 75.6174 129.685 75.4901C132.284 77.5241 134.144 79.1417 136.971 79.328C137.413 80.6511 138.187 81.8402 139.221 82.7828C140.254 83.7254 141.513 84.3902 142.878 84.7141C139.327 84.214 135.999 82.7021 133.295 80.3614C123.624 71.0096 107.251 61.2634 81.0276 61.2634C54.8038 61.2634 38.4314 71.0096 28.7601 80.3614C26.0565 82.7021 22.7279 84.214 19.1771 84.7141C20.5419 84.3902 21.8008 83.7254 22.8345 82.7828C23.8683 81.8402 24.6426 80.6511 25.0842 79.328C27.911 79.1563 29.771 77.5241 32.3699 75.4901C31.7938 75.6177 31.2089 75.7019 30.6201 75.7421C29.6091 75.8074 28.5955 75.6604 27.6455 75.3105C26.6954 74.9607 25.8302 74.416 25.1063 73.7118C23.4117 72.0503 22.717 69.8958 23.4705 67.5843C23.9196 66.3122 24.8587 65.2693 26.0814 64.6846C27.3041 64.0998 28.7105 64.0212 29.9915 64.4658C30.8125 64.7428 31.5436 65.2333 32.1089 65.8863C32.4908 66.3135 32.7556 66.8312 32.8779 67.3895C33.0003 67.9478 32.9759 68.5279 32.8073 69.0742C32.5609 69.8386 32.0756 70.505 31.4217 70.9765C30.7679 71.448 29.9798 71.7001 29.1718 71.6961C29.3779 71.7025 29.5816 71.6502 29.7588 71.5454C29.9359 71.4406 30.0792 71.2876 30.1717 71.1045C30.258 70.9184 30.3028 70.716 30.3028 70.5111C30.3028 70.3062 30.258 70.1038 30.1717 69.9177C29.941 69.4685 29.5442 69.1255 29.0644 68.9607C28.5846 68.7959 28.0592 68.8222 27.5985 69.034C27.1485 69.2776 26.7866 69.6552 26.5638 70.1137C26.3409 70.5722 26.2683 71.0886 26.3561 71.5902C26.4565 72.0874 26.6713 72.5548 26.9838 72.9558C27.2962 73.3568 27.6979 73.6805 28.1573 73.9017C29.0859 74.3318 30.1227 74.4767 31.1348 74.3179C32.1401 74.1546 33.12 73.8624 34.0497 73.4488C35.0159 73.0523 35.9606 72.6062 36.8802 72.1124C36.5606 72.1634 36.2363 72.1781 35.9134 72.1562C35.357 72.122 34.8268 71.9093 34.4026 71.55C34.1967 71.3699 34.0377 71.143 33.9392 70.8887C33.8406 70.6343 33.8054 70.3601 33.8365 70.0894C34.4402 70.4104 35.1188 70.5667 35.8031 70.5422H35.8509C38.0727 70.6118 40.2723 70.0844 42.2176 69.0158C43.6511 68.238 45.4413 67.3543 47.9262 66.299C57.7739 62.1105 68.8971 59.9999 81.0018 59.9999Z" fill="#85887C"/>
<path d="M81.0018 76.341C84.2069 76.3101 87.4111 76.4576 90.5996 76.7828C93.8903 77.099 97.1463 77.7039 100.33 78.5903C101.679 78.9847 103.241 79.4229 104.373 80.3103C97.2088 78.0974 95.0584 80.5586 94.1983 80.0218C93.6546 79.6843 93.0856 79.3889 92.4963 79.1381C92.5259 79.0422 92.5407 78.9425 92.5405 78.8423C92.5394 78.6051 92.4551 78.3757 92.3021 78.1936C92.149 78.0115 91.9367 77.8882 91.702 77.8449C91.4672 77.8017 91.2245 77.8412 91.0159 77.9566C90.8073 78.072 90.6458 78.2561 90.5591 78.4771C89.6031 78.2214 88.6285 78.0395 87.6442 77.9331C86.0336 77.77 84.4136 77.7163 82.7957 77.7724C81.6101 77.8211 80.423 77.8211 79.2374 77.7724C77.6195 77.7163 75.9995 77.77 74.3889 77.9331C73.4046 78.0395 72.43 78.2214 71.4739 78.4771C71.3857 78.2576 71.2235 78.0752 71.015 77.961C70.8066 77.8468 70.5648 77.808 70.3307 77.851C70.0967 77.8941 69.8848 78.0164 69.7314 78.1971C69.5779 78.3779 69.4922 78.6059 69.489 78.8423C69.4905 78.9424 69.5053 79.0419 69.5331 79.1381C68.9438 79.3889 68.3748 79.6843 67.8311 80.0218C66.9746 80.5586 64.8243 78.0974 57.66 80.3103C58.7627 79.4229 60.3397 78.9847 61.7034 78.5903C64.8868 77.7039 68.1428 77.099 71.4335 76.7828C74.6122 76.4587 77.8066 76.3112 81.0018 76.341Z" fill="#85887C"/>
<path d="M82.9427 77.6117C87.295 78.4114 91.1252 80.8982 94.757 83.4105C98.3888 85.9228 102.05 88.5775 106.303 89.8118C107.674 90.2098 109.155 90.4472 110.519 90.0236C111.883 89.6 113.063 88.3402 112.993 86.9234C112.951 86.3213 112.69 85.7549 112.259 85.3302C111.827 84.9054 111.254 84.6514 110.648 84.6155C110.878 84.8956 111.02 85.2374 111.055 85.5976C111.089 85.9578 111.016 86.3201 110.843 86.6385C110.669 86.9436 110.414 87.1947 110.105 87.3637C109.796 87.5326 109.445 87.6128 109.093 87.5953C108.741 87.5672 108.402 87.4523 108.106 87.261C107.81 87.0697 107.567 86.8081 107.398 86.4998C107.257 86.2607 107.195 85.9834 107.222 85.7074C107.24 85.5713 107.296 85.443 107.383 85.3371C107.471 85.2312 107.587 85.152 107.718 85.1085C106.843 85.6818 105.472 85.4737 104.476 85.1523C103.48 84.831 102.605 84.2358 101.686 83.7355C100.767 83.2352 99.7562 82.8116 98.7123 82.8591C98.7123 82.8591 112.004 80.3029 114.401 84.9807C115.221 86.5801 114.732 88.6579 113.475 89.9542C112.217 91.2505 110.346 91.8311 108.534 91.8056C106.722 91.78 104.965 91.2031 103.307 90.4727C100.751 89.3446 98.3802 87.8403 96.2751 86.0105C97.0985 89.0303 97.0544 92.4738 95.6061 95.2527C94.1578 98.0316 91.3678 100.164 88.2544 100.518C87.4803 100.624 86.6926 100.567 85.9422 100.35C85.1845 100.133 84.5316 99.6505 84.1043 98.992C83.897 98.6631 83.7763 98.2878 83.7532 97.9005C83.73 97.5132 83.8053 97.1263 83.972 96.7754C84.1512 96.4316 84.4358 96.1533 84.7846 95.9807C85.1335 95.808 85.5286 95.75 85.9128 95.8151C86.2879 95.9096 86.6119 96.1442 86.8173 96.47C87.0227 96.7958 87.0937 97.1877 87.0156 97.5642C89.8754 97.6226 92.6287 96.3884 94.0733 93.9381C94.785 92.7003 95.1594 91.2994 95.1594 89.8739C95.1594 88.4483 94.785 87.0475 94.0733 85.8096C93.1984 84.3234 91.8678 83.1585 90.4562 82.158C88.3522 80.6077 85.9577 79.4904 83.4132 78.8715C85.1062 79.4016 86.6693 80.2764 88.0029 81.4402C89.3365 82.604 90.4111 84.0312 91.1583 85.6307C91.8341 86.9942 92.1346 88.511 92.0295 90.0272C91.968 90.7867 91.7449 91.5244 91.3748 92.1917C91.0047 92.859 90.4961 93.4406 89.8828 93.898C88.6293 94.7707 86.8465 94.9241 85.5636 94.0988C84.2807 93.2735 83.6999 91.4331 84.4608 90.1076C85.2218 88.782 87.2876 88.3803 88.3794 89.4503C87.5486 89.1253 86.387 89.7899 86.0929 90.6261C85.9624 91.049 86.0016 91.5056 86.2024 91.9004C86.4032 92.2952 86.7499 92.5975 87.17 92.7441C87.5424 92.8345 87.9325 92.8217 88.2981 92.7071C88.6636 92.5925 88.9905 92.3804 89.2432 92.0941C89.7397 91.5099 90.0483 90.7912 90.1291 90.0309C90.4967 87.4748 89.3571 84.8967 87.6442 82.965C85.9312 81.0333 83.7 79.642 81.4944 78.2836L81.0018 77.9769L80.5129 78.2763C78.3074 79.6347 76.0762 81.026 74.3632 82.9577C72.6502 84.8894 71.4997 87.4711 71.882 90.0272C71.9628 90.7875 72.2714 91.5063 72.7679 92.0904C73.0205 92.3768 73.3474 92.5888 73.713 92.7034C74.0785 92.818 74.4687 92.8308 74.8411 92.7404C75.2611 92.5938 75.6079 92.2915 75.8086 91.8967C76.0094 91.502 76.0486 91.0453 75.9181 90.6225C75.624 89.7862 74.4477 89.1216 73.6317 89.4466C74.7345 88.3767 76.7966 88.782 77.5465 90.1039C78.2964 91.4258 77.7229 93.2699 76.4437 94.0952C75.1645 94.9204 73.378 94.7671 72.1246 93.8943C71.511 93.4377 71.002 92.8569 70.6313 92.1902C70.2606 91.5236 70.0366 90.7863 69.9742 90.0272C69.8597 88.5026 70.1593 86.9755 70.8417 85.6051C71.5889 84.0056 72.6636 82.5784 73.9971 81.4146C75.3307 80.2508 76.8938 79.376 78.5868 78.846C76.0418 79.4633 73.647 80.5808 71.5438 82.1324C70.1359 83.1366 68.8016 84.3015 67.923 85.784C67.212 87.0221 66.838 88.4229 66.838 89.8483C66.838 91.2737 67.212 92.6745 67.923 93.9126C69.3677 96.3628 72.1209 97.5971 74.9807 97.5386C74.9017 97.1621 74.9723 96.7697 75.1779 96.4437C75.3834 96.1176 75.7079 95.8832 76.0835 95.7895C76.4677 95.7245 76.8628 95.7825 77.2117 95.9551C77.5606 96.1277 77.8452 96.406 78.0244 96.7499C78.1901 97.101 78.2647 97.4877 78.2416 97.8749C78.2185 98.262 78.0983 98.6372 77.892 98.9664C77.464 99.6242 76.8114 100.107 76.0541 100.325C75.3037 100.541 74.516 100.598 73.742 100.493C70.6101 100.128 67.8201 98.006 66.3902 95.2272C64.9603 92.4483 64.8978 89.0194 65.7212 85.9849C63.6155 87.8139 61.245 89.3182 58.6892 90.4472C57.0314 91.1775 55.2706 91.7545 53.4621 91.78C51.6536 91.8056 49.7862 91.225 48.518 89.9286C47.2499 88.6323 46.772 86.5545 47.5954 84.9551C50.0141 80.2482 63.2767 82.8299 63.2841 82.8335C62.2401 82.7861 61.2293 83.1987 60.3103 83.7099C59.3913 84.2212 58.5128 84.8054 57.5166 85.1268C56.5204 85.4481 55.153 85.6562 54.2781 85.0829C54.4091 85.1264 54.5251 85.2056 54.6129 85.3115C54.7007 85.4174 54.7567 85.5457 54.7744 85.6818C54.8016 85.9583 54.7385 86.2362 54.5943 86.4742C54.4268 86.7824 54.1843 87.0441 53.889 87.2355C53.5937 87.4268 53.2548 87.5417 52.9034 87.5697C52.551 87.5877 52.2006 87.5077 51.8915 87.3386C51.5824 87.1696 51.3269 86.9183 51.1536 86.613C50.9802 86.2949 50.9057 85.9328 50.9398 85.5726C50.9738 85.2124 51.1148 84.8704 51.3448 84.59C50.739 84.6267 50.1673 84.8811 49.7364 85.3057C49.3056 85.7304 49.045 86.2963 49.0033 86.8978C48.9334 88.3146 50.106 89.5708 51.4771 89.998C52.8482 90.4253 54.3223 90.1843 55.6934 89.7862C59.9427 88.552 63.6039 85.9009 67.2356 83.3849C70.8674 80.869 74.6977 78.3858 79.0536 77.5861L82.9427 77.6117Z" fill="#85887C"/>
<path d="M81.0018 79.2148C83.7039 81.0394 85.7742 83.647 86.931 86.6824C86.0923 86.7428 85.2829 87.0145 84.5793 87.472C83.8757 87.9295 83.301 88.5575 82.9096 89.2969C82.6357 89.7521 82.5414 90.2921 82.645 90.8123C82.404 89.7848 82.4477 88.7116 82.7713 87.7067C83.0949 86.7018 83.6863 85.8027 84.4829 85.1049C83.7653 83.3174 82.5597 81.7644 81.0018 80.6206C79.4515 81.7624 78.2514 83.3099 77.5355 85.0902C78.332 85.7881 78.9235 86.6872 79.2471 87.6921C79.5707 88.697 79.6144 89.7702 79.3734 90.7977C79.477 90.2775 79.3827 89.7375 79.1087 89.2823C78.713 88.5431 78.134 87.9164 77.4264 87.4614C76.7189 87.0065 75.9062 86.7383 75.0653 86.6824C76.2241 83.646 78.2971 81.0383 81.0018 79.2148Z" fill="#85887C"/>
<path d="M81.0018 95.994C81.1175 96.9982 81.3736 97.9814 81.7627 98.9153C82.384 100.314 83.5456 101.559 85.049 101.888C83.1308 103.059 81.6968 104.872 81.0055 107C80.3142 104.872 78.8802 103.059 76.962 101.888C78.4655 101.559 79.6271 100.314 80.2483 98.9153C80.6349 97.9811 80.8885 96.9978 81.0018 95.994Z" fill="#85887C"/>
<path d="M104.811 99.642L104.608 99.4046C103.316 97.876 101.862 96.4901 100.271 95.271C99.4107 95.7932 98.091 95.7092 97.1978 95.2418C97.8543 94.6546 98.3476 93.9095 98.6302 93.0781C98.9128 92.2467 98.9753 91.357 98.8115 90.4947C100.332 92.0006 102.355 92.9009 104.498 93.0252C104.294 93.4018 104.017 93.7344 103.682 94.0039C103.348 94.2734 102.963 94.4745 102.55 94.5954C103.084 96.3663 103.844 98.0621 104.811 99.642Z" fill="#85887C"/>
<path d="M57.2005 99.642L57.4026 99.4046C58.6939 97.8751 60.1483 96.4892 61.7402 95.271C62.6003 95.7932 63.92 95.7092 64.8132 95.2418C64.1584 94.6533 63.666 93.9081 63.3829 93.0772C63.0998 92.2463 63.0354 91.3573 63.1958 90.4947C61.6775 92.0012 59.6553 92.9017 57.5129 93.0252C57.7172 93.4018 57.9945 93.7344 58.3289 94.0039C58.6633 94.2734 59.0481 94.4745 59.4612 94.5954C58.9249 96.3656 58.1653 98.0613 57.2005 99.642Z" fill="#85887C"/>
<path d="M8.43616 55.2126V39.5508C8.44652 39.4435 8.43398 39.3352 8.39939 39.2331C6.87022 32.1124 5.75277 24.6521 3.28992 17.7688L3.25315 17.6264C3.25315 17.4511 3.36344 17.389 3.58399 17.4292L5.5653 17.7944C5.66159 17.8037 5.75352 17.8388 5.83123 17.8961C5.90894 17.9533 5.96948 18.0305 6.00639 18.1194C7.68627 23.1404 8.57951 28.4023 9.61611 33.584C9.64184 33.6643 9.6786 33.7045 9.73006 33.6972C9.78152 33.6899 9.8146 33.6461 9.84033 33.5584C10.7887 28.8113 11.5313 23.867 13.4648 19.3938C13.5383 19.2623 13.6853 19.2185 13.9095 19.2587L15.9129 19.5837C16.0177 19.5971 16.1155 19.6431 16.1923 19.7151C16.2183 19.7465 16.2325 19.7859 16.2325 19.8265C16.2325 19.8671 16.2183 19.9065 16.1923 19.9379C13.2736 25.6162 12.3951 32.5323 11.0791 38.678C11.0461 38.7805 11.0336 38.8885 11.0424 38.9957V53.9126C11.0424 54.1062 10.9174 54.2486 10.6748 54.3691C9.92121 54.7342 9.5426 54.9205 8.79272 55.3075C8.56113 55.4426 8.43616 55.4171 8.43616 55.2126Z" fill="#85887C"/>
<path d="M20.9967 49.129C19.8167 48.5886 19.2286 47.2557 19.2249 44.8493V26.0544C19.2249 23.6516 19.813 22.1873 20.993 21.4168C22.173 20.6463 23.7205 20.6134 25.6393 20.88C27.5581 21.1466 29.1535 21.6286 30.3555 22.5999C31.5575 23.5712 32.153 24.9005 32.1567 26.865C32.1567 31.9262 32.1567 36.9873 32.1567 42.0485C32.1567 43.9875 31.5612 45.3715 30.3628 46.4925C29.1645 47.6136 27.5876 48.2855 25.643 48.8515C23.6985 49.4175 22.1877 49.6585 20.9967 49.129ZM28.4367 45.6709C29.163 44.8413 29.5442 43.768 29.5027 42.6693C29.5027 37.3135 29.5027 31.9481 29.5027 26.5729C29.5351 26.0392 29.4569 25.5045 29.2729 25.002C29.0889 24.4995 28.803 24.0399 28.433 23.6516C27.679 22.9261 26.6933 22.4856 25.6467 22.4064C24.5439 22.2676 23.6176 22.432 22.9192 23.0527C22.2208 23.6735 21.8752 24.6485 21.8752 26.0653C21.8752 32.1514 21.8752 38.2374 21.8752 44.3235C21.8752 45.7111 22.2428 46.6057 22.9192 47.1024C23.5955 47.599 24.5255 47.6099 25.6504 47.3032C26.7241 47.0519 27.6957 46.4827 28.4367 45.6709Z" fill="#85887C"/>
<path d="M38.4755 44.7945C37.2992 44.1007 36.7074 42.8117 36.7074 40.7156C36.7074 34.6783 36.7074 28.6433 36.7074 22.6109C36.7074 22.4648 36.8323 22.4137 37.0749 22.4392L38.9864 22.6364C39.2364 22.662 39.354 22.7423 39.354 22.8847C39.354 28.8125 39.3614 34.7404 39.3761 40.6682C39.3761 41.9353 39.7216 42.8007 40.4127 43.3484C41.1037 43.8962 42.0117 44.0423 43.1365 43.8998C44.1766 43.8178 45.1572 43.3849 45.9155 42.6729C46.272 42.31 46.5492 41.8777 46.7294 41.4032C46.9097 40.9288 46.9893 40.4224 46.9631 39.9159C46.9631 34.4653 46.9533 29.0121 46.9337 23.5566C46.9337 23.4105 47.0587 23.3485 47.3013 23.3667L49.2127 23.5055C49.4627 23.5055 49.5803 23.6004 49.5803 23.7502C49.595 28.9915 49.606 34.2255 49.6134 39.4522C49.6134 41.278 49.0253 42.5962 47.838 43.5822C46.6506 44.5681 45.081 45.0428 43.1255 45.3021C41.1699 45.5613 39.6554 45.4774 38.4755 44.7945Z" fill="#85887C"/>
<path d="M64.8279 43.4763C63.2987 40.7777 62.5342 38.7985 61.005 34.9753C60.9932 34.9459 60.9721 34.9211 60.945 34.9047C60.9178 34.8882 60.886 34.8809 60.8543 34.884L57.6048 34.9205C57.5019 34.9205 57.4541 34.9643 57.4541 35.0447C57.4541 38.9008 57.4541 40.9238 57.4761 43.7684C57.4761 43.9218 57.3512 44.0057 57.1086 44.0167L55.2044 44.108C54.9582 44.108 54.8369 44.0532 54.8369 43.8962C54.8197 37.2867 54.8013 30.6773 54.7817 24.0679C54.7817 23.9108 54.9067 23.8415 55.1493 23.8524C57.6158 23.9656 58.8509 24.0094 61.3211 24.0752C63.1591 24.1263 64.6294 24.528 65.7322 25.4117C66.835 26.2953 67.4194 27.5077 67.4194 29.1582C67.4446 30.3546 67.0809 31.5271 66.3824 32.5019C65.6838 33.4768 64.6875 34.202 63.5414 34.5699C63.4384 34.5919 63.4017 34.643 63.4274 34.727C65.0632 38.5685 65.8829 40.5696 67.515 43.2937L67.5517 43.3813C67.5517 43.4836 67.4415 43.5383 67.2172 43.5493L65.2727 43.6333C65.1912 43.6487 65.107 43.6423 65.0288 43.6147C64.9507 43.5871 64.8813 43.5393 64.8279 43.4763ZM57.432 25.5541C57.432 28.1613 57.432 29.8046 57.432 32.9961C57.432 33.0801 57.4798 33.1202 57.5827 33.1202C58.9244 33.1202 59.5971 33.1202 60.9425 33.1202C61.4547 33.1392 61.9652 33.0515 62.4412 32.8628C62.9173 32.6742 63.3484 32.3887 63.7068 32.0247C64.4172 31.2553 64.7924 30.238 64.7507 29.1947C64.7775 28.7043 64.6974 28.2139 64.516 27.757C64.3346 27.3001 64.056 26.8875 63.6994 26.5473C62.9296 25.8918 61.9412 25.5454 60.9278 25.576C59.5824 25.5468 58.9097 25.5285 57.5644 25.4883C57.4761 25.4518 57.4173 25.4847 57.4173 25.5541H57.432Z" fill="#85887C"/>
<path d="M89.824 41.8805C88.6036 42.6693 86.9715 43.0089 84.9314 43.0344C82.645 43.06 81.5018 43.0819 79.2117 43.1367C78.9654 43.1367 78.8441 43.0783 78.8441 42.9322V24.3929C78.8441 24.2492 78.9666 24.1762 79.2117 24.1737C81.3694 24.1445 82.4465 24.1226 84.6005 24.0752C86.7546 24.0277 88.4308 24.2979 89.6549 25.01C90.8789 25.7221 91.4928 26.8358 91.4928 28.5046C91.4928 30.6152 90.4562 32.2147 88.3867 33.0728C88.3352 33.091 88.3095 33.1129 88.3095 33.1312C88.3095 33.1495 88.3095 33.1714 88.3499 33.1933C89.3455 33.5942 90.1938 34.288 90.7812 35.1815C91.3686 36.0751 91.6669 37.1256 91.6362 38.1924C91.6178 39.8867 91.0297 41.0954 89.824 41.8805ZM81.4871 25.6381C81.4871 27.9714 81.4871 29.4431 81.4871 32.3242C81.4871 32.4045 81.5348 32.441 81.6378 32.441L84.5785 32.3863C85.9275 32.3607 86.9715 32.0211 87.7214 31.3748C88.0928 31.0432 88.3861 30.6344 88.5805 30.1775C88.7749 29.7205 88.8656 29.2267 88.8462 28.731C88.8462 27.599 88.4786 26.7847 87.7214 26.2369C86.9641 25.6892 85.9275 25.4518 84.5785 25.481L81.6378 25.5395C81.5238 25.5431 81.4724 25.576 81.4724 25.6381H81.4871ZM87.8463 40.6937C88.5815 40.0839 88.9491 39.2002 88.9491 37.9842C88.981 37.4434 88.8995 36.9018 88.7097 36.3939C88.5199 35.886 88.2259 35.4228 87.8463 35.0337C87.1112 34.3253 86.0635 33.982 84.7439 34.004L81.6414 34.0587C81.5385 34.0587 81.4907 34.1025 81.4907 34.1829V41.5628C81.4907 41.6249 81.5422 41.6578 81.6414 41.6541C82.8839 41.6322 83.5014 41.6213 84.7439 41.6066C86.0488 41.5884 87.0818 41.3036 87.8316 40.6937H87.8463Z" fill="#85887C"/>
<path d="M105.593 43.2609C104.083 40.2994 103.325 38.2508 101.807 34.402C101.797 34.3722 101.777 34.3468 101.75 34.3296C101.724 34.3124 101.692 34.3045 101.66 34.3071H98.4108C98.3115 34.3071 98.2601 34.3472 98.2601 34.4276C98.2601 38.1887 98.2601 40.1606 98.2601 42.9103C98.2601 43.06 98.1388 43.1294 97.8925 43.1221C97.1316 43.1002 96.7493 43.0892 95.9884 43.0746C95.7384 43.0746 95.6208 42.9943 95.6208 42.8482C95.6208 36.5504 95.6282 30.2538 95.6429 23.9584C95.6429 23.8086 95.7642 23.7319 96.0104 23.7246C98.477 23.6297 99.7121 23.5786 102.182 23.4727C104.002 23.396 105.472 23.71 106.593 24.5682C107.714 25.4263 108.273 26.6642 108.27 28.4097C108.29 29.669 107.92 30.9042 107.211 31.9481C106.525 32.9389 105.522 33.6709 104.366 34.0259C104.266 34.0478 104.23 34.0989 104.255 34.1829C105.873 38.134 106.674 40.314 108.299 43.3558L108.336 43.4544C108.336 43.5603 108.222 43.6041 107.994 43.5895C107.211 43.5311 106.821 43.5055 106.046 43.4617C105.959 43.4687 105.873 43.454 105.794 43.4189C105.715 43.3837 105.646 43.3294 105.593 43.2609ZM98.2785 25.189C98.2785 27.7159 98.2785 29.3189 98.2785 32.4301C98.2785 32.5105 98.3263 32.5506 98.4255 32.5506L101.789 32.5324C102.304 32.5513 102.817 32.4611 103.294 32.2679C103.772 32.0746 104.202 31.7826 104.557 31.4113C105.275 30.6095 105.652 29.5623 105.608 28.49C105.608 27.3142 105.263 26.4305 104.568 25.8024C103.873 25.1743 102.951 24.9151 101.804 24.9552L98.4365 25.0721C98.3226 25.0867 98.2785 25.1196 98.2785 25.189Z" fill="#85887C"/>
<path d="M122.322 45.0209C121.926 43.8782 121.596 42.7139 121.334 41.5336C121.333 41.513 121.328 41.4928 121.318 41.4749C121.307 41.457 121.293 41.442 121.275 41.4314C121.236 41.4033 121.19 41.3857 121.143 41.3802C118.393 41.0151 117.015 40.858 114.272 40.5842C114.229 40.5725 114.183 40.5725 114.14 40.5842C114.122 40.5898 114.107 40.6011 114.096 40.6162C114.086 40.6314 114.08 40.6497 114.081 40.6682C113.714 42.1033 113.519 42.7532 113.14 43.8232C113.114 43.9546 112.975 44.0058 112.721 43.9802C111.949 43.9072 111.56 43.8706 110.788 43.8049C110.686 43.8028 110.588 43.7711 110.505 43.7136C110.475 43.6937 110.453 43.6645 110.442 43.6307C110.432 43.5969 110.433 43.5605 110.446 43.5274C112.901 36.812 113.846 29.6512 116.062 22.8774C116.11 22.7423 116.246 22.6693 116.47 22.6547L118.705 22.4758C118.952 22.4539 119.073 22.505 119.117 22.6328C121.896 29.9981 122.55 37.9696 125.072 45.4335V45.4774C125.072 45.6052 124.962 45.6453 124.734 45.6052C123.94 45.4627 123.543 45.3934 122.749 45.2619C122.517 45.24 122.378 45.1597 122.322 45.0209ZM114.684 38.8131C117.077 39.014 118.275 39.1308 120.668 39.3938C120.746 39.3938 120.782 39.3609 120.782 39.2659C119.771 34.6101 118.886 29.9214 117.68 25.3094C117.654 25.251 117.628 25.2254 117.606 25.2291C117.584 25.2327 117.555 25.2583 117.533 25.3204C116.463 29.7534 115.603 34.2303 114.57 38.6707C114.57 38.7547 114.607 38.8022 114.684 38.8095V38.8131Z" fill="#85887C"/>
<path d="M138.713 20.2446L140.573 19.9744C140.823 19.9379 140.941 19.9927 140.941 20.1533C141.22 30.0127 141.22 39.8977 141.5 49.7644C141.5 49.9251 141.386 49.9543 141.132 49.8666C140.253 49.5563 139.812 49.4102 138.926 49.1363C138.839 49.1156 138.757 49.0773 138.685 49.024C138.613 48.9706 138.552 48.9032 138.507 48.8259C135.089 41.8331 133.416 33.9747 130.788 26.6605C130.764 26.5851 130.727 26.5559 130.678 26.5729C130.626 26.5729 130.601 26.635 130.604 26.7117C130.718 33.3795 130.777 40.0511 130.972 46.7189C130.972 46.865 130.854 46.9015 130.604 46.8431C129.829 46.6642 129.439 46.5765 128.663 46.4122C128.41 46.3574 128.296 46.2625 128.296 46.1201C128.116 38.0244 128.094 29.9251 127.928 21.8294C127.928 21.6834 128.046 21.6067 128.296 21.5775L130.454 21.3328C130.527 21.3126 130.605 21.3132 130.678 21.3345C130.752 21.3558 130.818 21.3969 130.869 21.4533C135.015 27.6319 136.445 36.2315 138.588 43.1951C138.614 43.2864 138.654 43.3302 138.702 43.3266C138.75 43.3229 138.779 43.2827 138.776 43.1951C138.647 35.6435 138.585 28.0883 138.36 20.5368C138.346 20.3688 138.467 20.2812 138.713 20.2446Z" fill="#85887C"/>
<path d="M146.8 51.8202C146.532 40.9931 146.55 30.1624 146.278 19.3207C146.278 19.1455 146.396 19.0469 146.646 19.003C148.943 18.6379 150.097 18.4188 152.402 17.9952C154.325 17.63 155.872 17.7213 157.023 18.9227C158.173 20.1241 158.743 22.3918 158.743 26.0361V49.1619C158.743 52.8135 158.203 54.8365 157.126 55.6033C156.049 56.3702 154.608 55.8882 152.762 54.9132C150.557 53.741 149.432 53.2042 147.175 52.2183C146.94 52.127 146.8 51.9955 146.8 51.8202ZM149.506 51.3565C150.789 51.9006 151.428 52.1854 152.696 52.7843C153.751 53.2955 154.586 53.3028 155.211 52.5286C155.836 51.7545 156.155 50.2719 156.17 47.9057C156.141 40.6974 156.114 33.4915 156.089 26.288C156.089 23.8707 155.747 22.242 155.097 21.2378C154.446 20.2336 153.542 19.9379 152.399 20.1022C151.083 20.2921 150.428 20.3834 149.116 20.5623C149.095 20.5632 149.074 20.5684 149.055 20.5776C149.035 20.5869 149.018 20.6 149.005 20.6161C148.991 20.6322 148.981 20.651 148.974 20.6713C148.968 20.6916 148.966 20.7129 148.969 20.7339C149.142 30.8708 149.186 41.0078 149.359 51.1447C149.359 51.1921 149.374 51.2382 149.403 51.2763C149.431 51.3144 149.471 51.3425 149.517 51.3565H149.506Z" fill="#85887C"/>
<path d="M6.26002 57.2794V41.6176C6.26809 41.5104 6.25563 41.4026 6.22327 41.2999C4.64632 34.1792 3.49576 26.719 0.959401 19.8357L0.922651 19.6932C0.922651 19.518 1.03292 19.4559 1.26083 19.4997L3.30094 19.8649C3.39902 19.8743 3.49283 19.9093 3.57288 19.9664C3.65293 20.0235 3.71636 20.1006 3.75675 20.1899C5.48441 25.2145 6.40706 30.4765 7.47674 35.6545C7.50247 35.7385 7.53923 35.775 7.59069 35.7713C7.64216 35.7677 7.67891 35.7202 7.70464 35.6326C8.68243 30.8855 9.44703 25.9412 11.4394 21.4643C11.5129 21.3328 11.6673 21.2926 11.8952 21.3292L13.961 21.6578C14.0688 21.6681 14.1699 21.7144 14.2477 21.7893C14.2775 21.8171 14.2958 21.8549 14.2992 21.8953C14.3026 21.9358 14.2908 21.976 14.2661 22.0084C11.2592 27.6866 10.3586 34.6028 8.99856 40.7485C8.96538 40.8522 8.9529 40.9614 8.96181 41.0699V55.9831C8.96181 56.1767 8.83316 56.3191 8.59423 56.4396C7.81861 56.8047 7.42896 56.9946 6.65335 57.378C6.38133 57.5278 6.26002 57.4839 6.26002 57.2794Z" fill="#85887C"/>
<path d="M19.1992 51.1849C17.9824 50.6444 17.3612 49.3116 17.3612 46.9088C17.3612 40.6451 17.3612 34.3837 17.3612 28.1248C17.3612 25.7184 17.9677 24.2541 19.1992 23.4836C20.4306 22.7131 22.0075 22.6803 23.9778 22.9468C25.9481 23.2134 27.5986 23.6991 28.8337 24.6704C30.0688 25.6418 30.6716 26.9673 30.6716 28.9319V44.1153C30.6716 46.0544 30.0541 47.442 28.8337 48.5594C27.6133 49.6768 25.9775 50.3523 23.9741 50.9183C21.9708 51.4843 20.4159 51.7253 19.1992 51.1849ZM26.8597 47.7377C27.6064 46.9193 28.0021 45.8436 27.9625 44.7398C27.9625 39.3719 27.9625 34.0064 27.9625 28.6434C27.9944 28.1069 27.9127 27.5698 27.7227 27.0666C27.5328 26.5635 27.2388 26.1054 26.8597 25.7221C26.0755 24.9906 25.0618 24.5496 23.9888 24.4732C22.8346 24.3381 21.8973 24.5024 21.1805 25.1196C20.4637 25.7367 20.1071 26.7153 20.1071 28.1322C20.1071 34.2182 20.1071 40.3042 20.1071 46.3903C20.1071 47.7779 20.4747 48.6762 21.1841 49.1728C21.8936 49.6695 22.8383 49.6768 23.9962 49.37C25.0928 49.1209 26.0898 48.5526 26.8597 47.7377Z" fill="#85887C"/>
<path d="M37.2 46.865C35.9869 46.1675 35.362 44.8785 35.362 42.7861C35.362 36.7512 35.362 30.7151 35.362 24.6777C35.362 24.5353 35.4907 24.4805 35.7296 24.5061C36.5162 24.5901 36.9132 24.6266 37.6999 24.7033C37.9572 24.7288 38.0675 24.8092 38.0675 24.9516C38.0675 30.8818 38.0748 36.8109 38.0895 42.7387C38.0895 44.0021 38.4571 44.8712 39.1592 45.419C39.8613 45.9667 40.806 46.1091 41.9639 45.9667C43.0297 45.8873 44.0379 45.4553 44.8274 44.7397C45.1922 44.3815 45.4768 43.9506 45.6624 43.4755C45.848 43.0004 45.9305 42.4917 45.9045 41.9828C45.9045 36.5321 45.8946 31.079 45.875 25.6235C45.875 25.4774 46.0037 25.419 46.261 25.4372L48.2276 25.5724C48.4849 25.5724 48.6136 25.6709 48.6136 25.8207C48.6283 31.0571 48.6405 36.2911 48.6503 41.5227C48.6503 43.3485 48.0438 44.6667 46.8124 45.6563C45.581 46.6459 43.9709 47.117 41.9566 47.3726C39.9422 47.6282 38.413 47.5588 37.2 46.865Z" fill="#85887C"/>
<path d="M64.328 45.5431C62.7547 42.8482 61.9644 40.869 60.3874 37.0421C60.375 37.0125 60.3532 36.9876 60.3254 36.9711C60.2976 36.9547 60.2652 36.9476 60.233 36.9508C58.895 36.9691 58.226 36.9764 56.888 36.9873C56.7851 36.9873 56.7336 37.0312 56.7336 37.1151C56.7336 40.9713 56.7336 42.9906 56.7556 45.8352C56.7556 45.9923 56.627 46.0726 56.388 46.0835L54.4288 46.1785C54.1715 46.1785 54.0612 46.1201 54.0392 45.9631C54.0196 39.3536 54.0012 32.7442 53.984 26.1347C53.984 25.9777 54.1127 25.9083 54.3516 25.9193C56.8917 26.0325 58.1635 26.0763 60.7072 26.1457C62.5819 26.1931 64.1001 26.5985 65.258 27.4785C66.4159 28.3585 66.9967 29.5745 66.9967 31.2251C67.0172 32.4278 66.6401 33.6041 65.9233 34.5736C65.188 35.5536 64.1582 36.2761 62.9826 36.6368C62.8797 36.6587 62.8429 36.7135 62.8686 36.7938C64.5522 40.6353 65.394 42.6364 67.0775 45.3642L67.1143 45.4482C67.1143 45.5541 67.0004 45.6088 66.7688 45.6161L64.7691 45.7001C64.6882 45.7131 64.6053 45.7055 64.5282 45.678C64.451 45.6506 64.3822 45.6041 64.328 45.5431ZM56.7078 27.6209C56.7078 30.2282 56.7079 31.8714 56.7262 35.0629C56.7262 35.1469 56.7777 35.1871 56.8806 35.1871C58.2664 35.1871 58.9612 35.1871 60.347 35.1871C60.8713 35.2068 61.3942 35.1198 61.8835 34.9314C62.3728 34.743 62.8181 34.4572 63.1921 34.0916C63.5523 33.7143 63.8329 33.2692 64.0172 32.7826C64.2015 32.2959 64.2859 31.7775 64.2655 31.2579C64.2902 30.7636 64.2042 30.27 64.0135 29.8128C63.8227 29.3556 63.5321 28.9462 63.1627 28.6142C62.3637 27.9538 61.349 27.607 60.3102 27.6392C58.9244 27.61 58.2297 27.5917 56.8439 27.5515C56.7532 27.5296 56.7078 27.5527 56.7078 27.6209Z" fill="#85887C"/>
<path d="M90.0739 43.9473C88.8167 44.7397 87.1332 45.0757 85.0343 45.1012C82.678 45.1268 81.4981 45.1487 79.1528 45.2035C78.8955 45.2035 78.7669 45.1451 78.7669 44.999V26.4633C78.7669 26.3173 78.8894 26.2443 79.1345 26.2443C81.34 26.2114 82.4648 26.1931 84.6887 26.142C86.9127 26.0909 88.633 26.3647 89.8901 27.0768C91.1473 27.7889 91.7758 28.9026 91.7758 30.5714C91.7758 32.6821 90.7098 34.2815 88.5778 35.1396C88.5264 35.1615 88.5006 35.1798 88.5006 35.2017C88.5017 35.2136 88.5057 35.2251 88.512 35.2352C88.5184 35.2454 88.5271 35.2539 88.5374 35.2601C90.7981 36.2497 91.9082 38.0207 91.9229 40.2628C91.9339 41.9535 91.3311 43.1586 90.0739 43.9473ZM81.487 27.7086C81.487 30.0383 81.487 31.5099 81.487 34.391C81.487 34.4714 81.5385 34.5115 81.6414 34.5079L84.6814 34.4531C86.0709 34.4312 87.1479 34.0879 87.9198 33.4416C88.303 33.1172 88.6072 32.7108 88.8096 32.2529C89.012 31.7951 89.1075 31.2976 89.0888 30.7978C89.0888 29.6695 88.7212 28.8552 87.9345 28.3038C87.1479 27.7524 86.0966 27.5187 84.6998 27.5479L81.6525 27.61C81.5422 27.61 81.487 27.6428 81.487 27.7086ZM88.0375 42.7606C88.8057 42.1507 89.1917 41.2671 89.1917 40.0511C89.2199 39.5062 89.1317 38.9615 88.9327 38.453C88.7338 37.9444 88.4287 37.4835 88.0375 37.1005C87.2655 36.3958 86.1995 36.0489 84.8394 36.0708L81.6451 36.1292C81.5422 36.1292 81.4907 36.173 81.4907 36.2497V43.6297C81.4907 43.6954 81.5422 43.7246 81.6451 43.7246C82.9243 43.699 83.5639 43.6881 84.8394 43.6735C86.1995 43.6516 87.2508 43.3704 88.0375 42.7606Z" fill="#85887C"/>
<path d="M106.332 45.3277C104.774 42.3698 103.994 40.3176 102.432 36.4688C102.42 36.4385 102.399 36.4128 102.371 36.3956C102.343 36.3785 102.31 36.3709 102.278 36.3739C100.94 36.3739 100.271 36.3739 98.9328 36.3739C98.8299 36.3739 98.7784 36.414 98.7784 36.498C98.7784 40.2555 98.7784 42.2274 98.7784 44.9771C98.7784 45.1268 98.6497 45.1962 98.4108 45.1889L96.4479 45.1414C96.1906 45.1414 96.0803 45.0647 96.0803 44.915C96.0803 38.6196 96.0876 32.323 96.1023 26.0251C96.1023 25.8754 96.231 25.7987 96.4699 25.7914C99.0136 25.6965 100.285 25.649 102.829 25.5431C104.704 25.4628 106.218 25.7768 107.369 26.6386C108.519 27.5004 109.097 28.7383 109.093 30.4838C109.107 31.7477 108.721 32.9841 107.99 34.0186C107.27 35.0174 106.235 35.7496 105.049 36.1C104.947 36.1 104.906 36.173 104.932 36.257C106.601 40.2044 107.424 42.3844 109.111 45.4299C109.111 45.4664 109.133 45.4883 109.152 45.5248C109.152 45.6344 109.034 45.6782 108.784 45.6599L106.777 45.5321C106.692 45.5375 106.606 45.5216 106.529 45.4859C106.451 45.4502 106.383 45.3958 106.332 45.3277ZM98.7931 27.2557C98.7931 29.7827 98.7931 31.3857 98.7931 34.4969C98.7931 34.5809 98.8409 34.6211 98.9438 34.6174C100.33 34.6174 101.024 34.6174 102.41 34.6174C102.937 34.6381 103.463 34.5494 103.953 34.357C104.444 34.1646 104.888 33.8728 105.259 33.5C105.994 32.7062 106.383 31.6564 106.343 30.5787C106.343 29.4029 105.976 28.5192 105.27 27.8948C104.564 27.2703 103.605 27.0038 102.425 27.044L98.9585 27.1608C98.8445 27.1535 98.7931 27.19 98.7931 27.2557Z" fill="#85887C"/>
<path d="M123.565 47.0914C123.155 45.9488 122.814 44.7831 122.543 43.6005C122.543 43.5799 122.537 43.5598 122.527 43.542C122.516 43.5241 122.502 43.5091 122.484 43.4982C122.442 43.4719 122.394 43.4545 122.345 43.4471C119.514 43.0819 118.095 42.9249 115.268 42.651C115.224 42.6415 115.177 42.6415 115.132 42.651C115.116 42.658 115.101 42.6696 115.091 42.6845C115.08 42.6994 115.074 42.7169 115.074 42.735C114.805 43.8025 114.481 44.8556 114.103 45.89C114.077 46.0215 113.934 46.0726 113.673 46.0471C112.875 45.974 112.478 45.9375 111.681 45.8718C111.576 45.8695 111.474 45.8379 111.387 45.7805C111.357 45.761 111.335 45.7316 111.325 45.6974C111.315 45.6633 111.317 45.6267 111.332 45.5942C113.857 38.8826 114.831 31.7181 117.114 24.9443C117.162 24.8092 117.305 24.7398 117.533 24.7215C118.455 24.6521 118.915 24.6193 119.834 24.5426C120.091 24.5243 120.231 24.5718 120.26 24.6996C123.124 32.065 123.797 40.0365 126.392 47.504V47.5442C126.392 47.6757 126.278 47.7122 126.024 47.672C125.208 47.5296 124.8 47.4602 123.98 47.3324C123.763 47.3032 123.62 47.2265 123.565 47.0914ZM115.695 40.8836C118.158 41.0881 119.393 41.2013 121.859 41.4643C121.937 41.4643 121.977 41.4314 121.973 41.3364C120.933 36.6806 120.021 31.9919 118.783 27.3799C118.753 27.3252 118.727 27.2959 118.702 27.2996C118.676 27.3032 118.65 27.3324 118.628 27.3909C117.525 31.8239 116.643 36.3045 115.577 40.7449C115.576 40.7613 115.578 40.7778 115.583 40.7935C115.588 40.8092 115.596 40.8236 115.607 40.8359C115.618 40.8483 115.632 40.8582 115.647 40.8652C115.662 40.8721 115.678 40.8759 115.695 40.8764V40.8836Z" fill="#85887C"/>
<path d="M140.448 22.3151L142.367 22.0449C142.621 22.0047 142.735 22.0449 142.757 22.2201C143.047 32.0795 143.047 41.9645 143.334 51.8348C143.334 51.9955 143.216 52.0211 142.966 51.9334C142.058 51.6267 141.606 51.477 140.695 51.2031C140.605 51.1818 140.521 51.143 140.446 51.0891C140.372 51.0352 140.309 50.9673 140.261 50.8891C136.739 43.8999 135.015 36.0379 132.332 28.7274C132.306 28.6507 132.266 28.6215 132.214 28.6361C132.163 28.6507 132.141 28.6981 132.141 28.7748C132.258 35.4427 132.317 42.1179 132.508 48.7857C132.508 48.9318 132.387 48.9683 132.141 48.9063C131.343 48.7273 130.942 48.6397 130.141 48.4754C129.88 48.4206 129.748 48.3293 129.744 48.1832C129.557 40.0876 129.538 31.9883 129.377 23.8926C129.377 23.7502 129.498 23.6698 129.744 23.6406C130.634 23.5457 131.078 23.4982 131.968 23.396C132.043 23.3769 132.123 23.378 132.198 23.3991C132.272 23.4203 132.34 23.4608 132.394 23.5165C136.666 29.695 138.136 38.2983 140.334 45.2583C140.364 45.3496 140.4 45.397 140.452 45.3934C140.503 45.3897 140.529 45.3459 140.529 45.2583C140.393 37.7067 140.331 30.1515 140.099 22.6182C140.066 22.4356 140.184 22.348 140.448 22.3151Z" fill="#85887C"/>
<path d="M148.785 53.8761C148.509 43.0491 148.528 32.2147 148.248 21.3766C148.248 21.2014 148.37 21.1028 148.616 21.0626C150.983 20.6792 152.171 20.4783 154.545 20.0511C156.527 19.6859 158.118 19.7772 159.306 20.9786C160.493 22.18 161.077 24.4513 161.077 28.092V51.2177C161.077 54.8694 160.519 56.8924 159.408 57.6592C158.298 58.4261 156.813 57.9477 154.917 56.9691C152.641 55.7969 151.487 55.2638 149.16 54.2778C148.921 54.1938 148.793 54.066 148.785 53.8761ZM151.571 53.4087C152.895 53.9528 153.553 54.2377 154.858 54.8365C155.96 55.3477 156.806 55.355 157.449 54.5809C158.093 53.8068 158.42 52.3242 158.434 49.958C158.405 42.7545 158.377 35.5486 158.35 28.3403C158.35 25.9229 158.001 24.2979 157.332 23.2901C156.663 22.2823 155.729 21.9938 154.549 22.1544C153.196 22.3443 152.524 22.4356 151.171 22.6182C151.149 22.6186 151.128 22.6234 151.108 22.6325C151.089 22.6415 151.071 22.6545 151.057 22.6707C151.043 22.6869 151.032 22.7059 151.026 22.7264C151.019 22.7469 151.018 22.7685 151.02 22.7898C151.197 32.9231 151.244 43.06 151.421 53.1969C151.416 53.2471 151.43 53.2972 151.459 53.3385C151.487 53.3799 151.53 53.4099 151.579 53.4233L151.571 53.4087Z" fill="#85887C"/>
<path d="M8.43616 55.2126V39.5508C8.44652 39.4435 8.43398 39.3352 8.39939 39.2331C6.87022 32.1124 5.75277 24.6521 3.28992 17.7688L3.25315 17.6264C3.25315 17.4511 3.36344 17.389 3.58399 17.4292L5.5653 17.7944C5.66159 17.8037 5.75352 17.8388 5.83123 17.8961C5.90894 17.9533 5.96948 18.0305 6.00639 18.1194C7.68627 23.1404 8.57951 28.4023 9.61611 33.584C9.64184 33.6643 9.6786 33.7045 9.73006 33.6972C9.78152 33.6899 9.8146 33.6461 9.84033 33.5584C10.7887 28.8113 11.5313 23.867 13.4648 19.3938C13.5383 19.2623 13.6853 19.2185 13.9095 19.2587L15.9129 19.5837C16.0177 19.5971 16.1155 19.6431 16.1923 19.7151C16.2183 19.7465 16.2325 19.7859 16.2325 19.8265C16.2325 19.8671 16.2183 19.9065 16.1923 19.9379C13.2736 25.6162 12.3951 32.5323 11.0791 38.678C11.0461 38.7805 11.0336 38.8885 11.0424 38.9957V53.9126C11.0424 54.1062 10.9174 54.2486 10.6748 54.3691C9.92121 54.7342 9.5426 54.9205 8.79272 55.3075C8.56113 55.4426 8.43616 55.4171 8.43616 55.2126Z" fill="#001D30"/>
<path d="M20.9967 49.129C19.8167 48.5886 19.2286 47.2557 19.2249 44.8493V26.0544C19.2249 23.6516 19.813 22.1873 20.993 21.4168C22.173 20.6463 23.7205 20.6134 25.6393 20.88C27.5581 21.1466 29.1535 21.6286 30.3555 22.5999C31.5575 23.5712 32.153 24.9005 32.1567 26.865C32.1567 31.9262 32.1567 36.9873 32.1567 42.0485C32.1567 43.9875 31.5612 45.3715 30.3628 46.4925C29.1645 47.6136 27.5876 48.2855 25.643 48.8515C23.6985 49.4175 22.1877 49.6585 20.9967 49.129ZM28.4367 45.6709C29.163 44.8413 29.5442 43.768 29.5027 42.6693C29.5027 37.3135 29.5027 31.9481 29.5027 26.5729C29.5351 26.0392 29.4569 25.5045 29.2729 25.002C29.0889 24.4995 28.803 24.0399 28.433 23.6516C27.679 22.9261 26.6933 22.4856 25.6467 22.4064C24.5439 22.2676 23.6176 22.432 22.9192 23.0527C22.2208 23.6735 21.8752 24.6485 21.8752 26.0653C21.8752 32.1514 21.8752 38.2374 21.8752 44.3235C21.8752 45.7111 22.2428 46.6057 22.9192 47.1024C23.5955 47.599 24.5255 47.6099 25.6504 47.3032C26.7241 47.0519 27.6957 46.4827 28.4367 45.6709Z" fill="#001D30"/>
<path d="M38.4755 44.7945C37.2992 44.1007 36.7074 42.8117 36.7074 40.7156C36.7074 34.6783 36.7074 28.6433 36.7074 22.6109C36.7074 22.4648 36.8323 22.4137 37.0749 22.4392L38.9864 22.6364C39.2364 22.662 39.354 22.7423 39.354 22.8847C39.354 28.8125 39.3614 34.7404 39.3761 40.6682C39.3761 41.9353 39.7216 42.8007 40.4127 43.3484C41.1037 43.8962 42.0117 44.0423 43.1365 43.8998C44.1766 43.8178 45.1572 43.3849 45.9155 42.6729C46.272 42.31 46.5492 41.8777 46.7294 41.4032C46.9097 40.9288 46.9893 40.4224 46.9631 39.9159C46.9631 34.4653 46.9533 29.0121 46.9337 23.5566C46.9337 23.4105 47.0587 23.3485 47.3013 23.3667L49.2127 23.5055C49.4627 23.5055 49.5803 23.6004 49.5803 23.7502C49.595 28.9915 49.606 34.2255 49.6134 39.4522C49.6134 41.278 49.0253 42.5962 47.838 43.5822C46.6506 44.5681 45.081 45.0428 43.1255 45.3021C41.1699 45.5613 39.6554 45.4774 38.4755 44.7945Z" fill="#001D30"/>
<path d="M64.8279 43.4763C63.2987 40.7777 62.5342 38.7985 61.005 34.9753C60.9932 34.9459 60.9721 34.9211 60.945 34.9047C60.9178 34.8882 60.886 34.8809 60.8543 34.884L57.6048 34.9205C57.5019 34.9205 57.4541 34.9643 57.4541 35.0447C57.4541 38.9008 57.4541 40.9238 57.4761 43.7684C57.4761 43.9218 57.3512 44.0057 57.1086 44.0167L55.2044 44.108C54.9582 44.108 54.8369 44.0532 54.8369 43.8962C54.8197 37.2867 54.8013 30.6773 54.7817 24.0679C54.7817 23.9108 54.9067 23.8415 55.1493 23.8524C57.6158 23.9656 58.8509 24.0094 61.3211 24.0752C63.1591 24.1263 64.6294 24.528 65.7322 25.4117C66.835 26.2953 67.4194 27.5077 67.4194 29.1582C67.4446 30.3546 67.0809 31.5271 66.3824 32.5019C65.6838 33.4768 64.6875 34.202 63.5414 34.5699C63.4384 34.5919 63.4017 34.643 63.4274 34.727C65.0632 38.5685 65.8829 40.5696 67.515 43.2937L67.5517 43.3813C67.5517 43.4836 67.4415 43.5383 67.2172 43.5493L65.2727 43.6333C65.1912 43.6487 65.107 43.6423 65.0288 43.6147C64.9507 43.5871 64.8813 43.5393 64.8279 43.4763ZM57.432 25.5541C57.432 28.1613 57.432 29.8046 57.432 32.9961C57.432 33.0801 57.4798 33.1202 57.5827 33.1202C58.9244 33.1202 59.5971 33.1202 60.9425 33.1202C61.4547 33.1392 61.9652 33.0515 62.4412 32.8628C62.9173 32.6742 63.3484 32.3887 63.7068 32.0247C64.4172 31.2553 64.7924 30.238 64.7507 29.1947C64.7775 28.7043 64.6974 28.2139 64.516 27.757C64.3346 27.3001 64.056 26.8875 63.6994 26.5473C62.9296 25.8918 61.9412 25.5454 60.9278 25.576C59.5824 25.5468 58.9097 25.5285 57.5644 25.4883C57.4761 25.4518 57.4173 25.4847 57.4173 25.5541H57.432Z" fill="#001D30"/>
<path d="M89.824 41.8805C88.6036 42.6693 86.9715 43.0089 84.9314 43.0344C82.645 43.06 81.5018 43.0819 79.2117 43.1367C78.9654 43.1367 78.8441 43.0783 78.8441 42.9322V24.3929C78.8441 24.2492 78.9666 24.1762 79.2117 24.1737C81.3694 24.1445 82.4465 24.1226 84.6005 24.0752C86.7546 24.0277 88.4308 24.2979 89.6549 25.01C90.8789 25.7221 91.4928 26.8358 91.4928 28.5046C91.4928 30.6152 90.4562 32.2147 88.3867 33.0728C88.3352 33.091 88.3095 33.1129 88.3095 33.1312C88.3095 33.1495 88.3095 33.1714 88.3499 33.1933C89.3455 33.5942 90.1938 34.288 90.7812 35.1815C91.3686 36.0751 91.6669 37.1256 91.6362 38.1924C91.6178 39.8867 91.0297 41.0954 89.824 41.8805ZM81.4871 25.6381C81.4871 27.9714 81.4871 29.4431 81.4871 32.3242C81.4871 32.4045 81.5348 32.441 81.6378 32.441L84.5785 32.3863C85.9275 32.3607 86.9715 32.0211 87.7214 31.3748C88.0928 31.0432 88.3861 30.6344 88.5805 30.1775C88.7749 29.7205 88.8656 29.2267 88.8462 28.731C88.8462 27.599 88.4786 26.7847 87.7214 26.2369C86.9641 25.6892 85.9275 25.4518 84.5785 25.481L81.6378 25.5395C81.5238 25.5431 81.4724 25.576 81.4724 25.6381H81.4871ZM87.8463 40.6937C88.5815 40.0839 88.9491 39.2002 88.9491 37.9842C88.981 37.4434 88.8995 36.9018 88.7097 36.3939C88.5199 35.886 88.2259 35.4228 87.8463 35.0337C87.1112 34.3253 86.0635 33.982 84.7439 34.004L81.6414 34.0587C81.5385 34.0587 81.4907 34.1025 81.4907 34.1829V41.5628C81.4907 41.6249 81.5422 41.6578 81.6414 41.6541C82.8839 41.6322 83.5014 41.6213 84.7439 41.6066C86.0488 41.5884 87.0818 41.3036 87.8316 40.6937H87.8463Z" fill="#001D30"/>
<path d="M105.593 43.2609C104.083 40.2994 103.325 38.2508 101.807 34.402C101.797 34.3722 101.777 34.3468 101.75 34.3296C101.724 34.3124 101.692 34.3045 101.66 34.3071H98.4108C98.3115 34.3071 98.2601 34.3472 98.2601 34.4276C98.2601 38.1887 98.2601 40.1606 98.2601 42.9103C98.2601 43.06 98.1388 43.1294 97.8925 43.1221C97.1316 43.1002 96.7493 43.0892 95.9884 43.0746C95.7384 43.0746 95.6208 42.9943 95.6208 42.8482C95.6208 36.5504 95.6282 30.2538 95.6429 23.9584C95.6429 23.8086 95.7642 23.7319 96.0104 23.7246C98.477 23.6297 99.7121 23.5786 102.182 23.4727C104.002 23.396 105.472 23.71 106.593 24.5682C107.714 25.4263 108.273 26.6642 108.27 28.4097C108.29 29.669 107.92 30.9042 107.211 31.9481C106.525 32.9389 105.522 33.6709 104.366 34.0259C104.266 34.0478 104.23 34.0989 104.255 34.1829C105.873 38.134 106.674 40.314 108.299 43.3558L108.336 43.4544C108.336 43.5603 108.222 43.6041 107.994 43.5895C107.211 43.5311 106.821 43.5055 106.046 43.4617C105.959 43.4687 105.873 43.454 105.794 43.4189C105.715 43.3837 105.646 43.3294 105.593 43.2609ZM98.2785 25.189C98.2785 27.7159 98.2785 29.3189 98.2785 32.4301C98.2785 32.5105 98.3263 32.5506 98.4255 32.5506L101.789 32.5324C102.304 32.5513 102.817 32.4611 103.294 32.2679C103.772 32.0746 104.202 31.7826 104.557 31.4113C105.275 30.6095 105.652 29.5623 105.608 28.49C105.608 27.3142 105.263 26.4305 104.568 25.8024C103.873 25.1743 102.951 24.9151 101.804 24.9552L98.4365 25.0721C98.3226 25.0867 98.2785 25.1196 98.2785 25.189Z" fill="#001D30"/>
<path d="M122.322 45.0209C121.926 43.8782 121.596 42.7139 121.334 41.5336C121.333 41.513 121.328 41.4928 121.318 41.4749C121.307 41.457 121.293 41.442 121.275 41.4314C121.236 41.4033 121.19 41.3857 121.143 41.3802C118.393 41.0151 117.015 40.858 114.272 40.5842C114.229 40.5725 114.183 40.5725 114.14 40.5842C114.122 40.5898 114.107 40.6011 114.096 40.6162C114.086 40.6314 114.08 40.6497 114.081 40.6682C113.714 42.1033 113.519 42.7532 113.14 43.8232C113.114 43.9546 112.975 44.0058 112.721 43.9802C111.949 43.9072 111.56 43.8706 110.788 43.8049C110.686 43.8028 110.588 43.7711 110.505 43.7136C110.475 43.6937 110.453 43.6645 110.442 43.6307C110.432 43.5969 110.433 43.5605 110.446 43.5274C112.901 36.812 113.846 29.6512 116.062 22.8774C116.11 22.7423 116.246 22.6693 116.47 22.6547L118.705 22.4758C118.952 22.4539 119.073 22.505 119.117 22.6328C121.896 29.9981 122.55 37.9696 125.072 45.4335V45.4774C125.072 45.6052 124.962 45.6453 124.734 45.6052C123.94 45.4627 123.543 45.3934 122.749 45.2619C122.517 45.24 122.378 45.1597 122.322 45.0209ZM114.684 38.8131C117.077 39.014 118.275 39.1308 120.668 39.3938C120.746 39.3938 120.782 39.3609 120.782 39.2659C119.771 34.6101 118.886 29.9214 117.68 25.3094C117.654 25.251 117.628 25.2254 117.606 25.2291C117.584 25.2327 117.555 25.2583 117.533 25.3204C116.463 29.7534 115.603 34.2303 114.57 38.6707C114.57 38.7547 114.607 38.8022 114.684 38.8095V38.8131Z" fill="#001D30"/>
<path d="M138.713 20.2446L140.573 19.9744C140.823 19.9379 140.941 19.9927 140.941 20.1533C141.22 30.0127 141.22 39.8977 141.5 49.7644C141.5 49.9251 141.386 49.9543 141.132 49.8666C140.253 49.5563 139.812 49.4102 138.926 49.1363C138.839 49.1156 138.757 49.0773 138.685 49.024C138.613 48.9706 138.552 48.9032 138.507 48.8259C135.089 41.8331 133.416 33.9747 130.788 26.6605C130.764 26.5851 130.727 26.5559 130.678 26.5729C130.626 26.5729 130.601 26.635 130.604 26.7117C130.718 33.3795 130.777 40.0511 130.972 46.7189C130.972 46.865 130.854 46.9015 130.604 46.8431C129.829 46.6642 129.439 46.5765 128.663 46.4122C128.41 46.3574 128.296 46.2625 128.296 46.1201C128.116 38.0244 128.094 29.9251 127.928 21.8294C127.928 21.6834 128.046 21.6067 128.296 21.5775L130.454 21.3328C130.527 21.3126 130.605 21.3132 130.678 21.3345C130.752 21.3558 130.818 21.3969 130.869 21.4533C135.015 27.6319 136.445 36.2315 138.588 43.1951C138.614 43.2864 138.654 43.3302 138.702 43.3266C138.75 43.3229 138.779 43.2827 138.776 43.1951C138.647 35.6435 138.585 28.0883 138.36 20.5368C138.346 20.3688 138.467 20.2812 138.713 20.2446Z" fill="#001D30"/>
<path d="M146.8 51.8202C146.532 40.9931 146.55 30.1624 146.278 19.3207C146.278 19.1455 146.396 19.0469 146.646 19.003C148.943 18.6379 150.097 18.4188 152.402 17.9952C154.325 17.63 155.872 17.7213 157.023 18.9227C158.173 20.1241 158.743 22.3918 158.743 26.0361V49.1619C158.743 52.8135 158.203 54.8365 157.126 55.6033C156.049 56.3702 154.608 55.8882 152.762 54.9132C150.557 53.741 149.432 53.2042 147.175 52.2183C146.94 52.127 146.8 51.9955 146.8 51.8202ZM149.506 51.3565C150.789 51.9006 151.428 52.1854 152.696 52.7843C153.751 53.2955 154.586 53.3028 155.211 52.5286C155.836 51.7545 156.155 50.2719 156.17 47.9057C156.141 40.6974 156.114 33.4915 156.089 26.288C156.089 23.8707 155.747 22.242 155.097 21.2378C154.446 20.2336 153.542 19.9379 152.399 20.1022C151.083 20.2921 150.428 20.3834 149.116 20.5623C149.095 20.5632 149.074 20.5684 149.055 20.5776C149.035 20.5869 149.018 20.6 149.005 20.6161C148.991 20.6322 148.981 20.651 148.974 20.6713C148.968 20.6916 148.966 20.7129 148.969 20.7339C149.142 30.8708 149.186 41.0078 149.359 51.1447C149.359 51.1921 149.374 51.2382 149.403 51.2763C149.431 51.3144 149.471 51.3425 149.517 51.3565H149.506Z" fill="#001D30"/>
<path d="M49.0118 77.4827C48.9654 77.5048 48.9311 77.4927 48.9089 77.4466L46.6432 72.7428C46.621 72.6967 46.6331 72.6626 46.6796 72.6405L47.0347 72.4717C47.0811 72.4497 47.1154 72.4617 47.1376 72.5078L49.2167 76.8243C49.2256 76.8427 49.2393 76.8475 49.2579 76.8387L50.8525 76.0807C50.8989 76.0587 50.9332 76.0707 50.9554 76.1168L51.0953 76.4073C51.1176 76.4535 51.1054 76.4876 51.059 76.5096L49.0118 77.4827Z" fill="#001D30"/>
<path d="M52.5448 75.9524C52.203 76.0945 51.8883 76.1091 51.6007 75.9959C51.3179 75.8808 51.1079 75.6605 50.9707 75.3352L50.3297 73.8144C50.1946 73.4937 50.1863 73.1895 50.305 72.9019C50.4236 72.6142 50.6515 72.4003 50.9885 72.2601C51.3303 72.1179 51.6459 72.1058 51.9355 72.2236C52.2251 72.3415 52.4375 72.5608 52.5726 72.8814L53.2136 74.4022C53.3508 74.7276 53.359 75.0317 53.2384 75.3147C53.1178 75.5977 52.8866 75.8102 52.5448 75.9524ZM52.357 75.5068C52.5373 75.4317 52.6587 75.3092 52.7209 75.1392C52.7879 74.9673 52.7787 74.7799 52.6932 74.5771L52.079 73.12C51.9936 72.9172 51.8656 72.7792 51.6953 72.706C51.5277 72.626 51.3537 72.6236 51.1733 72.6986C50.993 72.7737 50.8726 72.8985 50.8124 73.0732C50.7501 73.2432 50.7617 73.4296 50.8472 73.6324L51.4614 75.0895C51.5468 75.2923 51.6724 75.4313 51.838 75.5065C52.0036 75.5817 52.1766 75.5818 52.357 75.5068Z" fill="#001D30"/>
<path d="M54.1887 71.0482C54.3094 71.004 54.423 70.9923 54.5295 71.0133C54.5704 71.0201 54.5941 71.0468 54.6004 71.0935L54.6525 71.4995C54.6637 71.5444 54.64 71.5694 54.5816 71.5745C54.513 71.5669 54.4352 71.5791 54.3483 71.6109C54.3097 71.6251 54.2816 71.6381 54.2641 71.65C54.0938 71.7233 53.9852 71.8666 53.9383 72.08C53.8896 72.2885 53.9107 72.5151 54.0015 72.7597L54.803 74.9181C54.8209 74.966 54.8056 74.9989 54.7573 75.0166L54.388 75.1519C54.3397 75.1696 54.3067 75.1545 54.2888 75.1065L52.9903 71.61C52.9725 71.5621 52.9878 71.5292 53.036 71.5115L53.4054 71.3762C53.4537 71.3585 53.4867 71.3736 53.5045 71.4216L53.6649 71.8532C53.6702 71.8676 53.6753 71.8739 53.6801 71.8722C53.6898 71.8686 53.6976 71.8603 53.7037 71.8472C53.7084 71.4313 53.87 71.165 54.1887 71.0482Z" fill="#001D30"/>
<path d="M57.9391 72.032C57.9549 72.0806 57.9384 72.1128 57.8894 72.1285L56.2147 72.6662C56.1951 72.6725 56.1884 72.6854 56.1948 72.7048L56.3681 73.2375C56.4345 73.4418 56.5455 73.5916 56.7008 73.6867C56.8595 73.7755 57.0319 73.79 57.2179 73.7303C57.3746 73.6799 57.4918 73.5913 57.5695 73.4643C57.6505 73.3308 57.6836 73.1832 57.6688 73.0214C57.6692 72.9729 57.689 72.9424 57.7282 72.9298L58.1002 72.8265C58.1198 72.8202 58.1393 72.822 58.1588 72.8318C58.1782 72.8417 58.1894 72.8596 58.1924 72.8855C58.2466 73.1851 58.201 73.4522 58.0557 73.687C57.9136 73.9152 57.6834 74.0805 57.3651 74.1827C57.0174 74.2943 56.7051 74.2817 56.4281 74.145C56.1559 74.0067 55.9652 73.7698 55.856 73.4341L55.3433 71.858C55.2357 71.5272 55.2515 71.2267 55.3907 70.9563C55.5332 70.6795 55.7783 70.4853 56.126 70.3737C56.4785 70.2605 56.7917 70.2755 57.0654 70.4186C57.3424 70.5554 57.5348 70.7891 57.6424 71.1199L57.9391 72.032ZM56.2731 70.8261C56.0871 70.8859 55.9566 71.0003 55.8818 71.1693C55.8103 71.332 55.8086 71.5179 55.8767 71.7271L56.0357 72.216C56.0421 72.2354 56.055 72.242 56.0746 72.2357L57.2792 71.849C57.2988 71.8427 57.3054 71.8298 57.2991 71.8103L57.1401 71.3215C57.072 71.1123 56.9587 70.9633 56.8 70.8746C56.6397 70.781 56.4641 70.7648 56.2731 70.8261Z" fill="#001D30"/>
<path d="M61.1301 68.957C61.4296 68.8803 61.69 68.93 61.9114 69.106C62.1327 69.282 62.2936 69.5634 62.3939 69.9502L63.0443 72.4569C63.0571 72.5065 63.0386 72.5377 62.9887 72.5505L62.6143 72.6464C62.5644 72.6591 62.533 72.6407 62.5201 72.5911L61.8814 70.129C61.8157 69.8761 61.7094 69.6918 61.5622 69.5762C61.4188 69.4542 61.2597 69.4156 61.085 69.4604C60.8953 69.5089 60.7642 69.6192 60.6917 69.7911C60.6192 69.963 60.6151 70.173 60.6794 70.4209L61.3221 72.8979C61.3349 72.9475 61.3164 72.9787 61.2665 72.9914L60.8846 73.0892C60.8347 73.102 60.8033 73.0836 60.7905 73.034L60.1517 70.5719C60.0861 70.319 59.9797 70.1347 59.8326 70.019C59.6891 69.8971 59.5326 69.8578 59.3628 69.9013C59.1731 69.9499 59.0395 70.0607 58.962 70.2339C58.8895 70.4059 58.8854 70.6158 58.9498 70.8638L59.5924 73.3407C59.6053 73.3903 59.5867 73.4215 59.5368 73.4343L59.1624 73.5301C59.1125 73.5429 59.0811 73.5245 59.0683 73.4749L58.1304 69.8599C58.1175 69.8103 58.136 69.7791 58.1859 69.7663L58.5603 69.6705C58.6102 69.6577 58.6416 69.6761 58.6545 69.7257L58.7143 69.9563C58.7169 69.9662 58.7213 69.973 58.7276 69.9767C58.7376 69.9741 58.7463 69.9666 58.7537 69.9541C58.8164 69.8059 58.9049 69.6854 59.0192 69.5926C59.1336 69.4999 59.2631 69.435 59.4079 69.3979C59.5976 69.3494 59.7746 69.3543 59.9388 69.4127C60.1017 69.4662 60.2425 69.5677 60.3611 69.7171C60.3687 69.7257 60.3774 69.7288 60.3874 69.7262C60.3974 69.7237 60.403 69.7143 60.4041 69.6982C60.4476 69.4966 60.5358 69.3339 60.6687 69.21C60.8016 69.0861 60.9554 69.0017 61.1301 68.957Z" fill="#001D30"/>
<path d="M64.7 67.5389C64.5737 67.563 64.4623 67.5427 64.3659 67.4778C64.2745 67.4119 64.2172 67.3188 64.1939 67.1983C64.1696 67.0728 64.188 66.9651 64.2492 66.8754C64.3145 66.7796 64.4104 66.7196 64.5367 66.6955C64.658 66.6723 64.7643 66.6936 64.8557 66.7595C64.9511 66.8193 65.011 66.912 65.0353 67.0375C65.0586 67.158 65.0376 67.2661 64.9723 67.3619C64.9121 67.4567 64.8213 67.5157 64.7 67.5389ZM65.3826 72.0782C65.3321 72.0879 65.302 72.0676 65.2922 72.0174L64.5835 68.3577C64.5738 68.3075 64.5942 68.2775 64.6447 68.2679L65.0313 68.194C65.0818 68.1843 65.112 68.2046 65.1217 68.2548L65.8305 71.9146C65.8402 71.9648 65.8198 71.9947 65.7692 72.0043L65.3826 72.0782Z" fill="#001D30"/>
<path d="M67.4505 67.711C67.7707 67.66 68.0448 67.7276 68.273 67.9138C68.5003 68.0951 68.6417 68.3573 68.6972 68.7005L68.9615 70.336C69.0186 70.6893 68.9677 70.9874 68.8089 71.2302C68.6492 71.4679 68.4094 71.6123 68.0892 71.6633C67.947 71.686 67.8082 71.6823 67.673 71.6521C67.537 71.6168 67.4118 71.5513 67.2973 71.4557C67.2855 71.4472 67.2749 71.4463 67.2656 71.453C67.2613 71.4588 67.26 71.4668 67.2617 71.4769L67.5272 73.1199C67.5353 73.1704 67.514 73.1997 67.4632 73.2078L67.0745 73.2698C67.0237 73.2779 66.9942 73.2567 66.986 73.2062L66.154 68.0576C66.1458 68.0071 66.1672 67.9778 66.218 67.9697L66.6067 67.9077C66.6575 67.8996 66.687 67.9208 66.6952 67.9713L66.7233 68.1454C66.7249 68.1555 66.7312 68.1623 66.7422 68.1657C66.7524 68.1641 66.7617 68.1574 66.7702 68.1457C66.8446 68.0251 66.9412 67.9295 67.0601 67.8587C67.1832 67.7822 67.3134 67.7329 67.4505 67.711ZM68.1698 68.8235C68.1347 68.6064 68.043 68.4424 67.8948 68.3314C67.7508 68.2146 67.5823 68.1716 67.3892 68.2023C67.2012 68.2323 67.0573 68.3252 66.9573 68.4809C66.8617 68.6308 66.8314 68.8143 66.8664 69.0313L67.1185 70.591C67.1536 70.8081 67.2405 70.9754 67.3794 71.0931C67.5226 71.2049 67.6882 71.2458 67.8762 71.2158C68.0693 71.185 68.2162 71.0943 68.3169 70.9436C68.4219 70.787 68.4569 70.6002 68.4218 70.3832L68.1698 68.8235Z" fill="#001D30"/>
<path d="M70.8828 71.278C70.5313 71.3203 70.2377 71.2658 70.0021 71.1144C69.771 70.9573 69.6372 70.7295 69.6008 70.4309L69.5943 70.3778C69.5882 70.3271 69.6105 70.2988 69.6615 70.2926L70.0283 70.2485C70.0793 70.2423 70.1078 70.2646 70.114 70.3152L70.1196 70.3607C70.1393 70.5227 70.2146 70.6523 70.3453 70.7495C70.4812 70.8461 70.6459 70.8828 70.8395 70.8595C71.0229 70.8374 71.1639 70.7639 71.2624 70.6391C71.3609 70.5143 71.3997 70.3658 71.3787 70.1937C71.3626 70.0621 71.3137 69.9576 71.2318 69.8802C71.1494 69.7976 71.0567 69.7369 70.9537 69.698C70.8558 69.6584 70.7077 69.6095 70.5093 69.5512C70.3007 69.4941 70.1256 69.4356 69.9838 69.3756C69.8466 69.31 69.7209 69.2122 69.6068 69.0821C69.4972 68.9464 69.4288 68.7672 69.4016 68.5445C69.3621 68.2206 69.4303 67.953 69.6061 67.7418C69.7871 67.53 70.0482 67.4036 70.3896 67.3625C70.736 67.3207 71.0229 67.3838 71.2501 67.5516C71.4774 67.7193 71.6105 67.9627 71.6494 68.2815L71.6522 68.3043C71.6583 68.3549 71.6359 68.3833 71.585 68.3894L71.2335 68.4317C71.1825 68.4379 71.1539 68.4156 71.1478 68.365L71.1422 68.3195C71.1212 68.1474 71.0453 68.0127 70.9146 67.9155C70.7889 67.8177 70.6344 67.7798 70.4509 67.8019C70.2675 67.8239 70.1269 67.8999 70.029 68.0298C69.9356 68.1541 69.8991 68.2997 69.9195 68.4667C69.9343 68.5882 69.9801 68.6879 70.0568 68.766C70.1329 68.839 70.2228 68.8975 70.3263 68.9415C70.4293 68.9805 70.5721 69.0275 70.7545 69.0826C70.9745 69.1485 71.1557 69.214 71.2981 69.279C71.4455 69.3434 71.5791 69.4429 71.6989 69.5774C71.8187 69.7119 71.8919 69.888 71.9185 70.1056C71.9568 70.4194 71.8829 70.6825 71.6968 70.8949C71.5108 71.1073 71.2395 71.235 70.8828 71.278Z" fill="#001D30"/>
<path d="M74.0631 67.0768C74.0587 67.0258 74.0821 66.9982 74.1334 66.9938L74.5257 66.9606C74.577 66.9562 74.6048 66.9795 74.6092 67.0304L74.9283 70.7438C74.9327 70.7947 74.9092 70.8224 74.858 70.8267L74.4657 70.86C74.4144 70.8643 74.3866 70.841 74.3822 70.7901L74.3599 70.5303C74.3586 70.515 74.3528 70.5078 74.3425 70.5087C74.3374 70.5091 74.3302 70.5149 74.3208 70.5259C74.1846 70.8043 73.9396 70.9585 73.5858 70.9885C73.2781 71.0146 73.0241 70.9438 72.8238 70.7761C72.6281 70.6028 72.5141 70.3277 72.4817 69.9508L72.2479 67.2307C72.2435 67.1798 72.267 67.1521 72.3183 67.1478L72.7105 67.1145C72.7618 67.1102 72.7896 67.1335 72.794 67.1844L73.0173 69.7822C73.0392 70.0369 73.1071 70.2261 73.221 70.3499C73.3396 70.4681 73.4989 70.5187 73.6989 70.5017C73.904 70.4843 74.0566 70.397 74.1567 70.2397C74.262 70.082 74.3036 69.8758 74.2817 69.6211L74.0631 67.0768Z" fill="#001D30"/>
<path d="M78.6839 66.6892C78.9927 66.677 79.2365 66.7799 79.4154 66.9981C79.5943 67.2163 79.6918 67.5248 79.7078 67.9235L79.8119 70.5078C79.8139 70.5589 79.7892 70.5855 79.7378 70.5875L79.3518 70.6029C79.3003 70.6049 79.2736 70.5804 79.2715 70.5293L79.1693 67.991C79.1588 67.7303 79.094 67.528 78.9748 67.3843C78.8605 67.2352 78.7134 67.1643 78.5332 67.1714C78.3377 67.1792 78.1863 67.2594 78.079 67.4122C77.9718 67.565 77.9233 67.7691 77.9336 68.0247L78.0364 70.5783C78.0385 70.6295 78.0138 70.656 77.9623 70.6581L77.5686 70.6737C77.5172 70.6758 77.4904 70.6512 77.4884 70.6001L77.3862 68.0619C77.3757 67.8011 77.3108 67.5989 77.1916 67.4551C77.0774 67.3061 76.9328 67.235 76.7578 67.242C76.5622 67.2497 76.4083 67.3301 76.2959 67.4831C76.1886 67.6358 76.1401 67.84 76.1504 68.0956L76.2533 70.6492C76.2553 70.7003 76.2306 70.7269 76.1792 70.7289L75.7932 70.7443C75.7417 70.7463 75.715 70.7218 75.7129 70.6707L75.5628 66.9438C75.5608 66.8927 75.5855 66.8661 75.6369 66.8641L76.0229 66.8487C76.0744 66.8467 76.1011 66.8712 76.1032 66.9223L76.1128 67.1601C76.1132 67.1703 76.1161 67.1778 76.1214 67.1828C76.1317 67.1824 76.1418 67.1768 76.1517 67.1662C76.2443 67.0345 76.3563 66.9353 76.4876 66.8687C76.6189 66.802 76.7592 66.7657 76.9085 66.7598C77.104 66.752 77.2758 66.7938 77.4238 66.8852C77.5716 66.9715 77.6876 67.1 77.7718 67.2708C77.7774 67.2808 77.7853 67.2856 77.7956 67.2852C77.8059 67.2848 77.8133 67.2768 77.8178 67.2613C77.903 67.0736 78.0237 66.9331 78.1797 66.8398C78.3357 66.7466 78.5038 66.6964 78.6839 66.6892Z" fill="#001D30"/>
<path d="M83.9962 65.3765C83.9977 65.3254 84.0242 65.3006 84.0757 65.3021L84.4694 65.3139C84.5208 65.3154 84.5458 65.3417 84.5442 65.3929L84.3868 70.6074C84.3852 70.6585 84.3587 70.6833 84.3073 70.6818L83.9136 70.67C83.8621 70.6685 83.8371 70.6422 83.8387 70.591L83.8438 70.4223C83.8441 70.4121 83.8392 70.4043 83.829 70.3989C83.824 70.3936 83.8162 70.3959 83.8056 70.4059C83.6036 70.6147 83.3533 70.7147 83.0549 70.7058C82.7255 70.696 82.4663 70.5808 82.2772 70.3603C82.0883 70.1346 81.9991 69.848 82.0096 69.5004L82.0596 67.844C82.0704 67.4861 82.1768 67.2053 82.3786 67.0015C82.5807 66.7926 82.8464 66.6931 83.1757 66.7029C83.4794 66.712 83.7231 66.8292 83.9068 67.0547C83.9168 67.0653 83.9245 67.0681 83.9298 67.0631C83.9402 67.0583 83.9456 67.0508 83.9459 67.0406L83.9962 65.3765ZM83.2004 70.2343C83.3909 70.24 83.5472 70.1781 83.6696 70.0487C83.7973 69.9144 83.8644 69.7398 83.8709 69.5251L83.9188 67.9378C83.9255 67.7179 83.869 67.5397 83.7495 67.4031C83.6353 67.2616 83.483 67.188 83.2926 67.1823C83.0971 67.1764 82.9329 67.2406 82.8 67.3748C82.6725 67.5041 82.6054 67.6786 82.5988 67.8984L82.5509 69.4858C82.5444 69.7005 82.6008 69.8787 82.7202 70.0204C82.8448 70.1572 83.0049 70.2285 83.2004 70.2343Z" fill="#001D30"/>
<path d="M86.3275 70.8407C85.9577 70.8178 85.6691 70.6924 85.4617 70.4645C85.2594 70.2368 85.1692 69.947 85.1913 69.5949L85.2943 67.9494C85.3161 67.6024 85.4442 67.3261 85.6788 67.1203C85.9134 66.9146 86.2131 66.823 86.5777 66.8455C86.9476 66.8684 87.236 66.9963 87.4432 67.2294C87.6503 67.4624 87.743 67.7524 87.7212 68.0994L87.6182 69.7449C87.5961 70.097 87.468 70.3734 87.2337 70.574C86.9994 70.7747 86.6974 70.8635 86.3275 70.8407ZM86.3577 70.3585C86.5529 70.3706 86.7163 70.3141 86.8479 70.189C86.9846 70.0643 87.0598 69.8923 87.0736 69.6729L87.1723 68.0962C87.186 67.8768 87.1329 67.6968 87.0128 67.5562C86.8981 67.4108 86.7432 67.3321 86.548 67.32C86.3529 67.308 86.1893 67.367 86.0574 67.4972C85.9258 67.6222 85.8532 67.7944 85.8394 68.0138L85.7407 69.5905C85.7269 69.8099 85.7776 69.9897 85.8925 70.13C86.0075 70.2703 86.1626 70.3465 86.3577 70.3585Z" fill="#001D30"/>
<path d="M88.3387 70.9296C88.2875 70.9251 88.2641 70.8974 88.2687 70.8464L88.7344 65.6525C88.739 65.6015 88.7669 65.5784 88.8181 65.5829L89.2103 65.6176C89.2615 65.6221 89.2849 65.6498 89.2803 65.7008L88.8146 70.8947C88.81 70.9457 88.7821 70.9688 88.7309 70.9643L88.3387 70.9296Z" fill="#001D30"/>
<path d="M90.7122 71.2562C90.3454 71.212 90.0654 71.0704 89.8723 70.8315C89.6842 70.5932 89.6115 70.2994 89.6541 69.9502L89.8533 68.3179C89.8953 67.9738 90.0391 67.7061 90.2847 67.5148C90.5304 67.3236 90.834 67.2497 91.1958 67.2933C91.5626 67.3375 91.8423 67.4816 92.0348 67.7256C92.2273 67.9696 92.3026 68.2637 92.2606 68.6078L92.0614 70.24C92.0188 70.5893 91.875 70.857 91.63 71.0432C91.385 71.2293 91.079 71.3003 90.7122 71.2562ZM90.7706 70.7779C90.9642 70.8012 91.1301 70.7544 91.2685 70.6376C91.4119 70.5213 91.4969 70.3544 91.5235 70.1367L91.7143 68.5728C91.7408 68.3552 91.6985 68.1729 91.5871 68.026C91.4815 67.8746 91.3319 67.7873 91.1383 67.764C90.9447 67.7407 90.7785 67.79 90.6395 67.9119C90.5012 68.0288 90.4187 68.196 90.3922 68.4136L90.2014 69.9775C90.1748 70.1952 90.2146 70.3772 90.3209 70.5235C90.4271 70.6698 90.577 70.7546 90.7706 70.7779Z" fill="#001D30"/>
<path d="M94.5737 67.7346C94.701 67.7536 94.8062 67.7977 94.8894 67.867C94.922 67.8925 94.9297 67.9273 94.9127 67.9712L94.7614 68.3519C94.7495 68.3967 94.7167 68.4073 94.663 68.3838C94.6065 68.3443 94.5324 68.3177 94.4408 68.3041C94.4001 68.298 94.3692 68.296 94.3481 68.298C94.1633 68.2808 93.9987 68.3544 93.8541 68.519C93.7103 68.6785 93.6189 68.8871 93.58 69.145L93.2361 71.42C93.2284 71.4705 93.1992 71.492 93.1483 71.4844L92.7589 71.4264C92.708 71.4188 92.6864 71.3897 92.6941 71.3391L93.2512 67.6536C93.2588 67.603 93.2881 67.5816 93.339 67.5892L93.7283 67.6472C93.7792 67.6548 93.8008 67.6839 93.7932 67.7345L93.7244 68.1895C93.7221 68.2046 93.7235 68.2126 93.7286 68.2133C93.7388 68.2149 93.7497 68.2113 93.7614 68.2027C93.9671 67.8405 94.2379 67.6845 94.5737 67.7346Z" fill="#001D30"/>
<path d="M97.2495 72.2405C96.9015 72.1702 96.6396 72.0259 96.4637 71.8078C96.2939 71.5857 96.2392 71.3268 96.2998 71.0312L96.3105 70.9786C96.3208 70.9285 96.3511 70.9086 96.4016 70.9188L96.7647 70.9922C96.8151 71.0023 96.8352 71.0325 96.8249 71.0826L96.8157 71.1277C96.7829 71.288 96.8131 71.435 96.9066 71.5686C97.005 71.7033 97.1501 71.79 97.3417 71.8287C97.5232 71.8654 97.6808 71.8399 97.8143 71.7521C97.9478 71.6643 98.032 71.5352 98.0669 71.3649C98.0936 71.2346 98.0803 71.1198 98.0272 71.0204C97.975 70.9159 97.9062 70.829 97.8206 70.7595C97.7401 70.6911 97.6148 70.5979 97.4446 70.4801C97.2643 70.3602 97.1164 70.2494 97.0006 70.1477C96.891 70.0421 96.8026 69.9095 96.7355 69.7498C96.6745 69.5862 96.6666 69.3942 96.7117 69.1738C96.7774 68.8531 96.9275 68.62 97.1621 68.4744C97.4018 68.3298 97.6906 68.2917 98.0285 68.36C98.3714 68.4293 98.6242 68.5795 98.7869 68.8106C98.9497 69.0418 98.9987 69.3151 98.9341 69.6307L98.9295 69.6533C98.9192 69.7034 98.8889 69.7233 98.8384 69.7131L98.4905 69.6428C98.4401 69.6326 98.42 69.6025 98.4302 69.5524L98.4395 69.5073C98.4743 69.337 98.4451 69.185 98.3517 69.0513C98.2633 68.9187 98.1283 68.834 97.9468 68.7973C97.7652 68.7606 97.6072 68.7887 97.4726 68.8815C97.3442 68.9703 97.263 69.0974 97.2291 69.2627C97.2045 69.3829 97.2163 69.4922 97.2644 69.5907C97.3135 69.6841 97.3804 69.768 97.4649 69.8425C97.5505 69.9119 97.6713 70.0016 97.8273 70.1114C98.0156 70.2433 98.1671 70.3626 98.2818 70.4693C98.4016 70.577 98.497 70.7136 98.5681 70.8793C98.6392 71.045 98.6527 71.2355 98.6086 71.4509C98.545 71.7615 98.3908 71.9886 98.1461 72.1322C97.9014 72.2757 97.6025 72.3118 97.2495 72.2405Z" fill="#001D30"/>
<path d="M100.368 68.1841C100.243 68.155 100.149 68.0912 100.088 67.9929C100.032 67.8957 100.017 67.7874 100.046 67.668C100.075 67.5436 100.136 67.4528 100.229 67.3956C100.328 67.3347 100.44 67.3188 100.565 67.348C100.685 67.376 100.774 67.4386 100.83 67.5357C100.893 67.6291 100.909 67.7379 100.88 67.8624C100.852 67.9818 100.788 68.072 100.689 68.133C100.595 68.1951 100.488 68.2122 100.368 68.1841ZM99.1258 72.6049C99.0757 72.5932 99.0565 72.5625 99.0683 72.5127L99.925 68.8844C99.9367 68.8346 99.9676 68.8155 100.018 68.8272L100.401 68.9165C100.451 68.9282 100.47 68.9589 100.459 69.0087L99.6019 72.6371C99.5901 72.6869 99.5592 72.7059 99.5091 72.6942L99.1258 72.6049Z" fill="#001D30"/>
<path d="M102.709 69.8373C102.696 69.8868 102.664 69.9051 102.615 69.8922L102.047 69.745C102.027 69.7398 102.014 69.7471 102.009 69.7669L101.413 72.0374C101.353 72.2649 101.351 72.4335 101.407 72.5432C101.465 72.648 101.576 72.7192 101.742 72.7568L101.817 72.7762C101.867 72.7891 101.885 72.8203 101.872 72.8698L101.788 73.1888C101.775 73.2383 101.744 73.2566 101.694 73.2436L101.507 73.1952C101.213 73.119 101.006 72.9991 100.884 72.8354C100.768 72.6681 100.757 72.4088 100.849 72.0576L101.486 69.6313C101.492 69.6115 101.484 69.5991 101.464 69.5939L101.173 69.5184C101.123 69.5054 101.105 69.4743 101.118 69.4248L101.182 69.1799C101.195 69.1305 101.227 69.1122 101.276 69.1251L101.568 69.2006C101.588 69.2058 101.6 69.1985 101.605 69.1787L101.824 68.3477C101.837 68.2982 101.868 68.28 101.918 68.2929L102.291 68.3897C102.341 68.4026 102.359 68.4338 102.346 68.4833L102.128 69.3143C102.123 69.3341 102.13 69.3465 102.15 69.3517L102.718 69.4989C102.768 69.5118 102.786 69.543 102.773 69.5925L102.709 69.8373Z" fill="#001D30"/>
<path d="M106.074 70.4352C106.417 70.5461 106.654 70.7466 106.786 71.0367C106.92 71.322 106.926 71.6493 106.805 72.0187L105.999 74.4758C105.983 74.5244 105.951 74.5408 105.902 74.525L105.527 74.4038C105.478 74.3879 105.462 74.3557 105.478 74.3071L105.55 74.0884C105.553 74.0787 105.549 74.0722 105.54 74.069C105.536 74.0626 105.528 74.0626 105.515 74.0692C105.256 74.2488 104.945 74.2799 104.583 74.1627C104.314 74.0756 104.104 73.9242 103.953 73.7086C103.808 73.4897 103.8 73.1858 103.927 72.797C104.063 72.3838 104.282 72.1213 104.583 72.0093C104.887 71.8925 105.234 71.8974 105.626 72.0242L106.14 72.1905C106.159 72.1968 106.172 72.1903 106.179 72.1708L106.272 71.8865C106.352 71.6434 106.359 71.4308 106.294 71.2486C106.23 71.0663 106.102 70.9443 105.911 70.8825C105.764 70.835 105.621 70.8424 105.482 70.9048C105.347 70.9687 105.245 71.0729 105.176 71.2172C105.16 71.2658 105.128 71.2822 105.079 71.2664L104.67 71.126C104.646 71.1181 104.629 71.1045 104.619 71.0851C104.614 71.0674 104.617 71.0496 104.628 71.0317C104.747 70.7529 104.94 70.56 105.208 70.4531C105.477 70.3414 105.766 70.3354 106.074 70.4352ZM104.842 73.7463C105.042 73.8113 105.237 73.8043 105.425 73.7254C105.615 73.6417 105.747 73.4856 105.822 73.2572L106.023 72.6448C106.03 72.6253 106.023 72.6124 106.003 72.6061L105.482 72.4374C105.247 72.3614 105.041 72.3643 104.862 72.4464C104.685 72.5235 104.557 72.6836 104.477 72.9267C104.407 73.1405 104.406 73.3176 104.474 73.4578C104.548 73.5947 104.671 73.6909 104.842 73.7463Z" fill="#001D30"/>
<path d="M110.958 72.2352C111.245 72.3486 111.426 72.5409 111.5 72.8123C111.574 73.0837 111.537 73.4046 111.389 73.7751L110.427 76.1764C110.408 76.2239 110.375 76.2382 110.327 76.2193L109.968 76.0776C109.92 76.0587 109.906 76.0255 109.925 75.978L110.869 73.6195C110.966 73.3772 110.99 73.1664 110.94 72.9871C110.896 72.8049 110.791 72.6808 110.624 72.6146C110.442 72.5428 110.271 72.555 110.111 72.6512C109.95 72.7474 109.822 72.9143 109.727 73.1518L108.777 75.5246C108.758 75.5721 108.725 75.5864 108.677 75.5675L108.311 75.423C108.263 75.4041 108.249 75.3709 108.268 75.3233L109.212 72.9648C109.309 72.7226 109.333 72.5118 109.283 72.3324C109.239 72.1502 109.137 72.027 108.974 71.9628C108.792 71.891 108.619 71.9022 108.454 71.9965C108.293 72.0927 108.166 72.2596 108.07 72.4971L107.12 74.8699C107.101 74.9174 107.068 74.9317 107.02 74.9128L106.662 74.7711C106.614 74.7522 106.599 74.719 106.618 74.6715L108.005 71.2085C108.024 71.161 108.057 71.1467 108.105 71.1656L108.464 71.3073C108.512 71.3262 108.526 71.3594 108.507 71.4069L108.419 71.6278C108.415 71.6373 108.414 71.6454 108.417 71.652C108.427 71.6558 108.438 71.6548 108.452 71.6491C108.59 71.5662 108.733 71.5209 108.88 71.513C109.027 71.5051 109.17 71.5286 109.309 71.5834C109.49 71.6552 109.63 71.7626 109.728 71.9058C109.827 72.0442 109.881 72.2083 109.888 72.3982C109.889 72.4096 109.894 72.4172 109.904 72.4209C109.913 72.4247 109.923 72.4204 109.934 72.4081C110.088 72.2711 110.256 72.1915 110.436 72.1693C110.617 72.1471 110.791 72.1691 110.958 72.2352Z" fill="#001D30"/>
<path d="M113.889 75.9341C113.867 75.9801 113.833 75.9921 113.787 75.9701L112.203 75.2183C112.184 75.2095 112.171 75.2143 112.162 75.2327L111.919 75.7365C111.826 75.9298 111.803 76.1138 111.85 76.2886C111.904 76.461 112.019 76.5889 112.195 76.6725C112.343 76.7428 112.489 76.7585 112.633 76.7194C112.784 76.6779 112.91 76.5936 113.011 76.4663C113.044 76.4315 113.08 76.4229 113.117 76.4405L113.458 76.6192C113.476 76.628 113.489 76.6426 113.496 76.663C113.504 76.6834 113.499 76.704 113.484 76.7248C113.316 76.9786 113.099 77.141 112.831 77.2119C112.571 77.2804 112.29 77.2433 111.989 77.1004C111.66 76.9443 111.442 76.7224 111.336 76.4346C111.235 76.149 111.26 75.8475 111.413 75.53L112.13 74.0393C112.28 73.7264 112.499 73.5195 112.787 73.4186C113.081 73.3153 113.393 73.3417 113.722 73.4977C114.055 73.656 114.271 73.8802 114.371 74.1704C114.477 74.4582 114.455 74.7585 114.304 75.0714L113.889 75.9341ZM113.516 73.9256C113.34 73.8421 113.166 73.8361 112.995 73.9075C112.831 73.9766 112.702 74.1101 112.607 74.3079L112.384 74.7703C112.375 74.7887 112.38 74.8023 112.399 74.8111L113.538 75.3519C113.557 75.3607 113.57 75.3559 113.579 75.3375L113.801 74.8751C113.897 74.6772 113.917 74.4921 113.864 74.3197C113.812 74.1427 113.696 74.0114 113.516 73.9256Z" fill="#001D30"/>
<path d="M116.582 75.3362C116.558 75.3814 116.523 75.3921 116.478 75.3683L115.959 75.0965C115.94 75.087 115.927 75.0913 115.917 75.1094L114.816 77.1853C114.705 77.3933 114.665 77.5571 114.695 77.6766C114.727 77.7917 114.819 77.8862 114.972 77.9604L115.04 77.9961C115.085 78.02 115.096 78.0545 115.072 78.0997L114.917 78.3914C114.893 78.4367 114.859 78.4474 114.813 78.4235L114.642 78.3341C114.374 78.1935 114.199 78.0297 114.118 77.8428C114.044 77.6537 114.092 77.3986 114.262 77.0775L115.439 74.8591C115.449 74.841 115.444 74.8272 115.426 74.8177L115.16 74.6782C115.114 74.6544 115.103 74.6199 115.127 74.5746L115.246 74.3508C115.27 74.3055 115.305 74.2948 115.35 74.3187L115.617 74.4581C115.635 74.4677 115.649 74.4634 115.658 74.4453L116.062 73.6855C116.086 73.6403 116.12 73.6296 116.166 73.6534L116.507 73.8322C116.553 73.856 116.564 73.8905 116.54 73.9357L116.136 74.6955C116.127 74.7136 116.131 74.7275 116.149 74.737L116.668 75.0087C116.714 75.0325 116.725 75.0671 116.701 75.1123L116.582 75.3362Z" fill="#001D30"/>
</svg>
