<svg width="124" height="121" viewBox="0 0 124 121" fill="none" xmlns="http://www.w3.org/2000/svg">
<path d="M123.977 72.2785C123.779 71.9987 123.557 71.7377 123.311 71.4989L122.949 71.1781L122.561 70.8957C122.438 70.8027 122.299 70.7257 122.173 70.6423L121.979 70.5235L121.772 70.4273L121.368 70.238C121.222 70.1931 121.087 70.1385 120.948 70.0904C119.838 69.7365 118.676 69.5727 117.511 69.606C117.214 69.606 116.923 69.606 116.626 69.606C116.328 69.606 116.024 69.6637 115.727 69.683C115.578 69.683 115.429 69.699 115.278 69.7182L114.822 69.7921L113.913 69.9108L112.08 70.2316C111.469 70.3631 110.859 70.5524 110.251 70.6904C109.643 70.8283 108.99 71.0433 108.357 71.223L106.436 71.7876C105.143 72.1662 103.87 72.5737 102.586 72.9683C100 73.7511 97.4496 74.5725 94.8796 75.3906C89.7462 77.0332 84.6161 78.692 79.4632 80.2897L64.0242 85.1568L48.5076 89.8538L40.7493 92.1894L32.9618 94.4353C27.7573 95.9207 22.5851 97.4126 17.29 98.7858L16.2976 99.0424C15.9744 99.1291 15.5897 99.2061 15.2406 99.2863C14.5302 99.4658 13.8089 99.5998 13.0811 99.6873C12.7126 99.7226 12.3474 99.7868 11.9788 99.7932L10.87 99.8221C10.1335 99.8126 9.39834 99.7579 8.66864 99.6584C7.21925 99.4683 5.80436 99.0751 4.46622 98.4906C3.80269 98.1964 3.16289 97.8521 2.55248 97.4607C1.93835 97.0722 1.37577 96.6087 0.877964 96.0811C3.44896 96.7562 6.1038 97.0641 8.76235 96.9955C10.0635 96.9665 11.3604 96.8378 12.6415 96.6105C13.288 96.5207 13.9023 96.3218 14.5326 96.1678C14.8559 96.0811 15.1565 96.0106 15.4765 95.9175L16.4463 95.6288C21.5862 94.1016 26.7229 92.4204 31.8531 90.7553L62.618 80.6587L78.0441 75.7307C80.6302 74.919 83.1872 74.0848 85.7701 73.2923L93.5284 70.9342C96.1145 70.1546 98.7006 69.375 101.316 68.6435C103.931 67.912 106.507 67.1612 109.223 66.4778C109.924 66.3238 110.616 66.1345 111.331 66.0126L112.413 65.8715C112.775 65.8156 113.14 65.7792 113.506 65.7624L114.618 65.7335H115.171C115.358 65.7335 115.549 65.7624 115.737 65.7752C116.115 65.8041 116.493 65.8394 116.865 65.8843C117.237 65.9292 117.624 66.0287 117.996 66.1089C119.546 66.4421 120.983 67.1659 122.17 68.2103C122.315 68.3483 122.46 68.4766 122.593 68.621L122.958 69.0926L123.133 69.3236L123.288 69.5771C123.391 69.7379 123.484 69.9051 123.566 70.0776L123.779 70.6102L123.931 71.1524C124.004 71.5233 124.019 71.903 123.977 72.2785Z" fill="#85887C"/>
<path d="M123.977 67.9954C123.748 67.3711 123.397 66.7984 122.942 66.311C122.832 66.1892 122.716 66.0735 122.593 65.9645L122.415 65.7945L122.221 65.6469L121.83 65.3517L121.41 65.1015C120.268 64.4669 118.998 64.0911 117.692 64.001C115.084 63.7219 112.41 64.1197 109.847 64.8031C107.283 65.4865 104.675 66.2372 102.088 67.0008C99.5023 67.7644 96.9162 68.5536 94.3301 69.3268C84.0051 72.471 73.7027 75.6954 63.3971 78.9069C53.0914 82.1185 42.7567 85.2402 32.4188 88.3555C27.2466 89.9019 22.0743 91.4676 16.8569 92.8921L15.8871 93.1583C15.5638 93.2482 15.2212 93.3188 14.8882 93.399C14.2243 93.5778 13.5494 93.7139 12.8678 93.8064C12.1857 93.9091 11.494 93.9444 10.8086 93.9925H9.77417C9.43151 93.9925 9.08887 93.9733 8.74298 93.9636C8.39709 93.954 8.05764 93.9251 7.71499 93.8866C7.37233 93.8481 7.03613 93.8 6.6967 93.7423C6.35727 93.6845 6.02108 93.6268 5.68488 93.553C5.34869 93.4792 5.01897 93.4054 4.68601 93.322C4.02631 93.1495 3.37845 92.9352 2.74643 92.6803C2.10899 92.4441 1.49355 92.1532 0.907086 91.8109C2.15557 92.3251 3.45607 92.7048 4.78624 92.9434C6.10491 93.1942 7.44261 93.3337 8.78501 93.3605C9.10827 93.3605 9.45415 93.3797 9.78711 93.3605L10.7892 93.3188C11.4551 93.2546 12.1243 93.2065 12.7805 93.0878C13.4417 92.9828 14.0967 92.8425 14.7427 92.6675C15.066 92.5873 15.3892 92.5167 15.7125 92.4268L16.6823 92.1509C21.8739 90.6976 27.0267 89.0966 32.1989 87.5149C42.5143 84.3322 52.8069 81.0982 63.1093 77.8578C73.4117 74.6174 83.7303 71.4636 94.065 68.3355C96.6511 67.5655 99.2372 66.7698 101.823 66.019C104.409 65.2683 106.996 64.5047 109.64 63.8277C110.306 63.677 110.968 63.4909 111.641 63.369C112.313 63.247 113.002 63.1668 113.687 63.1059L115.236 63.0192C115.407 63.0192 115.581 63.0192 115.756 63.0192L116.794 63.0513C117.14 63.0802 117.485 63.1348 117.828 63.1765C119.215 63.382 120.539 63.8869 121.707 64.6555C121.849 64.7582 121.995 64.8512 122.131 64.9763L122.696 65.5185L122.861 65.7175C122.976 65.8474 123.084 65.9835 123.185 66.1249C123.589 66.6803 123.86 67.3201 123.977 67.9954Z" fill="#85887C"/>
<path d="M0.0213597 48.6299C0.218419 48.9087 0.441346 49.1687 0.687261 49.4063L1.04931 49.7271L1.43725 50.0094C1.56009 50.1025 1.69908 50.1763 1.82839 50.2597L2.0191 50.3784L2.226 50.4779L2.63008 50.664L3.05033 50.8115C4.15939 51.167 5.3217 51.3309 6.48662 51.296C6.78726 51.296 7.07496 51.296 7.37236 51.296C7.66976 51.296 7.9736 51.235 8.271 51.2158C8.42293 51.2158 8.56841 51.2158 8.72034 51.1805L9.17615 51.1099L10.0845 50.988L11.9174 50.6672C12.5284 50.5324 13.1394 50.3463 13.7503 50.2084C14.3613 50.0704 15.0078 49.8555 15.6414 49.6726L17.5616 49.1111C18.8547 48.7325 20.1283 48.3219 21.4117 47.9305C23.9978 47.1476 26.5483 46.3263 29.1183 45.5082C34.2517 43.8655 39.3819 42.2036 44.5347 40.6058L59.977 35.7388L75.4742 31.0418L83.2325 28.7093L91.0199 26.4635C96.2244 24.9812 101.397 23.4861 106.695 22.1162L107.684 21.8563C108.007 21.7697 108.392 21.6959 108.741 21.6157C109.451 21.4351 110.173 21.3 110.901 21.2114C111.269 21.1761 111.634 21.1152 112.003 21.1088L113.112 21.0767C113.848 21.0876 114.583 21.1423 115.313 21.2403C116.762 21.4331 118.176 21.8262 119.516 22.4082C120.178 22.7036 120.818 23.0478 121.429 23.438C122.043 23.8275 122.605 24.2909 123.104 24.8176C120.533 24.1436 117.878 23.8367 115.219 23.9064C113.918 23.9322 112.621 24.061 111.34 24.2914C110.701 24.4059 110.069 24.5537 109.446 24.7342C109.123 24.8176 108.822 24.8914 108.502 24.9844L107.532 25.2732C102.389 26.8004 97.2524 28.4815 92.1222 30.1434L61.3605 40.2433L45.9506 45.136C43.3645 45.9477 40.8074 46.7819 38.2246 47.5743L30.4663 49.9324C27.8801 50.7089 25.2941 51.4885 22.6789 52.2232C20.0637 52.9579 17.4873 53.7055 14.7719 54.3856C14.0704 54.5428 13.3786 54.7289 12.6642 54.854L11.5813 54.9952C11.2203 55.0499 10.8566 55.0852 10.4919 55.1011L9.37657 55.13H8.82381C8.63631 55.13 8.44559 55.1011 8.2581 55.0882C7.87988 55.0594 7.5049 55.0241 7.12991 54.9792C6.75493 54.9342 6.37348 54.8316 5.99849 54.7546C4.44941 54.4193 3.01264 53.6958 1.82515 52.6531C1.68292 52.5152 1.5342 52.3836 1.40166 52.2392L1.03641 51.7708L0.861836 51.5366L0.709912 51.2864C0.605549 51.1245 0.511616 50.9563 0.428674 50.7827L0.21531 50.2501L0.0666213 49.7111C-0.00283114 49.3549 -0.0180911 48.9905 0.0213597 48.6299Z" fill="#85887C"/>
<path d="M0.0213597 48.6299C0.218419 48.9087 0.441346 49.1687 0.687261 49.4063L1.04931 49.7271L1.43725 50.0094C1.56009 50.1025 1.69908 50.1763 1.82839 50.2597L2.0191 50.3784L2.226 50.4779L2.63008 50.664L3.05033 50.8115C4.15939 51.167 5.3217 51.3309 6.48662 51.296C6.78726 51.296 7.07496 51.296 7.37236 51.296C7.66976 51.296 7.9736 51.235 8.271 51.2158C8.42293 51.2158 8.56841 51.2158 8.72034 51.1805L9.17615 51.1099L10.0845 50.988L11.9174 50.6672C12.5284 50.5324 13.1394 50.3463 13.7503 50.2084C14.3613 50.0704 15.0078 49.8555 15.6414 49.6726L17.5616 49.1111C18.8547 48.7325 20.1283 48.3219 21.4117 47.9305C23.9978 47.1476 26.5483 46.3263 29.1183 45.5082C34.2517 43.8655 39.3819 42.2036 44.5347 40.6058L59.977 35.7388L75.4742 31.0418L83.2325 28.7093L91.0199 26.4635C96.2244 24.9812 101.397 23.4861 106.695 22.1162L107.684 21.8563C108.007 21.7697 108.392 21.6959 108.741 21.6157C109.451 21.4351 110.173 21.3 110.901 21.2114C111.269 21.1761 111.634 21.1152 112.003 21.1088L113.112 21.0767C113.848 21.0876 114.583 21.1423 115.313 21.2403C116.762 21.4331 118.176 21.8262 119.516 22.4082C120.178 22.7036 120.818 23.0478 121.429 23.438C122.043 23.8275 122.605 24.2909 123.104 24.8176C120.533 24.1436 117.878 23.8367 115.219 23.9064C113.918 23.9322 112.621 24.061 111.34 24.2914C110.701 24.4059 110.069 24.5537 109.446 24.7342C109.123 24.8176 108.822 24.8914 108.502 24.9844L107.532 25.2732C102.389 26.8004 97.2524 28.4815 92.1222 30.1434L61.3605 40.2433L45.9506 45.136C43.3645 45.9477 40.8074 46.7819 38.2246 47.5743L30.4663 49.9324C27.8801 50.7089 25.2941 51.4885 22.6789 52.2232C20.0637 52.9579 17.4873 53.7055 14.7719 54.3856C14.0704 54.5428 13.3786 54.7289 12.6642 54.854L11.5813 54.9952C11.2203 55.0499 10.8566 55.0852 10.4919 55.1011L9.37657 55.13H8.82381C8.63631 55.13 8.44559 55.1011 8.2581 55.0882C7.87988 55.0594 7.5049 55.0241 7.12991 54.9792C6.75493 54.9342 6.37348 54.8316 5.99849 54.7546C4.44941 54.4193 3.01264 53.6958 1.82515 52.6531C1.68292 52.5152 1.5342 52.3836 1.40166 52.2392L1.03641 51.7708L0.861836 51.5366L0.709912 51.2864C0.605549 51.1245 0.511616 50.9563 0.428674 50.7827L0.21531 50.2501L0.0666213 49.7111C-0.00283114 49.3549 -0.0180911 48.9905 0.0213597 48.6299Z" fill="#85887C"/>
<path d="M0.0213483 53.0093C0.250712 53.634 0.602252 54.2075 1.05577 54.6968C1.15922 54.8219 1.29174 54.9278 1.40488 55.0433L1.58269 55.2102L1.77988 55.3609L2.17102 55.6529L2.58804 55.9032C3.73063 56.5373 4.99981 56.9141 6.30556 57.0068C8.9143 57.2859 11.5909 56.8881 14.1512 56.2015C16.7114 55.5149 19.3234 54.7706 21.9095 54.0038C24.4956 53.237 27.0817 52.4542 29.6678 51.6778C39.9928 48.5336 50.2952 45.3125 60.6008 42.1009C70.9064 38.8894 81.2412 35.7677 91.5791 32.6524C96.7514 31.1059 101.924 29.5403 107.141 28.1158L108.111 27.8463C108.434 27.7596 108.777 27.6859 109.11 27.6056C109.775 27.4275 110.451 27.2925 111.133 27.2014C111.815 27.0955 112.504 27.0634 113.189 27.0153H114.224C114.566 27.0153 114.909 27.0378 115.255 27.0442C115.601 27.0506 115.94 27.0859 116.283 27.1244C116.626 27.1629 116.965 27.211 117.301 27.2688C117.637 27.3265 117.977 27.3843 118.313 27.4549C118.649 27.5254 118.979 27.6056 119.312 27.6891C119.972 27.8595 120.62 28.0739 121.251 28.3307C121.888 28.5695 122.503 28.8603 123.091 29.2002C121.842 28.6866 120.542 28.3079 119.212 28.0709C117.894 27.8186 116.558 27.6791 115.216 27.6538C114.893 27.6538 114.547 27.6345 114.211 27.6538L113.209 27.6923C112.543 27.7564 111.874 27.8046 111.217 27.9233C110.556 28.0293 109.901 28.1707 109.255 28.3468C108.932 28.427 108.609 28.4976 108.285 28.5874L107.316 28.8601C102.124 30.3167 96.9712 31.9177 91.7989 33.4994C81.4868 36.682 71.1909 39.916 60.8885 43.1532C50.5861 46.3904 40.2676 49.5507 29.9329 52.6788C27.3467 53.4488 24.7606 54.2445 22.1745 54.992C19.5884 55.7395 17.0023 56.5063 14.3548 57.1865C13.6889 57.3373 13.0294 57.5073 12.3538 57.6453C11.6782 57.7832 10.9929 57.8442 10.3076 57.9052L9.27637 57.9661L8.75912 57.995C8.58779 57.995 8.41324 57.995 8.24191 57.995L7.20101 57.9629C6.85835 57.9373 6.51247 57.8827 6.16658 57.8378C4.77994 57.6349 3.45544 57.1309 2.28743 56.3619C2.14519 56.2593 1.9997 56.163 1.86393 56.0411L1.4857 55.6818L1.29822 55.5021L1.13335 55.3C1.02668 55.1652 0.903838 55.0401 0.810091 54.8958C0.404692 54.3354 0.134813 53.6899 0.0213483 53.0093Z" fill="#85887C"/>
<path d="M103.895 20.9227C104.757 21.8766 105.576 22.8562 106.352 23.8615L107.901 23.345C106.86 22.2413 105.782 21.1836 104.668 20.1719C102.137 17.8876 100.824 16.9925 97.9539 15.2119C100.611 17.2844 101.665 18.4362 103.895 20.9227Z" fill="#85887C"/>
<path d="M8.93046 52.1302C8.99511 51.4607 9.0716 50.7912 9.15996 50.1217C9.58866 46.9674 10.2862 43.8549 11.245 40.8176C10.0043 43.7827 9.01908 46.847 8.30011 49.9774C8.13201 50.7217 7.97791 51.4703 7.83783 52.2232C8.20311 52.1975 8.56517 52.159 8.93046 52.1302Z" fill="#85887C"/>
<path d="M101.552 23.7942C101.92 24.208 102.279 24.6315 102.635 25.055L103.837 24.6764C103.314 24.1503 102.777 23.6369 102.221 23.1332C99.486 20.6396 96.5603 18.3602 93.4702 16.3155C95.9529 18.2694 99.4797 21.4457 101.552 23.7942Z" fill="#85887C"/>
<path d="M14.565 42.6592C14.6358 42.478 14.6952 42.2926 14.7427 42.1041C14.7828 41.9111 14.8131 41.7162 14.8332 41.5202C14.853 41.3228 14.8898 41.1275 14.9431 40.9363C15.0036 40.751 15.0737 40.5689 15.1533 40.3909C15.3063 40.0326 15.4778 39.6824 15.6672 39.3417C15.8563 38.995 16.0724 38.6635 16.3138 38.3504C16.2357 38.7344 16.1353 39.1136 16.0132 39.4861C15.8936 39.8551 15.7707 40.2208 15.6285 40.5801C15.5573 40.7566 15.4992 40.9427 15.4119 41.116C15.3172 41.2907 15.2091 41.458 15.0886 41.6165C14.9698 41.7771 14.8618 41.9454 14.7654 42.1202C14.6859 42.295 14.619 42.4751 14.565 42.6592Z" fill="#85887C"/>
<path d="M12.7999 51.4821C12.8258 51.1848 12.8549 50.8864 12.8872 50.5869C13.0986 48.6654 13.4159 46.7568 13.8376 44.8697C13.1338 46.6895 12.5327 48.5468 12.037 50.4329C11.9271 50.8532 11.8237 51.2735 11.7137 51.7163C12.0823 51.6297 12.4411 51.5591 12.7999 51.4821Z" fill="#85887C"/>
<path d="M98.3903 25.8154C98.5163 25.9502 98.6392 26.0881 98.762 26.2228L99.7125 25.9405L98.9625 25.2443C96.6996 23.2134 96.1113 22.8381 93.5446 21.2628C95.9593 23.0594 96.3796 23.6273 98.3903 25.8154Z" fill="#85887C"/>
<path d="M16.427 50.6992L16.97 50.5902C16.9926 50.4201 17.0185 50.2501 17.0444 50.08C17.2125 48.9357 17.428 47.7957 17.6909 46.6599C18.2 44.3792 18.8752 42.1382 19.7113 39.9545C18.6021 42.0379 17.647 44.1985 16.8536 46.4193C16.4528 47.5358 16.0908 48.6652 15.7772 49.8105C15.6705 50.1731 15.5768 50.5388 15.4895 50.9046L16.427 50.6992Z" fill="#85887C"/>
<path d="M94.7633 27.426L95.5294 27.195C93.6077 25.5556 91.5535 24.0759 89.3874 22.7707C91.2999 24.1798 93.0974 25.7364 94.7633 27.426Z" fill="#85887C"/>
<path d="M19.805 49.1785L19.9408 48.7069L20.2123 47.8727C20.5841 46.7658 20.9979 45.6718 21.4537 44.6002C22.3653 42.457 22.6497 42.117 23.8684 40.1535C22.8631 42.2325 22.8081 42.656 22.1422 44.8472C21.819 45.9413 21.5183 47.0482 21.2694 48.1614L21.1886 48.5368L19.805 49.1785Z" fill="#85887C"/>
<path d="M24.3727 47.2246C24.4633 46.9808 24.5538 46.7402 24.6475 46.4963C25.0225 45.5659 25.4309 44.6526 25.8727 43.7564C26.7543 41.9766 27.7622 40.2612 28.8887 38.6231C27.9473 40.3613 27.1338 42.1648 26.4545 44.0195C26.1313 44.9403 25.808 45.8707 25.543 46.8107L24.3727 47.2246Z" fill="#85887C"/>
<path d="M83.378 30.8332C82.6103 30.4973 81.8792 30.0845 81.1959 29.6012C81.163 30.2107 81.2622 30.8201 81.4869 31.3883L83.378 30.8332Z" fill="#85887C"/>
<path d="M76.3082 32.8673C77.1939 32.6213 78.0797 32.3711 78.9654 32.1166C78.0134 31.4514 77.2685 30.5343 76.8157 29.4697C76.2694 28.1062 76.3729 26.4507 77.2748 25.2989C76.6179 25.9009 76.1034 26.6396 75.768 27.4622C75.4327 28.2848 75.2849 29.1709 75.3352 30.0568C75.424 31.0583 75.758 32.0232 76.3082 32.8673Z" fill="#85887C"/>
<path d="M57.9404 37.5387C60.5523 36.9419 63.1589 36.3174 65.7601 35.665C63.8205 35.3089 62.1622 33.74 61.3734 31.953C60.5523 30.0889 60.9306 27.6666 62.5275 26.3897C63.0224 25.9926 63.6048 25.7169 64.2272 25.585C64.8497 25.4532 65.4946 25.4689 66.1098 25.6308C66.725 25.7928 67.293 26.0965 67.7678 26.5173C68.2425 26.938 68.6106 27.464 68.8421 28.0524C69.0735 28.6408 69.1619 29.2751 69.1001 29.9038C69.0382 30.5325 68.8279 31.1378 68.486 31.6707C68.1442 32.2035 67.6806 32.6488 67.1328 32.9705C66.585 33.2921 65.9685 33.481 65.3334 33.5218C67.9195 34.3688 70.8709 33.1304 72.2189 30.7787C73.5669 28.427 73.1176 25.2347 71.2491 23.2551C70.2912 22.2861 69.0751 21.6076 67.743 21.2991C66.411 20.9906 65.0179 21.0648 63.7268 21.513C62.4493 21.997 61.3207 22.8026 60.4518 23.8505C59.583 24.8985 59.0038 26.1528 58.7712 27.4902C58.5659 28.8314 58.6816 30.2018 59.109 31.4904C59.5364 32.7791 60.2634 33.9498 61.2312 34.9078C59.7959 35.1517 58.3218 34.2212 57.1516 33.371C55.9814 32.5208 54.8532 31.5166 53.4567 31.1059C51.7887 30.6151 50.0107 31.0514 48.2845 31.2471C47.2576 31.388 46.2128 31.3258 45.2103 31.0642C47.7091 34.141 51.4719 36.1398 55.3769 37.067C56.2228 37.2671 57.0784 37.4245 57.9404 37.5387Z" fill="#85887C"/>
<path d="M57.9953 31.8984C57.4607 29.8942 56.165 28.1734 54.3799 27.0967C52.5947 26.0201 50.4589 25.6712 48.4203 26.1234C48.9957 25.8571 49.7133 26.4218 50.0204 26.964C50.3275 27.5062 50.5021 28.1607 50.9579 28.6002C51.7434 29.367 53.0106 29.1938 54.1032 29.3382C55.8521 29.5852 57.4038 30.2461 57.9953 31.8984Z" fill="#85887C"/>
<path d="M37.5457 32.0588C39.044 31.5829 40.6452 31.5241 42.1748 31.8888C40.1365 33.9057 37.7206 35.5079 35.063 36.605C40.3912 35.8683 45.8186 36.7838 50.6023 39.2262C43.6004 38.1157 36.4245 39.0059 29.9135 41.7929C31.9242 38.0424 33.437 33.3806 37.5457 32.0588Z" fill="#85887C"/>
<path d="M87.5674 29.5884L89.1062 29.1296C84.1847 25.204 78.3917 22.4986 72.2069 21.2375C66.0222 19.9764 59.6237 20.1958 53.5414 21.8775C47.4591 23.5593 41.8681 26.6551 37.2313 30.9084C32.5945 35.1617 29.0454 40.4502 26.878 46.3359C27.4082 46.1562 27.9448 45.9862 28.4943 45.8226C30.6834 40.3418 34.1227 35.4392 38.5423 31.4997C42.9618 27.5603 48.2413 24.6913 53.9662 23.1179C59.6911 21.5446 65.7056 21.3098 71.5373 22.4319C77.3691 23.554 82.8594 26.0025 87.5771 29.5852L87.5674 29.5884Z" fill="#85887C"/>
<path d="M109.74 22.7258L111.104 22.2638C103.669 13.1787 93.7154 6.45466 82.4724 2.92242C71.2294 -0.609807 59.19 -0.795406 47.8419 2.38856C36.4938 5.57252 26.3343 11.9865 18.6186 20.838C10.903 29.6895 5.9694 40.5906 4.42743 52.1943C4.87999 52.1687 5.33579 52.1719 5.79159 52.1943C8.76237 30.3135 24.14 11.0025 46.7458 4.03723C70.2567 -3.21681 94.954 4.94519 109.74 22.7258Z" fill="#85887C"/>
<path d="M17.5713 100.085C16.7092 99.1312 15.8903 98.1516 15.1145 97.1463L13.5628 97.6628C14.607 98.7633 15.6867 99.8253 16.7955 100.836C19.3234 103.117 20.639 104.015 23.5064 105.793C20.8556 103.723 19.7986 102.572 17.5713 100.085Z" fill="#85887C"/>
<path d="M112.543 68.8777C112.478 69.5482 112.401 70.2155 112.31 70.8861C111.884 74.0406 111.187 77.1533 110.228 80.1903C111.469 77.2254 112.453 74.161 113.17 71.0305C113.341 70.2861 113.493 69.5354 113.635 68.7846C113.264 68.8103 112.898 68.8424 112.543 68.8777Z" fill="#85887C"/>
<path d="M19.9085 97.2137C19.5399 96.7966 19.1811 96.3763 18.8255 95.9496L17.623 96.3314C18.1467 96.8576 18.6855 97.3709 19.2393 97.8714C21.9836 100.366 24.9191 102.646 28.0192 104.689C25.1245 102.41 22.4127 99.9104 19.9085 97.2137Z" fill="#85887C"/>
<path d="M106.902 78.3487C106.831 78.5289 106.772 78.7132 106.724 78.9005C106.681 79.094 106.65 79.2901 106.633 79.4876C106.613 79.685 106.577 79.8803 106.524 80.0715C106.462 80.2558 106.391 80.4368 106.31 80.6138C106.159 80.9733 105.989 81.3246 105.799 81.6661C105.611 82.013 105.395 82.3445 105.153 82.6575C105.231 82.2661 105.34 81.8939 105.454 81.5217C105.567 81.1496 105.699 80.787 105.838 80.4277C105.909 80.248 105.971 80.0651 106.058 79.8919C106.153 79.716 106.261 79.5476 106.381 79.3882C106.5 79.2289 106.608 79.0616 106.705 78.8877C106.781 78.712 106.847 78.5321 106.902 78.3487Z" fill="#85887C"/>
<path d="M108.664 69.5225C108.638 69.8198 108.609 70.1182 108.576 70.4177C108.365 72.3393 108.048 74.2479 107.626 76.1349C108.329 74.3159 108.93 72.4597 109.426 70.5749C109.536 70.1546 109.64 69.7311 109.75 69.3076C109.384 69.375 109.026 69.4488 108.664 69.5225Z" fill="#85887C"/>
<path d="M23.0732 95.1924L22.7047 94.7818L21.7543 95.0673C22.0032 95.3015 22.2521 95.5325 22.5043 95.7603C24.7671 97.7912 25.3555 98.1666 27.9222 99.7418C25.5074 97.9484 25.1001 97.3773 23.0732 95.1924Z" fill="#85887C"/>
<path d="M105.037 70.3054L104.493 70.4177C104.471 70.5877 104.448 70.7578 104.422 70.9278C104.254 72.07 104.039 73.21 103.776 74.3479C103.263 76.6277 102.588 78.8685 101.755 81.0533C102.863 78.9682 103.818 76.8066 104.613 74.5853C105.014 73.4709 105.373 72.3405 105.69 71.1941C105.793 70.8316 105.887 70.469 105.977 70.1L105.037 70.3054Z" fill="#85887C"/>
<path d="M26.7099 93.5786L25.9438 93.8096C27.8634 95.4525 29.9179 96.9335 32.0858 98.2371C30.1733 96.8268 28.3758 95.2692 26.7099 93.5786Z" fill="#85887C"/>
<path d="M101.658 71.8261L101.526 72.301L101.254 73.1351C100.879 74.242 100.469 75.3328 100.013 76.4076C99.1015 78.5508 98.817 78.8877 97.5983 80.8544C98.6036 78.7722 98.6554 78.3519 99.3245 76.1606C99.6478 75.0633 99.9484 73.9565 100.197 72.8432L100.278 72.4678L101.658 71.8261Z" fill="#85887C"/>
<path d="M30.5858 92.4108L30.1979 92.5295C31.0133 93.1776 31.8779 93.7622 32.7841 94.2781C31.9928 93.7269 31.2567 93.1016 30.5858 92.4108Z" fill="#85887C"/>
<path d="M97.094 73.78C97.0035 74.0238 96.913 74.2677 96.8192 74.5083C96.4442 75.4387 96.0305 76.3531 95.5909 77.2482C94.713 79.0355 93.706 80.7576 92.578 82.4008C93.5181 80.6619 94.3315 78.8585 95.0122 77.0044C95.3355 76.0836 95.6587 75.1532 95.9205 74.2131L97.094 73.78Z" fill="#85887C"/>
<path d="M38.0888 90.1714C38.8549 90.5105 39.5857 90.9231 40.2708 91.4034C40.3005 90.7951 40.2014 90.1875 39.9799 89.6196L38.0888 90.1714Z" fill="#85887C"/>
<path d="M45.1586 88.1373C44.2696 88.3876 43.3838 88.6346 42.4981 88.888C43.4503 89.5539 44.196 90.4707 44.651 91.5349C45.1973 92.8985 45.0939 94.5572 44.192 95.7058C44.8487 95.1036 45.3631 94.3648 45.6984 93.5423C46.0338 92.7197 46.1817 91.8337 46.1316 90.9478C46.0414 89.9466 45.7075 88.9821 45.1586 88.1373Z" fill="#85887C"/>
<path d="M63.5231 83.466C60.9112 84.0627 58.3057 84.6873 55.7067 85.3396C57.6462 85.699 59.3013 87.2646 60.0933 89.0549C60.9144 90.9189 60.5362 93.3412 58.9393 94.6181C58.4442 95.0142 57.862 95.2889 57.24 95.42C56.618 95.5511 55.9736 95.5348 55.3591 95.3726C54.7446 95.2104 54.1773 94.9068 53.7031 94.4863C53.2289 94.0659 52.8611 93.5405 52.6297 92.9526C52.3983 92.3648 52.3097 91.7311 52.371 91.103C52.4324 90.4748 52.6421 89.8699 52.983 89.3371C53.3239 88.8044 53.7865 88.3589 54.3333 88.0367C54.8801 87.7146 55.4956 87.5248 56.1301 87.4828C53.544 86.639 50.5958 87.8774 49.2478 90.2291C47.8998 92.5808 48.3459 95.7731 50.2176 97.7495C51.1744 98.7193 52.3899 99.3982 53.7217 99.7068C55.0534 100.015 56.4462 99.9407 57.7367 99.4916C59.0146 99.0086 60.1438 98.2038 61.0132 97.1564C61.8827 96.1089 62.4625 94.8549 62.6956 93.5177C62.8994 92.1757 62.7827 90.8049 62.3548 89.5159C61.927 88.227 61.1999 87.0558 60.2323 86.0968C61.6676 85.853 63.1417 86.7834 64.3119 87.6336C65.4821 88.4838 66.6135 89.4912 68.0068 89.8987C69.6781 90.3896 71.456 89.9532 73.179 89.7607C74.2048 89.6199 75.2485 89.682 76.25 89.9436C73.7512 86.8668 69.9884 84.868 66.0866 83.9408C65.2365 83.7387 64.3766 83.6007 63.5231 83.466Z" fill="#85887C"/>
<path d="M63.4682 89.1094C64.0028 91.1143 65.299 92.8357 67.0849 93.9124C68.8707 94.9892 71.0074 95.3375 73.0464 94.8844C72.471 95.1507 71.7534 94.5893 71.4301 94.0438C71.1069 93.4984 70.9453 92.8503 70.4927 92.4076C69.7072 91.6408 68.4399 91.8173 67.3473 91.6697C65.6114 91.4226 64.0533 90.7617 63.4682 89.1094Z" fill="#85887C"/>
<path d="M83.934 88.949C82.434 89.4218 80.8327 89.4806 79.3016 89.1191C81.3409 87.1024 83.7565 85.4994 86.4134 84.3996C81.0852 85.1382 75.6572 84.2226 70.8741 81.7784C77.8761 82.8891 85.0519 81.9989 91.563 79.2117C89.5426 82.9783 88.0297 87.624 83.934 88.949Z" fill="#85887C"/>
<path d="M33.8993 91.4162L32.3735 91.8782C37.2962 95.7989 43.0887 98.5002 49.2718 99.7586C55.4549 101.017 61.851 100.796 67.9312 99.115C74.0114 97.4336 79.6009 94.3398 84.2375 90.0894C88.8741 85.839 92.4245 80.5542 94.5952 74.6719C94.065 74.8516 93.5284 75.0216 92.9789 75.1853C90.7899 80.6657 87.3507 85.568 82.9313 89.5071C78.5119 93.4462 73.2326 96.3149 67.5079 97.8879C61.7833 99.461 55.7691 99.6955 49.9378 98.5732C44.1064 97.4509 38.6165 95.0022 33.8993 91.4194V91.4162Z" fill="#85887C"/>
<path d="M11.7235 98.2821L10.3625 98.7409C17.7967 107.827 27.7506 114.553 38.994 118.086C50.2374 121.619 62.2774 121.805 73.6262 118.621C84.9749 115.437 95.1348 109.022 102.85 100.17C110.566 91.3171 115.499 80.4149 117.039 68.8103C116.587 68.8392 116.134 68.8328 115.678 68.8103C112.711 90.7008 97.3494 110.009 74.721 116.967C51.21 124.225 26.5095 116.063 11.7235 98.2821Z" fill="#85887C"/>
<path d="M30.0763 25.8585C30.1364 25.9137 30.1387 25.9711 30.0831 26.0308L28.1812 28.0713C28.159 28.0952 28.1599 28.1181 28.1839 28.1402L28.8422 28.7446C29.0947 28.9764 29.366 29.0982 29.6562 29.11C29.946 29.1103 30.1966 28.9971 30.4079 28.7703C30.5858 28.5794 30.6789 28.3659 30.687 28.1297C30.6947 27.8821 30.6248 27.6519 30.4773 27.439C30.4399 27.3715 30.4434 27.3138 30.4879 27.2661L30.923 26.8351C30.9453 26.8113 30.9738 26.7987 31.0085 26.7973C31.0432 26.796 31.0728 26.8121 31.0973 26.8457C31.4075 27.219 31.5538 27.6246 31.5362 28.0624C31.5182 28.4887 31.3284 28.8958 30.967 29.2836C30.5721 29.7072 30.1289 29.9314 29.6373 29.9562C29.1512 29.975 28.7008 29.7939 28.286 29.4131L26.3382 27.6249C25.9294 27.2496 25.7156 26.8207 25.6966 26.3383C25.6773 25.8444 25.865 25.3857 26.2598 24.9621C26.6602 24.5325 27.1064 24.3111 27.5985 24.2978C28.0901 24.273 28.5403 24.4483 28.9491 24.8236L30.0763 25.8585ZM26.8189 25.4754C26.6076 25.7021 26.5164 25.9615 26.5452 26.2538C26.5736 26.5345 26.7171 26.7935 26.9756 27.0308L27.5797 27.5855C27.6038 27.6076 27.6269 27.6067 27.6492 27.5828L29.0172 26.1151C29.0394 26.0912 29.0385 26.0683 29.0145 26.0462L28.4103 25.4915C28.1518 25.2542 27.8777 25.1354 27.5879 25.135C27.2921 25.1292 27.0358 25.2427 26.8189 25.4754Z" fill="#85887C"/>
<path d="M35.9621 24.636C35.5204 24.9858 35.0758 25.156 34.6281 25.1466C34.1818 25.1257 33.8079 24.9279 33.5066 24.5531L33.4529 24.4864C33.4019 24.4228 33.4083 24.3657 33.4723 24.315L33.9332 23.95C33.9972 23.8993 34.0548 23.9057 34.1058 23.9692L34.1518 24.0264C34.3153 24.2297 34.5268 24.3429 34.7864 24.3661C35.0524 24.3842 35.307 24.2969 35.5503 24.1043C35.7807 23.9218 35.9101 23.7049 35.9386 23.4536C35.967 23.2023 35.8944 22.9686 35.7207 22.7526C35.5879 22.5875 35.4333 22.4864 35.2569 22.4493C35.0753 22.406 34.8982 22.4007 34.7255 22.4335C34.5592 22.4612 34.3167 22.518 33.9982 22.6039C33.6668 22.7 33.3796 22.7663 33.1365 22.8028C32.8948 22.8279 32.6416 22.7997 32.3769 22.7181C32.1136 22.6251 31.8695 22.4389 31.6448 22.1594C31.3179 21.7528 31.1847 21.3331 31.2454 20.9003C31.3124 20.4625 31.5604 20.0737 31.9892 19.7341C32.4245 19.3893 32.8672 19.2363 33.3174 19.2749C33.7675 19.3135 34.1535 19.5329 34.4753 19.9332L34.4983 19.9618C34.5494 20.0253 34.5429 20.0824 34.4789 20.1331L34.0372 20.4829C33.9732 20.5336 33.9157 20.5272 33.8646 20.4637L33.8186 20.4065C33.6449 20.1905 33.4283 20.0709 33.1687 20.0477C32.9155 20.0195 32.6737 20.0966 32.4432 20.2792C32.2128 20.4617 32.0859 20.6817 32.0626 20.9394C32.0405 21.1856 32.1138 21.4135 32.2824 21.6232C32.405 21.7757 32.5513 21.8729 32.7213 21.915C32.8863 21.9508 33.0576 21.9554 33.2355 21.929C33.4082 21.8962 33.6416 21.8413 33.9359 21.7642C34.2903 21.6707 34.5915 21.6088 34.8397 21.5787C35.0943 21.5435 35.3596 21.5673 35.6358 21.6501C35.9119 21.7329 36.1598 21.9109 36.3795 22.1841C36.6962 22.578 36.8178 22.9964 36.7443 23.4393C36.6709 23.8822 36.4101 24.2811 35.9621 24.636Z" fill="#85887C"/>
<path d="M39.0061 15.722C39.0482 15.7917 39.0341 15.8474 38.9638 15.8892L38.163 16.3654C38.1349 16.3822 38.1293 16.4045 38.1461 16.4323L40.0781 19.6325C40.2718 19.9532 40.4627 20.1429 40.6508 20.2015C40.8348 20.2532 41.0406 20.2066 41.2682 20.0618L41.3735 19.9991C41.4438 19.9574 41.5 19.9713 41.5421 20.0411L41.8135 20.4907C41.8556 20.5605 41.8416 20.6162 41.7713 20.658L41.5079 20.8147C41.0934 21.0611 40.7247 21.162 40.4017 21.1172C40.0815 21.0612 39.772 20.7858 39.4731 20.2907L37.4085 16.871C37.3917 16.8431 37.3692 16.8375 37.3411 16.8542L36.9302 17.0986C36.8599 17.1404 36.8037 17.1264 36.7616 17.0567L36.5533 16.7116C36.5112 16.6419 36.5253 16.5861 36.5955 16.5443L37.0065 16.3C37.0346 16.2832 37.0402 16.2609 37.0234 16.2331L36.3162 15.0618C36.2741 14.992 36.2882 14.9363 36.3584 14.8945L36.8853 14.5812C36.9555 14.5394 37.0117 14.5534 37.0538 14.6231L37.761 15.7944C37.7778 15.8223 37.8003 15.8279 37.8284 15.8112L38.6292 15.3349C38.6994 15.2932 38.7556 15.3071 38.7977 15.3768L39.0061 15.722Z" fill="#85887C"/>
<path d="M44.0365 10.2625C44.0046 10.1877 44.0263 10.1344 44.1017 10.1027L44.6786 9.8603C44.754 9.8286 44.8077 9.85018 44.8396 9.92502L48.0967 17.5591C48.1287 17.634 48.1069 17.6873 48.0315 17.719L47.4546 17.9614C47.3792 17.9931 47.3255 17.9715 47.2936 17.8967L47.1882 17.6497C47.1818 17.6347 47.1695 17.6267 47.1512 17.6255C47.1405 17.6212 47.1308 17.6297 47.1221 17.651C46.9696 18.0858 46.6747 18.3951 46.2373 18.5789C45.7547 18.7817 45.3031 18.7862 44.8824 18.5923C44.4585 18.3909 44.138 18.0357 43.9208 17.5268L42.8862 15.1018C42.6627 14.5779 42.6288 14.1023 42.7844 13.675C42.9369 13.2402 43.2544 12.9214 43.737 12.7186C44.1819 12.5316 44.6126 12.5404 45.0289 12.745C45.0504 12.7536 45.0633 12.7526 45.0676 12.7419C45.0795 12.7281 45.0823 12.7137 45.0759 12.6987L44.0365 10.2625ZM46.1327 17.802C46.4117 17.6848 46.5964 17.4924 46.6868 17.2249C46.7816 16.9468 46.7619 16.6505 46.6278 16.3362L45.6363 14.0122C45.499 13.6904 45.2983 13.4702 45.0343 13.3517C44.7747 13.2225 44.5053 13.2166 44.2263 13.3338C43.9397 13.4542 43.7453 13.6551 43.643 13.9364C43.545 14.2071 43.5647 14.5033 43.702 14.8252L44.6935 17.1491C44.8276 17.4634 45.0283 17.6836 45.2955 17.8096C45.567 17.925 45.8461 17.9225 46.1327 17.802Z" fill="#85887C"/>
<path d="M56.6941 14.5878C56.6883 14.605 56.6906 14.6211 56.701 14.636C56.7102 14.643 56.7229 14.6453 56.7392 14.643L59.597 14.2419C59.6781 14.2305 59.7244 14.2651 59.7358 14.3455L59.8081 14.8525C59.8195 14.9329 59.7847 14.9788 59.7037 14.9902L55.8851 15.5262C55.804 15.5375 55.7577 15.503 55.7463 15.4225L55.6689 14.8794C55.6597 14.815 55.6684 14.7604 55.6951 14.7157C55.8903 14.2861 56.0001 14.0409 56.0245 13.98C56.5786 12.7614 57.0125 11.7731 57.3262 11.015C57.719 10.0571 57.8741 9.28841 57.7915 8.70907C57.7319 8.29065 57.587 7.97037 57.3569 7.74824C57.1268 7.52611 56.8537 7.43723 56.5375 7.48161C56.2294 7.52485 55.9958 7.68484 55.8368 7.9616C55.6847 8.22916 55.6414 8.56354 55.7068 8.96473L55.7722 9.42338C55.7836 9.50384 55.7488 9.54976 55.6678 9.56114L55.0354 9.6499C54.9543 9.66128 54.908 9.62673 54.8966 9.54627L54.8278 9.06348C54.7557 8.44162 54.867 7.91714 55.1618 7.49002C55.4646 7.06177 55.8998 6.80782 56.4673 6.72816C57.0348 6.64851 57.521 6.78136 57.9258 7.12671C58.3294 7.46401 58.5766 7.9505 58.6671 8.58617C58.7749 9.34255 58.6086 10.2359 58.1683 11.2661C57.9464 11.7979 57.6309 12.5152 57.222 13.418L56.6941 14.5878Z" fill="#85887C"/>
<path d="M64.8943 14.9154C64.2719 14.9061 63.7714 14.6995 63.3925 14.2956C63.022 13.8836 62.8417 13.3526 62.8515 12.7024L62.9182 8.28952C62.9281 7.63937 63.1243 7.11799 63.507 6.72539C63.898 6.32478 64.4047 6.12911 65.027 6.13838C65.6575 6.14777 66.1621 6.35851 66.5408 6.77058C66.9197 7.17453 67.1042 7.70158 67.0943 8.35173L67.0276 12.7646C67.0178 13.4148 66.8173 13.9402 66.4263 14.3408C66.0355 14.7332 65.5248 14.9248 64.8943 14.9154ZM64.9057 14.1596C65.2824 14.1652 65.5831 14.0437 65.808 13.7951C66.0329 13.5464 66.1485 13.2149 66.1548 12.8004L66.223 8.28998C66.2293 7.87551 66.1238 7.54066 65.9065 7.28543C65.6892 7.03021 65.3922 6.89979 65.0156 6.89418C64.6553 6.88881 64.3627 7.01044 64.1378 7.25908C63.9129 7.50772 63.7973 7.83928 63.791 8.25375L63.7228 12.7642C63.7166 13.1786 63.8221 13.5135 64.0393 13.7687C64.2566 14.0239 64.5454 14.1542 64.9057 14.1596Z" fill="#85887C"/>
<path d="M72.4953 6.92341C72.5477 6.90691 72.6022 6.90308 72.6588 6.91193L73.3141 7.01435C73.395 7.027 73.429 7.07346 73.4163 7.15375L72.1168 15.3432C72.104 15.4234 72.0572 15.4573 71.9763 15.4446L71.3575 15.3479C71.2766 15.3352 71.2425 15.2888 71.2552 15.2085L72.4133 7.91029C72.4159 7.89423 72.4097 7.88092 72.3948 7.87036C72.388 7.86107 72.3759 7.85917 72.3584 7.86467L71.1585 8.05973L71.1202 8.06608C71.0636 8.05723 71.0329 8.01541 71.0282 7.94062L71.0382 7.48554L71.0421 7.46145C71.0484 7.42131 71.0831 7.38559 71.1461 7.35429L72.4953 6.92341Z" fill="#85887C"/>
<path d="M76.5952 15.6409C76.5826 15.6541 76.5779 15.6697 76.581 15.6876C76.5865 15.6977 76.5971 15.7051 76.6128 15.7098L79.3778 16.5331C79.4562 16.5564 79.4837 16.607 79.4602 16.6849L79.3119 17.1753C79.2884 17.2532 79.2374 17.2804 79.1589 17.2571L75.4645 16.157C75.386 16.1337 75.3586 16.0831 75.3821 16.0052L75.5409 15.4797C75.5598 15.4174 75.5908 15.3715 75.6339 15.3419C75.9924 15.0329 76.1955 14.8558 76.2434 14.8106C77.2607 13.934 78.0718 13.2167 78.6766 12.6585C79.4375 11.9516 79.9026 11.3179 80.0721 10.7574C80.1944 10.3526 80.198 10.0015 80.0827 9.70408C79.9674 9.4067 79.7568 9.21246 79.4508 9.12137C79.1528 9.03262 78.8731 9.08088 78.6119 9.26616C78.3609 9.44599 78.1805 9.7317 78.0707 10.1233L77.9365 10.567C77.913 10.6449 77.862 10.6721 77.7836 10.6488L77.1718 10.4666C77.0933 10.4432 77.0659 10.3926 77.0894 10.3148L77.2306 9.84768C77.4275 9.25291 77.7499 8.82279 78.1978 8.55733C78.6535 8.2942 79.1559 8.24438 79.705 8.40788C80.2541 8.57137 80.6396 8.89406 80.8616 9.37596C81.0859 9.85007 81.1051 10.3946 80.9192 11.0096C80.698 11.7414 80.1701 12.4837 79.3355 13.2365C78.9096 13.6273 78.3205 14.1477 77.5682 14.7978L76.5952 15.6409Z" fill="#85887C"/>
<path d="M44.4373 105.954C44.8016 106.06 45.0587 106.263 45.2085 106.564C45.3598 106.86 45.3786 107.205 45.265 107.598L44.509 110.212C44.4941 110.264 44.4606 110.282 44.4085 110.267L44.0104 110.152C43.9583 110.137 43.9398 110.104 43.9547 110.052L44.022 109.819C44.025 109.809 44.0213 109.802 44.0109 109.799C44.0072 109.792 43.9986 109.793 43.9852 109.8C43.7194 109.998 43.3939 110.041 43.0087 109.929C42.7225 109.847 42.4958 109.694 42.3288 109.472C42.1684 109.246 42.1481 108.926 42.2677 108.513C42.3948 108.073 42.6151 107.789 42.9284 107.661C43.2433 107.528 43.6089 107.522 44.0253 107.643L44.5718 107.801C44.5926 107.807 44.606 107.799 44.612 107.779L44.6995 107.476C44.7742 107.218 44.7742 106.993 44.6993 106.804C44.6245 106.614 44.4856 106.489 44.2826 106.431C44.1264 106.385 43.9762 106.398 43.8318 106.468C43.6925 106.54 43.5894 106.653 43.5222 106.807C43.5072 106.859 43.4737 106.878 43.4217 106.862L42.9867 106.728C42.9607 106.721 42.9421 106.707 42.931 106.687C42.9251 106.668 42.9277 106.649 42.9389 106.63C43.0531 106.333 43.2491 106.123 43.5267 106.002C43.8059 105.875 44.1094 105.859 44.4373 105.954ZM43.2649 109.482C43.4783 109.544 43.6825 109.53 43.8775 109.441C44.0741 109.347 44.2075 109.178 44.2777 108.935L44.4662 108.283C44.4722 108.262 44.4647 108.249 44.4439 108.243L43.8896 108.083C43.6398 108.01 43.4226 108.02 43.2379 108.112C43.0548 108.2 42.9259 108.372 42.8511 108.631C42.7853 108.859 42.7906 109.045 42.867 109.191C42.9501 109.332 43.0827 109.43 43.2649 109.482Z" fill="#85887C"/>
<path d="M48.5166 107.028C48.5276 106.975 48.5597 106.954 48.6129 106.965L49.0196 107.049C49.0728 107.06 49.0939 107.092 49.0829 107.145L48.2795 110.991C48.2685 111.044 48.2364 111.065 48.1832 111.054L47.7765 110.97C47.7233 110.96 47.7022 110.928 47.7132 110.875L47.7694 110.606C47.7728 110.59 47.7691 110.581 47.7585 110.579C47.7531 110.578 47.7441 110.581 47.7312 110.59C47.5091 110.83 47.2146 110.913 46.8477 110.837C46.5287 110.772 46.2934 110.624 46.1416 110.395C45.9963 110.161 45.9644 109.849 46.046 109.459L46.6345 106.641C46.6455 106.588 46.6776 106.567 46.7308 106.578L47.1375 106.662C47.1907 106.673 47.2117 106.705 47.2007 106.757L46.6387 109.449C46.5836 109.712 46.5949 109.924 46.6726 110.083C46.7567 110.238 46.9024 110.337 47.1097 110.379C47.3224 110.423 47.5032 110.38 47.6521 110.251C47.8064 110.124 47.9111 109.928 47.9662 109.664L48.5166 107.028Z" fill="#85887C"/>
<path d="M50.7708 111.47C50.3995 111.421 50.1135 111.289 49.9128 111.073C49.7182 110.852 49.6422 110.584 49.6849 110.269L49.6925 110.213C49.6997 110.159 49.7303 110.136 49.7841 110.143L50.1715 110.194C50.2253 110.201 50.2486 110.231 50.2414 110.284L50.2349 110.332C50.2117 110.503 50.2541 110.655 50.3619 110.789C50.4752 110.923 50.634 111.004 50.8385 111.03C51.0322 111.056 51.1962 111.017 51.3305 110.915C51.4648 110.813 51.5443 110.672 51.5689 110.49C51.5877 110.351 51.5655 110.231 51.5025 110.131C51.4402 110.025 51.3615 109.939 51.2665 109.872C51.1769 109.806 51.0383 109.717 50.8508 109.606C50.6525 109.493 50.4888 109.388 50.3597 109.289C50.2368 109.186 50.1343 109.053 50.0523 108.891C49.9764 108.723 49.9544 108.522 49.9862 108.287C50.0325 107.946 50.174 107.69 50.4106 107.519C50.6526 107.35 50.9539 107.289 51.3144 107.336C51.6803 107.383 51.9572 107.523 52.1449 107.754C52.3327 107.985 52.4038 108.268 52.3582 108.604L52.355 108.629C52.3477 108.682 52.3172 108.705 52.2634 108.698L51.8921 108.65C51.8383 108.643 51.815 108.612 51.8222 108.559L51.8287 108.511C51.8533 108.33 51.8117 108.172 51.7038 108.038C51.6014 107.906 51.4533 107.826 51.2595 107.801C51.0658 107.776 50.9015 107.817 50.7664 107.924C50.6375 108.027 50.5611 108.167 50.5373 108.343C50.5199 108.471 50.5401 108.585 50.5977 108.685C50.6561 108.779 50.7324 108.863 50.8267 108.935C50.9217 109.001 51.0553 109.087 51.2274 109.191C51.435 109.315 51.603 109.43 51.7313 109.533C51.865 109.638 51.9752 109.774 52.0619 109.943C52.1485 110.112 52.1763 110.311 52.1452 110.541C52.1004 110.872 51.9543 111.122 51.7069 111.29C51.4595 111.459 51.1474 111.519 50.7708 111.47Z" fill="#85887C"/>
<path d="M54.9114 108.054C54.9076 108.108 54.8786 108.133 54.8244 108.129L54.2069 108.086C54.1853 108.085 54.1737 108.095 54.1722 108.116L53.9988 110.584C53.9814 110.831 54.0126 111.006 54.0925 111.109C54.1727 111.206 54.3024 111.259 54.4815 111.266L54.5628 111.271C54.617 111.275 54.6422 111.304 54.6384 111.357L54.614 111.704C54.6102 111.758 54.5813 111.783 54.5271 111.779L54.324 111.765C54.0044 111.743 53.7654 111.659 53.6069 111.513C53.4542 111.362 53.3913 111.096 53.4181 110.714L53.6034 108.077C53.6049 108.055 53.5949 108.044 53.5732 108.042L53.2563 108.021C53.2022 108.017 53.177 107.988 53.1807 107.934L53.1994 107.668C53.2032 107.614 53.2322 107.589 53.2864 107.593L53.6032 107.615C53.6249 107.617 53.6365 107.607 53.638 107.585L53.7015 106.682C53.7052 106.628 53.7342 106.603 53.7884 106.607L54.1946 106.635C54.2488 106.639 54.274 106.668 54.2702 106.721L54.2067 107.624C54.2052 107.646 54.2153 107.657 54.237 107.659L54.8545 107.702C54.9086 107.705 54.9338 107.734 54.9301 107.788L54.9114 108.054Z" fill="#85887C"/>
<path d="M57.3662 107.708C57.5019 107.71 57.6182 107.741 57.7149 107.801C57.7526 107.823 57.7655 107.858 57.7539 107.906L57.6491 108.326C57.6428 108.374 57.61 108.39 57.5505 108.373C57.4859 108.34 57.4047 108.323 57.307 108.322C57.2635 108.322 57.2309 108.324 57.2091 108.329C57.0134 108.338 56.8515 108.439 56.7234 108.632C56.5953 108.819 56.529 109.05 56.5244 109.325L56.4837 111.75C56.4827 111.804 56.4551 111.83 56.4008 111.83L55.9854 111.826C55.9311 111.825 55.9044 111.798 55.9054 111.744L55.9713 107.816C55.9722 107.762 55.9998 107.735 56.0541 107.736L56.4695 107.74C56.5238 107.74 56.5505 107.768 56.5496 107.822L56.5415 108.307C56.5412 108.323 56.5438 108.331 56.5492 108.331C56.5601 108.331 56.571 108.326 56.5821 108.315C56.7464 107.907 57.0078 107.705 57.3662 107.708Z" fill="#85887C"/>
<path d="M59.8078 107.604C60.1879 107.585 60.4982 107.694 60.7388 107.93C60.979 108.162 61.1095 108.482 61.1301 108.892L61.2673 111.616C61.2701 111.67 61.2443 111.698 61.19 111.701L60.7746 111.721C60.7203 111.724 60.6918 111.698 60.6891 111.644L60.6769 111.402C60.6763 111.391 60.6706 111.386 60.6598 111.387C60.6541 111.381 60.646 111.385 60.6357 111.396C60.4481 111.67 60.1534 111.817 59.7516 111.837C59.453 111.852 59.1881 111.781 58.9571 111.625C58.7312 111.463 58.6074 111.167 58.5857 110.736C58.5626 110.278 58.6788 109.937 58.9343 109.714C59.1895 109.485 59.5343 109.36 59.9687 109.338L60.5388 109.31C60.5605 109.309 60.5708 109.298 60.5698 109.276L60.5539 108.961C60.5403 108.691 60.467 108.479 60.334 108.323C60.2009 108.168 60.0285 108.095 59.8168 108.106C59.6539 108.114 59.5154 108.175 59.4014 108.289C59.2928 108.402 59.2319 108.543 59.2186 108.711C59.2213 108.765 59.1955 108.793 59.1412 108.796L58.6847 108.81C58.6575 108.812 58.6354 108.805 58.6183 108.789C58.6066 108.774 58.603 108.755 58.6073 108.733C58.6184 108.414 58.7358 108.151 58.9596 107.946C59.183 107.735 59.4657 107.621 59.8078 107.604ZM59.8485 111.33C60.0712 111.319 60.2604 111.239 60.4162 111.091C60.5718 110.937 60.6432 110.734 60.6304 110.48L60.5962 109.801C60.5951 109.78 60.5837 109.77 60.562 109.771L59.9837 109.799C59.7231 109.812 59.5203 109.893 59.3753 110.04C59.2301 110.183 59.1643 110.388 59.1778 110.658C59.1898 110.895 59.2557 111.07 59.3757 111.183C59.5009 111.29 59.6585 111.339 59.8485 111.33Z" fill="#85887C"/>
<path d="M62.6323 111.557C62.5783 111.563 62.5483 111.539 62.5424 111.486L61.9375 106.022C61.9316 105.968 61.9556 105.938 62.0096 105.932L62.4225 105.887C62.4765 105.882 62.5064 105.905 62.5123 105.959L63.1172 111.423C63.1231 111.476 63.0991 111.506 63.0451 111.512L62.6323 111.557Z" fill="#85887C"/>
<path d="M64.2248 106.476C64.0906 106.496 63.974 106.47 63.875 106.398C63.7814 106.325 63.7248 106.225 63.7052 106.097C63.6847 105.964 63.7086 105.851 63.7769 105.759C63.8497 105.661 63.9532 105.601 64.0874 105.581C64.2162 105.562 64.3274 105.588 64.421 105.662C64.5192 105.728 64.5785 105.829 64.5989 105.962C64.6185 106.09 64.592 106.203 64.5191 106.301C64.4517 106.398 64.3536 106.457 64.2248 106.476ZM64.7568 111.285C64.7031 111.294 64.6722 111.271 64.664 111.218L64.068 107.334C64.0598 107.281 64.0826 107.25 64.1363 107.242L64.5469 107.18C64.6006 107.172 64.6315 107.194 64.6397 107.247L65.2357 111.131C65.2439 111.185 65.2211 111.215 65.1675 111.223L64.7568 111.285Z" fill="#85887C"/>
<path d="M67.1682 106.651C67.5397 106.572 67.863 106.63 68.1381 106.825C68.4121 107.015 68.5921 107.31 68.6783 107.71L69.2516 110.373C69.263 110.426 69.2421 110.458 69.1891 110.469L68.7831 110.555C68.73 110.567 68.6978 110.546 68.6864 110.493L68.6354 110.256C68.6331 110.246 68.6267 110.242 68.6161 110.244C68.6096 110.24 68.6022 110.244 68.5939 110.257C68.4531 110.557 68.1863 110.748 67.7936 110.832C67.5017 110.894 67.2294 110.866 66.9766 110.749C66.728 110.626 66.5584 110.354 66.4676 109.932C66.3712 109.484 66.4309 109.13 66.6468 108.869C66.8614 108.603 67.1811 108.425 67.6057 108.335L68.1629 108.216C68.1842 108.212 68.1925 108.199 68.188 108.178L68.1216 107.87C68.0649 107.606 67.9585 107.409 67.8024 107.277C67.6463 107.144 67.4648 107.1 67.2578 107.144C67.0986 107.178 66.9719 107.26 66.8779 107.391C66.7891 107.52 66.7517 107.668 66.7656 107.836C66.7769 107.889 66.7561 107.921 66.703 107.932L66.2555 108.019C66.229 108.024 66.206 108.021 66.1867 108.009C66.1727 107.995 66.1661 107.977 66.1668 107.955C66.1264 107.638 66.1999 107.361 66.3873 107.123C66.5736 106.88 66.8339 106.722 67.1682 106.651ZM67.8075 110.317C68.0251 110.27 68.1988 110.162 68.3285 109.991C68.4571 109.815 68.4948 109.603 68.4414 109.355L68.2985 108.692C68.294 108.671 68.2811 108.662 68.2599 108.667L67.6947 108.787C67.4399 108.841 67.253 108.953 67.1339 109.121C67.0136 109.284 66.9818 109.498 67.0386 109.761C67.0885 109.993 67.1816 110.155 67.318 110.247C67.4586 110.333 67.6218 110.356 67.8075 110.317Z" fill="#85887C"/>
<path d="M70.836 105.701C71.1539 105.609 71.4311 105.647 71.6677 105.814C71.9095 105.979 72.0881 106.256 72.2035 106.643L72.9976 109.309C73.013 109.361 72.9947 109.394 72.9425 109.409L72.5439 109.525C72.4918 109.54 72.4581 109.521 72.4427 109.47L71.6624 106.851C71.587 106.597 71.4712 106.418 71.315 106.311C71.164 106.204 70.9895 106.178 70.7915 106.236C70.5831 106.296 70.4413 106.418 70.366 106.603C70.296 106.786 70.2995 107.007 70.3764 107.265L71.1452 109.845C71.1605 109.897 71.1422 109.93 71.0901 109.946L70.6914 110.061C70.6393 110.076 70.6056 110.058 70.5902 110.006L69.4683 106.24C69.4529 106.188 69.4713 106.155 69.5234 106.14L69.922 106.024C69.9741 106.009 70.0079 106.028 70.0233 106.079L70.0971 106.327C70.1002 106.338 70.1077 106.344 70.1197 106.346C70.1317 106.348 70.1379 106.341 70.1385 106.324C70.1938 106.167 70.2826 106.038 70.4048 105.935C70.5307 105.826 70.6745 105.748 70.836 105.701Z" fill="#85887C"/>
<path d="M76.04 103.782C76.3546 103.649 76.6515 103.646 76.9308 103.774C77.213 103.894 77.4288 104.128 77.5781 104.475L78.2691 106.081C78.4142 106.418 78.4377 106.733 78.3397 107.027C78.2395 107.315 78.0296 107.527 77.7101 107.663C77.5752 107.72 77.4347 107.75 77.2886 107.753C77.1403 107.752 76.9963 107.719 76.8566 107.655C76.8424 107.65 76.8313 107.651 76.8235 107.661C76.8206 107.668 76.8213 107.676 76.8256 107.686L76.896 107.85C76.9173 107.899 76.903 107.935 76.8531 107.956L76.4711 108.118C76.4211 108.139 76.3855 108.125 76.3642 108.075L74.1886 103.02C74.1673 102.971 74.1816 102.935 74.2315 102.914L74.6135 102.752C74.6634 102.731 74.6991 102.745 74.7204 102.795L75.4115 104.4C75.4157 104.41 75.4239 104.416 75.436 104.416C75.4482 104.417 75.456 104.408 75.4596 104.389C75.5068 104.252 75.5822 104.132 75.6857 104.029C75.7871 103.922 75.9052 103.839 76.04 103.782ZM77.0623 104.738C76.9706 104.525 76.8371 104.379 76.6618 104.301C76.4843 104.218 76.2983 104.218 76.1035 104.3C75.9188 104.379 75.7978 104.509 75.7405 104.692C75.6811 104.869 75.6973 105.064 75.789 105.278L76.4513 106.816C76.5408 107.024 76.6719 107.171 76.8443 107.256C77.0146 107.336 77.1921 107.337 77.3769 107.259C77.5716 107.176 77.7012 107.045 77.7656 106.866C77.8278 106.681 77.8141 106.485 77.7246 106.276L77.0623 104.738Z" fill="#85887C"/>
<path d="M79.3309 102.268C79.4518 102.208 79.5692 102.182 79.6831 102.191C79.7267 102.193 79.7547 102.218 79.767 102.267L79.8704 102.685C79.8875 102.73 79.8658 102.759 79.8053 102.772C79.7326 102.772 79.6528 102.794 79.5657 102.838C79.527 102.857 79.4992 102.874 79.4823 102.888C79.3131 102.985 79.2168 103.148 79.1935 103.377C79.1677 103.601 79.2171 103.835 79.3416 104.08L80.4403 106.241C80.4648 106.289 80.4528 106.325 80.4044 106.349L80.0345 106.535C79.9861 106.559 79.9497 106.547 79.9253 106.499L78.1454 102.999C78.121 102.951 78.1329 102.915 78.1813 102.89L78.5513 102.705C78.5996 102.681 78.636 102.692 78.6604 102.74L78.8802 103.173C78.8875 103.187 78.8936 103.193 78.8984 103.191C78.9081 103.186 78.9153 103.176 78.9201 103.162C78.8748 102.726 79.0117 102.429 79.3309 102.268Z" fill="#85887C"/>
<path d="M83.6434 102.335C83.6711 102.381 83.6616 102.418 83.6149 102.446L82.0182 103.387C81.9995 103.398 81.9957 103.412 82.0068 103.431L82.3104 103.938C82.4268 104.133 82.5761 104.261 82.7584 104.323C82.9425 104.377 83.1233 104.352 83.3007 104.248C83.4501 104.16 83.5498 104.041 83.5998 103.893C83.6518 103.737 83.6511 103.578 83.5979 103.415C83.5869 103.365 83.6001 103.329 83.6375 103.307L83.996 103.114C84.0146 103.103 84.0351 103.101 84.0575 103.106C84.0798 103.112 84.0955 103.128 84.1047 103.154C84.2309 103.449 84.2468 103.734 84.1524 104.009C84.0599 104.277 83.862 104.5 83.5585 104.679C83.227 104.874 82.9027 104.934 82.5855 104.857C82.2729 104.778 82.021 104.579 81.8298 104.259L80.9316 102.758C80.7431 102.443 80.6887 102.13 80.7683 101.82C80.8499 101.502 81.0564 101.246 81.3879 101.051C81.724 100.852 82.0498 100.795 82.3651 100.879C82.6823 100.955 82.9351 101.151 83.1236 101.466L83.6434 102.335ZM81.6457 101.482C81.4683 101.586 81.361 101.734 81.3238 101.925C81.2885 102.109 81.3304 102.3 81.4496 102.5L81.7282 102.965C81.7393 102.984 81.7542 102.988 81.7729 102.977L82.9214 102.3C82.9401 102.289 82.9439 102.274 82.9328 102.255L82.6542 101.79C82.535 101.59 82.3833 101.464 82.1992 101.409C82.0123 101.35 81.8278 101.374 81.6457 101.482Z" fill="#85887C"/>
<path d="M86.2515 102.856C86.2118 102.884 86.1733 102.881 86.1361 102.848L83.1337 100.15L83.1242 100.137C83.0958 100.098 83.1014 100.064 83.1412 100.036L83.4656 99.8051C83.5098 99.7738 83.5483 99.7763 83.5811 99.8126L85.8661 101.986C85.8768 101.992 85.8844 101.993 85.8888 101.99C85.8932 101.987 85.8944 101.979 85.8926 101.967L84.5743 99.1067C84.5547 99.061 84.5648 99.024 84.6045 98.9958L84.9025 98.784C84.9467 98.7526 84.9851 98.7551 85.0179 98.7915L87.3162 100.956C87.3269 100.961 87.3345 100.963 87.3389 100.959C87.3433 100.956 87.3446 100.949 87.3427 100.937L86.0244 98.0762C86.0048 98.0304 86.0149 97.9935 86.0547 97.9652L86.3772 97.7459C86.4258 97.7114 86.463 97.7214 86.4889 97.7759L88.0828 101.465C88.1068 101.507 88.0967 101.544 88.0526 101.576L87.7149 101.816C87.6751 101.844 87.6367 101.841 87.5994 101.808L85.3769 99.7492C85.3631 99.7391 85.3539 99.7357 85.3495 99.7388C85.3451 99.742 85.3454 99.7517 85.3504 99.768L86.6128 102.509C86.6368 102.552 86.6267 102.589 86.5826 102.62L86.2515 102.856Z" fill="#85887C"/>
<path d="M90.267 97.3332C90.3022 97.3742 90.2992 97.4121 90.2579 97.4471L88.8452 98.6433C88.8287 98.6573 88.8275 98.6725 88.8416 98.6889L89.2275 99.1378C89.3755 99.31 89.5446 99.4112 89.7347 99.4415C89.9255 99.4641 90.0994 99.409 90.2563 99.2761C90.3885 99.1642 90.4666 99.0308 90.4905 98.8759C90.515 98.7135 90.4871 98.5565 90.4068 98.4049C90.3874 98.3575 90.3943 98.3198 90.4273 98.2918L90.7477 98.0418C90.7642 98.0278 90.784 98.0217 90.8069 98.0235C90.8299 98.0253 90.8481 98.0382 90.8616 98.0622C91.0365 98.3321 91.1009 98.6105 91.0549 98.8974C91.0095 99.1767 90.8526 99.43 90.5841 99.6573C90.2908 99.9057 89.9814 100.019 89.6557 99.9972C89.3342 99.9719 89.0519 99.8178 88.8087 99.5349L87.6669 98.2067C87.4272 97.9279 87.3201 97.629 87.3456 97.3099C87.3717 96.9832 87.5314 96.6957 87.8246 96.4473C88.122 96.1955 88.4333 96.0843 88.7583 96.1136C89.0839 96.1354 89.3666 96.2857 89.6062 96.5645L90.267 97.3332ZM88.1524 96.8286C87.9954 96.9615 87.9149 97.1253 87.911 97.3199C87.9076 97.507 87.9817 97.6886 88.1332 97.8649L88.4874 98.2769C88.5015 98.2933 88.5168 98.2945 88.5333 98.2805L89.5495 97.4201C89.566 97.4061 89.5672 97.3909 89.5531 97.3745L89.1989 96.9625C89.0474 96.7862 88.8762 96.6867 88.6855 96.6641C88.4912 96.6374 88.3135 96.6922 88.1524 96.8286Z" fill="#85887C"/>
<path d="M90.567 93.9529C90.6642 93.8589 90.7687 93.7993 90.8804 93.7741C90.9228 93.7632 90.9571 93.7789 90.9834 93.8212L91.2089 94.1899C91.2392 94.2284 91.2272 94.2626 91.173 94.2924C91.1036 94.3143 91.0339 94.3591 90.9639 94.4268C90.9328 94.4569 90.9114 94.4814 90.8996 94.5003C90.7672 94.6434 90.7244 94.8277 90.7713 95.0531C90.8145 95.2747 90.9327 95.484 91.1259 95.6808L92.8309 97.4179C92.8688 97.4565 92.8683 97.4946 92.8294 97.5322L92.5319 97.8199C92.493 97.8575 92.4546 97.857 92.4167 97.8184L89.6546 95.0043C89.6167 94.9657 89.6172 94.9276 89.6561 94.89L89.9537 94.6023C89.9925 94.5647 90.0309 94.5652 90.0688 94.6038L90.4098 94.9513C90.4212 94.9628 90.4288 94.9668 90.4327 94.963C90.4405 94.9555 90.4445 94.9441 90.4447 94.9288C90.2695 94.5264 90.3103 94.2011 90.567 93.9529Z" fill="#85887C"/>
<path d="M95.7084 96.9443C95.7012 96.9523 95.6878 96.9549 95.6685 96.9521C95.6491 96.9493 95.6314 96.9406 95.6152 96.9262L95.3733 96.7096C95.333 96.6735 95.331 96.6355 95.3674 96.5955C95.4761 96.4678 95.5392 96.3501 95.5567 96.2424C95.5778 96.1306 95.5519 96.0022 95.479 95.8572C95.4061 95.7121 95.2727 95.5128 95.0789 95.2595C95.0744 95.2483 95.0684 95.2429 95.0607 95.2432C95.0527 95.236 95.0466 95.2306 95.0426 95.227L91.3742 93.3256L91.3506 93.3153C91.3184 93.2864 91.3204 93.252 91.3568 93.212L91.6514 92.8878C91.6877 92.8478 91.7259 92.8421 91.7658 92.8706L94.6227 94.4701C94.6384 94.4769 94.6481 94.4783 94.6517 94.4743C94.6554 94.4703 94.653 94.4609 94.6445 94.4461L92.7423 91.7961C92.7132 91.7556 92.7151 91.7174 92.7478 91.6814L93.0594 91.3506C93.0776 91.3306 93.0963 91.322 93.1157 91.3248C93.1387 91.3237 93.1567 91.3361 93.1695 91.3622L95.6651 95.1093C95.8697 95.4232 96.0039 95.6739 96.0674 95.8614C96.1346 96.0449 96.1415 96.2144 96.088 96.3697C96.0386 96.5287 95.9212 96.7102 95.7357 96.9143L95.7084 96.9443Z" fill="#85887C"/>
<path d="M32.9517 64.0701C34.3728 63.7065 35.5119 63.9007 36.3691 64.6524C37.2489 65.3753 37.6888 66.5459 37.6888 68.1643V75.655C37.6888 77.2272 37.2602 78.6199 36.403 79.8334C35.5458 81.0236 34.3953 81.8034 32.9517 82.1727C32.3426 82.3285 31.7561 82.3629 31.1922 82.276C30.6282 82.1659 30.132 81.923 29.7034 81.5471C29.6583 81.5124 29.6132 81.5124 29.568 81.547C29.5455 81.5759 29.5342 81.6135 29.5342 81.6597V82.4227C29.5342 82.6539 29.4214 82.7983 29.1958 82.856L27.4702 83.2974C27.2446 83.3551 27.1318 83.2684 27.1318 83.0372V59.4552C27.1318 59.224 27.2446 59.0795 27.4702 59.0218L29.1958 58.5804C29.4214 58.5227 29.5342 58.6095 29.5342 58.8406V66.3314C29.5342 66.3776 29.5568 66.4066 29.6019 66.4181C29.647 66.4297 29.6921 66.3951 29.7372 66.3142C30.1433 65.7479 30.6282 65.277 31.1922 64.9016C31.7561 64.503 32.3426 64.2259 32.9517 64.0701ZM35.2864 68.9522C35.2864 67.9581 35.0157 67.2297 34.4743 66.767C33.9329 66.2813 33.2224 66.1509 32.3426 66.376C31.508 66.5895 30.8313 67.0747 30.3124 67.8316C29.7936 68.5654 29.5342 69.4294 29.5342 70.4236V77.6022C29.5342 78.5732 29.7936 79.3045 30.3124 79.796C30.8313 80.2644 31.508 80.3919 32.3426 80.1784C33.2224 79.9534 33.9329 79.471 34.4743 78.7314C35.0157 77.9687 35.2864 77.1019 35.2864 76.1308V68.9522Z" fill="#001D30"/>
<path d="M49.1152 59.4957C49.673 59.3285 50.1527 59.3119 50.5544 59.4459C50.7105 59.4916 50.7663 59.6253 50.7217 59.8469L50.3201 61.7716C50.2978 61.9865 50.1639 62.096 49.9185 62.1002C49.6507 62.0417 49.316 62.0727 48.9144 62.1931C48.7359 62.2466 48.602 62.2983 48.5128 62.3482C47.7095 62.6353 47.0513 63.2721 46.5382 64.2588C46.025 65.2223 45.7684 66.2939 45.7684 67.4737V77.8835C45.7684 78.1148 45.6568 78.2639 45.4337 78.3308L43.7268 78.8426C43.5037 78.9095 43.3921 78.8272 43.3921 78.5959V61.7321C43.3921 61.5007 43.5037 61.3516 43.7268 61.2847L45.4337 60.773C45.6568 60.7061 45.7684 60.7883 45.7684 61.0196V63.1016C45.7684 63.171 45.7795 63.2023 45.8019 63.1956C45.8465 63.1823 45.8911 63.1458 45.9357 63.0861C46.5828 61.134 47.6426 59.9372 49.1152 59.4957Z" fill="#001D30"/>
<path d="M59.9502 55.8441C61.4961 55.3273 62.7328 55.4458 63.6604 56.1996C64.5879 56.9303 65.0517 58.1745 65.0517 59.9322V71.6236C65.0517 71.8549 64.9412 72.0074 64.7204 72.0813L63.031 72.646C62.8101 72.7199 62.6997 72.6412 62.6997 72.4099V71.3691C62.6997 71.3228 62.6776 71.3071 62.6334 71.3219C62.6114 71.3061 62.5782 71.3288 62.5341 71.3898C61.717 72.7962 60.4913 73.7726 58.8571 74.319C57.6424 74.725 56.5824 74.7209 55.6769 74.3067C54.7936 73.8619 54.3519 72.7143 54.3519 70.8641C54.3519 68.8982 54.8929 67.2833 55.9751 66.0196C57.0572 64.7327 58.4816 63.7939 60.2484 63.2033L62.5672 62.4281C62.6555 62.3985 62.6997 62.3375 62.6997 62.245V60.892C62.6997 59.7356 62.4457 58.8954 61.9378 58.3713C61.4299 57.8473 60.7453 57.7292 59.884 58.0172C59.2214 58.2387 58.6473 58.6619 58.1614 59.2869C57.6976 59.9045 57.4216 60.5866 57.3332 61.3331C57.3332 61.5643 57.2228 61.7169 57.002 61.7907L55.1469 62.3762C55.0365 62.4131 54.9482 62.408 54.8819 62.3607C54.8377 62.3061 54.8267 62.2288 54.8488 62.1289C54.9592 60.7275 55.4892 59.4517 56.4388 58.3016C57.3885 57.1284 58.5589 56.3092 59.9502 55.8441ZM59.3539 72.0019C60.2594 71.6992 61.0434 71.1365 61.7059 70.3136C62.3684 69.4677 62.6997 68.5012 62.6997 67.4142V64.5C62.6997 64.4075 62.6555 64.376 62.5672 64.4055L60.2152 65.1918C59.1552 65.5462 58.316 66.1274 57.6976 66.9355C57.0793 67.7204 56.7701 68.6911 56.7701 69.8475C56.7701 70.8651 57.002 71.5508 57.4657 71.9046C57.9516 72.2279 58.581 72.2603 59.3539 72.0019Z" fill="#001D30"/>
<path d="M76.6064 50.2741C77.9435 49.8082 78.9737 49.9334 79.6971 50.6497C80.4423 51.3584 80.815 52.5774 80.815 54.3067V66.2039C80.815 66.4344 80.7054 66.5879 80.4862 66.6643L78.8093 67.2485C78.5901 67.3249 78.4805 67.2478 78.4805 67.0172V55.3276C78.4805 54.1978 78.2394 53.4056 77.7572 52.9511C77.2969 52.489 76.6502 52.403 75.8173 52.6933C74.9405 52.9987 74.25 53.5736 73.7459 54.4179C73.2636 55.2546 73.0225 56.2494 73.0225 57.4022V68.9189C73.0225 69.1495 72.9129 69.303 72.6937 69.3794L71.0169 69.9636C70.7977 70.04 70.6881 69.9629 70.6881 69.7323V52.9241C70.6881 52.6935 70.7977 52.54 71.0169 52.4637L72.6937 51.8794C72.9129 51.803 73.0225 51.8801 73.0225 52.1107V53.2174C73.0225 53.2635 73.0444 53.2905 73.0883 53.2983C73.1321 53.306 73.165 53.2715 73.1869 53.1947C73.5815 52.4808 74.0747 51.8824 74.6665 51.3996C75.2803 50.886 75.9269 50.5108 76.6064 50.2741Z" fill="#001D30"/>
<path d="M94.155 37.8361C94.155 37.6052 94.2644 37.4504 94.4832 37.3719L96.1573 36.7709C96.3761 36.6924 96.4855 36.7686 96.4855 36.9995V60.5568C96.4855 60.7878 96.3761 60.9425 96.1573 61.0211L94.4832 61.622C94.2644 61.7006 94.155 61.6244 94.155 61.3934V60.6313C94.155 60.5851 94.1331 60.5583 94.0893 60.5509C94.0675 60.5357 94.0346 60.559 93.9909 60.6209C93.1593 61.8894 92.1089 62.7515 90.8397 63.2071C89.4392 63.7099 88.3232 63.6255 87.4917 62.954C86.6601 62.2594 86.2444 61.1269 86.2444 59.5564V52.0735C86.2444 50.4568 86.6601 49.0258 87.4917 47.7804C88.3232 46.5118 89.4392 45.6262 90.8397 45.1234C92.1308 44.66 93.1812 44.7794 93.9909 45.4819C94.0346 45.5124 94.0675 45.5121 94.0893 45.4812C94.1331 45.4424 94.155 45.3999 94.155 45.3537V37.8361ZM91.3978 60.8589C92.2074 60.5683 92.8639 60.0324 93.3672 59.2512C93.8924 58.4391 94.155 57.5481 94.155 56.578V49.4069C94.155 48.4138 93.8924 47.7113 93.3672 47.2994C92.8639 46.8565 92.2074 46.7803 91.3978 47.071C90.5662 47.3695 89.8769 47.9288 89.3298 48.7487C88.8046 49.5377 88.5421 50.4288 88.5421 51.4219V58.593C88.5421 59.563 88.8046 60.2655 89.3298 60.7006C89.8769 61.1047 90.5662 61.1575 91.3978 60.8589Z" fill="#001D30"/>
<path d="M34.5453 64.5096C35.9665 64.146 37.1056 64.3402 37.9628 65.0919C38.8425 65.8148 39.2824 66.9854 39.2824 68.6038V76.0945C39.2824 77.6667 38.8538 79.0594 37.9966 80.2729C37.1395 81.4631 35.989 82.2429 34.5453 82.6122C33.9363 82.768 33.3498 82.8024 32.7858 82.7155C32.2219 82.6054 31.7256 82.3625 31.297 81.9866C31.2519 81.9519 31.2068 81.9519 31.1617 81.9865C31.1391 82.0154 31.1279 82.053 31.1279 82.0992V82.8622C31.1279 83.0934 31.0151 83.2378 30.7895 83.2955L29.0638 83.7369C28.8383 83.7946 28.7255 83.7079 28.7255 83.4767V59.8947C28.7255 59.6635 28.8383 59.519 29.0638 59.4613L30.7895 59.0199C31.0151 58.9622 31.1279 59.049 31.1279 59.2801V66.7709C31.1279 66.8171 31.1504 66.8461 31.1955 66.8576C31.2407 66.8692 31.2858 66.8346 31.3309 66.7537C31.7369 66.1874 32.2219 65.7165 32.7858 65.3411C33.3498 64.9425 33.9363 64.6654 34.5453 64.5096ZM36.88 69.3917C36.88 68.3976 36.6093 67.6692 36.068 67.2065C35.5266 66.7208 34.816 66.5904 33.9363 66.8155C33.1017 67.029 32.4249 67.5142 31.9061 68.2711C31.3873 69.005 31.1279 69.8689 31.1279 70.8631V78.0417C31.1279 79.0127 31.3873 79.744 31.9061 80.2355C32.4249 80.7039 33.1017 80.8314 33.9363 80.6179C34.816 80.3929 35.5266 79.9105 36.068 79.1709C36.6093 78.4082 36.88 77.5414 36.88 76.5703V69.3917Z" fill="#85887C"/>
<path d="M50.7121 59.9353C51.2699 59.768 51.7496 59.7514 52.1513 59.8855C52.3074 59.9312 52.3632 60.0648 52.3186 60.2864L51.917 62.2112C51.8947 62.4261 51.7608 62.5356 51.5154 62.5398C51.2476 62.4813 50.9129 62.5122 50.5113 62.6326C50.3328 62.6861 50.1989 62.7378 50.1097 62.7877C49.3064 63.0748 48.6482 63.7117 48.1351 64.6983C47.6219 65.6618 47.3653 66.7335 47.3653 67.9132V78.323C47.3653 78.5544 47.2537 78.7035 47.0306 78.7704L45.3237 79.2821C45.1006 79.349 44.989 79.2668 44.989 79.0354V62.1716C44.989 61.9403 45.1006 61.7912 45.3237 61.7243L47.0306 61.2125C47.2537 61.1456 47.3653 61.2278 47.3653 61.4592V63.5411C47.3653 63.6105 47.3764 63.6419 47.3988 63.6352C47.4434 63.6218 47.488 63.5853 47.5326 63.5257C48.1797 61.5736 49.2395 60.3768 50.7121 59.9353Z" fill="#85887C"/>
<path d="M61.5471 56.2836C63.093 55.7668 64.3297 55.8853 65.2573 56.6391C66.1848 57.3698 66.6486 58.614 66.6486 60.3718V72.0631C66.6486 72.2944 66.5381 72.447 66.3173 72.5208L64.6279 73.0856C64.407 73.1594 64.2966 73.0807 64.2966 72.8494V71.8086C64.2966 71.7624 64.2745 71.7466 64.2303 71.7614C64.2083 71.7457 64.1751 71.7683 64.131 71.8293C63.3139 73.2358 62.0882 74.2122 60.454 74.7585C59.2393 75.1646 58.1793 75.1605 57.2738 74.7462C56.3905 74.3014 55.9488 73.1539 55.9488 71.3036C55.9488 69.3377 56.4898 67.7229 57.572 66.4591C58.6541 65.1722 60.0785 64.2335 61.8453 63.6428L64.1641 62.8676C64.2524 62.8381 64.2966 62.7771 64.2966 62.6845V61.3315C64.2966 60.1751 64.0426 59.3349 63.5347 58.8109C63.0268 58.2868 62.3422 58.1688 61.4809 58.4567C60.8183 58.6782 60.2442 59.1014 59.7583 59.7264C59.2945 60.344 59.0185 61.0261 58.9301 61.7726C58.9301 62.0039 58.8197 62.1564 58.5989 62.2303L56.7438 62.8157C56.6334 62.8527 56.5451 62.8475 56.4788 62.8003C56.4346 62.7456 56.4236 62.6684 56.4457 62.5685C56.5561 61.167 57.0861 59.8912 58.0357 58.7411C58.9854 57.5679 60.1558 56.7488 61.5471 56.2836ZM60.9508 72.4415C61.8563 72.1388 62.6403 71.576 63.3028 70.7532C63.9653 69.9072 64.2966 68.9407 64.2966 67.8537V64.9395C64.2966 64.847 64.2524 64.8155 64.1641 64.8451L61.8121 65.6314C60.7521 65.9857 59.9129 66.567 59.2945 67.375C58.6762 68.16 58.367 69.1306 58.367 70.287C58.367 71.3047 58.5989 71.9904 59.0626 72.3442C59.5485 72.6674 60.1779 72.6999 60.9508 72.4415Z" fill="#85887C"/>
<path d="M78.2001 50.7136C79.5372 50.2477 80.5674 50.3729 81.2908 51.0893C82.036 51.798 82.4087 53.017 82.4087 54.7462V66.6434C82.4087 66.874 82.2991 67.0274 82.0799 67.1038L80.403 67.6881C80.1838 67.7644 80.0742 67.6873 80.0742 67.4568V55.7671C80.0742 54.6373 79.8331 53.8452 79.3509 53.3907C78.8906 52.9285 78.2439 52.8426 77.411 53.1328C76.5342 53.4383 75.8437 54.0132 75.3396 54.8575C74.8573 55.6941 74.6162 56.6889 74.6162 57.8417V69.3585C74.6162 69.5891 74.5066 69.7425 74.2874 69.8189L72.6106 70.4032C72.3914 70.4795 72.2818 70.4024 72.2818 70.1719V53.3636C72.2818 53.1331 72.3914 52.9796 72.6106 52.9032L74.2874 52.319C74.5066 52.2426 74.6162 52.3197 74.6162 52.5502V53.657C74.6162 53.7031 74.6382 53.73 74.682 53.7378C74.7258 53.7456 74.7587 53.7111 74.7806 53.6343C75.1752 52.9204 75.6684 52.322 76.2602 51.8391C76.874 51.3255 77.5206 50.9504 78.2001 50.7136Z" fill="#85887C"/>
<path d="M95.7519 38.2757C95.7519 38.0447 95.8613 37.89 96.0802 37.8114L97.7542 37.2105C97.973 37.1319 98.0825 37.2081 98.0825 37.4391V60.9964C98.0825 61.2273 97.973 61.3821 97.7542 61.4606L96.0802 62.0616C95.8613 62.1401 95.7519 62.0639 95.7519 61.833V61.0708C95.7519 61.0246 95.73 60.9979 95.6863 60.9905C95.6644 60.9752 95.6316 60.9986 95.5878 61.0605C94.7563 62.329 93.7059 63.1911 92.4367 63.6467C91.0362 64.1494 89.9202 64.0651 89.0886 63.3936C88.2571 62.699 87.8413 61.5664 87.8413 59.996V52.513C87.8413 50.8964 88.2571 49.4653 89.0886 48.2199C89.9202 46.9514 91.0362 46.0657 92.4367 45.563C93.7278 45.0995 94.7781 45.219 95.5878 45.9214C95.6316 45.9519 95.6644 45.9517 95.6863 45.9207C95.73 45.8819 95.7519 45.8394 95.7519 45.7932V38.2757ZM92.9947 61.2985C93.8044 61.0078 94.4608 60.4719 94.9641 59.6908C95.4893 58.8787 95.7519 57.9876 95.7519 57.0176V49.8465C95.7519 48.8534 95.4893 48.1508 94.9641 47.7389C94.4608 47.296 93.8044 47.2199 92.9947 47.5105C92.1632 47.8091 91.4738 48.3683 90.9268 49.1883C90.4016 49.9773 90.139 50.8683 90.139 51.8614V59.0325C90.139 60.0026 90.4016 60.7051 90.9268 61.1401C91.4738 61.5442 92.1632 61.597 92.9947 61.2985Z" fill="#85887C"/>
<path d="M32.9517 64.0701C34.3728 63.7065 35.5119 63.9007 36.3691 64.6524C37.2489 65.3753 37.6888 66.5459 37.6888 68.1643V75.655C37.6888 77.2272 37.2602 78.6199 36.403 79.8334C35.5458 81.0236 34.3953 81.8034 32.9517 82.1727C32.3426 82.3285 31.7561 82.3629 31.1922 82.276C30.6282 82.1659 30.132 81.923 29.7034 81.5471C29.6583 81.5124 29.6132 81.5124 29.568 81.547C29.5455 81.5759 29.5342 81.6135 29.5342 81.6597V82.4227C29.5342 82.6539 29.4214 82.7983 29.1958 82.856L27.4702 83.2974C27.2446 83.3551 27.1318 83.2684 27.1318 83.0372V59.4552C27.1318 59.224 27.2446 59.0795 27.4702 59.0218L29.1958 58.5804C29.4214 58.5227 29.5342 58.6095 29.5342 58.8406V66.3314C29.5342 66.3776 29.5568 66.4066 29.6019 66.4181C29.647 66.4297 29.6921 66.3951 29.7372 66.3142C30.1433 65.7479 30.6282 65.277 31.1922 64.9016C31.7561 64.503 32.3426 64.2259 32.9517 64.0701ZM35.2864 68.9522C35.2864 67.9581 35.0157 67.2297 34.4743 66.767C33.9329 66.2813 33.2224 66.1509 32.3426 66.376C31.508 66.5895 30.8313 67.0747 30.3124 67.8316C29.7936 68.5654 29.5342 69.4294 29.5342 70.4236V77.6022C29.5342 78.5732 29.7936 79.3045 30.3124 79.796C30.8313 80.2644 31.508 80.3919 32.3426 80.1784C33.2224 79.9534 33.9329 79.471 34.4743 78.7314C35.0157 77.9687 35.2864 77.1019 35.2864 76.1308V68.9522Z" fill="#001D30"/>
<path d="M49.1152 59.4957C49.673 59.3285 50.1527 59.3119 50.5544 59.4459C50.7105 59.4916 50.7663 59.6253 50.7217 59.8469L50.3201 61.7716C50.2978 61.9865 50.1639 62.096 49.9185 62.1002C49.6507 62.0417 49.316 62.0727 48.9144 62.1931C48.7359 62.2466 48.602 62.2983 48.5128 62.3482C47.7095 62.6353 47.0513 63.2721 46.5382 64.2588C46.025 65.2223 45.7684 66.2939 45.7684 67.4737V77.8835C45.7684 78.1148 45.6568 78.2639 45.4337 78.3308L43.7268 78.8426C43.5037 78.9095 43.3921 78.8272 43.3921 78.5959V61.7321C43.3921 61.5007 43.5037 61.3516 43.7268 61.2847L45.4337 60.773C45.6568 60.7061 45.7684 60.7883 45.7684 61.0196V63.1016C45.7684 63.171 45.7795 63.2023 45.8019 63.1956C45.8465 63.1823 45.8911 63.1458 45.9357 63.0861C46.5828 61.134 47.6426 59.9372 49.1152 59.4957Z" fill="#001D30"/>
<path d="M59.9502 55.8441C61.4961 55.3273 62.7328 55.4458 63.6604 56.1996C64.5879 56.9303 65.0517 58.1745 65.0517 59.9322V71.6236C65.0517 71.8549 64.9412 72.0074 64.7204 72.0813L63.031 72.646C62.8101 72.7199 62.6997 72.6412 62.6997 72.4099V71.3691C62.6997 71.3228 62.6776 71.3071 62.6334 71.3219C62.6114 71.3061 62.5782 71.3288 62.5341 71.3898C61.717 72.7962 60.4913 73.7726 58.8571 74.319C57.6424 74.725 56.5824 74.7209 55.6769 74.3067C54.7936 73.8619 54.3519 72.7143 54.3519 70.8641C54.3519 68.8982 54.8929 67.2833 55.9751 66.0196C57.0572 64.7327 58.4816 63.7939 60.2484 63.2033L62.5672 62.4281C62.6555 62.3985 62.6997 62.3375 62.6997 62.245V60.892C62.6997 59.7356 62.4457 58.8954 61.9378 58.3713C61.4299 57.8473 60.7453 57.7292 59.884 58.0172C59.2214 58.2387 58.6473 58.6619 58.1614 59.2869C57.6976 59.9045 57.4216 60.5866 57.3332 61.3331C57.3332 61.5643 57.2228 61.7169 57.002 61.7907L55.1469 62.3762C55.0365 62.4131 54.9482 62.408 54.8819 62.3607C54.8377 62.3061 54.8267 62.2288 54.8488 62.1289C54.9592 60.7275 55.4892 59.4517 56.4388 58.3016C57.3885 57.1284 58.5589 56.3092 59.9502 55.8441ZM59.3539 72.0019C60.2594 71.6992 61.0434 71.1365 61.7059 70.3136C62.3684 69.4677 62.6997 68.5012 62.6997 67.4142V64.5C62.6997 64.4075 62.6555 64.376 62.5672 64.4055L60.2152 65.1918C59.1552 65.5462 58.316 66.1274 57.6976 66.9355C57.0793 67.7204 56.7701 68.6911 56.7701 69.8475C56.7701 70.8651 57.002 71.5508 57.4657 71.9046C57.9516 72.2279 58.581 72.2603 59.3539 72.0019Z" fill="#001D30"/>
<path d="M76.6064 50.2741C77.9435 49.8082 78.9737 49.9334 79.6971 50.6497C80.4423 51.3584 80.815 52.5774 80.815 54.3067V66.2039C80.815 66.4344 80.7054 66.5879 80.4862 66.6643L78.8093 67.2485C78.5901 67.3249 78.4805 67.2478 78.4805 67.0172V55.3276C78.4805 54.1978 78.2394 53.4056 77.7572 52.9511C77.2969 52.489 76.6502 52.403 75.8173 52.6933C74.9405 52.9987 74.25 53.5736 73.7459 54.4179C73.2636 55.2546 73.0225 56.2494 73.0225 57.4022V68.9189C73.0225 69.1495 72.9129 69.303 72.6937 69.3794L71.0169 69.9636C70.7977 70.04 70.6881 69.9629 70.6881 69.7323V52.9241C70.6881 52.6935 70.7977 52.54 71.0169 52.4637L72.6937 51.8794C72.9129 51.803 73.0225 51.8801 73.0225 52.1107V53.2174C73.0225 53.2635 73.0444 53.2905 73.0883 53.2983C73.1321 53.306 73.165 53.2715 73.1869 53.1947C73.5815 52.4808 74.0747 51.8824 74.6665 51.3996C75.2803 50.886 75.9269 50.5108 76.6064 50.2741Z" fill="#001D30"/>
<path d="M94.155 37.8361C94.155 37.6052 94.2644 37.4504 94.4832 37.3719L96.1573 36.7709C96.3761 36.6924 96.4855 36.7686 96.4855 36.9995V60.5568C96.4855 60.7878 96.3761 60.9425 96.1573 61.0211L94.4832 61.622C94.2644 61.7006 94.155 61.6244 94.155 61.3934V60.6313C94.155 60.5851 94.1331 60.5583 94.0893 60.5509C94.0675 60.5357 94.0346 60.559 93.9909 60.6209C93.1593 61.8894 92.1089 62.7515 90.8397 63.2071C89.4392 63.7099 88.3232 63.6255 87.4917 62.954C86.6601 62.2594 86.2444 61.1269 86.2444 59.5564V52.0735C86.2444 50.4568 86.6601 49.0258 87.4917 47.7804C88.3232 46.5118 89.4392 45.6262 90.8397 45.1234C92.1308 44.66 93.1812 44.7794 93.9909 45.4819C94.0346 45.5124 94.0675 45.5121 94.0893 45.4812C94.1331 45.4424 94.155 45.3999 94.155 45.3537V37.8361ZM91.3978 60.8589C92.2074 60.5683 92.8639 60.0324 93.3672 59.2512C93.8924 58.4391 94.155 57.5481 94.155 56.578V49.4069C94.155 48.4138 93.8924 47.7113 93.3672 47.2994C92.8639 46.8565 92.2074 46.7803 91.3978 47.071C90.5662 47.3695 89.8769 47.9288 89.3298 48.7487C88.8046 49.5377 88.5421 50.4288 88.5421 51.4219V58.593C88.5421 59.563 88.8046 60.2655 89.3298 60.7006C89.8769 61.1047 90.5662 61.1575 91.3978 60.8589Z" fill="#001D30"/>
</svg>
