<svg width="159" height="120" viewBox="0 0 159 120" fill="none" xmlns="http://www.w3.org/2000/svg">
<path d="M124.119 102.817C131.678 94.5882 136.13 84.5664 136.635 74.6029C137.261 62.4017 131.635 49.9965 121.95 42.2305C121.763 42.0832 121.533 42.0024 121.295 42.0009H37.6952C37.4574 42.0024 37.2269 42.0832 37.0401 42.2305C27.3553 49.9965 21.7286 62.4017 22.3546 74.6029C22.8678 84.5664 27.3116 94.5882 34.8745 102.817C42.1972 110.791 49.9822 115.281 58.6733 116.552C59.9494 116.742 61.2375 116.84 62.5276 116.844C66.4437 116.844 69.6829 115.882 72.1468 113.983C75.6954 111.254 77.3914 106.436 76.274 102.267C75.8492 100.724 75.0706 99.3024 74.0003 98.1142C72.9299 96.926 71.5974 96.0045 70.1087 95.4228C69.0167 94.9777 67.8628 94.7036 66.6875 94.6101C65.2269 93.8177 64.0784 92.552 63.4302 91.0205C63.4173 90.9884 63.3951 90.961 63.3666 90.9415C63.3382 90.9221 63.3045 90.9115 63.27 90.9111C63.2353 90.9123 63.2016 90.9236 63.1731 90.9436C63.1446 90.9637 63.1227 90.9917 63.1099 91.0241C62.4839 92.6859 61.5558 94.8652 60.2492 96.2719C59.202 97.0015 58.333 97.9587 57.7072 99.0719C57.0814 100.185 56.7149 101.426 56.6352 102.7C56.5731 104.093 56.8918 105.475 57.5569 106.699C58.2221 107.924 59.2083 108.943 60.4094 109.647C61.3902 110.183 62.4858 110.476 63.6034 110.498C64.721 110.521 65.8276 110.274 66.8295 109.778C68.3763 109.02 69.4208 107.81 69.6174 106.545C69.6237 106.507 69.6171 106.468 69.5986 106.435C69.5801 106.401 69.5508 106.374 69.5155 106.359C69.4801 106.344 69.4406 106.34 69.403 106.349C69.3655 106.359 69.3321 106.38 69.308 106.41C68.9274 106.891 68.4535 107.289 67.9149 107.581C67.3763 107.873 66.7842 108.052 66.1744 108.109C64.6406 108.499 63.0193 108.351 61.5813 107.69C60.7402 107.289 59.9902 106.72 59.3779 106.017C58.7656 105.314 58.3041 104.493 58.0219 103.604C58.3648 104.438 58.8757 105.192 59.5225 105.819C60.1694 106.446 60.9384 106.932 61.7815 107.249C62.3469 107.451 62.9394 107.568 63.5394 107.595C62.9212 107.257 62.3893 106.78 61.9853 106.203C61.5844 105.617 61.3222 104.947 61.2188 104.244C61.1153 103.541 61.1734 102.824 61.3884 102.147C61.6404 101.404 62.0652 100.732 62.6278 100.186C63.1904 99.6409 63.8747 99.2372 64.6239 99.0088C65.598 98.7163 66.6267 98.655 67.6286 98.8295C68.6305 99.0041 69.5781 99.4099 70.3962 100.015C71.0088 100.456 71.5522 100.987 72.0085 101.589C71.7497 100.956 71.4188 100.356 71.0222 99.7996C70.2485 98.7204 69.2657 97.8082 68.1324 97.1174C66.9617 96.4001 65.6685 95.9059 64.3182 95.6597C65.6974 95.8036 67.0384 96.2001 68.2744 96.8295C69.5099 97.4569 70.6085 98.3241 71.5063 99.3805C72.4047 100.438 73.0562 101.683 73.4134 103.025C73.6973 104.11 73.7665 105.24 73.6172 106.352C73.619 106.367 73.619 106.381 73.6172 106.396C73.6111 107.634 73.3077 108.853 72.7326 109.95C72.1575 111.047 71.3274 111.989 70.3125 112.697C66.8331 115.015 62.2219 114.934 58.9681 114.461C50.7719 113.262 43.391 108.994 36.4031 101.378C29.1714 93.5095 24.9205 83.9542 24.4364 74.4753C24.2757 71.1693 24.5796 67.8571 25.339 64.6357H133.64C134.4 67.857 134.704 71.1693 134.543 74.4753C134.059 83.9505 129.811 93.5095 122.576 101.378C115.592 108.983 108.211 113.262 100.011 114.461C96.7572 114.934 92.146 115.015 88.6666 112.697C87.6516 111.988 86.8214 111.046 86.2457 109.95C85.67 108.853 85.3656 107.635 85.3583 106.396C85.3583 106.396 85.3583 106.367 85.3583 106.352C85.2089 105.24 85.2782 104.11 85.5621 103.025C85.9193 101.683 86.5708 100.438 87.4692 99.3805C88.3669 98.3241 89.4655 97.4569 90.7011 96.8295C91.9371 96.2001 93.2781 95.8036 94.6572 95.6597C93.3069 95.9059 92.0138 96.4001 90.843 97.1174C89.7097 97.8082 88.727 98.7204 87.9532 99.7996C87.5567 100.356 87.2257 100.956 86.9669 101.589C87.4277 100.986 87.9761 100.455 88.5938 100.015C89.4116 99.4063 90.3598 98.9973 91.3631 98.8201C92.3664 98.643 93.3971 98.7026 94.3733 98.9942C95.1226 99.2226 95.8068 99.6263 96.3695 100.172C96.9321 100.718 97.3569 101.389 97.6089 102.132C97.8239 102.809 97.8819 103.526 97.7785 104.229C97.6751 104.932 97.4129 105.602 97.012 106.188C96.608 106.766 96.0761 107.242 95.4579 107.58C96.0579 107.553 96.6504 107.437 97.2158 107.234C98.0589 106.918 98.8279 106.431 99.4748 105.804C100.122 105.177 100.632 104.423 100.975 103.59C100.694 104.478 100.233 105.299 99.621 106.002C99.0093 106.705 98.2601 107.274 97.4196 107.675C95.9844 108.338 94.3651 108.486 92.8338 108.094C92.2223 108.04 91.6283 107.862 91.0881 107.57C90.548 107.278 90.0732 106.878 89.6929 106.396C89.6689 106.366 89.6354 106.344 89.5979 106.335C89.5604 106.326 89.5208 106.329 89.4855 106.345C89.4505 106.36 89.4216 106.387 89.4032 106.42C89.3848 106.454 89.3779 106.493 89.3836 106.531C89.5801 107.795 90.6246 109.005 92.1714 109.763C93.1733 110.259 94.2799 110.507 95.3975 110.484C96.5151 110.461 97.6107 110.169 98.5915 109.632C99.7926 108.928 100.779 107.909 101.444 106.685C102.109 105.461 102.428 104.078 102.366 102.686C102.286 101.411 101.92 100.171 101.294 99.0573C100.668 97.9441 99.7989 96.9869 98.7517 96.2573C97.4451 94.8543 96.517 92.6713 95.891 91.0095C95.8783 90.9771 95.8563 90.9491 95.8278 90.9291C95.7994 90.909 95.7657 90.8977 95.7309 90.8966C95.6955 90.8951 95.6607 90.9049 95.6312 90.9246C95.6018 90.9442 95.5794 90.9727 95.5671 91.0059C94.9189 92.5375 93.7704 93.8032 92.3097 94.5955C91.1345 94.689 89.9806 94.9631 88.8886 95.4082C87.3961 95.9911 86.0605 96.9156 84.9887 98.1078C83.9169 99.3 83.1386 100.727 82.716 102.274C81.5986 106.443 83.2947 111.261 86.8432 113.991C89.3071 115.889 92.5463 116.851 96.4624 116.851C97.7525 116.847 99.0406 116.75 100.317 116.56C109.008 115.281 116.793 110.791 124.119 102.817ZM25.8012 62.9156C27.8948 55.5499 32.1717 48.994 38.0664 44.1146H120.924C126.818 48.994 131.095 55.5499 133.189 62.9156H25.8012Z" fill="#85887C"/>
<path d="M32.3524 37.6788H126.641C130.561 37.6788 134.346 36.8515 137.291 35.35C140.235 33.8486 142.291 31.3413 142.804 28.6299C143.416 25.3938 141.713 21.7714 138.768 20.0221C135.998 18.3785 132.275 18.3566 129.287 19.9601C127.876 20.7605 126.643 21.8417 125.665 23.1372C124.686 24.4327 123.983 25.915 123.599 27.4929C123.159 29.2812 123.075 31.1386 123.351 32.9594L123.369 33.1088H125.491L125.458 32.9047C125.179 31.2776 125.237 29.6104 125.63 28.0068C125.941 26.7111 126.514 25.493 127.313 24.4275C128.112 23.362 129.121 22.4717 130.277 21.8114C132.636 20.5469 135.547 20.5505 137.702 21.8297C139.922 23.1453 141.203 25.8384 140.748 28.2436C140.355 30.3209 138.706 32.2815 136.341 33.4878C133.724 34.818 130.186 35.5833 126.641 35.5833H32.3524C28.8038 35.5833 25.2662 34.818 22.6494 33.4842C20.2837 32.2779 18.6459 30.3173 18.242 28.24C17.787 25.8384 19.0681 23.138 21.2882 21.826C23.4428 20.5469 26.3581 20.5432 28.7128 21.8078C29.8692 22.4677 30.8782 23.3579 31.6775 24.4234C32.4769 25.489 33.0497 26.7073 33.3605 28.0031C33.7527 29.6067 33.8109 31.274 33.5316 32.9011L33.4988 33.1051H35.6206L35.6388 32.9557C35.9153 31.135 35.8313 29.2775 35.3914 27.4893C35.0074 25.9111 34.3046 24.4286 33.3262 23.133C32.3478 21.8374 31.1146 20.7563 29.7028 19.9565C26.7147 18.353 22.9915 18.3749 20.2401 20.0184C17.2593 21.7714 15.5742 25.3792 16.1856 28.6299C16.6988 31.3413 18.7624 33.8559 21.6995 35.35C24.6366 36.8442 28.429 37.6788 32.3524 37.6788Z" fill="#85887C"/>
<path d="M20.1709 56.3923C20.607 56.2297 20.9957 55.9604 21.3014 55.6091C21.6071 55.2578 21.8203 54.8355 21.9215 54.3806C22.1897 53.1133 22.5785 51.8747 23.0825 50.6816C23.2859 50.2148 23.5131 49.7586 23.7631 49.315C20.3251 51.5834 17.0198 54.0474 13.8636 56.6947C17.9187 52.5249 22.3 48.6861 26.9659 45.2152H26.9877C27.2971 44.92 27.6173 44.6321 27.9558 44.3515C28.4071 43.987 28.8148 43.6226 29.1933 43.2582C30.5704 42.0034 31.7923 40.5878 32.8328 39.0417L33.0111 38.7684H30.4634L30.4125 38.8376C29.6231 39.8731 28.7425 40.8354 27.7811 41.713C25.4264 43.8996 22.9187 45.5067 20.5021 47.0811C18.0127 48.6955 15.4395 50.3609 13.0666 52.5985C8.85565 56.5745 5.5728 62.256 3.3163 69.4935L2.95235 70.6269L3.61474 69.643C7.66506 63.6483 13.4388 59.0273 20.1709 56.3923Z" fill="#85887C"/>
<path d="M128.574 38.8376L128.523 38.7684H125.975L126.154 39.0417C127.193 40.5888 128.415 42.0045 129.793 43.2582C130.175 43.6226 130.583 43.9652 131.034 44.3515C131.369 44.6321 131.689 44.92 131.999 45.2152H132.02C136.686 48.6861 141.068 52.5249 145.123 56.6947C141.967 54.0474 138.661 51.5834 135.223 49.315C135.473 49.7586 135.7 50.2148 135.904 50.6816C136.413 51.8737 136.806 53.1125 137.076 54.3806C137.176 54.8348 137.388 55.2567 137.692 55.6081C137.997 55.9594 138.384 56.2289 138.819 56.3923C145.546 59.0299 151.314 63.6506 155.361 69.643L156.023 70.6269L155.659 69.4935C153.403 62.256 150.12 56.5745 145.909 52.5985C143.55 50.3646 141.003 48.7028 138.495 47.0811C136.068 45.5067 133.56 43.8814 131.216 41.713C130.251 40.8359 129.367 39.8735 128.574 38.8376Z" fill="#85887C"/>
<path d="M3.03606 81.2938C5.13589 73.8683 9.87486 67.4679 16.3603 63.2982C16.7582 62.9654 17.1647 62.6423 17.5796 62.3288L18.6023 61.5562L17.4085 62.0264C14.9504 63.0325 12.6839 64.4552 10.7082 66.2319C8.46348 68.2783 6.40959 70.5252 4.57193 72.9447C3.29975 74.467 2.19202 76.1197 1.26725 77.8755C0.332947 79.664 -0.0985378 81.6731 0.0189007 83.6881C0.084412 84.4534 0.357375 85.8273 1.43467 86.4214C1.74564 86.5927 2.09515 86.6818 2.4501 86.6801C2.96409 86.6519 3.4638 86.5004 3.90715 86.2385C4.3505 85.9766 4.72453 85.6118 4.99776 85.175C5.63831 84.1728 5.82029 82.9884 5.99862 81.8186L6.06414 81.3849C6.77699 77.0004 8.46894 72.8334 11.0139 69.1947C7.43106 72.5347 4.69602 76.6826 3.03606 81.2938Z" fill="#85887C"/>
<path d="M154.414 72.9447C152.578 70.5254 150.525 68.2785 148.282 66.2319C146.307 64.4555 144.042 63.0329 141.585 62.0264L140.391 61.5562L141.414 62.3288C141.833 62.6423 142.237 62.9666 142.633 63.2982C149.119 67.4679 153.858 73.8683 155.958 81.2938C154.301 76.6803 151.57 72.5288 147.991 69.1838C150.533 72.8236 152.223 76.9902 152.937 81.374L153.002 81.8077C153.181 82.9666 153.366 84.1619 154.003 85.1641C154.276 85.6009 154.65 85.9657 155.094 86.2276C155.537 86.4895 156.037 86.6409 156.551 86.6692C156.906 86.6709 157.255 86.5818 157.566 86.4104C158.658 85.8164 158.917 84.4425 158.982 83.6772C159.096 81.6655 158.664 79.6604 157.73 77.8755C156.801 76.1195 155.69 74.4668 154.414 72.9447Z" fill="#85887C"/>
<path d="M14.2276 94.9855C12.6808 89.6429 12.2877 84.6028 13.0593 80.011C13.1212 79.6284 13.1976 79.2494 13.2813 78.874C11.5249 82.801 10.6099 87.053 10.5953 91.3558C10.1664 84.1013 12.2545 76.9212 16.5059 71.0314C17.115 70.0924 17.8017 69.2062 18.5586 68.382L18.3147 68.1342L17.1428 69.1801C13.4771 72.451 10.7884 76.6751 9.37496 81.3835C7.96155 86.0918 7.8788 91.1002 9.13589 95.8528C9.41977 96.9279 9.79828 98.0394 10.6244 98.8047C11.146 99.2869 11.8255 99.5616 12.5352 99.5773C12.9989 99.5853 13.4509 99.4306 13.8127 99.14C14.0948 98.8853 14.3159 98.5702 14.4596 98.2181C14.6032 97.8661 14.6658 97.4861 14.6425 97.1065C14.6098 96.4347 14.4874 95.7704 14.2785 95.1312L14.2276 94.9855Z" fill="#85887C"/>
<path d="M141.847 69.1765L140.675 68.1306L140.431 68.3784C141.188 69.2046 141.874 70.0919 142.484 71.0314C146.735 76.9229 148.823 84.1038 148.395 91.3594C148.38 87.0566 147.465 82.8046 145.709 78.8776C145.792 79.2421 145.869 79.632 145.931 80.0147C146.702 84.6065 146.295 89.6466 144.762 94.9891L144.719 95.1276C144.51 95.7668 144.387 96.4311 144.355 97.1028C144.332 97.4824 144.394 97.8624 144.538 98.2145C144.681 98.5666 144.903 98.8817 145.185 99.1363C145.546 99.4269 145.998 99.5816 146.462 99.5737C147.172 99.558 147.851 99.2832 148.373 98.8011C149.199 98.0248 149.578 96.9242 149.861 95.8492C151.118 91.0966 151.036 86.0882 149.622 81.3798C148.209 76.6715 145.52 72.4474 141.854 69.1765H141.847Z" fill="#85887C"/>
<path d="M28.7056 100.689C28.9962 99.5717 28.834 98.3849 28.2543 97.3871C27.7949 96.5756 27.2534 95.8135 26.6383 95.113L26.3071 94.7085C23.1676 90.7885 20.9095 86.2365 19.6868 81.3631C19.5245 86.7007 20.9441 91.967 23.7667 96.4979C19.8454 90.9282 18.12 84.1031 18.9225 77.3361C18.9243 77.3155 18.9243 77.2948 18.9225 77.2741C18.694 75.7856 18.7162 74.2692 18.9881 72.788L18.6532 72.6969C16.8953 77.8572 16.4331 83.2071 17.3139 87.7515C18.2677 92.6542 20.4761 97.225 23.7231 101.017C24.3709 101.775 25.1024 102.475 26.0706 102.595C26.1421 102.598 26.2138 102.598 26.2853 102.595C26.8352 102.564 27.3623 102.364 27.7953 102.024C28.2282 101.683 28.546 101.217 28.7056 100.689Z" fill="#85887C"/>
<path d="M140.009 72.788C140.281 74.2692 140.303 75.7856 140.075 77.2741C140.073 77.2948 140.073 77.3155 140.075 77.3361C140.877 84.1031 139.151 90.9279 135.231 96.4979C138.053 91.967 139.473 86.7007 139.31 81.3631C138.088 86.2365 135.83 90.7885 132.69 94.7085L132.359 95.113C131.744 95.8135 131.202 96.5756 130.743 97.3871C130.163 98.3849 130.001 99.5717 130.292 100.689C130.449 101.219 130.766 101.687 131.2 102.03C131.633 102.373 132.161 102.574 132.712 102.606C132.784 102.609 132.855 102.609 132.927 102.606C133.895 102.5 134.626 101.786 135.274 101.028C138.521 97.2359 140.73 92.6651 141.683 87.7625C142.564 83.218 142.091 77.8682 140.351 72.7078L140.009 72.788Z" fill="#85887C"/>
<path d="M30.791 103.076L30.6745 102.923L30.5362 103.054C29.7688 103.758 28.8421 104.264 27.8357 104.53L27.5264 104.61L27.9959 105.04C31.6754 108.415 35.4751 111.902 39.7479 114.672C44.5593 117.795 49.3271 119.548 53.942 119.891L55.3978 120L54.0111 119.552C45.0361 116.655 36.7998 110.802 30.791 103.076Z" fill="#85887C"/>
<path d="M128.454 103.054L128.315 102.923L128.199 103.076C122.19 110.802 113.954 116.655 105.001 119.552L103.614 120L105.07 119.891C109.667 119.548 114.434 117.795 119.246 114.672C123.515 111.906 127.318 108.415 130.998 105.04L131.467 104.61L131.158 104.53C130.15 104.265 129.222 103.758 128.454 103.054Z" fill="#85887C"/>
<path d="M31.0421 17.6132C45.1001 7.30571 62.0711 1.74918 79.495 1.74918C96.9189 1.74918 113.89 7.30571 127.948 17.6132C128.096 17.7251 128.276 17.7853 128.461 17.7845C128.645 17.784 128.824 17.7255 128.972 17.6174C129.121 17.5094 129.231 17.3571 129.289 17.1824C129.346 17.0077 129.347 16.8193 129.291 16.6441C129.235 16.4689 129.126 16.3158 128.978 16.2065C114.622 5.67665 97.2901 0 79.495 0C61.6999 0 44.3676 5.67665 30.0122 16.2065C29.8259 16.3433 29.7014 16.5485 29.6663 16.7771C29.6311 17.0058 29.6881 17.239 29.8247 17.4255C29.9613 17.6121 30.1663 17.7366 30.3946 17.7718C30.6229 17.807 30.8558 17.75 31.0421 17.6132Z" fill="#85887C"/>
<path d="M122.263 23.138C122.533 22.7083 122.705 22.2245 122.768 21.7207C122.831 21.217 122.783 20.7056 122.627 20.2225C122.497 19.8191 122.28 19.4492 121.992 19.1393C121.703 18.8294 121.349 18.587 120.956 18.4295C120.628 18.2975 120.274 18.2395 119.921 18.2597C119.567 18.2798 119.222 18.3776 118.911 18.5461C118.649 18.688 118.421 18.8859 118.243 19.1258C118.066 19.3658 117.943 19.6419 117.885 19.9346C117.834 20.1836 117.838 20.4406 117.898 20.6876C117.958 20.9345 118.071 21.1652 118.23 21.3632C118.438 21.6226 118.726 21.8058 119.049 21.8843C119.184 21.9161 119.327 21.8928 119.445 21.8197C119.563 21.7466 119.647 21.6296 119.679 21.4944C119.696 21.4274 119.699 21.3576 119.688 21.2894C119.677 21.2211 119.653 21.1557 119.617 21.0969C119.581 21.0381 119.533 20.9873 119.477 20.9472C119.421 20.9072 119.357 20.8789 119.289 20.8639C119.194 20.8385 119.109 20.7837 119.046 20.7072C118.982 20.6292 118.937 20.5379 118.914 20.4401C118.891 20.3424 118.89 20.2406 118.911 20.1424C118.939 20.0001 118.999 19.8659 119.085 19.7494C119.171 19.6328 119.282 19.5368 119.41 19.4682C119.586 19.3723 119.781 19.3168 119.981 19.3054C120.181 19.2941 120.381 19.3273 120.567 19.4026C120.817 19.5021 121.043 19.656 121.226 19.8533C121.41 20.0505 121.548 20.2862 121.63 20.5432C121.74 20.8824 121.774 21.2417 121.73 21.5957C121.686 21.9497 121.565 22.2896 121.375 22.5913C121.128 22.9861 120.797 23.3214 120.406 23.5733C120.014 23.8253 119.572 23.9877 119.111 24.0491C118.366 24.1404 117.612 23.9662 116.982 23.5571C105.783 16.4059 92.7773 12.6068 79.495 12.6068C66.2127 12.6068 53.2068 16.4059 42.008 23.5571C41.3762 23.9577 40.6241 24.1241 39.8825 24.0272C39.4213 23.9659 38.9793 23.8034 38.588 23.5515C38.1967 23.2995 37.8658 22.9642 37.6187 22.5695C37.4288 22.2677 37.3075 21.9278 37.2635 21.5738C37.2195 21.2199 37.2538 20.8605 37.364 20.5214C37.4457 20.2643 37.5835 20.0287 37.7673 19.8314C37.9511 19.6341 38.1763 19.4802 38.4267 19.3807C38.6125 19.3054 38.8126 19.2722 39.0127 19.2836C39.2128 19.2949 39.408 19.3505 39.5841 19.4463C39.7117 19.5149 39.8225 19.611 39.9087 19.7275C39.9949 19.8441 40.0543 19.9783 40.0827 20.1205C40.104 20.2187 40.1029 20.3205 40.0796 20.4183C40.0563 20.5161 40.0113 20.6073 39.948 20.6854C39.8851 20.7618 39.7998 20.8166 39.7042 20.8421C39.6368 20.857 39.5731 20.8854 39.5169 20.9254C39.4606 20.9654 39.413 21.0163 39.3767 21.075C39.3404 21.1338 39.3162 21.1992 39.3056 21.2675C39.2949 21.3358 39.298 21.4055 39.3148 21.4725C39.3468 21.6078 39.431 21.7248 39.549 21.7979C39.6671 21.871 39.8093 21.8942 39.9444 21.8625C40.2677 21.7849 40.5559 21.6015 40.7633 21.3413C40.9223 21.1433 41.0357 20.9126 41.0955 20.6657C41.1552 20.4188 41.1599 20.1617 41.109 19.9128C41.0502 19.6201 40.9278 19.3439 40.7504 19.104C40.573 18.864 40.3451 18.6661 40.0827 18.5243C39.7712 18.3558 39.4265 18.258 39.073 18.2378C38.7195 18.2177 38.3659 18.2756 38.0373 18.4077C37.6443 18.5652 37.2909 18.8075 37.0021 19.1174C36.7134 19.4273 36.4964 19.7972 36.3667 20.2007C36.2114 20.6838 36.1635 21.1951 36.2264 21.6987C36.2893 22.2024 36.4614 22.6861 36.7307 23.1161C37.0592 23.6403 37.4994 24.0853 38.0197 24.4192C38.5401 24.7531 39.1277 24.9677 39.7406 25.0476C40.7275 25.1775 41.7285 24.9556 42.5685 24.4208C53.6011 17.3761 66.4137 13.6335 79.4986 13.6335C92.5836 13.6335 105.396 17.3761 116.429 24.4208C117.107 24.8548 117.895 25.085 118.7 25.084C118.886 25.0847 119.072 25.0725 119.257 25.0476C119.867 24.9692 120.452 24.7575 120.972 24.4275C121.491 24.0975 121.932 23.6573 122.263 23.138Z" fill="#85887C"/>
<path d="M120.818 34.0818L120.745 33.4951C120.576 32.0801 120.576 30.6499 120.745 29.2349L120.785 28.9361L120.541 28.7538C108.689 19.8795 94.2872 15.084 79.4877 15.084C64.6883 15.084 50.2862 19.8795 38.434 28.7538L38.1901 28.9361L38.2302 29.2349C38.3994 30.6511 38.3994 32.0825 38.2302 33.4987L38.161 34.0818H61.7706C63.4965 34.0799 65.1514 33.393 66.3725 32.1716C67.5936 30.9503 68.2814 29.294 68.2853 27.5658C68.2851 26.5918 68.0707 25.6298 67.6575 24.748C67.2442 23.8662 66.6422 23.0864 65.8941 22.4638C65.2838 21.953 64.5684 21.5834 63.799 21.3812C63.0296 21.179 62.2252 21.1492 61.443 21.294C60.8028 21.411 60.1962 21.6676 59.666 22.0454C59.1358 22.4233 58.695 22.9132 58.3749 23.4805C58.2793 23.6505 58.199 23.8285 58.1347 24.0126C57.829 24.5957 57.5633 25.1679 57.3085 25.7218C56.2531 28.0141 55.5652 29.3005 53.7964 29.1219C53.5274 29.0954 53.2676 29.0098 53.0355 28.8712C52.8034 28.7326 52.6046 28.5445 52.4534 28.3202C52.3419 28.1527 52.2682 27.963 52.2374 27.7641C52.2066 27.5652 52.2194 27.362 52.2751 27.1686C52.3147 27.0289 52.3849 26.8999 52.4806 26.7908C52.5763 26.6818 52.6951 26.5954 52.8283 26.5381C52.9193 26.495 53.0187 26.4726 53.1194 26.4726C53.2201 26.4726 53.3196 26.495 53.4106 26.5381C53.4811 26.5714 53.5414 26.623 53.5853 26.6875C53.6668 26.791 53.7843 26.86 53.9143 26.8807C54.0444 26.9015 54.1774 26.8724 54.287 26.7994C54.3967 26.7264 54.4748 26.6147 54.506 26.4866C54.5371 26.3585 54.519 26.2234 54.4551 26.1081C54.3111 25.8908 54.1129 25.7149 53.8801 25.5979C53.6546 25.4864 53.4076 25.4253 53.1562 25.4191C52.9048 25.4128 52.655 25.4613 52.4243 25.5614C52.1504 25.6809 51.9063 25.8594 51.7093 26.0843C51.5124 26.3092 51.3675 26.575 51.2851 26.8625C51.1847 27.2032 51.161 27.562 51.2157 27.913C51.2705 28.264 51.4023 28.5985 51.6018 28.8923C51.8379 29.2445 52.149 29.5398 52.5128 29.7572C52.8765 29.9746 53.2838 30.1086 53.7054 30.1496C53.8503 30.1668 53.9962 30.1753 54.1421 30.1751C56.2967 30.1751 57.2212 28.4149 58.1238 26.4689C58.1238 26.5017 58.1238 26.5345 58.1565 26.5673C58.3132 26.9838 58.5599 27.3605 58.8788 27.6704C59.1978 27.9804 59.5813 28.216 60.0018 28.3603C60.5609 28.5537 61.17 28.5447 61.7233 28.335C62.2765 28.1253 62.7388 27.728 63.0298 27.2123C63.1845 26.9412 63.2771 26.639 63.301 26.3277C63.3249 26.0164 63.2795 25.7036 63.1681 25.412C63.0599 25.1293 62.8822 24.8786 62.6513 24.6832C62.6002 24.6323 62.5392 24.5925 62.472 24.5662C62.4049 24.54 62.333 24.528 62.261 24.5308C62.189 24.5337 62.1183 24.5514 62.0534 24.5828C61.9886 24.6142 61.9308 24.6587 61.8839 24.7135C61.837 24.7683 61.8018 24.8322 61.7807 24.9012C61.7595 24.9702 61.7528 25.0428 61.761 25.1145C61.7691 25.1862 61.792 25.2555 61.828 25.318C61.8641 25.3804 61.9127 25.4348 61.9707 25.4776C62.0692 25.5616 62.1444 25.6695 62.1891 25.791C62.245 25.9399 62.2678 26.0992 62.2558 26.2579C62.2439 26.4165 62.1975 26.5706 62.12 26.7094C61.9486 27.0112 61.6773 27.2435 61.3529 27.3659C61.0285 27.4884 60.6715 27.4934 60.3439 27.3799C60.0682 27.2855 59.8167 27.1314 59.6072 26.9286C59.3977 26.7257 59.2355 26.4792 59.1319 26.2065C58.9963 25.848 58.941 25.464 58.9699 25.0818C58.9988 24.6995 59.1113 24.3283 59.2993 23.9944C59.5438 23.5596 59.8809 23.184 60.2866 22.8943C60.6923 22.6046 61.1567 22.4078 61.6468 22.318C62.2781 22.2013 62.9272 22.2254 63.5481 22.3886C64.169 22.5517 64.7463 22.8499 65.239 23.2619C65.8675 23.7884 66.3726 24.4469 66.7185 25.1907C67.0644 25.9344 67.2427 26.7453 67.2408 27.5658C67.236 29.0141 66.6592 30.4017 65.6365 31.4259C64.6137 32.45 63.2279 33.0275 61.7815 33.0323H39.3439C39.45 31.8253 39.4378 30.6108 39.3075 29.4062C50.936 20.7819 65.0241 16.1266 79.495 16.1266C93.9659 16.1266 108.054 20.7819 119.683 29.4062C119.552 30.6108 119.54 31.8253 119.646 33.0323H97.2195C95.773 33.0275 94.3872 32.45 93.3645 31.4259C92.3417 30.4017 91.765 29.0141 91.7602 27.5658C91.7589 26.7429 91.9389 25.9299 92.2875 25.1847C92.636 24.4395 93.1444 23.7805 93.7765 23.2546C94.2692 22.8426 94.8465 22.5444 95.4674 22.3813C96.0883 22.2181 96.7374 22.194 97.3687 22.3107C97.8588 22.4006 98.3232 22.5973 98.7289 22.887C99.1346 23.1767 99.4717 23.5523 99.7162 23.9871C99.9042 24.321 100.017 24.6922 100.046 25.0745C100.075 25.4568 100.019 25.8407 99.8836 26.1992C99.78 26.4719 99.6178 26.7185 99.4083 26.9213C99.1988 27.1241 98.9473 27.2782 98.6716 27.3727C98.344 27.4861 97.987 27.4811 97.6626 27.3586C97.3382 27.2362 97.0668 27.0039 96.8955 26.7021C96.818 26.5633 96.7716 26.4092 96.7597 26.2506C96.7477 26.0919 96.7705 25.9326 96.8264 25.7837C96.8711 25.6622 96.9463 25.5543 97.0447 25.4703C97.1028 25.4275 97.1513 25.3732 97.1874 25.3107C97.2235 25.2482 97.2464 25.1789 97.2545 25.1072C97.2627 25.0355 97.256 24.9629 97.2348 24.8939C97.2136 24.8249 97.1785 24.761 97.1316 24.7062C97.0846 24.6515 97.0269 24.607 96.9621 24.5755C96.8972 24.5441 96.8265 24.5264 96.7545 24.5235C96.6825 24.5207 96.6106 24.5327 96.5435 24.559C96.4763 24.5852 96.4153 24.625 96.3642 24.6759C96.1333 24.8714 95.9555 25.1221 95.8473 25.4047C95.7359 25.6964 95.6906 26.0091 95.7145 26.3204C95.7384 26.6318 95.831 26.9339 95.9856 27.205C96.2793 27.7182 96.7418 28.1132 97.2941 28.3226C97.8465 28.532 98.4543 28.5427 99.0137 28.353C99.4342 28.2087 99.8176 27.9731 100.137 27.6632C100.456 27.3532 100.702 26.9765 100.859 26.56C100.859 26.5272 100.881 26.4944 100.892 26.4616C101.794 28.4076 102.711 30.1678 104.873 30.1678C105.019 30.1681 105.165 30.1596 105.31 30.1423C105.732 30.1013 106.139 29.9673 106.503 29.7499C106.866 29.5325 107.178 29.2372 107.414 28.885C107.613 28.5912 107.745 28.2569 107.801 27.906C107.856 27.5551 107.833 27.1963 107.734 26.8552C107.65 26.5677 107.505 26.3022 107.307 26.0774C107.11 25.8526 106.865 25.674 106.591 25.5541C106.36 25.4541 106.111 25.4055 105.859 25.4118C105.608 25.4181 105.361 25.4791 105.135 25.5906C104.903 25.7075 104.704 25.8834 104.56 26.1008C104.516 26.1577 104.483 26.2233 104.465 26.2934C104.446 26.3636 104.443 26.4368 104.454 26.5084C104.466 26.5799 104.492 26.6484 104.531 26.7094C104.57 26.7704 104.621 26.8226 104.682 26.8628C104.742 26.9029 104.81 26.9301 104.881 26.9427C104.952 26.9552 105.025 26.9529 105.096 26.9357C105.166 26.9186 105.232 26.887 105.29 26.8431C105.347 26.7991 105.395 26.7436 105.43 26.6802C105.474 26.6167 105.532 26.5652 105.601 26.5308C105.693 26.4869 105.793 26.4641 105.894 26.4641C105.996 26.4641 106.096 26.4869 106.187 26.5308C106.32 26.5881 106.439 26.6745 106.535 26.7835C106.631 26.8926 106.701 27.0216 106.74 27.1613C106.797 27.3546 106.81 27.558 106.78 27.757C106.749 27.9561 106.675 28.1459 106.562 28.3129C106.411 28.5372 106.212 28.7253 105.98 28.8639C105.748 29.0025 105.488 29.0881 105.219 29.1146C103.439 29.2969 102.762 28.0213 101.707 25.7145C101.452 25.1606 101.187 24.5884 100.881 24.0053C100.816 23.8215 100.735 23.6435 100.641 23.4733C100.32 22.9059 99.8797 22.416 99.3495 22.0381C98.8193 21.6603 98.2127 21.4037 97.5725 21.2867C96.7903 21.1422 95.9859 21.1721 95.2166 21.3742C94.4472 21.5764 93.7318 21.946 93.1214 22.4565C92.3733 23.0791 91.7713 23.859 91.358 24.7407C90.9448 25.6225 90.7304 26.5845 90.7302 27.5585C90.7321 29.288 91.4191 30.9461 92.6404 32.1691C93.8618 33.392 95.5177 34.0799 97.2449 34.0818H120.818Z" fill="#85887C"/>
<path d="M94.9302 19.7233C94.9611 19.5948 94.9402 19.4593 94.8721 19.346C94.804 19.2328 94.6941 19.151 94.5662 19.1183C84.6586 16.8292 74.3605 16.8292 64.4529 19.1183C64.3334 19.1476 64.2286 19.2195 64.1582 19.3205C64.0878 19.4216 64.0566 19.5449 64.0705 19.6673C64.0843 19.7897 64.1422 19.9029 64.2334 19.9856C64.3245 20.0684 64.4427 20.115 64.5657 20.1168C64.6043 20.1222 64.6435 20.1222 64.6822 20.1168C74.4391 17.8646 84.58 17.8646 94.3369 20.1168C94.4017 20.1301 94.4685 20.1305 94.5334 20.1179C94.5983 20.1053 94.6601 20.08 94.7152 20.0434C94.7703 20.0068 94.8177 19.9597 94.8546 19.9048C94.8915 19.8499 94.9172 19.7882 94.9302 19.7233Z" fill="#85887C"/>
<path d="M66.6803 33.0541C66.5461 33.0541 66.4174 33.1075 66.3225 33.2025C66.2277 33.2975 66.1744 33.4263 66.1744 33.5607C66.1744 33.695 66.2277 33.8239 66.3225 33.9189C66.4174 34.0139 66.5461 34.0672 66.6803 34.0672H92.3097C92.4439 34.0672 92.5726 34.0139 92.6674 33.9189C92.7623 33.8239 92.8156 33.695 92.8156 33.5607C92.8156 33.4263 92.7623 33.2975 92.6674 33.2025C92.5726 33.1075 92.4439 33.0541 92.3097 33.0541H66.6803Z" fill="#85887C"/>
<path d="M47.6784 95.8419C47.6627 95.8011 47.6325 95.7677 47.5935 95.7481C47.5545 95.7286 47.5097 95.7243 47.4677 95.7362C47.4258 95.7481 47.3898 95.7752 47.3668 95.8123C47.3438 95.8494 47.3355 95.8937 47.3435 95.9366C47.7293 97.4308 48.843 98.3054 50.1751 98.1669C50.8746 98.0697 51.5318 97.774 52.069 97.3149C52.6062 96.8558 53.001 96.2524 53.2068 95.5759C54.0439 92.8572 52.0858 90.3864 49.7056 89.57C49.0073 89.3268 48.266 89.232 47.5291 89.2916C46.7922 89.3512 46.0758 89.564 45.4255 89.9162C44.6328 90.3519 43.9349 90.9415 43.3725 91.6505C42.8101 92.3594 42.3944 93.1735 42.1499 94.0452C41.9688 94.6907 41.8601 95.3545 41.826 96.0241C38.9936 94.2986 36.4714 92.1082 34.365 89.5445C34.338 89.5144 34.3014 89.4946 34.2615 89.4884C34.2215 89.4823 34.1807 89.4902 34.1459 89.5109C34.1112 89.5315 34.0846 89.5636 34.0708 89.6016C34.057 89.6396 34.0568 89.6813 34.0702 89.7194C38.5177 100.503 48.0096 109.544 58.8189 113.309C58.8382 113.313 58.8579 113.313 58.8772 113.309C58.9169 113.308 58.9552 113.294 58.9856 113.268C59.016 113.242 59.0368 113.207 59.0444 113.168C59.052 113.129 59.0461 113.088 59.0276 113.053C59.0091 113.018 58.9791 112.99 58.9427 112.974C54.7684 111.32 51.0542 108.682 48.1151 105.284C46.9673 104.007 46.0132 102.568 45.2836 101.013C44.0498 98.2362 43.9988 95.4191 45.1525 93.4804C45.6602 92.5801 46.5027 91.9173 47.4964 91.6364C48.1917 91.4692 48.9234 91.5498 49.5657 91.8644C50.208 92.179 50.7208 92.7079 51.0158 93.3601C51.2743 93.9668 51.3028 94.6471 51.0959 95.2734C51.5091 94.943 51.8405 94.5214 52.064 94.0416C52.1784 93.7949 52.2533 93.5317 52.286 93.2617C52.3113 92.9817 52.2966 92.6994 52.2423 92.4235C52.3544 92.6903 52.4232 92.9732 52.4461 93.2617C52.4626 93.5548 52.4331 93.8487 52.3588 94.1327C52.1976 94.7022 51.9003 95.2238 51.4926 95.6524C51.0819 96.0767 50.5856 96.4084 50.0368 96.6254C49.8793 96.6843 49.7174 96.7306 49.5527 96.7639L49.4872 96.7821C49.2481 96.8365 48.9999 96.8375 48.7603 96.7853C48.5207 96.733 48.2954 96.6287 48.1005 96.4796C47.8993 96.3141 47.7523 96.0919 47.6784 95.8419Z" fill="#85887C"/>
<path d="M110.871 105.295C107.932 108.693 104.218 111.331 100.044 112.985C100.023 112.993 100.003 113.005 99.987 113.021C99.9706 113.036 99.9575 113.055 99.9484 113.075C99.9392 113.096 99.9343 113.118 99.9338 113.141C99.9333 113.163 99.9372 113.186 99.9454 113.207C99.9585 113.24 99.981 113.268 100.01 113.288C100.039 113.309 100.074 113.32 100.109 113.32C100.128 113.323 100.148 113.323 100.167 113.32C110.995 109.555 120.483 100.514 124.916 89.7304C124.93 89.6922 124.929 89.6506 124.916 89.6125C124.902 89.5745 124.875 89.5424 124.84 89.5218C124.806 89.5012 124.765 89.4933 124.725 89.4994C124.685 89.5055 124.648 89.5253 124.621 89.5555C122.517 92.1185 119.997 94.3089 117.168 96.035C117.135 95.3652 117.027 94.7013 116.844 94.0562C116.597 93.1829 116.179 92.3679 115.613 91.6588C115.047 90.9497 114.346 90.361 113.55 89.9272C112.9 89.574 112.184 89.3608 111.446 89.3012C110.709 89.2416 109.968 89.3369 109.27 89.581C106.89 90.3973 104.932 92.8608 105.769 95.5868C105.975 96.2631 106.37 96.8663 106.907 97.3253C107.444 97.7844 108.101 98.0802 108.8 98.1779C110.136 98.3164 111.246 97.449 111.632 95.9476C111.64 95.9047 111.632 95.8603 111.609 95.8232C111.586 95.7862 111.55 95.759 111.508 95.7471C111.466 95.7353 111.421 95.7395 111.382 95.7591C111.343 95.7786 111.313 95.8121 111.297 95.8528C111.216 96.1048 111.059 96.326 110.849 96.4869C110.655 96.636 110.429 96.7403 110.19 96.7926C109.95 96.8448 109.702 96.8438 109.463 96.7894L109.397 96.7712C109.233 96.7379 109.071 96.6915 108.913 96.6327C108.364 96.4157 107.868 96.084 107.457 95.6597C107.05 95.2311 106.752 94.7095 106.591 94.14C106.518 93.8557 106.489 93.5621 106.504 93.269C106.527 92.9805 106.596 92.6976 106.708 92.4308C106.653 92.7067 106.639 92.989 106.664 93.269C106.697 93.539 106.772 93.8022 106.886 94.0489C107.11 94.5287 107.441 94.9503 107.854 95.2807C107.647 94.6544 107.676 93.9741 107.934 93.3674C108.229 92.7152 108.742 92.1863 109.384 91.8717C110.027 91.5572 110.758 91.4765 111.454 91.6436C112.447 91.9246 113.29 92.5874 113.797 93.4877C114.951 95.4264 114.889 98.2435 113.666 101.02C112.949 102.575 112.007 104.015 110.871 105.295Z" fill="#85887C"/>
<path d="M90.0096 87.1721H128.461C128.58 87.1798 128.7 87.1629 128.812 87.1226C128.925 87.0822 129.028 87.0192 129.115 86.9374C129.202 86.8556 129.271 86.7567 129.319 86.647C129.366 86.5372 129.391 86.4189 129.391 86.2993C129.391 86.1797 129.366 86.0613 129.319 85.9516C129.271 85.8418 129.202 85.743 129.115 85.6612C129.028 85.5794 128.925 85.5163 128.812 85.476C128.7 85.4356 128.58 85.4187 128.461 85.4265H30.529C30.4098 85.4187 30.2902 85.4356 30.1778 85.476C30.0653 85.5163 29.9624 85.5794 29.8752 85.6612C29.7881 85.743 29.7186 85.8418 29.6711 85.9516C29.6236 86.0613 29.5991 86.1797 29.5991 86.2993C29.5991 86.4189 29.6236 86.5372 29.6711 86.647C29.7186 86.7567 29.7881 86.8556 29.8752 86.9374C29.9624 87.0192 30.0653 87.0822 30.1778 87.1226C30.2902 87.1629 30.4098 87.1798 30.529 87.1721H68.9804C74.6508 88.4731 78.0792 93.0795 79.142 100.915C79.1483 100.961 79.1725 101.002 79.2094 101.03C79.2462 101.058 79.2927 101.07 79.3385 101.064C79.3803 101.058 79.4184 101.037 79.4459 101.005C79.4733 100.973 79.4882 100.932 79.4877 100.889C79.4873 100.932 79.5021 100.973 79.5296 101.005C79.557 101.037 79.5952 101.058 79.6369 101.064H79.6624C79.7042 101.065 79.7447 101.049 79.7763 101.022C79.8078 100.994 79.8281 100.956 79.8335 100.915C80.9253 93.0795 84.3392 88.4731 90.0096 87.1721Z" fill="#85887C"/>
<path d="M73.7555 24.8563C73.7919 24.838 73.8313 24.8289 73.8738 24.8289H74.3651C74.4258 24.8289 74.4561 24.8593 74.4561 24.92V31.1154C74.4561 31.1761 74.4258 31.2065 74.3651 31.2065H73.9011C73.8404 31.2065 73.8101 31.1761 73.8101 31.1154V25.5942C73.8101 25.5821 73.804 25.573 73.7919 25.5669C73.7858 25.5608 73.7767 25.5608 73.7646 25.5669L72.9093 25.8493L72.882 25.8584C72.8396 25.8584 72.8123 25.8311 72.8001 25.7764L72.7546 25.4394V25.4211C72.7546 25.3908 72.7759 25.3604 72.8183 25.33L73.7555 24.8563Z" fill="#85887C"/>
<path d="M78.1762 29.7214C78.1762 30.1952 78.0428 30.5748 77.7759 30.8603C77.509 31.1397 77.1572 31.2793 76.7204 31.2793C76.3261 31.2793 75.9986 31.1366 75.7378 30.8511C75.483 30.5657 75.3556 30.1891 75.3556 29.7214V29.5756C75.3556 29.5149 75.3859 29.4845 75.4466 29.4845H75.9106C75.9713 29.4845 76.0016 29.5149 76.0016 29.5756V29.7032C76.0016 29.9947 76.0714 30.2346 76.2109 30.4229C76.3504 30.6052 76.5203 30.6963 76.7204 30.6963C76.9631 30.6963 77.1572 30.6052 77.3028 30.4229C77.4483 30.2407 77.5211 30.0008 77.5211 29.7032V28.4823C77.5211 28.4702 77.5151 28.4641 77.5029 28.4641C77.4969 28.458 77.4878 28.4611 77.4756 28.4732C77.3907 28.5947 77.2815 28.6889 77.1481 28.7557C77.0146 28.8164 76.866 28.8468 76.7022 28.8468C76.3322 28.8468 76.0289 28.7344 75.7924 28.5097C75.5558 28.2849 75.4041 27.9752 75.3374 27.5804C75.2889 27.3374 75.2646 27.0671 75.2646 26.7695C75.2646 26.5083 75.2768 26.2836 75.301 26.0953C75.3495 25.6641 75.4951 25.3331 75.7378 25.1023C75.9865 24.8714 76.314 24.756 76.7204 24.756C77.0965 24.756 77.4059 24.8623 77.6485 25.0749C77.8911 25.2875 78.0428 25.6003 78.1034 26.0133C78.1459 26.2077 78.1671 26.4476 78.1671 26.7331L78.1762 29.7214ZM76.7204 28.2819C77.1147 28.2819 77.3634 28.042 77.4665 27.5622C77.5029 27.3678 77.5211 27.1188 77.5211 26.8151C77.5211 26.5296 77.506 26.2927 77.4756 26.1044C77.3725 25.5821 77.1208 25.3209 76.7204 25.3209C76.5142 25.3209 76.3443 25.3908 76.2109 25.5305C76.0835 25.6702 75.9986 25.8767 75.9561 26.15C75.9258 26.3929 75.9106 26.6146 75.9106 26.8151C75.9106 27.0884 75.9379 27.3496 75.9925 27.5986C76.0411 27.8233 76.126 27.9934 76.2473 28.1088C76.3747 28.2242 76.5324 28.2819 76.7204 28.2819Z" fill="#85887C"/>
<path d="M79.6713 31.2065C79.641 31.2065 79.6168 31.1974 79.5986 31.1791C79.5864 31.1609 79.5834 31.1366 79.5895 31.1062L81.1454 25.4302C81.1514 25.4242 81.1484 25.4181 81.1363 25.412C81.1302 25.3999 81.1211 25.3938 81.109 25.3938H79.4439C79.4196 25.3938 79.4075 25.4059 79.4075 25.4302V25.8038C79.4075 25.8645 79.3772 25.8949 79.3165 25.8949H78.9616C78.901 25.8949 78.8707 25.8645 78.8707 25.8038V24.92C78.8707 24.8593 78.901 24.8289 78.9616 24.8289H81.7459C81.8065 24.8289 81.8369 24.8593 81.8369 24.92V25.3391C81.8369 25.3513 81.8308 25.3877 81.8187 25.4485L80.2719 31.1245C80.2597 31.1791 80.2264 31.2065 80.1718 31.2065H79.6713Z" fill="#85887C"/>
<path d="M85.2872 28.3912C85.3479 28.616 85.3782 28.9075 85.3782 29.2659C85.3782 29.5392 85.36 29.7913 85.3236 30.0221C85.263 30.429 85.1113 30.7418 84.8687 30.9605C84.6321 31.1731 84.3167 31.2793 83.9224 31.2793C83.5281 31.2793 83.2097 31.1731 82.967 30.9605C82.7305 30.7479 82.5788 30.429 82.5121 30.0038L82.4848 29.7305V29.7123C82.4848 29.6637 82.5121 29.6394 82.5667 29.6394H83.0307C83.0914 29.6394 83.1247 29.6698 83.1308 29.7305L83.1581 29.9492C83.2552 30.4594 83.5099 30.7145 83.9224 30.7145C84.1165 30.7145 84.2773 30.6537 84.4046 30.5323C84.532 30.4047 84.62 30.2225 84.6685 29.9856C84.711 29.7913 84.7322 29.5483 84.7322 29.2568C84.7322 28.9531 84.7049 28.6919 84.6503 28.4732C84.5411 28.0481 84.2985 27.8355 83.9224 27.8355C83.5039 27.8355 83.243 28.045 83.1399 28.4641C83.1217 28.5188 83.0883 28.5461 83.0398 28.5461H82.5667C82.506 28.5461 82.4757 28.5158 82.4757 28.455V24.92C82.4757 24.8593 82.506 24.8289 82.5667 24.8289H85.1416C85.2023 24.8289 85.2326 24.8593 85.2326 24.92V25.3027C85.2326 25.3634 85.2023 25.3938 85.1416 25.3938H83.1581C83.1338 25.3938 83.1217 25.4059 83.1217 25.4302L83.1126 27.6897C83.1126 27.7019 83.1156 27.711 83.1217 27.717C83.1338 27.7231 83.146 27.7201 83.1581 27.7079C83.2552 27.5622 83.3825 27.4528 83.5403 27.3799C83.704 27.301 83.886 27.2615 84.0862 27.2615C84.4077 27.2615 84.6715 27.3587 84.8778 27.553C85.084 27.7474 85.2205 28.0268 85.2872 28.3912Z" fill="#85887C"/>
<path d="M59.4904 49.9819C59.4904 49.8969 59.5329 49.8544 59.6178 49.8544H60.2675C60.3524 49.8544 60.3949 49.8969 60.3949 49.9819V58.6554C60.3949 58.7404 60.3524 58.7829 60.2675 58.7829H59.6178C59.5329 58.7829 59.4904 58.7404 59.4904 58.6554V54.7651C59.4904 54.7311 59.4735 54.7141 59.4395 54.7141H57.1721C57.1381 54.7141 57.1211 54.7311 57.1211 54.7651V58.6554C57.1211 58.7404 57.0787 58.7829 56.9937 58.7829H56.3441C56.2592 58.7829 56.2167 58.7404 56.2167 58.6554V49.9819C56.2167 49.8969 56.2592 49.8544 56.3441 49.8544H56.9937C57.0787 49.8544 57.1211 49.8969 57.1211 49.9819V53.8595C57.1211 53.8935 57.1381 53.9105 57.1721 53.9105H59.4395C59.4735 53.9105 59.4904 53.8935 59.4904 53.8595V49.9819Z" fill="#001D30"/>
<path d="M66.1761 50.5177C66.1761 50.6027 66.1336 50.6452 66.0487 50.6452H63.0934C63.0594 50.6452 63.0424 50.6622 63.0424 50.6962V53.8595C63.0424 53.8935 63.0594 53.9105 63.0934 53.9105H64.9532C65.0381 53.9105 65.0806 53.953 65.0806 54.0381V54.5865C65.0806 54.6716 65.0381 54.7141 64.9532 54.7141H63.0934C63.0594 54.7141 63.0424 54.7311 63.0424 54.7651V57.9411C63.0424 57.9751 63.0594 57.9921 63.0934 57.9921H66.0487C66.1336 57.9921 66.1761 58.0346 66.1761 58.1197V58.6554C66.1761 58.7404 66.1336 58.7829 66.0487 58.7829H62.2654C62.1805 58.7829 62.138 58.7404 62.138 58.6554V49.9819C62.138 49.8969 62.1805 49.8544 62.2654 49.8544H66.0487C66.1336 49.8544 66.1761 49.8969 66.1761 49.9819V50.5177Z" fill="#001D30"/>
<path d="M72.1236 58.885C71.4698 58.885 70.939 58.6809 70.5314 58.2727C70.1322 57.8646 69.9327 57.3246 69.9327 56.6528V51.9845C69.9327 51.3127 70.1322 50.7728 70.5314 50.3646C70.939 49.9564 71.4698 49.7524 72.1236 49.7524C72.786 49.7524 73.3211 49.9564 73.7287 50.3646C74.1363 50.7728 74.3401 51.3127 74.3401 51.9845V56.6528C74.3401 57.3161 74.1363 57.8561 73.7287 58.2727C73.3211 58.6809 72.786 58.885 72.1236 58.885ZM72.1236 58.0942C72.5143 58.0942 72.8285 57.9666 73.0663 57.7115C73.3126 57.4479 73.4357 57.112 73.4357 56.7039V51.9462C73.4357 51.5296 73.3126 51.1937 73.0663 50.9386C72.8285 50.675 72.5143 50.5432 72.1236 50.5432C71.7415 50.5432 71.4315 50.675 71.1938 50.9386C70.956 51.1937 70.8371 51.5296 70.8371 51.9462V56.7039C70.8371 57.112 70.956 57.4479 71.1938 57.7115C71.4315 57.9666 71.7415 58.0942 72.1236 58.0942Z" fill="#001D30"/>
<path d="M79.5253 58.7829C79.4489 58.7829 79.3979 58.7489 79.3724 58.6809L78.0731 54.7396C78.0646 54.7141 78.0477 54.7013 78.0222 54.7013H76.9139C76.88 54.7013 76.863 54.7183 76.863 54.7523V58.6554C76.863 58.7404 76.8205 58.7829 76.7356 58.7829H76.086C76.001 58.7829 75.9586 58.7404 75.9586 58.6554V49.9819C75.9586 49.8969 76.001 49.8544 76.086 49.8544H78.1878C78.8077 49.8544 79.3087 50.084 79.6909 50.5432C80.073 50.9938 80.2641 51.5848 80.2641 52.3161C80.2641 52.8688 80.1452 53.345 79.9074 53.7447C79.6697 54.1444 79.347 54.425 78.9393 54.5865C78.9054 54.595 78.8926 54.6163 78.9011 54.6503L80.2896 58.6426L80.3023 58.6937C80.3023 58.7532 80.2641 58.7829 80.1877 58.7829H79.5253ZM76.9139 50.6452C76.88 50.6452 76.863 50.6622 76.863 50.6962V53.9233C76.863 53.9573 76.88 53.9743 76.9139 53.9743H78.0604C78.451 53.9743 78.7653 53.8255 79.003 53.5279C79.2408 53.2217 79.3597 52.8178 79.3597 52.3161C79.3597 51.8144 79.2408 51.4105 79.003 51.1044C78.7653 50.7983 78.451 50.6452 78.0604 50.6452H76.9139Z" fill="#001D30"/>
<path d="M81.7336 58.7829C81.6487 58.7829 81.6062 58.7404 81.6062 58.6554V49.9819C81.6062 49.8969 81.6487 49.8544 81.7336 49.8544H82.3833C82.4682 49.8544 82.5106 49.8969 82.5106 49.9819V58.6554C82.5106 58.7404 82.4682 58.7829 82.3833 58.7829H81.7336Z" fill="#001D30"/>
<path d="M86.2919 58.885C85.638 58.885 85.1158 58.6937 84.7251 58.311C84.3345 57.9199 84.1392 57.4011 84.1392 56.7549V51.8825C84.1392 51.2362 84.3345 50.7217 84.7251 50.3391C85.1158 49.9479 85.638 49.7524 86.2919 49.7524C86.9458 49.7524 87.4681 49.9479 87.8587 50.3391C88.2579 50.7302 88.4574 51.249 88.4574 51.8952V52.4437C88.4574 52.5287 88.415 52.5712 88.3301 52.5712H87.6804C87.5955 52.5712 87.553 52.5287 87.553 52.4437V51.8697C87.553 51.47 87.4384 51.1512 87.2091 50.9131C86.9798 50.6665 86.6741 50.5432 86.2919 50.5432C85.9183 50.5432 85.6125 50.6665 85.3748 50.9131C85.1455 51.1597 85.0308 51.4785 85.0308 51.8697V56.7676C85.0308 57.1588 85.1455 57.4777 85.3748 57.7243C85.6125 57.9709 85.9183 58.0942 86.2919 58.0942C86.6741 58.0942 86.9798 57.9751 87.2091 57.737C87.4384 57.4904 87.553 57.1673 87.553 56.7676V55.135C87.553 55.101 87.536 55.084 87.5021 55.084H86.4066C86.3217 55.084 86.2792 55.0415 86.2792 54.9564V54.4207C86.2792 54.3357 86.3217 54.2932 86.4066 54.2932H88.3301C88.415 54.2932 88.4574 54.3357 88.4574 54.4207V56.7549C88.4574 57.4011 88.2579 57.9199 87.8587 58.311C87.4681 58.6937 86.9458 58.885 86.2919 58.885Z" fill="#001D30"/>
<path d="M90.2175 58.7829C90.1326 58.7829 90.0901 58.7404 90.0901 58.6554V49.9819C90.0901 49.8969 90.1326 49.8544 90.2175 49.8544H90.8672C90.9521 49.8544 90.9946 49.8969 90.9946 49.9819V58.6554C90.9946 58.7404 90.9521 58.7829 90.8672 58.7829H90.2175Z" fill="#001D30"/>
<path d="M96.3936 49.9819C96.3936 49.8969 96.4361 49.8544 96.521 49.8544H97.1579C97.2428 49.8544 97.2853 49.8969 97.2853 49.9819V58.6554C97.2853 58.7404 97.2428 58.7829 97.1579 58.7829H96.4063C96.3384 58.7829 96.2917 58.7489 96.2662 58.6809L93.7822 52.0865C93.7738 52.061 93.761 52.0525 93.744 52.061C93.7271 52.061 93.7186 52.0738 93.7186 52.0993L93.7313 58.6554C93.7313 58.7404 93.6888 58.7829 93.6039 58.7829H92.9543C92.8693 58.7829 92.8269 58.7404 92.8269 58.6554V49.9819C92.8269 49.8969 92.8693 49.8544 92.9543 49.8544H93.6931C93.761 49.8544 93.8077 49.8884 93.8332 49.9564L96.3299 56.5636C96.3384 56.5891 96.3511 56.6018 96.3681 56.6018C96.3851 56.5933 96.3936 56.5763 96.3936 56.5508V49.9819Z" fill="#001D30"/>
<path d="M102.472 58.7829C102.395 58.7829 102.349 58.7447 102.332 58.6681L102.013 57.0865C102.013 57.0695 102.005 57.0568 101.988 57.0483C101.979 57.0398 101.967 57.0355 101.95 57.0355H99.644C99.627 57.0355 99.61 57.0398 99.593 57.0483C99.5845 57.0568 99.5803 57.0695 99.5803 57.0865L99.2618 58.6681C99.2533 58.7447 99.2066 58.7829 99.1217 58.7829H98.472C98.4296 58.7829 98.3956 58.7702 98.3701 58.7447C98.3531 58.7192 98.3489 58.6852 98.3574 58.6426L100.268 49.9692C100.285 49.8927 100.332 49.8544 100.408 49.8544H101.173C101.257 49.8544 101.304 49.8927 101.313 49.9692L103.249 58.6426V58.6681C103.249 58.7447 103.211 58.7829 103.134 58.7829H102.472ZM99.7459 56.2447C99.7459 56.2787 99.7586 56.2957 99.7841 56.2957H101.797C101.822 56.2957 101.835 56.2787 101.835 56.2447L100.816 51.2319C100.807 51.2064 100.799 51.1937 100.79 51.1937C100.782 51.1937 100.773 51.2064 100.765 51.2319L99.7459 56.2447Z" fill="#001D30"/>
<path d="M104.461 58.7829C104.376 58.7829 104.334 58.7404 104.334 58.6554V49.9819C104.334 49.8969 104.376 49.8544 104.461 49.8544H105.111C105.196 49.8544 105.238 49.8969 105.238 49.9819V57.9411C105.238 57.9751 105.255 57.9921 105.289 57.9921H108.206C108.291 57.9921 108.333 58.0346 108.333 58.1197V58.6554C108.333 58.7404 108.291 58.7829 108.206 58.7829H104.461Z" fill="#001D30"/>
<path d="M49.6357 79.4243C49.5593 79.4243 49.5126 79.386 49.4956 79.3095L47.6486 70.6361V70.6105C47.6486 70.534 47.6868 70.4958 47.7632 70.4958H48.4766C48.5615 70.4958 48.6082 70.534 48.6167 70.6105L49.9924 77.7406C50.0009 77.7576 50.0094 77.7661 50.0179 77.7661C50.0264 77.7661 50.0349 77.7576 50.0434 77.7406L51.4064 70.6105C51.4233 70.534 51.4701 70.4958 51.5465 70.4958H52.2344C52.3278 70.4958 52.366 70.5425 52.349 70.6361L50.5019 79.3095C50.4935 79.386 50.4467 79.4243 50.3618 79.4243H49.6357Z" fill="#001D30"/>
<path d="M53.8451 79.4243C53.7602 79.4243 53.7178 79.3818 53.7178 79.2968V70.6233C53.7178 70.5383 53.7602 70.4958 53.8451 70.4958H54.4948C54.5797 70.4958 54.6222 70.5383 54.6222 70.6233V79.2968C54.6222 79.3818 54.5797 79.4243 54.4948 79.4243H53.8451Z" fill="#001D30"/>
<path d="M60.0212 70.6233C60.0212 70.5383 60.0637 70.4958 60.1486 70.4958H60.7855C60.8705 70.4958 60.9129 70.5383 60.9129 70.6233V79.2968C60.9129 79.3818 60.8705 79.4243 60.7855 79.4243H60.034C59.966 79.4243 59.9193 79.3903 59.8939 79.3223L57.4099 72.7279C57.4014 72.7024 57.3887 72.6939 57.3717 72.7024C57.3547 72.7024 57.3462 72.7151 57.3462 72.7406L57.3589 79.2968C57.3589 79.3818 57.3165 79.4243 57.2315 79.4243H56.5819C56.497 79.4243 56.4545 79.3818 56.4545 79.2968V70.6233C56.4545 70.5383 56.497 70.4958 56.5819 70.4958H57.3207C57.3887 70.4958 57.4354 70.5298 57.4608 70.5978L59.9576 77.2049C59.966 77.2304 59.9788 77.2432 59.9958 77.2432C60.0127 77.2347 60.0212 77.2177 60.0212 77.1922V70.6233Z" fill="#001D30"/>
<path d="M66.6472 70.4958C66.7322 70.4958 66.7746 70.5383 66.7746 70.6233V71.159C66.7746 71.244 66.7322 71.2866 66.6472 71.2866H64.9658C64.9318 71.2866 64.9148 71.3036 64.9148 71.3376V79.2968C64.9148 79.3818 64.8724 79.4243 64.7875 79.4243H64.1378C64.0529 79.4243 64.0104 79.3818 64.0104 79.2968V71.3376C64.0104 71.3036 63.9934 71.2866 63.9595 71.2866H62.3799C62.295 71.2866 62.2525 71.244 62.2525 71.159V70.6233C62.2525 70.5383 62.295 70.4958 62.3799 70.4958H66.6472Z" fill="#001D30"/>
<path d="M71.0505 79.4243C70.9741 79.4243 70.9274 79.386 70.9104 79.3095L70.5919 77.7279C70.5919 77.7109 70.5835 77.6981 70.5665 77.6896C70.558 77.6811 70.5452 77.6769 70.5283 77.6769H68.2226C68.2056 77.6769 68.1887 77.6811 68.1717 77.6896C68.1632 77.6981 68.1589 77.7109 68.1589 77.7279L67.8405 79.3095C67.832 79.386 67.7853 79.4243 67.7003 79.4243H67.0507C67.0082 79.4243 66.9743 79.4116 66.9488 79.386C66.9318 79.3605 66.9276 79.3265 66.9361 79.284L68.8468 70.6105C68.8638 70.534 68.9105 70.4958 68.9869 70.4958H69.7512C69.8361 70.4958 69.8828 70.534 69.8913 70.6105L71.8276 79.284V79.3095C71.8276 79.386 71.7893 79.4243 71.7129 79.4243H71.0505ZM68.3245 76.886C68.3245 76.9201 68.3373 76.9371 68.3627 76.9371H70.3754C70.4009 76.9371 70.4136 76.9201 70.4136 76.886L69.3945 71.8733C69.3861 71.8478 69.3776 71.835 69.3691 71.835C69.3606 71.835 69.3521 71.8478 69.3436 71.8733L68.3245 76.886Z" fill="#001D30"/>
<path d="M74.7244 79.5263C74.0705 79.5263 73.5483 79.335 73.1576 78.9524C72.767 78.5612 72.5717 78.0425 72.5717 77.3962V72.5238C72.5717 71.8776 72.767 71.3631 73.1576 70.9804C73.5483 70.5893 74.0705 70.3937 74.7244 70.3937C75.3783 70.3937 75.9006 70.5893 76.2912 70.9804C76.6904 71.3716 76.8899 71.8903 76.8899 72.5366V73.085C76.8899 73.1701 76.8475 73.2126 76.7626 73.2126H76.1129C76.028 73.2126 75.9855 73.1701 75.9855 73.085V72.5111C75.9855 72.1114 75.8709 71.7925 75.6416 71.5544C75.4123 71.3078 75.1066 71.1845 74.7244 71.1845C74.3508 71.1845 74.0451 71.3078 73.8073 71.5544C73.578 71.801 73.4633 72.1199 73.4633 72.5111V77.409C73.4633 77.8002 73.578 78.119 73.8073 78.3656C74.0451 78.6122 74.3508 78.7355 74.7244 78.7355C75.1066 78.7355 75.4123 78.6165 75.6416 78.3784C75.8709 78.1318 75.9855 77.8087 75.9855 77.409V75.7764C75.9855 75.7423 75.9685 75.7253 75.9346 75.7253H74.8391C74.7542 75.7253 74.7117 75.6828 74.7117 75.5978V75.0621C74.7117 74.977 74.7542 74.9345 74.8391 74.9345H76.7626C76.8475 74.9345 76.8899 74.977 76.8899 75.0621V77.3962C76.8899 78.0425 76.6904 78.5612 76.2912 78.9524C75.9006 79.335 75.3783 79.5263 74.7244 79.5263Z" fill="#001D30"/>
<path d="M82.5607 71.159C82.5607 71.244 82.5182 71.2866 82.4333 71.2866H79.478C79.444 71.2866 79.4271 71.3036 79.4271 71.3376V74.5008C79.4271 74.5349 79.444 74.5519 79.478 74.5519H81.3378C81.4227 74.5519 81.4652 74.5944 81.4652 74.6794V75.2279C81.4652 75.3129 81.4227 75.3554 81.3378 75.3554H79.478C79.444 75.3554 79.4271 75.3724 79.4271 75.4065V78.5825C79.4271 78.6165 79.444 78.6335 79.478 78.6335H82.4333C82.5182 78.6335 82.5607 78.676 82.5607 78.761V79.2968C82.5607 79.3818 82.5182 79.4243 82.4333 79.4243H78.65C78.5651 79.4243 78.5226 79.3818 78.5226 79.2968V70.6233C78.5226 70.5383 78.5651 70.4958 78.65 70.4958H82.4333C82.5182 70.4958 82.5607 70.5383 82.5607 70.6233V71.159Z" fill="#001D30"/>
<path d="M86.6612 79.4243C86.5763 79.4243 86.5338 79.3818 86.5338 79.2968V70.6233C86.5338 70.5383 86.5763 70.4958 86.6612 70.4958H88.6229C89.2768 70.4958 89.7991 70.7126 90.1897 71.1463C90.5804 71.5714 90.7757 72.1454 90.7757 72.8682V77.0519C90.7757 77.7747 90.5804 78.3529 90.1897 78.7866C89.7991 79.2117 89.2768 79.4243 88.6229 79.4243H86.6612ZM87.4383 78.5825C87.4383 78.6165 87.4552 78.6335 87.4892 78.6335L88.6102 78.6207C88.9838 78.6207 89.2811 78.4762 89.5019 78.1871C89.7311 77.8979 89.85 77.5068 89.8585 77.0136V72.9065C89.8585 72.4048 89.7481 72.0094 89.5273 71.7202C89.3065 71.4311 89.0008 71.2866 88.6102 71.2866H87.4892C87.4552 71.2866 87.4383 71.3036 87.4383 71.3376V78.5825Z" fill="#001D30"/>
<path d="M96.4061 71.159C96.4061 71.244 96.3637 71.2866 96.2787 71.2866H93.3234C93.2895 71.2866 93.2725 71.3036 93.2725 71.3376V74.5008C93.2725 74.5349 93.2895 74.5519 93.3234 74.5519H95.1832C95.2682 74.5519 95.3106 74.5944 95.3106 74.6794V75.2279C95.3106 75.3129 95.2682 75.3554 95.1832 75.3554H93.3234C93.2895 75.3554 93.2725 75.3724 93.2725 75.4065V78.5825C93.2725 78.6165 93.2895 78.6335 93.3234 78.6335H96.2787C96.3637 78.6335 96.4061 78.676 96.4061 78.761V79.2968C96.4061 79.3818 96.3637 79.4243 96.2787 79.4243H92.4955C92.4105 79.4243 92.3681 79.3818 92.3681 79.2968V70.6233C92.3681 70.5383 92.4105 70.4958 92.4955 70.4958H96.2787C96.3637 70.4958 96.4061 70.5383 96.4061 70.6233V71.159Z" fill="#001D30"/>
<path d="M99.5615 79.5263C98.9331 79.5263 98.4236 79.318 98.0329 78.9013C97.6423 78.4847 97.447 77.9405 97.447 77.2687V76.9753C97.447 76.8903 97.4894 76.8478 97.5744 76.8478H98.1985C98.2835 76.8478 98.3259 76.8903 98.3259 76.9753V77.2304C98.3259 77.6811 98.4406 78.0468 98.6698 78.3274C98.8991 78.5995 99.1964 78.7355 99.5615 78.7355C99.9182 78.7355 100.215 78.6037 100.453 78.3401C100.691 78.0765 100.81 77.7279 100.81 77.2942C100.81 77.0051 100.75 76.7585 100.632 76.5544C100.521 76.3418 100.373 76.159 100.186 76.0059C100.007 75.8444 99.7059 75.602 99.2813 75.2789C98.8567 74.9643 98.5212 74.6964 98.275 74.4753C98.0287 74.2457 97.8249 73.9736 97.6635 73.659C97.5107 73.3444 97.4342 72.9745 97.4342 72.5493C97.4342 71.8861 97.6253 71.3631 98.0075 70.9804C98.3896 70.5893 98.8864 70.3937 99.4978 70.3937C100.143 70.3937 100.657 70.6063 101.039 71.0315C101.43 71.4481 101.625 72.0051 101.625 72.7024V73.0213C101.625 73.1063 101.583 73.1488 101.498 73.1488H100.861C100.776 73.1488 100.733 73.1063 100.733 73.0213V72.6896C100.733 72.2389 100.619 71.8775 100.39 71.6054C100.169 71.3248 99.8715 71.1845 99.4978 71.1845C99.1582 71.1845 98.8779 71.3078 98.6571 71.5544C98.4363 71.7925 98.3259 72.1327 98.3259 72.5748C98.3259 72.8384 98.3726 73.0723 98.466 73.2764C98.5679 73.4719 98.7166 73.659 98.9119 73.8376C99.1072 74.0162 99.3959 74.25 99.7781 74.5391C100.288 74.9133 100.666 75.2194 100.912 75.4575C101.167 75.6871 101.362 75.9422 101.498 76.2228C101.634 76.4949 101.702 76.8265 101.702 77.2177C101.702 77.915 101.502 78.4762 101.103 78.9013C100.704 79.318 100.19 79.5263 99.5615 79.5263Z" fill="#001D30"/>
<path d="M103.256 79.4243C103.171 79.4243 103.128 79.3818 103.128 79.2968V70.6233C103.128 70.5383 103.171 70.4958 103.256 70.4958H103.905C103.99 70.4958 104.033 70.5383 104.033 70.6233V79.2968C104.033 79.3818 103.99 79.4243 103.905 79.4243H103.256Z" fill="#001D30"/>
<path d="M107.814 79.5263C107.16 79.5263 106.638 79.335 106.247 78.9524C105.857 78.5612 105.661 78.0425 105.661 77.3962V72.5238C105.661 71.8776 105.857 71.3631 106.247 70.9804C106.638 70.5893 107.16 70.3937 107.814 70.3937C108.468 70.3937 108.99 70.5893 109.381 70.9804C109.78 71.3716 109.98 71.8903 109.98 72.5366V73.085C109.98 73.1701 109.937 73.2126 109.852 73.2126H109.203C109.118 73.2126 109.075 73.1701 109.075 73.085V72.5111C109.075 72.1114 108.961 71.7925 108.731 71.5544C108.502 71.3078 108.196 71.1845 107.814 71.1845C107.441 71.1845 107.135 71.3078 106.897 71.5544C106.668 71.801 106.553 72.1199 106.553 72.5111V77.409C106.553 77.8002 106.668 78.119 106.897 78.3656C107.135 78.6122 107.441 78.7355 107.814 78.7355C108.196 78.7355 108.502 78.6165 108.731 78.3784C108.961 78.1318 109.075 77.8087 109.075 77.409V75.7764C109.075 75.7423 109.058 75.7253 109.024 75.7253H107.929C107.844 75.7253 107.801 75.6828 107.801 75.5978V75.0621C107.801 74.977 107.844 74.9345 107.929 74.9345H109.852C109.937 74.9345 109.98 74.977 109.98 75.0621V77.3962C109.98 78.0425 109.78 78.5612 109.381 78.9524C108.99 79.335 108.468 79.5263 107.814 79.5263Z" fill="#001D30"/>
<path d="M115.179 70.6233C115.179 70.5383 115.222 70.4958 115.306 70.4958H115.943C116.028 70.4958 116.071 70.5383 116.071 70.6233V79.2968C116.071 79.3818 116.028 79.4243 115.943 79.4243H115.192C115.124 79.4243 115.077 79.3903 115.052 79.3223L112.568 72.7279C112.559 72.7024 112.547 72.6939 112.53 72.7024C112.513 72.7024 112.504 72.7151 112.504 72.7406L112.517 79.2968C112.517 79.3818 112.474 79.4243 112.389 79.4243H111.74C111.655 79.4243 111.612 79.3818 111.612 79.2968V70.6233C111.612 70.5383 111.655 70.4958 111.74 70.4958H112.479C112.547 70.4958 112.593 70.5298 112.619 70.5978L115.115 77.2049C115.124 77.2304 115.137 77.2432 115.154 77.2432C115.171 77.2347 115.179 77.2177 115.179 77.1922V70.6233Z" fill="#001D30"/>
<path d="M55.8829 8.78709C56.2037 8.68508 56.5006 8.72143 56.7737 8.89613C57.0453 9.06643 57.2419 9.34295 57.3633 9.72572C57.4833 10.1041 57.4836 10.4406 57.3643 10.7352C57.2435 11.0255 57.0249 11.2209 56.7086 11.3215L56.0298 11.5374C56.0122 11.543 56.0062 11.5546 56.0118 11.5722L56.6439 13.5652C56.6579 13.6092 56.6429 13.6382 56.5989 13.6522L56.2628 13.7591C56.2189 13.773 56.1899 13.758 56.176 13.714L54.7505 9.21988C54.7365 9.17588 54.7515 9.1469 54.7955 9.13292L55.8829 8.78709ZM56.5081 10.9639C56.7058 10.9011 56.8411 10.7709 56.9139 10.5734C56.9867 10.3758 56.9812 10.1451 56.8975 9.88113C56.8137 9.61716 56.6852 9.42554 56.512 9.30628C56.3373 9.18262 56.1511 9.15223 55.9534 9.21511L55.3536 9.40584C55.3361 9.41143 55.3301 9.42303 55.3357 9.44062L55.8736 11.1367C55.8792 11.1543 55.8908 11.1603 55.9083 11.1547L56.5081 10.9639Z" fill="#85887C"/>
<path d="M60.1398 12.6914C59.799 12.7838 59.4929 12.7408 59.2214 12.5623C58.9498 12.3838 58.7619 12.1018 58.6576 11.7163L57.7497 8.35946C57.7377 8.31514 57.7538 8.28698 57.7981 8.27498L58.1367 8.18317C58.1809 8.17116 58.209 8.18732 58.221 8.23164L59.1434 11.6417C59.2093 11.8854 59.3224 12.0664 59.4826 12.1847C59.6473 12.3017 59.8292 12.3332 60.0284 12.2792C60.2319 12.224 60.3753 12.1043 60.4585 11.92C60.5416 11.7357 60.5503 11.5217 60.4843 11.278L59.562 7.86798C59.55 7.82366 59.5661 7.79551 59.6104 7.7835L59.949 7.69169C59.9932 7.67969 60.0213 7.69584 60.0333 7.74016L60.9413 11.097C61.0456 11.4825 61.0232 11.8215 60.8743 12.114C60.7299 12.4053 60.485 12.5977 60.1398 12.6914Z" fill="#85887C"/>
<path d="M63.0991 6.88106C63.1441 6.87078 63.1717 6.88815 63.1819 6.93315L63.2466 7.21667C63.2568 7.26168 63.2395 7.28932 63.1945 7.29959L62.3046 7.50302C62.2867 7.50713 62.2797 7.51818 62.2838 7.53618L63.2442 11.7485C63.2545 11.7935 63.2371 11.8211 63.1922 11.8314L62.8484 11.91C62.8034 11.9203 62.7758 11.9029 62.7656 11.8579L61.8052 7.6456C61.8011 7.6276 61.79 7.62066 61.772 7.62476L60.9361 7.81586C60.8911 7.82614 60.8635 7.80877 60.8533 7.76377L60.7886 7.48025C60.7784 7.43524 60.7957 7.40761 60.8407 7.39733L63.0991 6.88106Z" fill="#85887C"/>
<path d="M66.9714 11.04C66.9257 11.0479 66.899 11.0289 66.8912 10.9832L66.5397 8.93362C66.5365 8.91534 66.5323 8.90431 66.5269 8.90052L65.1369 6.50725L65.1253 6.481C65.1191 6.44445 65.1365 6.42263 65.1775 6.41557L65.5472 6.35201C65.5883 6.34494 65.6188 6.35852 65.6388 6.39272L66.6541 8.28586C66.6602 8.29422 66.6679 8.29761 66.677 8.29604C66.6861 8.29447 66.6922 8.28872 66.6952 8.2788L67.0217 6.15494C67.0291 6.11603 67.0533 6.09304 67.0944 6.08598L67.4641 6.02242C67.4869 6.01849 67.5044 6.02489 67.5167 6.0416C67.5327 6.05295 67.5382 6.07084 67.533 6.09526L67.0267 8.81459C67.0229 8.81995 67.0226 8.83176 67.0257 8.85004L67.3772 10.8997C67.3851 10.9454 67.3662 10.9721 67.3205 10.98L66.9714 11.04Z" fill="#85887C"/>
<path d="M69.9862 10.692C69.6348 10.7382 69.3351 10.666 69.0873 10.4755C68.844 10.2843 68.6987 10.0082 68.6514 9.64718L68.3223 7.13827C68.275 6.77725 68.3442 6.47295 68.5299 6.22539C68.7202 5.97723 68.9911 5.83004 69.3425 5.78383C69.6985 5.73703 70.0004 5.8089 70.2483 5.99945C70.4961 6.19001 70.6437 6.4658 70.691 6.82682L71.0201 9.33573C71.0668 9.69219 70.9953 9.99678 70.8056 10.2495C70.6153 10.4977 70.3422 10.6452 69.9862 10.692ZM69.9305 10.267C70.1404 10.2394 70.3003 10.1486 70.4101 9.99471C70.5239 9.83563 70.5664 9.64642 70.5376 9.42706L70.2023 6.87017C70.1729 6.64624 70.0831 6.47443 69.9327 6.35473C69.7864 6.22987 69.6082 6.18124 69.3983 6.20884C69.1929 6.23584 69.0356 6.32858 68.9264 6.48705C68.8166 6.64095 68.7763 6.82987 68.8057 7.0538L69.141 9.61069C69.1698 9.83005 69.2574 10.0022 69.4037 10.127C69.5495 10.2473 69.7251 10.294 69.9305 10.267Z" fill="#85887C"/>
<path d="M73.082 10.3517C72.7283 10.3823 72.4331 10.285 72.1962 10.0599C71.9593 9.83479 71.8237 9.52218 71.7892 9.12207L71.4891 5.63829C71.4851 5.5923 71.5061 5.56732 71.552 5.56335L71.9034 5.533C71.9493 5.52904 71.9743 5.55005 71.9782 5.59604L72.2831 9.135C72.3049 9.38795 72.3845 9.58725 72.522 9.73291C72.6641 9.87817 72.8385 9.94187 73.0452 9.92402C73.2564 9.90578 73.4196 9.81291 73.5348 9.64544C73.6499 9.47796 73.6966 9.26775 73.6748 9.0148L73.3699 5.47584C73.366 5.42985 73.3869 5.40487 73.4329 5.4009L73.7842 5.37056C73.8302 5.36659 73.8551 5.3876 73.8591 5.43359L74.1592 8.91737C74.1936 9.31748 74.1112 9.64894 73.9117 9.91173C73.7168 10.1741 73.4402 10.3208 73.082 10.3517Z" fill="#85887C"/>
<path d="M77.0665 10.0576C77.025 10.0592 76.9966 10.0419 76.9813 10.0055L76.1905 7.89418C76.1854 7.88051 76.1759 7.87396 76.162 7.87451L75.5604 7.89861C75.542 7.89935 75.5331 7.90895 75.5339 7.92741L75.6185 10.0462C75.6204 10.0924 75.5982 10.1164 75.5521 10.1182L75.1995 10.1324C75.1534 10.1342 75.1294 10.112 75.1275 10.0659L74.9394 5.35743C74.9376 5.31127 74.9597 5.28727 75.0058 5.28542L76.1468 5.23972C76.4834 5.22624 76.7603 5.33999 76.9777 5.58095C77.195 5.81729 77.3115 6.13396 77.3274 6.53095C77.3393 6.83099 77.2851 7.09208 77.1647 7.31421C77.0443 7.53634 76.8752 7.69568 76.6574 7.79225C76.6392 7.79761 76.6327 7.80943 76.6381 7.82771L77.4784 9.96479L77.4864 9.9922C77.4877 10.0245 77.4676 10.0415 77.4261 10.0432L77.0665 10.0576ZM75.4725 5.69672C75.454 5.69746 75.4452 5.70706 75.4459 5.72552L75.5159 7.47734C75.5166 7.49581 75.5262 7.50467 75.5447 7.50393L76.167 7.479C76.3791 7.47051 76.5464 7.3829 76.669 7.21616C76.7915 7.04481 76.8473 6.82296 76.8364 6.55061C76.8255 6.27826 76.7522 6.06158 76.6165 5.90057C76.4808 5.73956 76.3069 5.6633 76.0948 5.67179L75.4725 5.69672Z" fill="#85887C"/>
<path d="M81.6098 5.19258C81.6559 5.19313 81.6787 5.21649 81.6781 5.26265L81.6746 5.55344C81.6741 5.5996 81.6508 5.6224 81.6047 5.62184L80.6919 5.61084C80.6735 5.61062 80.6642 5.61974 80.664 5.6382L80.612 9.95858C80.6114 10.0047 80.5881 10.0275 80.542 10.027L80.1894 10.0227C80.1433 10.0222 80.1205 9.99881 80.1211 9.95265L80.173 5.63228C80.1732 5.61382 80.1641 5.60447 80.1457 5.60425L79.2883 5.59391C79.2422 5.59335 79.2194 5.57 79.22 5.52384L79.2235 5.23305C79.224 5.18689 79.2474 5.16409 79.2934 5.16464L81.6098 5.19258Z" fill="#85887C"/>
<path d="M84.6842 5.67952C84.6819 5.72568 84.6577 5.7476 84.6116 5.74529L83.0073 5.66497C82.9889 5.66405 82.9792 5.67282 82.9782 5.69129L82.8925 7.40848C82.8916 7.42695 82.9003 7.43664 82.9188 7.43756L83.9284 7.48811C83.9745 7.49042 83.9964 7.51465 83.9941 7.56082L83.9792 7.85855C83.9769 7.90472 83.9527 7.92664 83.9066 7.92434L82.897 7.87379C82.8786 7.87287 82.8689 7.88164 82.868 7.9001L82.7819 9.62422C82.7809 9.64269 82.7897 9.65238 82.8081 9.6533L84.4124 9.73362C84.4585 9.73593 84.4804 9.76017 84.4781 9.80633L84.4636 10.0971C84.4613 10.1433 84.4371 10.1652 84.391 10.1629L82.3372 10.0601C82.2911 10.0578 82.2692 10.0336 82.2715 9.9874L82.5066 5.27895C82.5089 5.23279 82.5331 5.21086 82.5792 5.21317L84.633 5.316C84.6791 5.3183 84.701 5.34254 84.6987 5.3887L84.6842 5.67952Z" fill="#85887C"/>
<path d="M84.9546 10.1833C84.9316 10.1812 84.9137 10.1726 84.9012 10.1575C84.8936 10.1382 84.8955 10.1174 84.9068 10.0952L86.0834 7.86284C86.0938 7.84983 86.0951 7.83598 86.0871 7.8213L85.3275 5.41445L85.323 5.38613C85.3264 5.3492 85.3488 5.33261 85.3903 5.33635L85.7568 5.36938C85.7936 5.3727 85.8173 5.39345 85.8278 5.43162L86.3815 7.33827C86.3848 7.35253 86.3911 7.36008 86.4003 7.36091C86.4096 7.36174 86.4171 7.35544 86.423 7.34201L87.3077 5.56498C87.3248 5.5293 87.3518 5.51312 87.3887 5.51645L87.7552 5.54947C87.7783 5.55155 87.7936 5.56224 87.8011 5.58153C87.8137 5.59663 87.8144 5.6153 87.8031 5.63755L86.6189 7.87621C86.6131 7.88964 86.6118 7.90349 86.6152 7.91775L87.3824 10.3183L87.3868 10.3466C87.3835 10.3835 87.3611 10.4001 87.3196 10.3964L86.9531 10.3634C86.9162 10.36 86.8925 10.3393 86.882 10.3011L86.3277 8.40141C86.3244 8.38714 86.3181 8.37959 86.3089 8.37876C86.2996 8.37793 86.2921 8.38423 86.2862 8.39767L85.4021 10.1678C85.385 10.2034 85.358 10.2196 85.3211 10.2163L84.9546 10.1833Z" fill="#85887C"/>
<path d="M90.7572 5.99424C90.8029 6.00024 90.8227 6.02609 90.8167 6.07179L90.7789 6.3597C90.7729 6.4054 90.7471 6.42525 90.7015 6.41924L89.7978 6.30043C89.7796 6.29803 89.7692 6.30597 89.7668 6.32424L89.2059 10.6017C89.1999 10.6474 89.1741 10.6673 89.1284 10.6613L88.7793 10.6154C88.7337 10.6094 88.7138 10.5835 88.7198 10.5378L89.2808 6.26034C89.2832 6.24206 89.2753 6.23171 89.257 6.22931L88.4081 6.1177C88.3625 6.1117 88.3426 6.08585 88.3486 6.04015L88.3864 5.75224C88.3924 5.70654 88.4182 5.68669 88.4638 5.69269L90.7572 5.99424Z" fill="#85887C"/>
<path d="M94.7921 6.76506C94.8009 6.71982 94.8279 6.70159 94.873 6.71036L95.2186 6.77745C95.2638 6.78622 95.282 6.81323 95.2733 6.85846L94.3798 11.4727C94.3711 11.518 94.3441 11.5362 94.2989 11.5274L93.9533 11.4603C93.9081 11.4516 93.8899 11.4246 93.8987 11.3793L94.2994 9.30969C94.3029 9.2916 94.2956 9.2808 94.2776 9.27729L93.0713 9.04311C93.0532 9.03961 93.0424 9.0469 93.0389 9.06499L92.6382 11.1346C92.6295 11.1799 92.6025 11.1981 92.5573 11.1893L92.2117 11.1222C92.1665 11.1135 92.1483 11.0865 92.1571 11.0412L93.0505 6.42695C93.0592 6.38171 93.0862 6.36348 93.1314 6.37225L93.477 6.43934C93.5222 6.44811 93.5404 6.47512 93.5316 6.52036L93.1322 8.58321C93.1287 8.6013 93.136 8.61211 93.1541 8.61561L94.3603 8.84979C94.3784 8.8533 94.3892 8.846 94.3927 8.82791L94.7921 6.76506Z" fill="#85887C"/>
<path d="M98.3544 7.81847C98.344 7.86344 98.3163 7.88072 98.2714 7.8703L96.7085 7.50785C96.6905 7.50368 96.6795 7.51059 96.6753 7.52858L96.2884 9.20149C96.2842 9.21948 96.2911 9.23056 96.3091 9.23472L97.2926 9.46282C97.3375 9.47324 97.3548 9.50093 97.3444 9.5459L97.2773 9.83596C97.2669 9.88093 97.2393 9.89821 97.1943 9.8878L96.2108 9.6597C96.1928 9.65553 96.1817 9.66245 96.1776 9.68043L95.7891 11.3601C95.7849 11.3781 95.7918 11.3892 95.8098 11.3933L97.3727 11.7558C97.4176 11.7662 97.4349 11.7939 97.4245 11.8389L97.3589 12.1222C97.3485 12.1671 97.3209 12.1844 97.276 12.174L95.2752 11.71C95.2302 11.6996 95.213 11.6719 95.2234 11.6269L96.2844 7.0399C96.2948 6.99493 96.3224 6.97765 96.3673 6.98807L98.3682 7.45207C98.4131 7.46249 98.4303 7.49018 98.4199 7.53515L98.3544 7.81847Z" fill="#85887C"/>
<path d="M99.8448 12.8968C99.805 12.886 99.7833 12.8611 99.7796 12.822L99.658 10.5844C99.6572 10.5699 99.6501 10.5609 99.6368 10.5573L99.0593 10.4007C99.0416 10.3959 99.0303 10.4023 99.0256 10.42L98.4754 12.4541C98.4634 12.4984 98.4353 12.5146 98.391 12.5026L98.0525 12.4107C98.0082 12.3987 97.9921 12.3706 98.0041 12.3263L99.2266 7.80617C99.2386 7.76185 99.2667 7.7457 99.311 7.7577L100.406 8.05474C100.729 8.14236 100.958 8.33282 101.093 8.62613C101.228 8.915 101.245 9.25 101.141 9.6311C101.064 9.91915 100.934 10.1505 100.754 10.3252C100.574 10.4999 100.366 10.6005 100.131 10.6271C100.112 10.6267 100.102 10.636 100.102 10.6549L100.263 12.9317L100.262 12.9601C100.254 12.9911 100.23 13.0012 100.19 12.9904L99.8448 12.8968ZM99.631 8.28684C99.6133 8.28204 99.6021 8.28851 99.5973 8.30623L99.1424 9.98798C99.1376 10.0057 99.1441 10.017 99.1618 10.0218L99.7592 10.1838C99.9628 10.239 100.148 10.2059 100.313 10.0844C100.48 9.95843 100.599 9.76474 100.67 9.50328C100.741 9.24183 100.736 9.01453 100.655 8.82139C100.574 8.62825 100.432 8.50408 100.229 8.44887L99.631 8.28684Z" fill="#85887C"/>
<path d="M104.302 9.55307C104.288 9.59706 104.259 9.61207 104.216 9.5981L102.687 9.11184C102.669 9.10625 102.657 9.11225 102.652 9.12985L102.133 10.7665C102.127 10.7841 102.133 10.7957 102.151 10.8013L103.113 11.1073C103.157 11.1213 103.172 11.1502 103.158 11.1942L103.068 11.478C103.054 11.522 103.025 11.537 102.981 11.523L102.019 11.217C102.001 11.2114 101.99 11.2174 101.984 11.235L101.463 12.8783C101.457 12.8959 101.463 12.9075 101.481 12.9131L103.01 13.3993C103.054 13.4133 103.069 13.4423 103.055 13.4863L102.967 13.7634C102.953 13.8074 102.924 13.8224 102.88 13.8085L100.923 13.186C100.879 13.172 100.864 13.143 100.878 13.099L102.301 8.61147C102.315 8.56748 102.344 8.55247 102.388 8.56644L104.345 9.18894C104.389 9.20292 104.404 9.2319 104.39 9.2759L104.302 9.55307Z" fill="#85887C"/>
</svg>
