<svg xmlns="http://www.w3.org/2000/svg" fill="currentColor" viewBox="0 0 218 11"><path fill="#302722" d="M169.26 5.17294s-1.068 1.11479-3.773 1.14084c-2.123.02605-3.929-1.30753-7.079-1.56279-2.11-.20684-4.257.03541-6.187.69806v-.07294c-.035-1.75032-1.416-2.66195-3.093-2.84427-3.122-.33861-3.377 1.63051-3.377 1.63051.26-.06851.538-.09378.814-.07397.275.01981.541.08422.779.18858.294.13681.531.33216.681.56352.15.23136.209.48929.168.744-.094.33552-.306.64692-.616.90293-.309.25602-.705.44766-1.146.55569-1.027.32513-2.147.45634-3.26.38174-1.112-.0746-2.182-.35266-3.112-.80891 0 0 3.858-.84911 1.579-3.46419 0 0-1.225 1.56279-5.663.07814-4.439-1.48465-8.757-3.5267-14.342-3.1933047 0 0 5.981.7814017 8.983 4.0267947 0 0-9.522-5.9334-17.846-2.688-1.775.68116-3.146 1.81996-3.852 3.1985-.705-1.37854-2.076-2.51734-3.85-3.1985-8.3255-3.2454-17.8468 2.688-17.8468 2.688C90.2227.817977 96.2045.0365753 96.2045.0365753 90.6191-.29682 86.3363 1.71918 81.8623 3.22988c-4.474 1.5107-5.6633-.07814-5.6633-.07814-2.2865 2.60466 1.5787 3.46419 1.5787 3.46419-.9295.45625-1.9992.73431-3.1119.80891-1.1127.0746-2.2331-.05661-3.2593-.38174-.4418-.10803-.8372-.29967-1.1466-.55569-.3094-.25601-.5219-.56741-.6161-.90293-.0438-.25495.0129-.51382.1636-.74567.1506-.23186.3887-.4269.6859-.56185.2374-.1047.5035-.1693.7789-.18912.2755-.01982.5534.00563.8139.07451 0 0-.2548-1.96912-3.3767-1.63051-1.6565.18232-3.0652 1.09395-3.1006 2.84427v.06251c-1.9319-.66308-4.0813-.90531-6.1942-.69804-3.1148.25004-4.9554 1.56279-7.0437 1.56279-2.7042-.02605-3.7731-1.14084-3.7731-1.14084-1.3097 1.13563-.5593 2.95889 2.1237 3.72986.7237.21083 1.5.30593 2.2775.27899.7775-.02695 1.5383-.17532 2.2318-.43526-.1052.17745-.1595.36898-.1595.5626 0 .19362.0543.38514.1595.56259.1394.21569.3461.40409.6032.54979.2571.1458.5574.2448.8764.2889.0769-.6738.3944-1.32076.9203-1.87533.478-.51978 1.1243-.94383 1.8807-1.23394.7563-.2901 1.5988-.43713 2.4516-.42783 1.5362.05209 4.3891 1.0054 6.5553 1.85972 2.2074.85822 4.7129 1.21158 7.1952 1.01478 2.4822-.19672 4.8279-.93467 6.7364-2.11915-.2336 1.92745 2.9165 2.05247 2.9165 2.05247.4673-2.01079 3.1927-2.92243 3.1927-2.92243-.9344 3.12561 3.5749 3.51631 3.5749 3.51631-.8565-4.01119 4.5519-4.6884 4.5519-4.6884-1.0123 1.41693-.9769 3.70382 1.6919 4.3341 2.7822.646 4.8062-1.34917 3.7942-2.83382-.233-.331-.6-.60079-1.05-.77239-.45-.1716-.961-.23661-1.4629-.18612 1.0119-1.18251 4.2899-.69805 6.4139.81265 1.304.9081 2.304 2.02603 2.923 3.26628.615-1.24069 1.613-2.35898 2.917-3.26628 2.124-1.5107 5.408-1.99516 6.421-.81265-.519-.07047-1.055-.01575-1.528.15602-.474.17177-.859.4514-1.099.79728-1.012 1.48465 1.013 3.47983 3.795 2.83383 2.669-.63029 2.704-2.91717 1.685-4.3341 0 0 5.415.672 4.558 4.6884 0 0 4.51-.3647 3.575-3.5163 0 0 2.726.91162 3.193 2.92241 0 0 3.143-.12503 2.917-2.05247 1.908 1.1864 4.255 1.92594 6.738 2.12366 2.484.1977 4.991-.15543 7.2-1.01408 2.124-.85432 5.019-1.80763 6.556-1.85972.852-.00837 1.694.13907 2.45.42909.756.29002 1.403.71357 1.882 1.23268.526.55457.843 1.20153.92 1.87533.319-.0441.619-.1431.877-.2889.257-.1457.463-.3341.603-.54979.105-.17745.159-.36897.159-.56259 0-.19362-.054-.38515-.159-.5626.693.26027 1.454.40882 2.232.43577.777.02694 1.553-.06834 2.277-.2795 2.655-.76056 3.398-2.58382 2.095-3.71945Zm9.756 2.60457c0 .39769-.161.78646-.461 1.11713-.3.33068-.727.58841-1.226.74061-.5.15219-1.049.19201-1.579.11443-.53-.07759-1.017-.2691-1.399-.55031-.382-.28122-.642-.63952-.748-1.02957-.105-.39006-.051-.79436.156-1.16178.206-.36743.557-.68148 1.006-.90242.449-.22095.978-.33888 1.518-.33888.359 0 .714.05201 1.046.15307.331.10105.633.24915.886.43587.254.18672.455.4084.593.65236.137.24396.208.50543.208.76949Z" style="mix-blend-mode:darken"/><path fill="#302722" d="M178.456 7.77747s1.947-1.10437 7.193-1.10437c5.245 0 32.351 1.10437 32.351 1.10437s-27.113 1.10438-32.351 1.10438c-5.239 0-7.193-1.10438-7.193-1.10438Zm-139.4715.00004c-.0014.39895.1581.78925.4582 1.12146.3002.33222.7276.59142 1.2281.7448.5004.15339 1.0515.19405 1.5834.11685.5319-.0772 1.0207-.26878 1.4046-.55052.3838-.28173.6454-.64094.7517-1.03214.1063-.39121.0525-.79684-.1547-1.16551-.2071-.36868-.5583-.68384-1.0089-.90559-.4507-.22175-.9807-.34013-1.5228-.34013-.3594-.00068-.7155.05082-1.0479.15157-.3323.10074-.6344.24874-.8889.43553-.2545.18678-.4564.40869-.5941.65299-.1378.2443-.2087.50619-.2087.77069Z" style="mix-blend-mode:darken"/><path fill="#302722" d="M39.5508 7.77747s-1.9468 1.10438-7.1924 1.10438S0 7.77747 0 7.77747 27.1199 6.6731 32.3584 6.6731c5.2385 0 7.1924 1.10437 7.1924 1.10437Z" style="mix-blend-mode:darken"/></svg>